<svg xmlns="http://www.w3.org/2000/svg" xmlns:xlink="http://www.w3.org/1999/xlink" width="1932" height="1932" viewBox="0 0 1932 1932">
  <defs>
    <clipPath id="clip-path">
      <rect id="Rectangle_828" data-name="Rectangle 828" width="1932" height="1932" fill="none"/>
    </clipPath>
  </defs>
  <g id="BG_pattern" data-name="BG pattern" opacity="0.145">
    <g id="Group_1012" data-name="Group 1012" clip-path="url(#clip-path)">
      <g id="Group_1011" data-name="Group 1011">
        <g id="Group_1010" data-name="Group 1010" clip-path="url(#clip-path)">
          <g id="Group_1009" data-name="Group 1009" opacity="0.14">
            <g id="Group_1008" data-name="Group 1008">
              <g id="Group_1007" data-name="Group 1007" clip-path="url(#clip-path)">
                <path id="Path_695" data-name="Path 695" d="M2800.545,166.136c2.042,1.942,4.946,2.975,8.374,4.966a36.785,36.785,0,0,1,14.457-21.469c6.253-4.634,8.292-10.483,5.445-17.678-18.007-13.59-40.666-14.856-55.635-33.47-12.7,6.506-21.1,9.79-30.474,19.94-3,4.035-7.852,6.82-8.75,13.3,2.818,1.157,5.052,2.479,7.458,3a121.347,121.347,0,0,1,59.125,31.409M2754.881,118.6a31.8,31.8,0,0,1,15.77-10.986c2.071,1.153,4.411,2.276,6.56,3.684q18.455,12.079,36.8,24.335c1.177.791,1.79,2.419,2.981,4.107-1.367,2.247-2.573,4.532-4.066,6.608-2.129,2.96-4.476,5.771-7.267,9.328-15.4-14.931-36.24-19.043-54.2-30.692,1.14-2.171,1.988-4.5,3.425-6.384" transform="translate(-973.057 -35.052)" fill="#1a1a1a"/>
                <path id="Path_696" data-name="Path 696" d="M1110.494,2307.571c3.426-1.491,7.172-3.355,11.078-4.778,12.235-4.459,22.175-12.227,30.73-21.727,9.633-10.7,13.054-24.014,13.537-37.956.252-7.352-3.461-13.688-10.9-15.789-7.671-2.165-15.76-2.426-23.061,1.828-9.7,5.645-18.141,12.659-23.822,22.649-4.239,7.449-9.967,27.969-11.192,40.82-.281,2.981-1.318,5.894-2.049,9-16.936,2.831-30.666-3.277-43.784-11.656-13.9-8.877-20.85-22.665-23.585-37.941a92.024,92.024,0,0,1,9.223-59.927c7.141-13.667,18.145-21.931,33.841-22.314,6.7-.163,13.431,1.3,21.7,2.2,3.072-6.032,2.437-8.008-3.394-10.066-18.931-6.685-43.551.906-55.229,17.418-15.642,22.119-21.545,46.461-16.884,73.442,6.312,36.513,34.445,61.281,70.2,59.586a79.986,79.986,0,0,1,8.8.47c3.589,9,6.5,17.513,10.3,25.6,9.76,20.755,25.905,34.651,48.007,40.407a123.015,123.015,0,0,0,40.829,3.215c4.154-.333,8.358-.054,12.98-.054a91.556,91.556,0,0,1,5.632,7.42c6.467,10.49,16.236,16.849,27.6,20.035,11.626,3.258,23.634,5.952,35.635,6.926,24.871,2.016,47.978-5.32,70.1-16.116,3.192-1.559,6.263-3.355,10.119-5.434,2.194,4.071,4.107,7.127,5.549,10.387,5.541,12.533,15.723,20.041,28.161,23.818,18.53,5.628,37.578,6.667,56.112,0,8.329-3,16.056-7.779,23.862-12.1,8.675-4.8,17.462-9.311,26.544-13.743,3.879,4.076,7.346,7.323,10.343,10.956,6.477,7.845,14.6,10.443,24.046,7.156,12.921-4.5,25.681-9.474,38.4-14.522,13.964-5.544,25.51-14.734,36.25-25,1.565-1.5,2.451-3.438-.391-5.984-13.057,10.283-30.619,20.363-46.851,27.4-14.331,6.215-27.624,10.059-35.866,9.583-6.962-.4-10.5-7.447-15.758-18.8a85.7,85.7,0,0,0,5.535-7.162c2.207-3.517,4.639-7.079,5.865-10.971,1.668-5.294-1.054-9.095-6.545-10.719-5.295-1.567-9.505-.336-11.9,4.822a63.856,63.856,0,0,0-5.251,16.427c-.927,5.752-3.339,9.8-8.288,12.6-9.18,5.2-18.234,10.634-27.5,15.681-21.564,11.751-44.256,12.856-67.476,6.2a22.468,22.468,0,0,1-10.521-6.413c-6.481-7.639-12.289-15.913-12.163-27.173,1.8-2.265,3.506-4.991,5.763-7.137,8.6-8.178,10.7-19.181,13.171-29.962a9.356,9.356,0,0,0-3.423-9.94c-3.762-2.892-7.9-2.981-11.912-.871a18.814,18.814,0,0,0-6.088,4.855c-4.858,6.305-9.054,13-9.923,21.236-.77,7.275-1.664,14.537-2.536,22.079-11.679,6.611-23.986,11.06-36.56,15.058-24.553,7.805-48.844,6.994-72.991-1.419-11.275-3.927-20.061-10.625-24.313-23.055,5.119-3.014,9.795-5.4,14.063-8.379s8.83-6.011,12.059-9.991c5.3-6.524,10.424-13.437,14.156-20.918,4.935-9.895,8.729-20.4,7.007-31.98-1.544-10.4-7.64-17.346-17.938-19.488-13.523-2.817-25.462.077-33.723,11.7-13.286,18.691-20.241,39.234-15.882,62.517.568,3.034,1.318,6.031,1.982,9.035-46.97,11.444-95.364-21.674-91.487-63.045m20.84-66.806a23.192,23.192,0,0,1,14.584-4.8c6.872.095,11.1,4.165,10.29,10.941-1.178,9.938-3.575,19.579-10.311,27.536-9.4,11.1-21.342,17.911-36.536,22.408-1.564-24.577,7-45.084,21.972-56.086M1375.3,2351.655a1.83,1.83,0,0,1,1.378.48c3.639,3.645-.2,12.556-8.872,20.68-.693-11.89,2.244-20.227,7.493-21.161m-163.64-23.957a37.516,37.516,0,0,1,14.5-25.557c3.2-2.5,7.131-5.4,10.886-5.642,17.452-1.112,24.468,6.077,20.765,22.574-5.171,23.044-16.919,41.829-42.029,49.5-10.173-13.668-5.533-27.644-4.124-40.877" transform="translate(-361.31 -768.596)" fill="#1a1a1a"/>
                <path id="Path_697" data-name="Path 697" d="M1366.033,678.854c-8.61,23.591-11.409,48.151-10.254,73.012a93.238,93.238,0,0,0,13.206,43.356c1.458,2.459,4.016,4.268,6.932,7.272,2.773-4.494,4.91-7.955,6.719-10.888-3.765-11.732-7.675-22.6-10.664-33.714-1.768-6.567-1.656-13.62-3.136-20.287a77.727,77.727,0,0,1,4.955-49.414,181.536,181.536,0,0,1,10.627-21.212c5.1-8.39,10.242-16.913,20.025-26.212.782,20.881,7.445,36.075,16.57,50.585,6.425,10.219,15.358,14.04,26.759,12.991,10.134-.931,15.649-7.829,19.434-16.431,8.373-19.016,6.883-36.7-6.226-53.47-8-10.233-17.665-16.338-30.68-16.823-4.1-.153-8.209-.025-12.618-.025-1.572-12.149,2.9-21.818,8.4-30.647,6.669-10.708,14.462-20.749,22.175-30.763,12.544-16.29,29.716-24.8,49.64-28.208,2.3-.393,4.751.1,7.162.186-.613,9.008-2.64,17.1-1.275,24.58,1.506,8.254,2.728,16.517,4.038,24.8,1.836,11.6,11.75,19.1,23.708,19.189,10.5.077,18.232-6.244,20.022-18.448a115.68,115.68,0,0,0,.693-28.319c-.859-8.4-4.413-15.645-13.831-19.355-7.536-2.972-14.042-8.557-21.1-13.038,10.052-30.643,30.616-50.5,59.181-62.548,4.711-1.987,10.192-2.42,15.377-2.915,4.322-.414,8.174,1.206,10.988,6.13-.593,2.4-1.193,5.461-2.106,8.425-3.657,11.885-3.038,24.036-1.972,36.128.588,6.668,7.826,13.214,14.878,14.634,6.4,1.289,13.45-2.093,17.3-8.482a33.531,33.531,0,0,0,5.02-18.006c-.18-16.632-4.206-31.324-20.8-40.667,9.315-16.545,21.688-28.991,37.619-37.887,2.645-1.479,6.065-1.7,9.176-2.185,5.5-.851,10.366.812,14.889,3.98,3.946,2.766,4.481,6.734,4.976,11.061.269,2.335,1.88,4.515,3.163,7.383,5.787-4.411,4.714-10.009,5.528-14.911.882-5.314-1.643-9.132-5.707-12.155-12-8.925-31.435-8.77-42.811.8-8.069,6.785-15.97,13.84-23.34,21.364-5.04,5.146-9.044,11.308-13.485,16.986-4.09-.956-7.634-2.238-11.256-2.513-4.1-.312-8.5-.5-12.38.607-17.076,4.867-31.089,15.261-44.846,25.972a20.159,20.159,0,0,0-4.175,4.738c-8.445,12.627-19.184,23.856-23.7,38.9-.412,1.376-1.836,2.451-2.906,3.813-4.119.848-8.282,1.548-12.361,2.575-18.778,4.717-35.971,11.923-51.867,30.231s-19.674,26.272-22.763,34.745c-3.959,10.866-7.579,21.858-11.62,32.694-1.062,2.845-2.54,6.126-4.846,7.824-14.137,10.416-21.125,26.071-30.047,40.27-2.751,4.38-4.605,9.4-6.392,14.3m245.974-216.978c2.939,1.612,5.065,2.264,6.483,3.644,7.3,7.106,10.558,28.135,5.918,36.984-3.308,6.307-11.51,6.636-15.309.46a21.619,21.619,0,0,1-2.913-7.226c-2.148-11.8,1.129-22.575,5.821-33.861m-97.461,68.408c8.592-1.3,14.176,4.952,20.668,8.741,4.9,2.856,6.75,7.9,7.915,13.078,1.977,8.789,2.712,17.594-.7,26.294-1.586,4.038-3.783,7.433-7.859,9.362-5.821,2.755-11.74,1.437-15.2-3.84a39,39,0,0,1-4.1-8.457c-4.314-12.349-4.578-30.923-.72-45.177m-100.1,103.392c10.811-8.238,21.01-6.466,30.538-1.089,9.563,5.4,15.455,14.3,17.449,25.106,1.852,10.041.65,19.8-4.916,28.849-6.123,9.948-18.153,11.661-26.665,3.287-8.143-8.009-12.875-18.122-15.267-28.97a86.89,86.89,0,0,1-1.139-27.182" transform="translate(-482.454 -142.015)" fill="#1a1a1a"/>
                <path id="Path_698" data-name="Path 698" d="M2685.332,1868c-4.754-7.05-4.6-13.324-.319-20.5,5.134-8.592,9.405-17.693,14.168-26.509,2.909-5.38,3.709-10.762.977-17.008-2.27.612-4.388.842-6.178,1.724-9.425,4.653-18.847,9.314-28.113,14.268-11.031,5.895-20.852,5.529-30.268-3.62-7.545-7.33-15.76-14-24-20.552-1.723-1.368-5.341-1.956-7.211-1.066-1.764.837-3.271,4.065-3.353,6.3-.6,16.295-.814,32.6-1.151,49-4.291,3.819-8.176,7.342-12.134,10.78-8.735,7.59-17.637,15-26.215,22.763-4.893,4.43-4.235,10.126,1.719,12.627a139.13,139.13,0,0,0,19.589,6.036c7.581,1.933,15.473,2.8,23.08,7.044,2.381,16.5,4.761,33.007,7.344,50.93,3.569-1.525,6.433-1.883,7.794-3.5,3.372-4.017,6.1-8.584,9.008-12.978,7.8-11.766,15.566-23.555,24.166-36.582,16.489,8.325,34.724,9.553,50.621,18.2,4.9,2.666,9.724-.341,9.888-6.02a16.594,16.594,0,0,0-2.058-8.814c-8.889-14.315-17.933-28.548-27.352-42.517m-35.318,27.374c-9.38,13.094-14.99,28.318-28.07,39.487-1.08-1.749-2.745-3.223-2.838-4.788-.611-10.447-.885-20.916-1.3-32.342-12.718-4.225-27.285-3.815-40.09-10.733.826-5.578,5.031-8.227,8.394-11.222a153.845,153.845,0,0,1,17.2-13.883c6.1-4.03,7.632-9.147,7.453-16.04-.232-8.909.537-17.849,1.033-26.77.077-1.362,1.006-2.681,1.637-4.264,6.614,1.923,11.281,6.094,15.861,10.382s9.131,8.639,13.778,13.041c14.2-.172,25.209-10.339,39.9-12.7-.238,8.5-4.889,13.726-7.8,19.517-2.784,5.552-6.1,10.834-9.283,16.4,11.686,14.359,22.584,33.251,25.67,44.115-14.5-.759-27.116-8.647-41.543-10.2" transform="translate(-910.528 -638.623)" fill="#1a1a1a"/>
                <path id="Path_699" data-name="Path 699" d="M2233.9,262.635c5.094,5.177,11.024,9.913,12.8,18.329-5.023,12.277-10.256,24.926-15.366,37.627a8.114,8.114,0,0,0,8.73,11.194,20.333,20.333,0,0,0,4.61-1.114c10.339-3.933,20.726-7.75,30.938-11.991,6.282-2.61,12.136-6.373,19.033-6.214,15.838,12.809,29.317,26.831,42.628,27.934s16.122-2.079,12.4-12.031a106.463,106.463,0,0,1-6.76-46.695c10.184-7.8,20.095-15.675,30.345-23.085a13.158,13.158,0,0,0,5.775-10.618c.076-1.649-1.586-3.755-3.031-4.972-1.012-.857-3.024-.867-4.543-.73-14.634,1.331-27.863-4.011-41.139-7.849-3.529-10.128-7.1-19.511-10.052-29.084-2.91-9.426-4.934-19.154-10.7-28.256-3.031,1.418-6.206,1.863-7.365,3.633-4.3,6.549-8.048,13.475-11.8,20.372-5.563,10.236-11.9,19.871-21.584,28.979-8.816.563-18.75,1.192-28.68,1.834-5.263.339-10.554.491-15.785,1.116-4.67.564-9.159,1.9-13.1,6.355,1.446,2.693,2.353,5.79,4.344,7.824,5.889,6.022,12.4,11.438,18.3,17.445m35.685-21.787c7.721-5.038,12.8-13.2,18.642-20.537s10.852-15.307,17.207-24.4c5.172,12.233,10.958,22.767,11.274,34.843.2,7.71,3.571,11.984,10.409,13.773,7.626,1.993,15.415,3.361,23.124,5.036,2.872.625,5.723,1.347,9.96,2.349-9.132,11.1-20.312,16.99-30.477,24.451,1.781,16.866,5.693,33.162,7.164,50.688-5.968-1.544-9.1-5.224-12.9-7.71-3.98-2.6-7.911-5.278-11.746-8.083-3.4-2.484-6.643-5.167-9.917-7.808-3.652-2.94-7.257-5.935-11.7-9.571-6.141,5.928-11.616,12-20.041,14.21-7.881,2.069-14.26,8.971-23.371,8.1.4-9.636,4.762-23.441,9.641-30.924,4.833-7.414,4.9-8.325-.9-14.807-4.216-4.713-8.741-9.158-13.21-13.641-4.02-4.03-8.528-7.652-11.407-14.115,12.89-4.233,25.449-.462,38.241-1.852" transform="translate(-787.018 -62.313)" fill="#1a1a1a"/>
                <path id="Path_700" data-name="Path 700" d="M1009.863,1638.394c15.47-3.146,30.949-6.605,46.6-8.352,8.528-.95,12.047-4.75,14.03-12.653-17.582-9.77-35.219-19.254-43.917-37.058,3-11.738,6.634-21.775,7.886-32.1,1.223-10.072,8.315-19.875,2.165-31.455-2.372.611-5.4.484-6.942,1.938-9.419,8.9-21.192,13.547-32.512,19.161-9.48,4.7-17.716,4.282-26.588-1.853-7.307-5.054-15.574-8.807-23.688-12.549-2.971-1.371-6.827-3.4-9.621-.265,1.3,15.187,2.238,29.86,3.941,44.445.779,6.665-1.536,11.212-6.505,14.976q-12.578,9.535-25.189,19.031a51.56,51.56,0,0,0-4.92,3.792c-2.417,2.337-1.9,6.725,1.089,8.048,14.408,6.377,28.881,12.6,45.148,19.672.567,2.287,1.252,4.8,1.809,7.344,3.415,15.566,3.363,31.371,3.191,47.186-.027,2.729.553,5.657,3.687,6.01a7.605,7.605,0,0,0,5.485-2.208c2.155-2.221,3.709-5.055,5.379-7.714,8.094-12.9,15.754-26.008,26.561-37.076,3.882-3.978,7.757-7.272,12.907-8.317m-40.847,29.268c-1.637-.372-2.252-.337-2.563-.627a2.485,2.485,0,0,1-.592-1.438c-1.738-14.529-3.454-29.064-5.286-44.565-13.633-2.014-27.133-5.394-39.291-14.655,5.821-6.918,13.324-10.937,19.592-16.348,1.981-1.708,4.421-2.877,6.452-4.537,4.845-3.958,6.868-8.679,5.582-15.288-1.594-8.226-2.132-16.667-2.925-25.033-.176-1.85.5-3.784.954-6.882,12.162,4.384,20.813,11.991,29.44,18.3l44.513-20.312c1.707,18.1-7.088,32.719-12.2,48.521,11.217,10.808,22.15,21.338,33.938,32.7-3.092,1.906-5.411,3.941-8.11,4.889-12.5,4.394-25.512,6.1-39.307,5.955-10.2,13.28-20.356,26.5-30.2,39.319" transform="translate(-321.419 -539.842)" fill="#1a1a1a"/>
                <path id="Path_701" data-name="Path 701" d="M398.725,2392.864c-.766-5.293-4.165-7.386-8.336-8.958-9.842-3.712-19.625-7.586-29.417-11.424-11.32-4.436-12.374-5.616-12.146-17.153.24-12.125,1.076-24.239,1.449-36.364.126-4.09.815-8.516-4.438-12.983-2.107,1.642-3.8,2.761-5.253,4.127-7.288,6.837-14.572,13.68-21.744,20.637-5.922,5.744-12.049,7.652-19.947,3.4-7.868-4.231-16.251-7.379-22.9-13.771a48.9,48.9,0,0,0-11.591-8.139c-1.923-.981-5.252-.627-7.292.406-2.625,1.329-2.416,4.349-1.42,7.011.184.495.339,1,.534,1.488,4.277,10.731,9.037,21.3,12.722,32.228,5.193,15.408,4.812,30.036-8.292,42.157-3.447,3.188-6.119,7.229-9.033,10.969-2.2,2.835-5.379,5.567-2.608,9.7,1.937,2.889,4.765,3.573,8.226,3.473,10-.283,20.012-.3,30.02-.236,3.606.025,7.212.591,10.613.894a55.542,55.542,0,0,1,3.564,5.953c5.222,12.088,10.327,24.226,15.484,36.34,1.4,3.293,2.008,7.673,6.934,7.24,4.154-.365,5.9-4,7.758-7.189a15.192,15.192,0,0,0,1.277-2.891c3.457-10.469,6.831-20.966,10.347-31.415,1.325-3.937,2.958-7.771,4.212-11.028,9.455-4.4,18.389-7.791,26.522-12.554,7.992-4.682,19.107-3.041,24.752-11.925m-52.34,13.6c-6.015.592-9.379,4.455-11,9.878-1.507,5.038-2.79,10.159-3.856,15.309a73.069,73.069,0,0,1-5.667,17.5c-4.6.621-5.87-2.076-7-5.135q-6.014-16.264-12.186-32.466a59.431,59.431,0,0,0-3.2-6.041c-12.209,3.281-24.205,5.578-38.188,2.7,2.956-4.69,5.08-8.1,7.245-11.488,11.941-18.67,11.952-18.678,6.682-39.549-1.418-5.61-2.987-11.183-4.241-16.83-.416-1.869-.066-3.91-.066-6.982,11.592,6.121,22.208,11.728,32.485,17.154,12.591-5.421,19.978-17.1,33.418-24.363-1.23,17.124-2.268,31.59-3.337,46.475,5.779,5.065,12.86,7.218,19.549,10.119,5.986,2.6,13.595,2.381,17.613,10.19-9.772,4.3-17.182,12.442-28.244,13.527" transform="translate(-88.243 -820.733)" fill="#1a1a1a"/>
                <path id="Path_702" data-name="Path 702" d="M876.408,681.652c-1.8,4.036,1.169,6.973,3.844,9.554,5.3,5.121,10.448,10.468,16.172,15.083,5.92,4.773,9.447,9.787,6.174,17.621-.795,1.9-.705,4.152-1.213,6.2-2.281,9.184-4.638,18.347-6.957,27.521-.791,3.134-1.441,6.4,1.863,8.476,3.432,2.151,6.038-.386,8.433-2.29,5.754-4.581,11.451-9.253,16.965-14.12,4.359-3.847,8.631-7.7,14.825-9.172,10.474,4.689,20.486,10.333,29.353,17.953a70.706,70.706,0,0,0,8.9,6.484c2.675,1.655,6.932-1.024,6.8-4.214-.114-2.6-.729-5.175-1.071-7.766-1.175-8.884-2.084-17.811-3.578-26.64-.983-5.813.611-10.33,4.842-14.168,3.126-2.835,6.394-5.542,9.288-8.6,5.429-5.732,10.794-11.542,15.874-17.582,3.721-4.43,3.763-9.348.908-14.849-17.3.232-33.805,5.324-50.532,3.2-9.585-13.107-7.588-30.865-18.045-43.064-5.924,1.834-8.2,5.407-8.8,10.687-1.318,11.715-6.168,22.158-12.094,32.73-4.678.876-9.255,2.124-13.9,2.5a98.516,98.516,0,0,1-17.329.117c-4.649-.446-8.71-.174-10.724,4.337m34.65,5.795c4.127-.425,8.3-.445,11.809-.612,8.354-8.18,6.909-20.626,15.149-28.674,6.8,10.9,5.437,25.3,16.259,33.47,11.521-7.122,23.81-6.135,38.208-6.683-8.737,11.875-18.6,19.8-26.929,29.8.453,9.106,4.664,18.228,2.045,28.323-11.563-1.9-19.643-9.468-27.991-16.845-12.365,2.234-18.283,14.177-29.858,18.513-.689-7.127.7-13.608,2.376-20.041.53-2.03,1.478-3.947,2.138-5.945,3.5-10.586,3.486-10.589-6.133-17.88-5.041-3.819-5.041-3.819-8.621-10.393,3.018-4.069,7.58-2.624,11.548-3.03" transform="translate(-311.73 -224.682)" fill="#1a1a1a"/>
                <path id="Path_703" data-name="Path 703" d="M1963.2,2239.173c-1.09-4.453-2.525-9.44-3.5-14.516-1.5-7.764-2.495-15.625-4.136-23.354-.354-1.665-2.583-4.165-3.879-4.124-2.279.075-4.6,1.659-6.7,2.935-.731.443-1.014,1.809-1.273,2.811-2.97,11.513-9.679,20.95-17.815,32.185-13.893-2.947-26.021,3.07-38.6,6.8-6.785,2.011-8.191,6.652-2.9,11.43a156.832,156.832,0,0,0,18.811,14.267c5.214,3.438,6.847,7.747,5.417,13.47-1.787,7.152-3.933,14.218-5.6,21.4-1.846,7.959-1.2,8.725,9.323,13.477,9.469-6.743,17.434-16.358,29.574-20.266l30.794,21.266c6.36-2.122,7.05-7.09,8.4-10.925-3.08-11.672-6.023-22.821-8.868-33.593,7.692-6.336,14.628-11.925,21.415-17.687,3.989-3.387,5.676-7.549,2.784-13.332-10.277-2.724-21.661,3.557-33.245-2.243m2.459,22.991c-2.819,2.147-5.984,3.839-9.551,6.079,4.144,9.062,9.419,17.161,8.375,28.029-7.936-2.888-13.657-8.067-19.8-12.593-6.518-4.8-7.977-4.417-13.642,2.848-3.519,4.515-7.425,8.454-13.85,10.764-1.639-10.619,4.223-19.016,4.753-28.022-7-6.636-16.52-9.658-22.479-18.162,10.749-6.9,21.963-2.908,32.736-3.519,7.029-5.149,6.584-15.54,14.895-20.891,3.624,3.745,2.884,8.629,3.8,12.86.991,4.556,1.8,9.152,2.908,14.845,6.288-.3,10.923-.583,15.564-.683.97-.02,1.958.642,3.034,1.025.329,4.777-4.09,5.4-6.74,7.42" transform="translate(-669.536 -782.008)" fill="#1a1a1a"/>
                <path id="Path_704" data-name="Path 704" d="M1836.143,1081.1c-6.642-.164-11.851-3.171-15.261-9.509-5.248-9.747-11.146-19.142-16.766-28.689a54.925,54.925,0,0,0-3.165-5.29c-1.635-2.171-5.753-1.644-6.5.859a62.261,62.261,0,0,0-2.531,10.72c-1.345,12.165-5.507,23.468-9.433,34.534-7.608,3.7-14.477,7.748-21.841,10.424-7.241,2.63-14.989,3.873-22.832,5.8-.231,6.6,3.107,10.6,7.548,13.584,5.234,3.513,10.856,6.452,16.323,9.617,3.995,2.312,8.01,4.587,12.094,6.924,0,6.222.037,11.469-.008,16.714-.068,7.884-.271,15.771-.256,23.657,0,2.627.4,5.309,4.592,6.887,3.173-2.464,7.7-4.666,10.3-8.261,6.1-8.449,15.017-13,23.622-19.568,11.372,8.49,22.541,17.167,35.766,23.51,2.253-2.666,4.22-4.995,6.294-7.448-1.72-5.434-3.575-10.368-4.821-15.452-1.748-7.135-3.2-14.353-4.485-21.587a18.945,18.945,0,0,1,5.2-17.375c6.1-6.531,11.3-13.915,16.733-21.044,2.219-2.908,4.345-6.049,1.874-10.846-3.238.261-6.8.617-10.371.822-7.358.422-14.734,1.194-22.081,1.016m14.1,10.879c-2.9,11.343-12.487,18.043-17.365,26.985,2.49,12.328,4.844,23.99,7.651,37.9-6.828-3.984-11.679-6.872-16.584-9.66-4.976-2.828-10.006-5.558-14.8-8.207-8.161,7.156-15.581,13.657-22.665,19.869-5.122-2.378-3.577-5.968-3.369-8.751.622-8.385,1.7-16.737,2.581-24.984-6.91-8.4-18.1-9.312-26.176-17.027,8.843-9.1,20.557-11.914,32.257-15.88,1.386-6.23,2.266-12.5,4.254-18.4,1.714-5.083.016-11.695,6.65-15.892,4.923,10.359,9.614,20.237,14,29.465,10.832,6.594,22.636.1,33.564,4.585" transform="translate(-618.51 -368.817)" fill="#1a1a1a"/>
                <path id="Path_705" data-name="Path 705" d="M194.614,1509.732c4.314,1.74,8.191,1.854,12-2.29v-13.427c-2.911-4.775-5.891-9.747-8.95-14.669-3.26-5.25-2.488-9.979,1.592-14.417,5.355-5.826,10.722-11.645,15.955-17.582,1.714-1.944,3.685-4.057,4.339-6.425a10.191,10.191,0,0,0-.828-7.265c-.758-1.263-3.794-1.327-5.852-1.555-.9-.1-1.884.778-2.857,1.139-11.711,4.351-23.618,4.8-36.49,1.9-4.86-7.745-9.793-15.8-14.941-23.719-2.881-4.435-5.824-9.109-13.134-7.668-3.094,5.787-3.937,12.63-4.568,19.314-1.265,13.33-8.458,22.394-19.41,29.026-4.954,3-10.093,5.694-15.156,8.513a34.447,34.447,0,0,0-4.144,2.263c-2.883,2.169-2.523,8.026.706,9.6a30.527,30.527,0,0,0,7.425,2.377c6.166,1.213,12.5,1.838,17.836,6.292.994,4.082,1.892,8.2,3,12.252,2.672,9.784,2.567,19.776,2.585,29.788a5.982,5.982,0,0,0,4.421,5.928c3.2.99,4.978-1.208,6.274-3.434,1.312-2.256,1.637-5.115,3.055-7.274,4.8-7.308,7.886-16.014,15.638-21.082,10.96,4.307,21.264,8.286,31.505,12.417m-41.76-16.665a64.745,64.745,0,0,1-5.272,5.872c-.634.625-1.77.738-2.679,1.085-4.483-10.651-4.483-10.651-.128-24.774-4.076-8.433-14.026-5.713-21.169-10.911,3.461-7.625,9.844-8.532,16.335-9.362,4.724-10.635,4.618-22.868,12.833-32.543,6.247,8.994,12.2,17.557,18.134,26.1,9.828-.641,19.534-1.277,31.57-2.063-3.868,5.09-6.168,8.418-8.787,11.476-2.705,3.162-5.723,6.063-9.169,9.668,3.092,8.671,6.232,17.482,9.73,27.289-2.341,0-4.429.505-6.131-.091-5.938-2.088-11.786-4.456-17.592-6.9-10.192-4.294-10.144-4.335-17.677,5.158" transform="translate(-35.667 -499.522)" fill="#1a1a1a"/>
                <path id="Path_706" data-name="Path 706" d="M2738.732,2732.44c.923,5.737,1.5,12.055,3.047,18.122,1.421,5.573-2.182,12.976,6.621,17.4,5.478-7.172,10.193-13.346,15.1-19.771,11.927,5.8,20.935,15.328,32.75,18.021,3.9-7.764,4.554-13.114.859-21.871-3.881-14.848-3.117-13.517,8.489-25.661,2.884-3.016,4.968-6.785,7.518-10.134a18.377,18.377,0,0,0,3.928-13.16c-5.3-3.643-10.169.771-15.217.658-5.665-.129-11.325-.612-16.969-.94-1.431-3.177-2.517-5.53-3.556-7.905-2.94-6.715-5.51-13.622-8.895-20.1-3.142-6.015-8.317-5.972-11.975.049-3.255,5.364-6.545,10.927-8.437,16.843-2.449,7.663-7.073,12.477-14.081,15.936-4.749,2.342-9.261,4.691-14.7,5.188-2.951.271-5.777,1.919-8.476,2.879,0,1.76-.416,3.078.064,3.782,6.044,8.851,17.2,11.782,23.936,20.672m14.724-28.126q6.52-10.174,13.495-21.059c8.563,5.808,5.618,18.25,13.953,23.853,6.638,1.633,13.452-4.23,20.726,1.4-2.76,4.96-6.985,8.59-11.243,12.167-4.142,3.479-5.125,7.8-3.4,12.749,1.714,4.934,3.858,9.758,2.893,16.3a33.194,33.194,0,0,1-21.187-14.43c-8.694-1.308-10.687,6.347-16.168,8.081-3.713-.6-3.279-3.687-2.941-5.978.518-3.492,1.8-6.872,2.96-11.012l-16.841-11.6c4.008-7.675,12.109-6.7,17.754-10.47" transform="translate(-966.153 -947.659)" fill="#1a1a1a"/>
                <path id="Path_707" data-name="Path 707" d="M1095.914,2703.418c-21.572,2.494-20.726-.2-28.8-18.244-1.064-2.376-1.385-5.073-2.248-7.552a11.867,11.867,0,0,0-2.2-4.125c-.982-1.071-2.664-2.432-3.782-2.231-1.817.328-4.382,1.445-4.955,2.893a132.114,132.114,0,0,0-5.175,16.505c-2.076,8.3-6.851,14.034-14.895,16.961-4.422,1.608-8.96,2.915-13.305,4.7-2.258.931-5.158,2.159-6.083,4.071-1.689,3.488,1.577,5.583,3.98,7.58,3.235,2.693,6.415,5.462,9.772,7.994,4.8,3.614,6.046,8.112,4.661,13.9-1.929,8.062-3.395,16.232-4.947,23.81,3.322,3.97,6.55,4.869,10.273,2.487,7.408-4.745,14.764-9.57,21.528-13.961,11.511,5.4,19.9,13.779,31.649,18.32,1.317-2.887,3.094-5.1,3.229-7.406.338-5.674.3-11.233-2.107-16.868-4.19-9.791-4.047-19.347,4.487-27.492a93.677,93.677,0,0,0,10.184-11.96c1.756-2.358,2.722-5.3,4.246-8.393-6.419-4.517-11.008-1.516-15.514-.994m-17.058,27.84c-.582,8.44,5.744,16.048,2.695,25.486-8.482-1.577-15.843-4.768-21.584-11.951-5.406,3.844-10.435,7.417-16.543,11.757-2.521-8.988,3.751-16.1,1.617-24.99-4-3.672-7.807-7.168-11.508-10.564,3.728-6.305,10.436-5.57,15.969-8.579,2.422-5.662,5.038-11.783,7.785-18.21,5.206,1.323,5.473,5.676,6.456,8.643,2.691,8.135,7.154,12.483,16.282,11.161,2.866-.414,5.969.809,8.823,1.26.108,8.254-7.812,10.269-9.991,15.986" transform="translate(-360.9 -950.735)" fill="#1a1a1a"/>
                <path id="Path_708" data-name="Path 708" d="M549.969,1036.938c-10.592,13.7-21.107,27.47-27.832,43.685-3.96,9.552-4.006,19.442-3.559,29.458.251,5.585-3.508,12.852,1.722,16.321,6.329,4.2,11.341-2.867,16.441-5.961,6.572-3.987,12.84-6.6,20.732-3.314,4.471,1.863,6.266.372,8.455-4.26.673-1.422,1.162-2.933,1.8-4.376,8.613-19.62,19.759-37.086,39.866-46.968,4.284-2.1,5.6-5.924,5.553-10.7-12.289-12.529-31.715-10.37-45.556-21.8-10.1,2.521-14.6,4.005-17.619,7.913m8.681,67.272-28.952,6.431c-2.715-12.622-1.064-25.167,5.732-36.062,8.143-13.055,13.966-28.769,31.655-34.292,10.627,4.355,20.314,8.327,31.39,12.87-17.061,15.711-30.852,32.466-39.825,51.052" transform="translate(-184.187 -366.245)" fill="#1a1a1a"/>
                <path id="Path_709" data-name="Path 709" d="M1379.626,2077.554c2.528,10.117,4.059,20.483,5.966,30.417,12.39,5.659,24.462,5.314,36.493,3.908,7.212-.84,9.757-4.891,8.887-12.186a33.213,33.213,0,0,0-.836-4.656c-5.02-18.747-6.887-38.237-14.032-56.525-2.428-6.208-2.355-13.376-3.584-20.076a58.031,58.031,0,0,0-1.849-6.385c-8.706.984-16.4,1.751-24.068,2.753-8.232,1.073-16.437,2.366-26.288,3.8,2.321,11.306,7.972,20.357,10.559,30.33,2.5,9.648,6.337,18.954,8.753,28.618m20.964-52.226c9.129,20.452,17.344,51.658,19.722,74.545-8.141,3.738-8.141,3.738-24.586,1.873-5.068-11.8-5.631-25.128-9.663-37.506-3.885-11.935-7.464-23.967-11.266-36.251,8.611-5.927,17.4-3.075,25.793-2.66" transform="translate(-484.156 -716.118)" fill="#1a1a1a"/>
                <path id="Path_710" data-name="Path 710" d="M1281.758,193.787c13.013,12.769,22.959,27.405,27.77,45.225a100.4,100.4,0,0,0,3.852,12.02c1.105,2.688,3,5.05,4.089,6.81l40.4-13.254c1.624-4.024,2.857-7.544.108-12.773-9.5-18.07-21.055-35.069-28.622-54.153-.153-.389-.8-.584-1.267-.9-7.8,0-15.69.524-23.479-.147-13.613-1.25-29.185-1.31-28.72,6.965-.51,2.685-.281,3.808.376,4.556,1.728,1.973,3.614,3.813,5.491,5.653m34.368-6.3a10.015,10.015,0,0,1,8.828,5.633c6.883,13.011,13.935,25.933,20.844,38.932.433.813.182,1.991.36,4.663-7.2,3.08-13.841,5.914-19.788,8.456-6.265-3.459-7.832-8.812-9.116-13.715-3.58-13.682-11.964-24.3-20.614-34.886-2.217-2.716-3.9-5.872-6.812-10.352,9.884.466,18.1.774,26.3,1.269" transform="translate(-454.009 -62.641)" fill="#1a1a1a"/>
                <path id="Path_711" data-name="Path 711" d="M1059.008,474.81c9.424,8.408,18.621,16.615,28.418,25.352,13.1-5.578,25.3-10.513,37.274-15.949,12.059-5.473,23.251-12.289,31.926-22.684,2.317-2.772,5.626-4.695,8.122-7.346,1.608-1.708,2.56-4.03,3.844-6.136-2.18-1.447-3.378-2.712-4.819-3.117-7.845-2.217-13.8-6.816-18.795-13.215-2.176-2.784-5.481-4.9-8.646-6.64-4.386-2.42-8.072-1.281-10.917,2.929-2.941,4.353-5.1,9.354-8.565,13.21-12.908,14.373-27.848,25.625-47.767,28.256-4.11.542-8.36.662-10.076,5.338m43.76-8.845a113.1,113.1,0,0,0,16.089-12.616c5.253-5.028,9.716-10.882,15.953-18.009,5.7,6.15,10.271,11.076,15.205,16.394-3.314,6.185-8.041,10.387-13.193,13.827-12.337,8.228-26.116,13.593-40,18.519-6.541,2.321-8.05,1.079-12.846-7.532,6.28-3.49,12.8-6.64,18.794-10.584" transform="translate(-376.916 -150.845)" fill="#1a1a1a"/>
                <path id="Path_712" data-name="Path 712" d="M1581.793,2160.423c7.28.164,12.92,4.088,19.062,7.007a75.753,75.753,0,0,0,8.027,2.873c5.123-2.713,6.295-6.211,6.556-10.849.383-6.786,1.705-13.522,2.706-20.27,2.415-16.28,8.31-31.514,14.133-46.768,1.84-4.814,4.692-9.4,3.56-17.043-10.834-1.263-19.61-5.8-27.751-11.716a22.076,22.076,0,0,0-2.682-1.666c-5.007-2.622-9.648-1.227-11.8,3.656-.847,1.921-1.335,4-2.022,5.99-9.17,26.615-11.449,54.492-14.957,82.137-.45,3.547,1.583,6.57,5.175,6.648m17.041-81.833a61.311,61.311,0,0,1,2.952-6.01c8.279,2.488,16.219,4.64,22.406,10.737-7.083,23.856-14.021,47.223-20.993,70.706-5.488-.391-9.5-2.654-12.316-6.555-1.43-1.983-2.714-4.738-2.591-7.069,1.093-21,3.405-41.83,10.542-61.809" transform="translate(-561.12 -733.429)" fill="#1a1a1a"/>
                <path id="Path_713" data-name="Path 713" d="M2615.5,1358.117c-7.1-3.372-14.119-7.108-17.091-16.11-3.54,1.944-7.2,2.734-8.646,4.962-6.285,9.7-11.944,19.768-19.727,28.486-3.1,3.475-1.672,7.992,2.411,10.865a32.67,32.67,0,0,0,4.115,2.347c15.479,7.787,30.322,16.87,47.63,20.673,9.586,2.1,18.836,5.731,28.525,8.763,4.424-3.784,8.566-7.891,13.258-11.222,8.33-5.912,12.256-14.131,14.351-24.655a51.8,51.8,0,0,0-5.709-2.225c-20.632-4.8-40.073-12.837-59.118-21.883m41.052,46.745c-32.091-2.134-61.312-12.936-75.4-28.179,1.488-7.8,7.216-13.191,12.952-19.7,22.955,13.63,47.535,23.464,73.876,31.728-1.721,8.408-6.662,12.285-11.424,16.151" transform="translate(-914.117 -477.64)" fill="#1a1a1a"/>
                <path id="Path_714" data-name="Path 714" d="M2354.687,2049.34c.362-4.025,1.02-8.52-4-12.852-10.755,3.585-21.276,6.655-32.671,4.661-5.357-.939-7.919,1.371-8.486,6.707a40.989,40.989,0,0,0,.136,12.45c2.451,11.837,5.657,23.516,8.227,35.333a51.7,51.7,0,0,0,13.047,24.869c4.688,5.012,9.124,10.259,13.851,15.23,1.658,1.744,3.854,2.977,6.595,5.037,8.106-12.476,20.393-21.022,22.579-36.554-14.984-15.39-21.187-33.705-19.279-54.881M2350.4,2123.7c-9.716-4.667-14.862-12.867-19.083-21.094-7.679-14.984-10.658-31.458-13.469-48.659,8.911-2.788,16.864-4.539,26.039-4.15.424,3.719.756,7.247,1.236,10.752,1.639,11.973,3.55,23.831,10.345,34.305,2.544,3.922,4.38,8.3,7.5,14.34-4.442,5.13-8.471,9.774-12.571,14.506" transform="translate(-821.85 -724.816)" fill="#1a1a1a"/>
                <path id="Path_715" data-name="Path 715" d="M1488.009,1723.193c3.092-.246,5.206.332,6.754,2.428,2.149,2.917,3.66,6.295,5.692,9.308,2.627,3.9,5.351,7.749,8.327,11.379,1.5,1.825,5.721.728,6.735-1.629a22.028,22.028,0,0,0,1.739-5.914,97.746,97.746,0,0,1,21.39-50.068c2.889-3.608,5.6-7.364,8.706-11.474-10.283-12.789-19.121-23.861-28.064-34.855-2.767-3.407-6.947-3.39-9.362-.087-15.845,21.661-24.278,46.473-30.233,72.25-1.606,6.943.619,9.277,8.315,8.662m27.548-67.913a162.551,162.551,0,0,1,18.736,21.531c-11.369,14.3-19.125,30.152-25.142,49.27l-15.8-13.15c-1.1-16.7,8.762-42.633,22.2-57.651" transform="translate(-526.47 -583.631)" fill="#1a1a1a"/>
                <path id="Path_716" data-name="Path 716" d="M332.52,815.078c11.939,14.8,23.3,29.91,28.364,48.741.645,2.416,2.343,4.55,3.887,7.442,10.267-2.962,20.4,4.12,30.618-.3,2.086-7.533,1.06-14.057-1.569-20.606-7.634-19.02-15.071-38.117-22.651-57.158-.36-.9-1.349-1.559-2.658-3.009-10.871,2.093-22.307,1.685-33.712-.16a8.478,8.478,0,0,0-1.577-.021c-8.76.215-13.237,7.874-8.631,15.245,2.214,3.544,5.282,6.551,7.929,9.829m16.746-12.647c4.109-.209,8.234-.047,11.78-.047,7.315,12.15,21.132,45.761,23.593,56.959-6.208,2.093-6.208,2.093-14.98-.815-4.572-21.263-19.751-36.927-32.754-54.933,4.4-3,8.561-.971,12.361-1.164" transform="translate(-114.872 -281.164)" fill="#1a1a1a"/>
                <path id="Path_717" data-name="Path 717" d="M1971.33,1590.877c7.439,2.836,13.523,2.63,19.527-.213,5.98-2.834,13.506-3.213,16.716-10.182-1.455-11.308-5.462-21.448-10.736-31.042a225.06,225.06,0,0,1-19.409-46.349c-.6-2.1-3.213-3.622-4.38-4.866-6.411,2.31-11.656,4.475-17.067,6.075-5.45,1.61-11.063,2.658-18.577,4.413,12.306,27.975,25.661,54.476,33.926,82.165m-3.095-77.288c4.526,10.221,8.735,20.922,13.935,31.119,5.007,9.821,10.6,19.31,13.508,32.056-3.478,1.583-6.156,3.24-9.068,4.026-4.31,1.163-7.061-.313-9.105-4.183a20.717,20.717,0,0,1-1.844-4.351c-5.082-19.5-16.048-36.472-23.485-54.985,5.261-4.1,5.272-4.044,16.06-3.682" transform="translate(-689.55 -533.24)" fill="#1a1a1a"/>
                <path id="Path_718" data-name="Path 718" d="M340.557,2011.1c9.9-1.768,17.124-8.261,25.459-12.109,2.408-7.313,1.068-13.667-1.865-20.19a364.031,364.031,0,0,1-21.974-63.831c-1.089-4.5-2.73-8.872-4.129-13.345-2.935,0-5.409-.762-6.914.124-8.913,5.245-18.41,9.683-26.666,17.2,10.043,29.627,20.7,58.624,31.918,87.418.7,1.795,2.681,3.088,4.171,4.732m-17.249-66.135c-3.09-7.079-7.429-13.942-6.514-23.238,4.264-2.35,8.77-4.835,13.973-7.7,6.491,12.792,7.744,26.6,12.86,39.117,4.939,12.076,8.886,24.553,13.618,37.834-3.508,2.565-7.137,5.216-11.213,8.2a67.125,67.125,0,0,1-13.137-27.548c-2.192-9.366-5.792-17.962-9.588-26.656" transform="translate(-108.365 -676.707)" fill="#1a1a1a"/>
                <path id="Path_719" data-name="Path 719" d="M772.678,1846.007c5.469-10.092,10.7-19.73,15.893-29.39a6.055,6.055,0,0,0,.981-2.965c-.588-8.649,5.3-14.565,8.71-21.584,4.134-8.505,7.634-17.335,11.005-26.178,1.015-2.662.683-5.838.847-7.531-8.123-4.44-14.934-8.231-21.813-11.9a84.156,84.156,0,0,0-9.966-4.749c-4.059-1.521-7.48-.142-8.9,4.042-3.386,9.965-6.8,19.96-9.331,30.159-3.924,15.812-7.122,31.8-11.1,49.875,7.721,6.74,13.79,15.408,23.675,20.216m-10.85-28.842a136.761,136.761,0,0,1,3.07-18.581c3.227-13.255,6.834-26.42,10.412-39.586.387-1.438,1.577-2.656,3.413-5.611,7.212,4.015,13.527,7.534,19.964,11.117-2.136,12.56-7.754,22.543-14.031,32.152-6.239,9.55-8.071,21.539-15.651,29.9-6.454-.941-7.621-4.988-7.176-9.394" transform="translate(-266.581 -619.688)" fill="#1a1a1a"/>
                <path id="Path_720" data-name="Path 720" d="M2527.013,698.952c5.692.691,8.093,4.39,10.047,8.836,2.539,5.775,4.806,11.677,7.452,17.4.985,2.136,2.7,3.935,4.165,6,6.582-5.947,6.787-5.911,7.532-10.242,3.3-19.116,11.84-34.627,29.341-44.428,3.066-1.716,5.378-4.775,9.35-8.421-3.637-6.288-6.59-11.187-9.335-16.2-4.5-8.232-10.936-15.454-12.177-25.385-.5-3.945-5.471-5.419-8.764-3-3.8,2.8-7.1,6.315-11.006,8.928-18.764,12.547-26.912,31.644-32.416,52.3a16.43,16.43,0,0,0,.716,9.226c.743,2.078,3.16,4.744,5.1,4.98m6.723-20.349c3.4-17.975,12.936-31.781,30.229-41.828,6.209,9.66,11.823,18.4,17.722,27.573-6.8,6.891-13.481,12.7-18.94,19.494-5.172,6.441-9.054,13.918-14.118,21.91-6.531-4.519-10.584-10.582-14.225-16.563-1.641-2.7-1.317-7.156-.668-10.586" transform="translate(-897.197 -221.499)" fill="#1a1a1a"/>
                <path id="Path_721" data-name="Path 721" d="M1718.892,294.036c3.889,3.438,8.045,6.4,14.067,6.322,1.167-3.587,2.444-6.46,3.02-9.468,1.778-9.3,2.785-18.774,5.03-27.949,2.989-12.225,5.852-24.547,14.346-34.706,2.863-3.419,3.972-8.307,5.839-12.432-11.981-5.866-22.086-10.179-31.531-15.634-7.792-4.5-10.316-4.225-13.722,4.438-1.345,3.423-2.616,6.892-3.645,10.424q-8.166,28-16.131,56.053c-.255.894.285,2.016.453,3.009,7.429,6.661,14.808,13.349,22.272,19.943m-10.3-30.554c4.4-16.151,9.221-32.189,14.036-48.225.406-1.353,1.7-2.442,3.2-4.506L1746,220.895c-3.8,10.673-7.785,20.724-10.937,31.028-3.19,10.432-5.556,21.112-8.948,34.265-6.081-6.027-11.066-10.528-15.45-15.549-1.513-1.734-2.647-5.063-2.078-7.156" transform="translate(-603.667 -70.219)" fill="#1a1a1a"/>
                <path id="Path_722" data-name="Path 722" d="M1106.559,1873.922c-6.508,8.466-10.089,18.43-14.506,28-6.139,13.3-12.914,26.31-19.792,40.2,7.992,8.271,19.568,12.238,26.578,21.567.464.619,1.958.464,3.74.824,1.318-2.517,2.712-5.241,4.16-7.934,3.736-6.949,8.1-13.631,11.085-20.885a141.708,141.708,0,0,1,11.212-22.45c5.417-8.528,11-16.7,18.516-23.533,3.28-2.98,5.218-6.667,2.662-11.175-12.422-4.063-24.752-8.1-37.4-12.229-2.306,2.795-4.36,5.144-6.255,7.611m27.976,12.893c-8.776,21.158-26.041,37.291-35.407,59.063l-12.658-8.1c5.377-16.81,12.951-32.28,20.287-47.819,2.207-4.676,4.968-9.335,10.482-11.651,5.92,1.544,11.867,3.3,17.3,8.507" transform="translate(-381.633 -664.247)" fill="#1a1a1a"/>
                <path id="Path_723" data-name="Path 723" d="M513.037,2532.223c-5.139.667-10.165,2.2-14.731,3.234-2.751,6.131-4,10.763-6.609,14.425-14.878,20.871-19.96,44.706-21.545,69.6-.129,2.035,1.974,4.215,3.556,7.344,13.642-8.977,26.921-16.012,42.611-17.54,6.073-.59,8.418-6.969,6.971-13.442-3.91-17.49-7.06-34.883-.292-52.593,2.768-7.24-1.919-12.067-9.96-11.027m-30.125,77.429c-3.527-16.665,7.22-43.484,25.872-61.021,0,10.7-.321,18.416.089,26.091.416,7.822,1.548,15.6,2.439,24.077-9.9,3.783-19.113,7.307-28.4,10.852" transform="translate(-167.332 -901.205)" fill="#1a1a1a"/>
                <path id="Path_724" data-name="Path 724" d="M2328.824,810.609c.6,5.216,1.938,10.349,2.943,15.52a79.346,79.346,0,0,1,1.745,9.236c1.4,19.439,2.994,34.377,5.708,47.442,1.962,10.055,3.691,10.991,11.259,9.857,6.758-.426,14.584.081,18.838-8.141a5.79,5.79,0,0,0,.217-1.285c-.472-25.274-2.2-50.584,2.77-75.684.426-2.153-1.108-4.695-1.893-7.663-5.446.994-10.03,2.647-14.528,2.437-5.171-.242-10.227-2.331-15.4-3.273-8.775-1.6-12.736,2.25-11.664,11.554m32.255.488c.224,3.082.607,5.49.534,7.884q-.81,26.8-1.778,53.608c-.285,8.239-.565,8.481-11.072,10.037-6.091-22.808-3.937-46.819-10.776-71.529Z" transform="translate(-828.802 -284.27)" fill="#1a1a1a"/>
                <path id="Path_725" data-name="Path 725" d="M852.325,1366.843c6.377-6.8,11.788-9.577,18.389-9.7A27.735,27.735,0,0,0,876.9,1356c5.626-1.432,9.538-6.576,6.766-13.237a140.375,140.375,0,0,1-9.145-33.222c-1.4-9.325-3.512-18.552-5.508-27.779-1.3-6.016-4.484-9.211-9.668-8.1-12.66,2.72-24.889.776-36.557-2.457-7.813,7.994-7.65,8.493-2.055,15.566,3.542,4.475,5.951,9.838,9.443,14.36,12.68,16.427,18.076,35.261,19.292,55.637.143,2.391,1.3,4.722,2.858,10.072M834.3,1286.125c8.141-3.3,15.315-2.2,23.559-1.467,4.84,9.217,5.591,19.829,8.282,29.8,2.72,10.078,4.91,20.3,7.648,31.783-4.8,1.7-7.712,2.838-10.693,3.73-.907.273-2.016-.12-3.032-.209-.656-.787-1.794-1.515-1.9-2.366a107.032,107.032,0,0,0-17.807-48.274c-2.536-3.749-3.908-8.284-6.061-12.993" transform="translate(-290.678 -452.441)" fill="#1a1a1a"/>
                <path id="Path_726" data-name="Path 726" d="M2429.424,1647.721c-8.117-1.462-16.348-2.786-24.507-4.458-8.1-1.662-16.018-5.077-24.939-2.563.566,4.637,1.4,8.625,1.482,12.631.24,11.557,1.23,23.235-.017,34.649-1.714,15.707,4.078,25.849,18.021,32.655,7.993,3.9,6.228.7,14.055,4.993,2.416,1.324,5.765.943,10.757,1.63-5.754-9.966-6.055-17.222-6.677-26.293,1.481-13.056,2.715-26.307,9.734-37.991,2.839-4.726,4.174-9.632,2.091-15.253m-16.983,27.531c-1.363,6.655-2.4,13.388-3.278,20.127-.785,6.032,1.725,12.345-1.467,19.3-4.287-4.093-8.327-7.379-11.627-11.293-2.263-2.683-4.62-6.107-4.987-9.415a304.566,304.566,0,0,1-1.75-31.285c-.021-3.384,2.135-6.778,3.632-11.151l24.027,5.756c-1.574,6.118-3.33,11.986-4.551,17.961" transform="translate(-847.069 -583.631)" fill="#1a1a1a"/>
                <path id="Path_727" data-name="Path 727" d="M1606.4,979.666c6.365-4.514,5.27-10.01-2.251-12.925a214.785,214.785,0,0,0-24.115-7.518c-4.023-1.033-8.385-1.035-12.593-1.018-5.924.027-8.211,2.145-10.159,7.961-2.338,6.977-4.136,14.272-7.474,20.755-6.705,13.023-8.2,27.177-10.443,41.211a5.763,5.763,0,0,0,5.216,6.626c2.629.15,5.472.559,7.884-.2,8.017-2.531,15.474-.587,22.49,2.478a24.156,24.156,0,0,0,8.429-17.1,31.1,31.1,0,0,1,2.616-10.7c5.086-10.976,9.846-22.073,20.4-29.562m-33.728,42.507c-6.4.788-12.432,1.53-19.329,2.38-.526-2.9-1.705-5.448-1.28-7.688,3.132-16.476,8.677-32.18,15.957-48.456,9.7.83,17.828,1.774,26.493,6.291a145.728,145.728,0,0,0-21.841,47.473" transform="translate(-547.857 -341.038)" fill="#1a1a1a"/>
                <path id="Path_728" data-name="Path 728" d="M546.9,615.9a45.04,45.04,0,0,0,.907,6.22c4.049,23.924,8.964,47.751,7.36,72.268-.111,1.724,1.482,3.558,2.217,5.191,8.11-.675,15.458-1.023,22.728-1.958,9.977-1.286,12.452-5.04,11.567-14.822-1.617-17.87-2.9-35.768-4.279-53.658-.36-4.655-.578-9.322-.9-14.643-12.312-1.44-22.688-2.656-33.065-3.868-3.307-.387-6.615,2.153-6.532,5.27m29.746,10.229c.368,19.231,5.156,38.661,3.823,58.214-4.438,3.62-8.718,4.827-13.56,2.974-.553-.979-1.416-1.842-1.516-2.784C563.362,665.271,561.412,646,559.371,626c6.284-2.732,11.25-3.461,17.278.13" transform="translate(-194.65 -217.318)" fill="#1a1a1a"/>
                <path id="Path_729" data-name="Path 729" d="M2461.772,2413.682c-12.432-16.325-27.425-30.662-37.709-48.676-.85-1.488-3.28-2.071-4.315-2.682-8.647,5.91-16.439,11.15-24.129,16.542-3.325,2.33-3.8,6.339-1.361,9.707a31.562,31.562,0,0,0,3.084,3.6,523.4,523.4,0,0,1,41.652,47.5,16.825,16.825,0,0,0,14,6.971c1.02-2.154,1.721-4.717,3.25-6.6,1.963-2.413,4.668-4.2,6.915-6.4,6.727-6.594,6.8-9.6.59-17.485-.653-.828-1.331-1.636-1.973-2.475m-13.46,17.283c-10.128-8.616-34.941-35.312-40.916-44.157,2.5-5.689,6.432-7.939,12.243-9.289,11.156,16.389,26.75,29.844,37.206,48.531Z" transform="translate(-851.605 -840.786)" fill="#1a1a1a"/>
                <path id="Path_730" data-name="Path 730" d="M762.583,2260.31c5.477,13.173,8.451,14.535,21.129,8.439,4.688-2.253,9.795-4.233,12.451-11.765-9.279-21.426-18.642-43.042-28.016-64.686-13.39-.385-24.236,5.152-35.348,9.54-1.076.426-1.484,2.54-2.094,3.667,8.416,13.8,16.71,27.2,24.781,40.74a110.426,110.426,0,0,1,7.1,14.065m-6.237-55.214c2.7.361,6.358,2.5,7.406,4.831,6.638,14.8,12.676,29.869,18.863,44.867.164.4-.207,1.008-.557,2.472-1.709.67-3.94,1.546-6.83,2.679-8.944-18.229-21.808-33.5-30.313-52.787,4.643-.944,8.17-2.5,11.432-2.061" transform="translate(-260.069 -780.264)" fill="#1a1a1a"/>
                <path id="Path_731" data-name="Path 731" d="M496.656,414.564c7.762-1.141,16-2.455,24.278-3.534,6.1-.793,9.215-4.3,10.427-11.382-5.175-9.835-10.416-20.714-16.5-31.1-5.982-10.217-9.411-22.278-19.579-29.743l-46.047,14.682c16.7,21.506,31.738,40.878,47.419,61.077m1.8-54.443c7.615,12.384,16.359,24.261,19.913,38.947-4.9,4.3-10.393,5.218-17.189,5.059a412.738,412.738,0,0,1-34.877-43.762c6.234-6.437,14.406-6.5,21.243-9.033,5.522.942,8.509,4.88,10.91,8.789" transform="translate(-159.89 -120.586)" fill="#1a1a1a"/>
                <path id="Path_732" data-name="Path 732" d="M2207.308,1373.579a188.416,188.416,0,0,0,21.54-3.689c2.047-.513,4.476-3.44,4.91-5.624.9-4.516,1.613-9.524.58-13.9-4.6-19.478-9.124-38.927-10.764-58.944-.25-3.066-1.589-6.042-2.871-10.669-4.885,1.9-8.287,3.237-11.7,4.542-3.92,1.492-7.775,3.235-11.8,4.349-3.522.972-7.309.975-10.867,1.857-3.713.919-8.234-.255-11.641,3.229,17.677,23.138,24.381,49.417,28.407,76.682,1.495.812,2.962,2.33,4.211,2.169m-15.85-72.856,22.545-8.116c3.811,23.247,9.708,44.449,11.271,67.386l-13.049,2.186c-3.2-11.416-5.734-22.078-9.217-32.415-3.3-9.778-7.6-19.223-11.55-29.04" transform="translate(-774.004 -455.838)" fill="#1a1a1a"/>
                <path id="Path_733" data-name="Path 733" d="M1803.686,748.1c-3.614,4.769-3.645,7.774-.608,11.188,13.915,15.644,18.118,35.143,21.158,54.993.532,3.479,1.683,7.3-1.31,10.555-1.729,1.879-1.407,3.639,1.859,5.149,10.107-7.383,22.431-9.157,34.661-9.275,3.488-10.234,3.757-10.588,1.147-20.641a208.662,208.662,0,0,1-6.642-45.194c-.108-3.045.236-6.445-3.519-8.1-15.38,2.862-30.854,5.506-46.745,1.329m40.512,12.061c3.922,15.9,5.829,32.5,8.846,48.342-5.317,5.235-11.152,5.578-17.089,7.451-5.839-9.109-6.177-19.453-9.675-28.651-3.318-8.725-8.785-16.849-8.9-28.353,9.4-.089,17.687-3.034,26.82,1.211" transform="translate(-640.96 -265.788)" fill="#1a1a1a"/>
                <path id="Path_734" data-name="Path 734" d="M247.739,2756.356a63.825,63.825,0,0,0-5.458-27.143c-14.489,5.2-29.2,4.715-43.862,4.973-1.113.02-2.193,1.957-3.6,3.3,1.133,2.479,2.411,4.758,3.242,7.192,4.058,11.912,8.345,23.767,11.876,35.84,3.08,10.527,6.242,28.52,9.015,39.143.3,1.143,2.516,2.85,3.265,2.6,10.083-1.689,23.4-2.967,32.431-5.006,2.008-.454,3.386-3.692,5.531-6.207-10.5-16.814-12.981-35.361-12.435-54.689m.292,50.975c-5.086,4.871-15.063,5.035-21.386,9.563-.006-5.435-.886-15.27-1.9-19.187-3.813-14.763-8.236-29.362-12.313-44.056-.791-2.851-1.081-5.838-1.935-10.613,7.75,1.139,14.315-1.748,21.364-1.916a22.764,22.764,0,0,1,4.976.4c2.954,9.793,6.086,19.107,5.525,29.347a68.7,68.7,0,0,0,4.163,26.319c1.146,3.323,1.082,7.062,1.5,10.143" transform="translate(-69.338 -971.367)" fill="#1a1a1a"/>
                <path id="Path_735" data-name="Path 735" d="M256.533,1157.206c-7.435,2.408-14.791,5.065-22.146,7.715-4.339,1.564-9.563,1.175-13.135,6.28,2.252,9.693,4.583,18.734,6.411,27.879,1.937,9.681,3.5,19.441,5.036,29.2,1.414,8.944-2.571,18.321,1.226,27.855,2.347-1.3,4.148-1.7,4.9-2.811,5.558-8.22,13.227-13.024,22.607-16.12,8.381-2.764,8.541-4.533,7.462-14.434-1.929-17.708-5.984-35.235-4.684-53.241a33.477,33.477,0,0,0-.636-7.824,5.583,5.583,0,0,0-7.037-4.494m-12.695,79.484c-8.526-19.7-6.669-40.752-13.307-60.7,7.4-4.194,15.17-6.371,22.475-8.876a23.125,23.125,0,0,1,2.544,3.072,7.4,7.4,0,0,1,.909,2.995c.921,17.785,1.784,35.573,2.695,54.066l-15.315,9.445" transform="translate(-78.746 -411.779)" fill="#1a1a1a"/>
                <path id="Path_736" data-name="Path 736" d="M1438.43,2699.689c-11.393,1.016-21.806,1.985-32.23,2.856-5.4.451-10.164,1.805-13.038,7.785,2.765,3.974,5.347,7.891,8.137,11.652,7.853,10.575,15.371,21.3,20.988,33.333,3.76,8.052,9.388,15.16,11.726,24,.923,3.49,6.216,6.1,8.843,4.612,8.1-4.6,15.971-9.6,25.039-15.125-5.864-12.841-11.1-23.7-15.81-34.789-4.879-11.484-9.246-23.182-13.655-34.323m3.186,74.388c-11.308-20.46-22.353-40.449-34.609-62.631l23.556-3.351c7.627,8.7,9.348,19.424,13.908,28.733,4.371,8.925,8.287,18.073,12.552,27.446-4.092,5.094-9.7,6.545-15.406,9.8" transform="translate(-495.847 -960.859)" fill="#1a1a1a"/>
                <path id="Path_737" data-name="Path 737" d="M2077.7,486.247c4.4-7.357,4.427-7.357,4.442-11.767.072-21.634,2.02-42.942,10.606-63.156.551-1.3.255-2.966.387-5.01-10.569-4.554-21.009-9.132-31.523-13.532-3.336-1.4-7.617,1.722-7.637,5.508-.012,3.1.915,6.269.548,9.3-1.939,16.122-3.469,32.346-6.615,48.245-1.266,6.4-.124,11.127,3.431,17.145,11.375,0,17.1,10.289,26.362,13.264m-16.449-82.575c5.452,1.766,9.4,2.843,13.171,4.34,2.333.924,4.409,2.493,6.94,3.969-.985,5.1-1.869,9.641-2.739,14.191-.983,5.125-2.154,10.227-2.869,15.391-.642,4.654-.909,9.371-1.088,14.071-.176,4.607,1.472,9.632-4.806,13.43-4.093-2.387-8.917-5.2-13.93-8.12.817-19,1.165-37.2,5.322-57.273" transform="translate(-728.701 -139.675)" fill="#1a1a1a"/>
                <path id="Path_738" data-name="Path 738" d="M1487.919,1193.436c-2.227,1.964-4.736,5.179-4.732,7.818a231.87,231.87,0,0,0,1.855,28.21,5.708,5.708,0,0,0,9.768,3.124c12.832-13.293,28.695-20.883,46.211-25.72,6.448-1.782,7.632-5.343,4.318-11.881-3.807-7.509-7.379-15.015-8.861-23.475-.578-3.305-3.109-6.271-5.158-10.165-9.192,6.284-16.634,11.082-23.748,16.321-6.76,4.98-13.356,10.219-19.651,15.769m46.169-3.225c.994,2.324,1.54,4.844,2.517,8.011-15.249,4.357-25.812,16.8-41.073,20.008-3.834-2.822-3.333-6.537-2.111-10,1.705-4.84.85-10.71,5.712-14.326,8.8-6.545,17.651-12.974,28.8-16.874,2.223,4.723,4.32,8.9,6.154,13.185" transform="translate(-527.888 -413.34)" fill="#1a1a1a"/>
                <path id="Path_739" data-name="Path 739" d="M2080.791,754.972c10.371-6.754,13.459-17.034,15.015-28.29.582-10.906-4.744-18.3-15.255-20.745-4.1-.952-8.366-2.115-12.47-1.854-9.027.575-18.124,2.54-24.23,9.737-8.178,9.636-7.05,27.277,1.445,36.753,9.764,10.888,23.292,12.351,35.5,4.4m-28.275-36.008c8.123-3.892,16.319-6.22,25.312-2.862,5.652,2.109,8.5,6.021,8.071,11.831a24.657,24.657,0,0,1-16.472,20.866c-5.315,1.716-11.363-.172-15.337-5.057-6.336-7.789-6.634-16.031-1.573-24.779" transform="translate(-725.455 -250.58)" fill="#1a1a1a"/>
                <path id="Path_740" data-name="Path 740" d="M829.5,2602c-18.387-11.889-38.295-.749-43.608,17.219-5.206,17.609,13.268,34.8,27.94,33.63a39.824,39.824,0,0,0,5.825-1.306c15.146-5.136,22.694-20.453,18.7-36.991A19.834,19.834,0,0,0,829.5,2602m-.768,23.584a16.323,16.323,0,0,1-16.259,15.7c-8.9.24-15.968-7.725-15.792-17.78.143-8.18,8.658-16.6,16.1-15.922a17.5,17.5,0,0,1,15.951,18" transform="translate(-279.392 -924.335)" fill="#1a1a1a"/>
                <path id="Path_741" data-name="Path 741" d="M1310.246,2899.356c-16.172-8.687-25.706-6.936-36.51,7.949-12.732,17.544-5.235,37.049,15.969,42.587,5.208,1.36,10.612,2.588,15.263-.583,9.779-6.659,18.04-14.582,17.532-27.335.435-10.4-3.666-18.006-12.254-22.617m-13.659,40.324c-9.377.023-17.439-6.456-17.824-14.324-.472-9.587,7.874-20.523,15.911-20.848,7.7-.312,17.873,9.255,18.095,17.009.258,9.064-7.833,18.145-16.182,18.163" transform="translate(-451.123 -1030.057)" fill="#1a1a1a"/>
                <path id="Path_742" data-name="Path 742" d="M1473.371,107.693c8.834,4.291,16.648,2.219,23.425-3.713,7.387-6.467,11.823-14.8,12.216-24.9.51-11.763-6.23-21.237-17.321-22.961-8.919-1.389-17.948-.946-26.468,2.707-13.311,5.707-18.078,20.3-10.954,32.93,4.38,7.766,11.351,12.171,19.1,15.936M1466.02,71.56c3.735-3.414,9.638-5.935,15.726-6.513,13.581-1.281,21.334,10.923,15.214,23.121-4.4,8.762-9.681,12.03-17.2,10.644-8.986-1.66-16.65-8.952-17.876-17.646-.424-3.007.4-6.191,4.135-9.605" transform="translate(-516.422 -19.715)" fill="#1a1a1a"/>
                <path id="Path_743" data-name="Path 743" d="M2088.973,1796.508c-15.495-.147-25.522,9.65-25.975,25.443-.508,17.689,11.2,27.6,25.72,28,13.694.377,27.486-13.779,27.814-27.244.36-14.9-11.369-26.045-27.559-26.2m3.014,43.969c-7.942-1.629-14.992-3.952-17.228-12.211-2.274-8.416.745-15.352,7.6-20.862h13.685c15.135,14.092,14.531,20.279-4.055,33.073" transform="translate(-734.246 -639.403)" fill="#1a1a1a"/>
                <path id="Path_744" data-name="Path 744" d="M2397.535,1287.443c-1.385-.091-2.859,1.132-5,2.052-1.617,7.35-3.612,14.974-4.9,22.715-1.2,7.216-2.347,14.564-2.281,21.841.107,12.049.641,12.144,13.936,12.45,1.05.025,2.1.075,3.151.133,9.813.544,11.976-.352,13.346-8.482,1.7-10.054,5.334-19.184,10-28.115a48.622,48.622,0,0,0,4.1-11.892c.522-2.337-.275-4.972-.534-8.147-11-.915-21.4-1.865-31.823-2.555m19.117,20.144c-3.1,7.723-6.413,15.365-9.651,23.034-1.859,4.4-4.6,6.938-9.644,4.653-4.687-13.3-4.48-16.417,2.4-34.772,5.823-3.376,11.546-2.38,18.01.792-.4,2.42-.4,4.5-1.114,6.293" transform="translate(-848.982 -458.218)" fill="#1a1a1a"/>
                <path id="Path_745" data-name="Path 745" d="M441,150.252c5.708.747,11.33,2.132,17,3.169,7.371,1.35,11.107-1.973,9.521-9.745-2.262-11.088-1.393-21.92.348-32.884a100.768,100.768,0,0,0,1.1-14.129c.081-5.182-2.488-7.833-7.663-7.965-7.3-.187-14.616-.048-23.131-.048-1.83,4.9-3.811,9.63-5.334,14.5-1.08,3.456-2.268,7.129-2.146,10.662.325,9.418,1.072,18.84,2.185,28.2.52,4.367,3.02,7.576,8.112,8.242M443.988,97.7c5.7-.7,10.775-1.575,15.965,1.808-1.467,13.488-2.927,26.887-4.595,42.222-4.366-.383-7.874-.69-11.753-1.027-5.2-14.707-5.719-28.751.383-43" transform="translate(-153.291 -31.534)" fill="#1a1a1a"/>
                <path id="Path_746" data-name="Path 746" d="M1020.44,1159.008c14.367-3.02,24.327-15.4,24.77-30.748.021-6.593-1.631-12.392-7.009-16.838-10.593-8.758-32.876-7.073-41.934,3.324-8.657,9.933-7.335,26.382,2.766,37.473,5.907,6.485,13,8.556,21.407,6.79m-18.6-34.3c1.767-5.727,5.365-8.708,11.568-8.547,6.172.162,12.326,1.009,17.634,1.48,5.582,6.612,3.918,12.761,1.755,18.708-1.613,4.438-4.212,8.137-8.863,10.405-8.536,4.167-16.981,1.793-20.9-6.775a21.035,21.035,0,0,1-1.2-15.271" transform="translate(-352.545 -393.562)" fill="#1a1a1a"/>
                <path id="Path_747" data-name="Path 747" d="M2851.835,1740.235c16.932,6.165,36.8-7.758,36.387-25.689-.193-8.3-4.56-14.812-9.932-20.817-3.67-4.1-8.383-3.653-13.427-3.66-3.31.269-6.984.435-10.615.929-1.482.2-3.407.716-4.206,1.78-4.332,5.785-10.138,10.467-12.482,17.766-3.423,10.666,3.678,25.836,14.274,29.691m.677-33.389c5.115-3.8,10.976-5.864,18.7-7.3,2.074,2.935,3.77,4.925,5.007,7.166,3.357,6.083,3.235,12.211-1.227,17.631-4.417,5.365-10.851,6.262-17.178,5.51-4.97-.594-8.385-4.071-9.929-9.01a12.7,12.7,0,0,1,4.629-13.995" transform="translate(-1009.621 -601.516)" fill="#1a1a1a"/>
                <path id="Path_748" data-name="Path 748" d="M1870.783,2698.58c-6.656.874-13.1,3.373-16.961,4.422-4.346,2.5-6.105,3.7-8,4.583-13.224,6.159-11.64,32.167-.549,38,6.7,3.527,13.651,6.071,21.01,5.905a19.16,19.16,0,0,0,16.85-10.223c5.4-10.129,6.926-20.94,3.122-32.112-2.553-7.506-7.661-11.6-15.468-10.577m-17.261,39.371c-1.787-.992-3.367-2.523-3.464-7.709s2.784-9.9,9.145-16.6,11.563-6.351,18.126-3.644c.542,4.566,1.627,9.167,1.529,13.743-.309,14.454-12.61,21.271-25.335,14.211" transform="translate(-653.609 -960.408)" fill="#1a1a1a"/>
                <path id="Path_749" data-name="Path 749" d="M2793.278,291.8c-5.624-1.337-11.365-2.182-15.011-2.86-17.737-.267-25.918,8.419-24.3,23.682a57.2,57.2,0,0,0,1.8,9.33c2.744,9.839,12.531,15.465,22.1,12.517a61.377,61.377,0,0,0,11.6-5.015c9.81-5.45,13.3-14.655,13.721-25.192.259-6.436-3.471-10.93-9.911-12.462m-.923,19.66c-2.466,4.757-5.767,8.617-10.809,11.02-8.907,4.244-15.48.67-16.416-9.362-.723-8.99,10.593-14.605,20.434-12.922,5.608-.027,9.327,6.375,6.792,11.264" transform="translate(-980.106 -102.834)" fill="#1a1a1a"/>
                <path id="Path_750" data-name="Path 750" d="M621.333,1375.43a10.521,10.521,0,0,0-3.515,5.013,59.07,59.07,0,0,0-2.643,10.646c-1.317,8.848,9.389,24.8,17.971,26.985a14.45,14.45,0,0,0,4.661.424c12.392-1.024,23.591-11.146,26.087-23.462,3.043-15.012-6.969-27.24-23.268-27.194a43.509,43.509,0,0,0-19.294,7.588M655,1390.565c.145,8.858-8.365,16.947-17.186,16.585-4.2-.172-12.48-8.342-11.447-14.86q.109-13.683,16.851-13.782c6.394-.044,11.674,5.359,11.782,12.058" transform="translate(-218.911 -486.835)" fill="#1a1a1a"/>
                <path id="Path_751" data-name="Path 751" d="M1042.291,320.069c12.676.151,25.779-13.9,25.615-27.37-.193-15.812-11.993-21.523-28.416-23.875-11.1-1.59-23.392,11.7-23.179,23.192.3,16.212,11.1,27.875,25.979,28.053m-8.76-39.951c3.835.22,7.93.41,12.016.707,6.056.439,9.215,4.167,10.856,9.645,1.793,5.971,1.366,11.349-3.885,15.532-4.241,3.379-8.743,5.889-14.36,3.551-1.857-.775-4.438-1.447-5.193-2.927-2.337-4.575-4.626-9.377-5.66-14.354-1.022-4.929,1.876-8.957,6.226-12.153" transform="translate(-361.719 -95.632)" fill="#1a1a1a"/>
                <path id="Path_752" data-name="Path 752" d="M144.98,624.45a23.445,23.445,0,0,0,8.924,2.561c17.111.7,23.034-11.42,22.7-27.283-.056-2.558-1.215-5.119-2.01-7.634-3.442-10.892-12.16-15.785-23.329-13.007-8.539,2.124-14.684,7.882-20.844,13.858-.913,5.187-1.82,10.329-2.67,15.16,7.228,9.919,10.134,12.9,17.234,16.346m1.934-30.609c1.745-2.705,5.491-4.651,8.735-5.657,1.8-.557,5.39.888,6.476,2.542,3.542,5.4,3.879,11.7,2.935,18.01-.776,5.173-4.257,8.062-9.7,10.352-5.52-2.049-10.815-3.151-12.506-9.145-1.737-6.144,1.047-11.422,4.061-16.1" transform="translate(-45.467 -205.833)" fill="#1a1a1a"/>
                <path id="Path_753" data-name="Path 753" d="M1725.453,1390.749c-11.324-.325-21.666,3.631-28.974,13.227-6.839,8.979-3.217,29.326,6.441,35.385,1.281.8,2.96.941,4.394,1.538,13.614,5.667,38.453-9.83,36.312-28.85,1.352-9.9-5.295-20.929-18.173-21.3m9.823,24.7c-1.246,3.815-4.179,7.127-6.619,10.478a12.028,12.028,0,0,1-3.8,2.773c-4.517,2.64-9.3,6.288-14.562,3.49-6.249-3.318-7.234-10.184-7.505-16.46-.3-6.988,6.59-12.407,15.182-12.9,4.01-.228,8.021-.408,13.065-.662,4.27,3.932,5.758,8.618,4.237,13.276" transform="translate(-602.546 -494.981)" fill="#1a1a1a"/>
                <path id="Path_754" data-name="Path 754" d="M876.4,1988.209a142.319,142.319,0,0,0-15.68,1.339c-7.176.942-12.992,4.545-16.4,10.891a25.023,25.023,0,0,0,16.019,36.3,11.732,11.732,0,0,0,7.6-.654c12.267-6.257,21.372-15.077,22.241-31.568-.026-.462-.039-2.563-.31-4.633-1.184-8.983-4.341-11.862-13.467-11.678m.164,29.169c-3.8,3.467-8,6.494-12.175,9.832-7.791-2.525-11.308-6.6-12.415-12.8-1.012-5.672.925-10.2,5.392-13.9,5.506-.89,11.113-1.977,16.768-2.648,3.837-.453,6.868,2.7,6.994,6.688.155,4.874-.882,9.467-4.564,12.827" transform="translate(-299.414 -707.63)" fill="#1a1a1a"/>
                <path id="Path_755" data-name="Path 755" d="M798.426,987.418c9.6,16.2,29.221,16.944,40.185,1.341,4.444-6.328,6.547-13.454,2.507-20.751-4.256-7.683-10.54-12.974-18.058-13.695-7.269-.227-11.7,1.505-18.977,6.688a20.311,20.311,0,0,0-5.657,26.416m9.453-15.729c2.082-5.086,8.478-7.336,16.416-5.773,5.369,1.054,9.662,6.085,9.414,11.44-.669,4.842-3.861,8.242-8.458,10.1-5.318,2.147-10.374.979-14.7-2.743-3.418-2.94-4.48-8.609-2.67-13.026" transform="translate(-283.222 -339.647)" fill="#1a1a1a"/>
                <path id="Path_756" data-name="Path 756" d="M1569.406,1455.988c-8.259-2.265-15.684.035-22.483,4.643-7.8,5.282-11.528,16.474-8.687,25.241,2.635,8.137,14.922,17.853,22.628,17.532,2.55-.105,5.568-.561,7.5-2.019,7.17-5.41,14.123-11.32,16.849-20.333,2.266-7.485.578-14.551-4.194-21.6-3.6-1.078-7.58-2.357-11.612-3.463m-5.995,36.715c-4.916,1.054-12.351-2.86-14.39-7.578-2.335-5.4-.708-12.879,4.395-15.267a47.572,47.572,0,0,1,14.974-3.9c4.247-.451,7.385,3.765,7.448,8.406.1,7.417-6.429,17.052-12.426,18.335" transform="translate(-547.143 -517.894)" fill="#1a1a1a"/>
                <path id="Path_757" data-name="Path 757" d="M762.639,2494.481c7.754-5.158,12.343-19.171,9.089-27.8-2.811-7.456-9.05-9.445-15.9-10.954-15.665-3.454-26.073,4.477-26.1,20.058.081,1.041.089,2.094.254,3.121,2.664,16.684,14.976,27.339,32.657,15.578m-18.929-26.97c3.008.325,5.9.74,8.816.923,2.451.152,4.92.032,6.859.032,3.506,4.607,2.627,8.906.733,12.522-1.306,2.495-4.132,4.546-6.733,5.926-4.107,2.177-8.437.333-10.366-3.8-2.339-5.007-2.306-9.927.691-15.607" transform="translate(-259.721 -873.744)" fill="#1a1a1a"/>
                <path id="Path_758" data-name="Path 758" d="M70.562,1635.285c-9.815,1.013-17.418,4.637-22.647,12.917-5.316,8.416-5.353,17.309-.944,25.333,4.179,7.607,11.9,11.8,20.933,11.809a17.557,17.557,0,0,0,8.807-2.688c11.454-7.144,15.721-17.665,13.078-31.044-2.128-10.776-9.031-16.481-19.227-16.326m-2.3,40.125c-4.194.553-9.665-2.263-11.807-6.559-2.227-4.471-2.734-9.451.468-13.451,3.432-4.284,5.984-10.146,13.4-9.368,7.2.755,11.674,4.924,12.008,12.206.309,6.788-7.487,16.3-14.073,17.172" transform="translate(-15.584 -582.021)" fill="#1a1a1a"/>
                <path id="Path_759" data-name="Path 759" d="M1332.806,613.131c3.471-.056,7.741-1.039,10.206-3.221,6.814-6.036,11.6-13.562,11.736-19.823.166-12.473-4.682-20.9-12.608-25.646-7.158-4.284-13.144-.341-19.277,2.585a26.777,26.777,0,0,0-12.322,11.856,22.16,22.16,0,0,0-2.686,10.434c.37,12.659,12.278,24.026,24.951,23.814m-7.667-37.02c3.631-2.357,7.609-3.484,11.892-1.491,4.636,2.159,8.608,7.748,8.656,12.587-.739,6.261-3.6,11.688-9.366,15.17-4.185,2.523-13.018-1.362-15.977-6.74-3.479-6.319-1.32-15.555,4.8-19.527" transform="translate(-465.483 -200.22)" fill="#1a1a1a"/>
                <path id="Path_760" data-name="Path 760" d="M1949.3,1971.145a18.179,18.179,0,0,0,11.681,15.761c11.585,4.841,26.689-2.178,32.313-14.786,3.28-7.348,3.324-14.429-1.434-20.837-4.834-6.51-11.6-8.581-19.568-6.282-1.488.432-3.152.228-4.673.58-11.13,2.573-18.752,12.664-18.319,25.565m27.9-16.714c5.852-.7,10.7,7.375,8.017,12.237-2.583,4.678-5.814,8.715-10.993,10.915-5.547,2.355-12.3-1.056-13.268-6.947-1.615-9.828,5.111-16.535,16.244-16.205" transform="translate(-693.778 -691.932)" fill="#1a1a1a"/>
                <path id="Path_761" data-name="Path 761" d="M236.81,1027.316c1.879-.714,6.8-1.5,10.321-4.144,9.513-7.152,12.417-19.935,8-31.082-4.359-10.991-13.04-14.613-24.116-10.062-6.552,2.691-17.54,20.107-16.94,26.849.933,10.486,9.252,18.143,22.739,18.439m-5.166-33.773c1.5-.337,3.521-1.252,5.5-1.159,8.23.385,12.455,6.222,9.731,13.611-2.567,6.961-7.091,11.49-15.638,10.478-3.641-7.6-4.863-14.944.412-22.93" transform="translate(-76.183 -348.835)" fill="#1a1a1a"/>
                <path id="Path_762" data-name="Path 762" d="M2895.169,2916.814a17.47,17.47,0,0,0,10.616.783c9.156-2.13,18.376-15.263,18.217-26.547.548-8.056-4.9-13.986-12.681-18.32-7.725-4.308-14.059-.795-20.114,3.876a14.813,14.813,0,0,0-2.457,1.939c-12.538,14.957-11.451,29.9,6.419,38.269m1.8-29.678c1.317-.862,2.881-1.348,4.17-2.24,2.882-1.987,5.868-2.522,8.793-.452a11.229,11.229,0,0,1,4.206,12.618c-1.546,4.308-3.5,6.069-13.135,11.591-2.191-1.6-5.2-2.982-7.05-5.3-4.549-5.679-3.146-12.191,3.016-16.219" transform="translate(-1025.17 -1021.752)" fill="#1a1a1a"/>
                <path id="Path_763" data-name="Path 763" d="M659.723,2752.617c-.285,11.057,13.722,24.822,24.951,24.474a11.178,11.178,0,0,0,3.078-.61c9.784-3.186,16.164-9.621,18.511-19.748,1.409-6.092-1.671-13.53-7.393-15.952-5.7-2.414-11.84-3.8-15.117-4.817-5.643.375-8.336.244-10.884.782a17.271,17.271,0,0,0-13.146,15.87m30.753-2.9c1.511.321,3.475,2.668,3.676,4.281.937,7.59-7.971,14.323-14.458,10.763a17.539,17.539,0,0,1-6.994-7.73c-1.06-2.342.1-5.684.323-9.5,7.336.843,12.475,1.128,17.453,2.188" transform="translate(-234.803 -973.77)" fill="#1a1a1a"/>
                <path id="Path_764" data-name="Path 764" d="M405.2,1692.968c6.431.58,12.976-1.195,16.967-7.752,4.808-7.9,6.744-16.659,4.817-25.827-2.074-9.865-10.519-14.82-20.262-12.52-12.6,2.972-19.432,11.67-23.164,23.328-1.714,5.355-.418,10.176,2.877,14.885,4.489,6.417,10.639,8.176,18.765,7.886m-11.6-17.1c1.714-4.291,3.247-8.714,5.266-12.906a12,12,0,0,1,4.175-4.461c7.96-5.233,14.735-1.935,15.226,7.344a31.806,31.806,0,0,1-.414,6.274c-1.083,7.361-5.471,12.871-11.488,13.214-6.46.37-11.037-2.8-12.765-9.465" transform="translate(-136.243 -585.947)" fill="#1a1a1a"/>
                <path id="Path_765" data-name="Path 765" d="M829.575,521.778c6.384,3.2,12.486,2.084,17.772-2.091,9.217-7.278,12.71-17.268,7.869-28.153-2.527-5.686-4.515-12.716-14.048-14.133a67.342,67.342,0,0,0-14.525,3.535c-8.524,3.144-11.377,9.219-11.246,18.114.164,11.089,4.353,17.8,14.178,22.728m.486-31.216c1.828-3.37,9.954-2.308,12.969-1.174,3.361,1.267,4.415,4.226,4.9,7.431a20.5,20.5,0,0,1,.232,4.673c-.7,8.36-6.923,13.8-13.607,11.655s-6.3-3.64-8.271-9.037c-1.537-4.2,1.595-9.52,3.783-13.548" transform="translate(-290.21 -169.914)" fill="#1a1a1a"/>
                <path id="Path_766" data-name="Path 766" d="M2538.157,2632.931a22.067,22.067,0,0,0-17.812,17.549c-.408,2.068-.73,4.152-1.084,6.191-.683,8.19,2.14,14.291,9.668,18.221,9.064,4.734,18.281,3.786,26.252-3.208,6.725-5.9,8.845-15.9,5.2-24.482-3.815-8.98-14.225-15.663-22.225-14.271m11.708,28.853a28.337,28.337,0,0,1-9.317,5.237c-4.173,1.335-8.361-1.545-9.7-5.736-1.358-4.262-1.31-4.794,1.392-15.053,11.268-3.62,13.828-3.032,18.562,4.265,2.606,4.013,2.564,8.339-.94,11.287" transform="translate(-896.607 -937.033)" fill="#1a1a1a"/>
                <path id="Path_767" data-name="Path 767" d="M1983.494,280.8c8.393,2.49,15.489-.441,21.152-9.366a72.922,72.922,0,0,0,7.058-13.991,14.394,14.394,0,0,0-5.446-16.76c-8.567-5.922-17.786-5.73-26.985-1.71-8.685,3.794-11.635,11.523-12.907,19.648-.35,10.751,6.116,18.91,17.128,22.179m.292-30.914c3.424-1,6.817-2.095,10.263-3.022,3.6-.967,7.882,1.575,8.48,4.9,1.679,9.337-6.839,19.8-15.764,19.361-5.194-.254-9.1-4.532-9.617-10.527-.508-5.928,1.546-9.228,6.638-10.71" transform="translate(-699.853 -84.023)" fill="#1a1a1a"/>
                <path id="Path_768" data-name="Path 768" d="M1189.146,1295.063c2.6.42,5.235.569,6.694.72,9.408.3,10.532-.455,15.953-6.83,3.935-4.632,6.454-10.042,6.719-15.74.747-16.04-6.777-23.419-21.719-20.772-4.966.88-9.59,3.975-14.231,6.33-5.27,2.672-7.244,7.53-7.325,13.088a45.457,45.457,0,0,0,1.025,10.962c1.583,6.734,5.839,11.1,12.885,12.242M1187,1272.952c2.945-7.837,7.8-11.368,16.089-10.945.981.689,3.017,1.548,4.21,3.066,4.984,6.344,2.124,18.356-5.326,21.5-4.566,1.927-9.2.654-13.167-2.277-3.188-2.355-3.713-6.276-1.807-11.343" transform="translate(-418.281 -445.574)" fill="#1a1a1a"/>
                <path id="Path_769" data-name="Path 769" d="M2830.558,2508.228a12.883,12.883,0,0,0,4.68.016c15.777-3.044,22.141-12.957,18.588-28.811-.232-1.031-.5-2.051-.776-3.071-2.927-10.9-8.035-14.785-19.217-14.608-12.684.2-20.3,7.549-21.322,20.556-.989,12.626,6.781,23.845,18.047,25.917m-1.2-35.791c6.7-1.405,13.057.76,14.589,5.971,1.109,3.78,1.628,8.431.416,12.018-1.534,4.542-6.063,7.065-11.079,7.452-3.56.273-7.99-4.38-9.227-9.4a50.033,50.033,0,0,1-.82-5.421c.128-5.993,2.534-9.867,6.121-10.621" transform="translate(-1000.983 -876.172)" fill="#1a1a1a"/>
                <path id="Path_770" data-name="Path 770" d="M2850.552,1273.359c6.669,4.326,13.669,4.152,20.677-.669,7.5-5.156,11.54-12.3,13.215-20.743,3.018-15.191-3.494-23.185-18.867-24.01-.528-.029-1.054-.071-1.58-.108-10.442-.441-17.487,3.5-23.235,15.715-6.353,13.5-.339,23.243,9.789,29.815m6.358-33.485a64.6,64.6,0,0,1,8.05-2.229c7.023.145,12.146,5.976,11.037,11.686a35.363,35.363,0,0,1-2.923,8.959c-2.677,5.373-7.984,8.182-12.817,7.319-5.748-1.025-10.931-6.344-11.333-11.631-.474-6.21,2.614-11.96,7.985-14.1" transform="translate(-1010.14 -436.991)" fill="#1a1a1a"/>
                <path id="Path_771" data-name="Path 771" d="M80.464,2882.622c-11.067-1.774-24.191.178-27.784,9.43a38.31,38.31,0,0,0-2.759,12.231c-.35,9.857,11.047,20.453,20.658,19.779,12.37-.87,22.787-11.869,22.694-23.96-.073-9.275-4.589-16.163-12.809-17.48M67.229,2912.5c-4.422-1.368-6.845-5.781-6.278-11.434.532-5.359,7.456-9.668,14.582-9.079,3.813.315,6.92,4.484,6.864,9.209-.1,7.766-7.872,13.562-15.168,11.3" transform="translate(-17.765 -1025.757)" fill="#1a1a1a"/>
                <path id="Path_772" data-name="Path 772" d="M1668.735,1886.7c.263-3.378-2.453-6.812-7.006-9.335-7.3-4.045-14.754-5.022-22.791-2.391-9.189,3.012-13.992,8.785-15.177,18.02-1.168,9.083,3.617,15.285,10.024,20.113,6.649,5.014,16.7,4.1,23.734-1.122,7.762-5.766,11.083-13.742,11.216-25.286m-21.727,19.4c-6.02.23-10.8-3.461-12.491-9.849-.508-1.931-.078-4.111-.078-7.182,4.759-1.971,8.071-3.492,11.49-4.718,3.982-1.428,7.447.379,10.046,2.987,2.8,2.809,3,6.661,1.439,10.337-1.955,4.608-4.91,8.213-10.406,8.425" transform="translate(-577.858 -666.809)" fill="#1a1a1a"/>
                <path id="Path_773" data-name="Path 773" d="M1700.53,2377.727c11-.493,23.812-11.813,23.968-21.175.221-13.175-10.437-23.685-23.949-23.617-13.343.066-20.161,6.918-20.326,20.425-.141,11.234,11.148,24.777,20.307,24.367m-2.552-31.21c1.93-.61,3.819-1.362,5.734-2.034,1.376-.483,2.765-.938,3.985-1.349,12.934,12.617,10.873,18.552-8.255,24.726-4.494-1.157-6.723-4.7-8.284-8.6-2.353-5.872.4-10.718,6.821-12.74" transform="translate(-598.015 -830.326)" fill="#1a1a1a"/>
                <path id="Path_774" data-name="Path 774" d="M2232.246,2365.934c-16.008-3.461-29.156,1.026-32.483,19.885-1.35,7.659,1.008,13.4,6.609,18.115,4.6,3.871,10.035,5.564,16.429,5.991,3.848-1.337,8.174-1.962,11.453-4.153,9.186-6.139,12.894-20.924,8.407-31.021a14.537,14.537,0,0,0-10.415-8.817m-5.64,33.408a14.63,14.63,0,0,1-17.1-8.211,9.471,9.471,0,0,1-.476-6.027c2.157-7.719,12.869-13.1,20.38-10.517,4.03,1.383,6.474,5.032,6.576,9.809.149,7.1-3.937,13.616-9.377,14.947" transform="translate(-782.796 -841.689)" fill="#1a1a1a"/>
                <path id="Path_775" data-name="Path 775" d="M2569.389,2248.376c10.025-3.98,18.153-16.675,17.636-27.583-.187-3.937-2.1-6.873-5.133-9.331-7.377-5.966-15.348-6.055-23.785-2.828-9.677,3.7-13.166,11.419-13.908,24.317-.368,9.218,13.935,19.894,25.191,15.426m-14.876-22.255c1.5-5.541,9.859-10.106,16.466-8.989a7.543,7.543,0,0,1,5.684,10.5c-2.427,5.4-5.858,9.77-11.709,11.572a4.517,4.517,0,0,1-1.612-.206c-7.055-4.111-10.019-8.468-8.829-12.882" transform="translate(-905.515 -785.33)" fill="#1a1a1a"/>
                <path id="Path_776" data-name="Path 776" d="M103.474,2199.318c-5.611-.2-14.469,3.734-19.3,8.758-5.044,5.243-6.086,10.942-2.656,17.242a73.9,73.9,0,0,0,6.986,10.461c6.5,8.205,16.871,9.493,25.03,3.182a43.989,43.989,0,0,0,5.551-5.561c6.481-7.194,5.953-15.222,2.776-23.6-3.186-8.4-10.745-9.128-18.389-10.482m8.94,28.217c-4.175,6.576-10.033,7.464-15.6,2.217a26.018,26.018,0,0,1-3.877-4.819c-3.451-5.334-2.136-9.687,3.866-12.542,2.784-1.322,5.752-2.264,9.382-3.67,2.184,1.741,5.216,3.151,6.655,5.527,2.558,4.217,2.333,8.931-.43,13.287" transform="translate(-28.302 -782.767)" fill="#1a1a1a"/>
                <path id="Path_777" data-name="Path 777" d="M2540.721,1051.067a54.191,54.191,0,0,0,4.316-8.313c3.245-8.369-.495-15.284-5.293-21.682-1.086-1.449-3.469-2.351-5.4-2.68-15.824-2.689-29.374,8.611-29.633,26.143.547,1.438.923,4.924,2.826,7.031,10.6,11.751,23.526,15.445,33.18-.5m-24.925-5.939c-.442-5.454,6.018-15.5,9.4-16.224a9.445,9.445,0,0,1,11.076,11.2c-.989,4.922-2.3,6.429-12.2,13.382l-8.279-8.354" transform="translate(-891.465 -362.32)" fill="#1a1a1a"/>
                <path id="Path_778" data-name="Path 778" d="M1939.662,1784.418c-3.635-2.906-7.925-4.995-12.041-7.49-4.775,1.308-9.411,2.223-13.783,3.854-8.745,3.264-12.3,10.629-10.9,19.989.931,6.191,4.035,10.577,8.766,14.3,7.16,5.632,13.553,5.844,21.558.424,9.749-6.6,14.626-15.927,11.759-23.574a18.167,18.167,0,0,0-5.363-7.5m-7.644,19.6a28.31,28.31,0,0,1-3.773,2.869c-4.991,3.362-9.1,2.561-11.842-2.523-1.992-3.693-4.144-7.505-1.07-12.511a68.212,68.212,0,0,1,8.068-3.09,10.229,10.229,0,0,1,11.043,3.877c2.132,3.192,1.167,7.947-2.426,11.379" transform="translate(-677.178 -632.435)" fill="#1a1a1a"/>
                <path id="Path_779" data-name="Path 779" d="M2607.037,403.058c3.685,2.656,7.821,2.778,11.939,1.019a28.431,28.431,0,0,0,15.143-15.132c5.972-13.175-2.8-27.337-17.072-27.5-1.763.093-3.341.1-4.9.273-13.75,1.536-20.233,10.554-17.569,23.957,1.546,7.779,6.394,13.009,12.458,17.381m-.075-29.658c2.665-3.5,11.43-3.208,15.719-1.821,6.209,2.012,6.8,11.633,2.469,16.539-2.65,3-6.7,8.11-14.2,4.349s-12.241-8.246-3.989-19.067" transform="translate(-923.239 -128.645)" fill="#1a1a1a"/>
                <path id="Path_780" data-name="Path 780" d="M598.947,2025.63c-5.444,1.668-10.4,4.874-15.676,7.166-5.622,2.445-7.942,6.572-7.963,12.823,1.509,4.955,2.515,10.153,4.726,14.773a12.8,12.8,0,0,0,6.843,5.959c7.257,2.416,14.35,2.078,20.819-3.14,8.054-6.5,11.1-17.457,7.348-28.5-2.378-6.988-9.087-11.231-16.1-9.085m9.022,21.842c-.569,5.748-7.207,11.452-13.3,11.152-2.153-.105-5.276-2.006-6.042-3.87-1.311-3.192-1.114-7-1.546-10.546,4.069-3.314,7.642-6.222,11.708-9.53,2.831,1.878,5.93,3.086,7.656,5.344,1.4,1.834,1.765,4.987,1.521,7.45" transform="translate(-204.761 -720.752)" fill="#1a1a1a"/>
                <path id="Path_781" data-name="Path 781" d="M2695.279,799.2c4.186-.521,7.377-.643,10.436-1.349,9.5-2.192,14.382-9.375,14.883-21.465.387-9.313-2.786-13.413-13.073-16.851-2.49-.832-5.009-1.566-7.5-2.4-3.827-1.288-7.214-.211-10.5,1.76-9.052,5.431-13.553,23.657-7.806,32.434,3.385,5.166,8.333,7.826,13.558,7.875m.176-32.781c3.208.919,6.733,1.713,10.1,2.946,3.861,1.416,5.568,4.446,5.581,8.583.016,5.272-1.49,8.182-5.974,9.961a25.806,25.806,0,0,1-7.586,1.92c-4.885.331-8.806-3.977-8.634-8.99.176-5.27.281-5.508,6.516-14.421" transform="translate(-953.552 -269.275)" fill="#1a1a1a"/>
                <path id="Path_782" data-name="Path 782" d="M2098.916,1092.906c.349,1.337,1.067,4.38,1.947,7.377,3.474,11.808,13.78,16.089,24.628,10.31,9.743-5.189,11.981-14.233,11.784-24.075-.219-10.921-9.346-18.274-20.245-17-12,1.4-18.161,8.745-18.114,23.387m28.094-7.443c1.434,4.148,1.588,8.464-.984,11.9-1.972,2.641-5.271,4.295-8.567,6.841-5.442-5.43-7.628-9.942-7.943-15.3a9.315,9.315,0,0,1,8.009-9.787c4.255-.513,8,2.049,9.484,6.342" transform="translate(-747.035 -380.607)" fill="#1a1a1a"/>
                <path id="Path_783" data-name="Path 783" d="M220.812,379.854c8.451,11.8,23.085,11.573,31.713-.126,5.127-6.949,5.144-16,.041-23.4-4.688-6.8-14.8-11.208-21.966-8.507-7.475,2.815-10.7,9.542-12.334,16.973-.329,1.5-.048,3.133-.048,7.379.3.956.614,4.916,2.594,7.681m17.449-20.32c4.312-.343,9.439,5.365,9.4,10.463-.032,4.262-4.755,8.64-9.319,8.64a9.428,9.428,0,0,1-9.209-8.6,10.317,10.317,0,0,1,9.126-10.5" transform="translate(-77.627 -123.508)" fill="#1a1a1a"/>
                <path id="Path_784" data-name="Path 784" d="M939.745,1852.388c-10.9.443-21.281,10.794-21.258,21.212.021,11,9.242,20.242,19.385,20.929,11.227.763,22.886-12.656,21.818-22.5-.213-12.005-8.443-20.109-19.945-19.643m2.053,32.427a11.807,11.807,0,0,1-12.759-10.991c-.53-6.431,4.241-10.973,11.875-11.307,5.709-.25,9.556,3.413,9.977,9.5.422,6.143-3.912,12.245-9.093,12.8" transform="translate(-326.903 -659.285)" fill="#1a1a1a"/>
                <path id="Path_785" data-name="Path 785" d="M1307.464,1618.434c2.436,12.365,15.874,19.2,26.273,12.585,9.06-5.763,15.878-13.713,15.766-23.351-.009-9.43-3.857-13.939-11.174-14.765-3.624-.41-7.319-.194-10.981-.3-11.181-.338-23.11,9.467-19.885,25.834m9.817-11.989c4.614-4.226,9.82-7.248,16.6-6.683,4.87.406,8.459,5.384,6.921,9.919a14.961,14.961,0,0,1-1.944,4.248c-4.1,5.433-8.155,11.175-16.212,10.126-1.328-.174-2.764-1.449-3.67-2.6-2.721-3.443-2.628-3.515-1.693-15.013" transform="translate(-465.155 -566.827)" fill="#1a1a1a"/>
                <path id="Path_786" data-name="Path 786" d="M1567.531,423.007c.946,0,2,.06,3.054-.01,12.6-.851,21.413-10.161,21.385-22.908,0-1.946-.71-4.483-2.044-5.727-5.755-5.361-11.409-11.087-19.59-12.732-4.324-.871-8.118-.225-11.614,3.095-9.225,8.761-11.177,18.935-5.2,29.931,2.985,5.489,7.143,9.126,14.011,8.352m-7.027-22.879c1.141-4.647,2.368-9.389,9.407-10.4,3.989,3.56,10.685,4.941,13.279,11.935-.178,6.887-3.993,11.461-10.546,13.748-3.086,1.076-6.588,1.012-8.7-1.9-2.822-3.906-4.678-8.377-3.445-13.382" transform="translate(-551.706 -135.702)" fill="#1a1a1a"/>
                <path id="Path_787" data-name="Path 787" d="M587.346,1861.012c8.183-7.081,11.875-15.57,8.628-26.573-2.175-7.374-4.628-9.855-11.837-9.978-11-.188-16.077,2.551-20.76,11.057-3.591,6.525-2.855,13.194-.3,19.671,4.232,10.734,15.535,13.38,24.269,5.823m-16.121-15.721c1-2.846,2.446-5.9,4.61-7.854,1.635-1.474,5.321-2.526,7-1.653,2.333,1.21,3.64,4.4,5.537,6.942-1.773,3.229-2.966,6.114-4.792,8.52-1.934,2.55-4.683,4.169-8.155,3.082-3.109-.971-5.452-5.442-4.2-9.037" transform="translate(-199.639 -649.349)" fill="#1a1a1a"/>
                <path id="Path_788" data-name="Path 788" d="M113.274,1147.246c5.626-7.542,7.013-15.986,5.007-25.263-1.035-4.786-3.95-7.445-8.393-8.228-6.324-1.116-12.567-1.233-17.841,3.636-1.884,1.739-4.287,2.919-6.414,4.326-3.641,8.464-3.55,16.514,2.951,23.549,7.454,8.062,15.953,6.156,24.69,1.979m-13.806-22.332c1.956-3.1,7.607-2.428,9.344.788,2.212,4.094,1.767,9.011-1.045,11.6-3.919,3.6-7.611,3.285-13.757-1.584,1.747-3.525,3.285-7.365,5.459-10.8" transform="translate(-29.619 -396.176)" fill="#1a1a1a"/>
                <path id="Path_789" data-name="Path 789" d="M2688.1,1614.309c-3.834,1.922-5.908,5.98-6.281,10.463-1.076,12.879,6.359,20.79,19.687,21.038,12.786.236,21.589-9.764,20.29-22.736-.6-6.007-3.762-9.722-9.208-11.633-8.586-3.016-16.816-.979-24.489,2.867m21.622,19.051c-3.484,2.649-7.408,3.852-11.759,2.687-2.664-.714-3.69-2.65-6.352-11.742,4.628-1.685,8.414-3.428,12.386-4.393a6.516,6.516,0,0,1,7.9,3.575,8.015,8.015,0,0,1-2.175,9.874" transform="translate(-954.464 -573.019)" fill="#1a1a1a"/>
                <path id="Path_790" data-name="Path 790" d="M2475.849,158.826c14.614-.077,22.922-10.053,20.743-23.09-1.015-6.071-5.624-9.933-12.041-10.02-3.062-.042-6.341.734-9.147-.11-6.8-2.047-11.417,1.257-14.733,6.04-4.177,6.029-3.686,14.761.149,19.283a22.344,22.344,0,0,0,15.03,7.9m-6.872-19.913h15.576c1.026,8.683-.4,11.264-6.694,11.532-7.335.31-9.356-2.4-8.882-11.532" transform="translate(-874.744 -44.485)" fill="#1a1a1a"/>
                <path id="Path_791" data-name="Path 791" d="M1213.2,994.641a11.261,11.261,0,0,0-.054,3.126c1.151,9.4,8.671,16.141,18.821,16.352,5.891-.265,12.134-1.72,15.594-7.766,4.109-7.18,4.724-14.727.859-22.551-3-6.083-8.11-8.141-14.092-8.1-7.729.05-19.923,11.36-21.129,18.939m12.121.958c.561-5.75,4.09-9.366,9.83-10.451,4.512,2.341,6.087,6.363,5.212,10.567a12.256,12.256,0,0,1-5.231,7.071c-1.724,1.062-5.432.739-7.129-.505s-2.9-4.48-2.683-6.682" transform="translate(-431.745 -347.266)" fill="#1a1a1a"/>
                <path id="Path_792" data-name="Path 792" d="M2617.317,2435.709c-4.1-2.369-9.65-3.6-13.8-.615s-7.557,4.4-11.036,9.945c-1.863,4.236-2.688,10.383-2.018,11.707,2.575,5.1,4.786,6.235,8.75,10.168,6.362,6.313,18.949,4.012,23.181-3.77a30.326,30.326,0,0,0,3.853-11.875c.482-6.8-2.953-12.113-8.931-15.561m-1.488,19.957a9.839,9.839,0,0,1-5.109,3.3c-1.836.405-7.756.834-8.252-2.307s-1.541-10.942,5.349-12.619c1.78.347,5.85,1.035,6.789,1.858,3.162,2.765,4,6.311,1.223,9.767" transform="translate(-921.902 -866.06)" fill="#1a1a1a"/>
                <path id="Path_793" data-name="Path 793" d="M2646.99,1219.7a15.938,15.938,0,0,0,10.975,15.683c6.737,2.337,14.046.188,17.9-6.309a47.648,47.648,0,0,0,5.723-14.589c1.853-9.214-2.73-14.037-12.868-13.893-5.581-1.617-7.876,5.63-13,6.342-7.835,1.089-8.67,6.672-8.729,12.766m10.761-6.426,11.819-2.86c3.468,3.929,1.865,7.364.4,10.547-1.333,2.895-3.562,5.24-7.234,4.07-4.891-1.558-5.34-5.6-4.982-11.757" transform="translate(-942.102 -427.225)" fill="#1a1a1a"/>
                <path id="Path_794" data-name="Path 794" d="M1080.526,2569.6a26.894,26.894,0,0,0,13.406-21.2c.056-5.181-3.721-9.952-8.445-10.792-9.339-1.662-17.807.923-25.147,6.592-1.722,1.333-2.894,4.6-2.728,6.866a28,28,0,0,0,3.009,10.521c3.964,7.686,13.771,11.689,19.9,8.013m-10.966-16.742c1.741-5.292,5.08-6.139,13.833-4.574.96,5.175-1.554,8.807-5.437,11.682-2.217,1.639-5.042,2.3-6.748-.3-1.236-1.881-2.279-4.885-1.648-6.81" transform="translate(-376.414 -902.996)" fill="#1a1a1a"/>
                <path id="Path_795" data-name="Path 795" d="M776.1,699.212a9.064,9.064,0,0,0,5.787-1.606c8.177-5.357,11.2-13.631,11.368-22.854.137-7.455-5.621-12.076-13.541-11.883-8.314.213-13.144,4.42-16,12.272C760,685.355,765.72,697.474,776.1,699.212m1.551-25.663a4.774,4.774,0,0,1,4.108,1.2c2.828,3.409,1.443,6.837-.958,9.832-.886,1.105-2.43,1.683-4.558,3.084-.919-1.331-2.216-2.471-2.573-3.856-1.272-4.939.349-9.208,3.981-10.26" transform="translate(-271.413 -235.922)" fill="#1a1a1a"/>
                <path id="Path_796" data-name="Path 796" d="M350.579,543.124c2.908,5.959,8.112,9.265,13.785,8.684,5.949-.609,9.728-4.42,11.527-9.586,1.892-5.433,2.664-11.256,3.372-14.427.768-11.9-3.995-16.009-13.5-14.366a25.159,25.159,0,0,0-3.113.564c-11.07,3.417-16.853,13.758-13.8,24.714a26.338,26.338,0,0,0,1.729,4.417m7.925-13.367a20.119,20.119,0,0,1,4.889-5.893c1.409-1.1,3.879-1.921,5.435-1.441s2.536,2.737,3.175,3.5c.461,5.98-.8,10.306-3.917,14.048a5.315,5.315,0,0,1-8.07-.248c-2.48-3.053-3.527-6.415-1.513-9.965" transform="translate(-123.872 -182.614)" fill="#1a1a1a"/>
                <path id="Path_797" data-name="Path 797" d="M2622.936,40.563a42.957,42.957,0,0,0-2.227,5.324c4.581,4.487,8.609,3.173,11.256-.625,7.572-10.848,14.7-22.169,17.385-35.3q1.028-5.012,1.736-9.961h-9.254a77.506,77.506,0,0,1-14.458,34,67.69,67.69,0,0,0-4.438,6.561" transform="translate(-932.748 0)" fill="#1a1a1a"/>
                <path id="Path_798" data-name="Path 798" d="M2427.116,2779.494c-15.4-17.07-33.454-28.86-57.332-29.265-3.653-.062-7.309-.01-10.37-.01a20.071,20.071,0,0,1-2.548-3.212c-.867-1.906-1.417-3.953-2.239-5.885-6.688-15.719-15.177-30.411-29.047-40.762-27.36-20.416-57.742-27.4-91.209-18.443-3.467.929-7.028,1.5-11.211,2.385-2.736-4.357-5.081-8.415-7.735-12.258-9.294-13.467-20.591-23.655-37.914-25.816-8.979-1.12-17.689-2.242-26.727-.622-6.173,1.108-12.546,1.112-19.837,1.689-2.6-4.2-4.271-7.539-6.522-10.428-10.781-13.831-22.333-26.484-40.034-32.013-11.181-3.49-21.527-3.281-33.184,1.971,2.337,1.987,3.643,3.974,5.3,4.33,4.094.879,8.428.65,12.525,1.531,6.655,1.432,13.908,2.142,19.643,5.39a80.351,80.351,0,0,1,31.7,32.8c-8.46,8.7-16.019,17.414-24.553,25.036-11.662,10.411-16.741,24.025-20.627,38.371a23.112,23.112,0,0,0-.17,9.416c1.418,8.762,8.468,14.839,17.394,15.5,16.048,1.188,26.552-4.415,33.375-18.734,7.34-15.4,12.416-31.406,10.729-48.906-.439-4.564.122-9.223.213-13.4,33.567-12.69,66.487,1.9,76.454,32.053-1.763,1.442-3.672,3.135-5.715,4.646-3.393,2.51-7.481,4.364-10.211,7.439-14.452,16.272-27.05,33.843-33.419,54.97a59.926,59.926,0,0,0-2.264,18.72c.287,10.18,5.551,15.5,15.694,16.458a27.642,27.642,0,0,0,12.343-1.447c19.074-7.566,33.271-19.886,39-40.612,4.144-15,6.609-29.883,2.473-45.264-.8-2.966-1.13-6.059-1.635-8.845,22.067-12.279,56.32-7.415,77.9,4.872,21.467,12.223,35.911,31.253,37.656,51.991-2.96,1.495-6.12,3.275-9.427,4.73-25.906,11.4-41.837,31.245-49.178,58.259a32.181,32.181,0,0,0-1.333,10.936c1.305,15.255,12.839,26.586,29.808,18.743,13.684-6.326,22.653-17.385,29.842-29.631,8.313-14.157,14.116-29.543,14.085-46.483,0-1.98.833-3.962,1.213-5.655,16.294-3.254,29.732-.971,40.844,8.01a220.5,220.5,0,0,1,23.094,21.593,56.475,56.475,0,0,1,14.009,27.98c2.477,12.7,3.128,25.045,1.177,36.9h9.254c4.12-28.736-.254-55.739-21.275-79.034m-311.882-57.439c-5.441,7.037-13.044,10.414-22.267,8.623-5.668-1.1-7.953-3.734-8.535-9.623a35.391,35.391,0,0,1,4.856-21.214c8.451-14.642,19.612-27,36.223-38.065,5.854,23.394,3.161,42.9-10.277,60.28m99.194,40.843c-5.338,9.559-15.4,15.429-25.517,20.1a14.806,14.806,0,0,1-4.612.95c-6.858.729-11.306-2.616-11.792-9.476a44.422,44.422,0,0,1,.733-12.484c3.432-15.708,12.08-28.835,20.945-41.938,5.86-8.663,14.4-13.429,24.9-20.3,2.088,6.042,4.179,10.238,4.959,14.667,3.053,17.323-1.364,33.708-9.615,48.479m133.688,11.3c-3.013,21.388-10.169,40.961-25.883,56.491a40.463,40.463,0,0,1-10.164,7.4c-7.566,3.771-15.29-.559-16.376-8.952-1.135-8.761,1.891-16.9,5.7-24.341,8.166-15.973,21.117-27.49,36.772-35.995a18.191,18.191,0,0,1,6.063-1.588c.884-.129,1.892.577,3.384,1.09.176,1.813.787,3.919.509,5.9" transform="translate(-730.054 -926.271)" fill="#1a1a1a"/>
                <path id="Path_799" data-name="Path 799" d="M641.333,11.9c-12.6,2.5-24.723,2.806-36.929,2.806-3.465,0-6.93.73-11.32,1.229.732,3.088.687,5.37,1.737,6.9,6.561,9.525,12.026,20.038,21.912,26.775,7.6,5.186,9.528,12.192,7.565,20.7-.712,3.084-1.552,6.15-2.538,9.155-5.073,15.5-10.215,30.971-15.381,46.605h0c1.169,1.277,2.005,2.768,3.274,3.412s3.264,1.088,4.454.546c7.2-3.262,14.841-6,21.233-10.484,10.708-7.517,22.848-10.132,34.232-13.274,9.992,7.615,19.188,14.636,28.4,21.643,9.054,6.892,16.836,15.553,26.954,20.609,10.475-9.97,10.256-9.956,9.579-20.846-.984-15.793-1.319-31.63-2.507-47.4-.653-8.681,2.3-15.528,8.238-21.334,7.168-7,14.562-13.776,21.8-20.707,3.426-3.283,6.874-6.562,10.043-10.087,4.067-4.523,5.959-9.788,4.351-15.857-4.578-3.249-9.579-1.749-13.941-.759-12.136,2.757-24.091.921-36.178.252-8.639-.479-13.94-4.033-16.418-11.77H699.3q1.335,4.7,2.67,9.4c2.032,7.133,5.62,10.989,13.963,12.51,13.653,2.486,27.348,1.246,40.765,2.608,1.807,3.432-.532,5.1-2.331,6.86-8.292,8.093-16.417,16.38-25.038,24.109-6.112,5.484-7.806,11.847-7.412,19.782.815,16.331.95,32.7,1.277,49.052a48.766,48.766,0,0,1-.815,6.527c-5.763-.9-8.926-4.55-12.6-7.222-3.825-2.78-7.715-5.479-11.409-8.42-5.779-4.6-11.684-9.089-17.05-14.14-6.183-5.821-12.523-6.861-20.214-3.268-8.572,4-17.4,7.466-26.163,11.065-3.662,1.507-7.429,2.759-12.564,4.647,2.463-19.565,8.879-36.124,15.218-53.02-.81-5.94-4.885-9.969-9.129-14.013-4.953-4.719-9.77-9.6-14.39-14.641-1.658-1.811-2.573-4.307-4.19-7.125,8.087-4.012,16.284-2.047,23.841-3.758,8.629.264,14.321-.65,23.644-4.771,4.337-4.976,8.7-10.426,12.987-16.187H660.63c-4.112,5.689-9.617,9.978-19.3,11.9" transform="translate(-211.087)" fill="#1a1a1a"/>
                <path id="Path_800" data-name="Path 800" d="M737.893,2936.271c-1.207-4.564-2.3-9.17-3.736-13.661-.716-2.236-5.226-3.117-6.8-1.3a42.741,42.741,0,0,0-5.264,7.659c-2.968,5.533-5.427,11.343-8.505,16.81-3.881,6.893-8.423,13.417-12.213,20.355a51.456,51.456,0,0,1-3.421,5.509h9.725c6.177-8.291,12.216-17.229,17.848-26.368,4.152.285,4.32,3.375,4.97,5.49,2.138,6.928,4.14,13.9,6.123,20.879h10.6c-.178-.557-.344-1.13-.493-1.731-2.8-11.251-5.87-22.435-8.834-33.644" transform="translate(-248.413 -1039.39)" fill="#1a1a1a"/>
                <path id="Path_801" data-name="Path 801" d="M1596.588,15.6c-3.709,2.472-4.1,9.294-1.741,12.938,2.476,3.833,6.5,3.193,10.019,2.243,6.093-1.65,12.036-3.854,18.053-5.8,18.654-6.025,18.091-5.858,31.237,8.132,6.7,7.129,13.345,14.99,22.51,18.172,9.635-2.064,12.852-7.462,12.2-16.261-.578-7.815-.12-15.706-.12-24.5,4.6-3.41,9.345-6.97,14.166-10.53h-18.606a53.324,53.324,0,0,0-6.214,4.036c.426,10.577.848,21.04,1.322,32.714-2.553-.645-4.724-.571-5.974-1.608-8.116-6.738-16.462-13.287-23.876-20.752-6.133-6.176-12.576-7.039-20.121-4.281-2.956,1.081-5.684,2.808-8.654,3.836-1.805.625-3.879.478-6.791.776.5-5.788,2.736-10.332,4.871-14.723h-11.358c-2.778,5.674-5.069,11.7-10.926,15.6" transform="translate(-567.104)" fill="#1a1a1a"/>
                <path id="Path_802" data-name="Path 802" d="M1719.648,2939.807c4.316-3.018,6.04-7.069,3.881-12.744-15.852-4.7-32.889-6.446-49.591-17.06-2.53-9.619-5.208-19.773-7.868-29.934-.665-2.536-1.06-5.165-1.95-7.616-1.277-3.512-6.792-4.261-9.224-1.233-1.639,2.041-2.786,4.465-4.286,6.626-4.506,6.493-8.909,13.072-13.728,19.329-1.492,1.94-4.135,4.123-6.328,4.208-13.057.507-25.648,6.93-39.115,2.946-2-.592-5.653.482-6.806,2.058-1.182,1.616-1.107,5.261-.066,7.2,4.477,8.363,9.865,16.028,17.364,22.217,6.059,5,6.926,8.809,3.44,15.2-.445.816-.867,1.648-1.278,2.488h11.358c.82-1.686,1.624-3.351,2.308-5.053,3.774-9.391,3.378-11.32-3.959-17.689-2.778-2.41-5.512-4.889-8.068-7.528-1.043-1.076-1.563-2.662-3.3-5.779,11.1-3.242,20.359-7.017,30.634-3.984,9.319-5.715,12.79-17.052,22.8-22.793,2.92,8.55,5.777,16.327,8.213,24.234,2.02,6.553,4.858,10.346,12.878,11.256,8.631.984,16.882,5.3,25.3,8.154-3.813,10.675-12.971,14.395-21.367,19.184H1699.5c2.706-2,5.432-4,8.187-5.968,3.854-2.759,8.079-5,11.966-7.717" transform="translate(-563.686 -1021.236)" fill="#1a1a1a"/>
                <path id="Path_803" data-name="Path 803" d="M1062.03,27.2c1.639,1.1,2.937,2.724,4.136,2.654,11.465-.664,22.938-1.4,34.336-2.749,1.492-.176,4.129-4.585,3.568-5.855-2.567-5.819-1.155-11.339-.28-17.037A30.481,30.481,0,0,0,1104.114,0h-10.445a137.109,137.109,0,0,1-1.063,15.432c-2.836.94-5.21,2.046-7.7,2.472a100.9,100.9,0,0,1-10.084.681c.079-6.25-.135-12.431-.558-18.585h-9.276a88.8,88.8,0,0,1-2.96,27.2" transform="translate(-377.992)" fill="#1a1a1a"/>
                <path id="Path_804" data-name="Path 804" d="M1098.471,2955.115c-1.22-21.448-2.513-42.89-3.9-66.344-14.989,4.132-28.13,1.491-40.986-3.97-1.668-.708-4.417-.983-5.62-.072s-1.794,3.7-1.435,5.413c1.4,6.649,3.617,13.127,4.941,19.788,3.231,16.234,7.38,32.415,7.967,48.838h9.277c-1.394-20.331-5.146-40.342-8.824-61.367a122.615,122.615,0,0,1,26.109,4.97c-.294,19.3,2.417,37.812,2.118,56.4h10.446c.017-1.22-.02-2.443-.088-3.652" transform="translate(-372.437 -1026.511)" fill="#1a1a1a"/>
                <path id="Path_805" data-name="Path 805" d="M2042.647,36.369c.613,4.5,2.552,7.94,6.975,9.795,7.306-2.059,13.245-3.794,19.217-5.4,5-1.345,7.936-5.5,6.94-10.455a77.455,77.455,0,0,0-2.226-7.551A222.055,222.055,0,0,1,2067.783,0h-9.73c1.725,9.5,3.943,19.018,6.21,29.924-4.367,1.335-7.266,2.219-10.4,3.175-4.916-10.911-4.094-22.4-6.711-33.1h-10.91a136.7,136.7,0,0,1,4.01,20.8c.573,5.214,1.681,10.366,2.391,15.568" transform="translate(-724.73 0)" fill="#1a1a1a"/>
                <path id="Path_806" data-name="Path 806" d="M2055.4,2929.73c-9.876-1.869-19.1-3.909-28.424-5.275a9.164,9.164,0,0,0-10.55,10.464,41.138,41.138,0,0,0,3.09,10.548,227.878,227.878,0,0,1,9.652,27.606h10.91c-.207-.848-.435-1.692-.69-2.53-3.344-10.97-8.029-21.543-10.467-33.48,6.454-2,11.527.739,17.252,2.426,1.453,10.556,2.607,20.943,4.38,31.22q.205,1.182.421,2.364h9.729a189.78,189.78,0,0,1-3.666-37.743c.009-1.927-1.1-3.858-1.637-5.6" transform="translate(-717.646 -1040.817)" fill="#1a1a1a"/>
                <path id="Path_807" data-name="Path 807" d="M6.409,2114c-.225-9.1-2.346-16.916-6.409-23.577v42.059c4.08-4.294,6.611-10.346,6.409-18.482" transform="translate(0 -744.014)" fill="#1a1a1a"/>
                <path id="Path_808" data-name="Path 808" d="M9.591,1899.656c.116,1.931.441,4.5.4,7.074-.271,16.931,9.437,28.746,20.927,39.178,4.115,3.739,9.962,5.958,15.385,7.762,6.241,2.081,12.958,1.4,17.992-3.108,8.553-7.651,14.867-17.658,13.943-29.022-1.184-14.5-6.975-27.293-21.854-34.192-8.776-4.068-17.853-5.873-28.691-6.981,2.078-4.016,3.175-7.523,5.376-10.07,3.778-4.374,8.229-8.168,12.433-12.167,14.007-13.332,35.482-13.334,50.524-7.149a29.356,29.356,0,0,1,7.8,5.35c4.382,3.848,4.378,9.221,4.887,14.154l-9.581,8.081c4.8,8.379,8.043,9.571,13.233,4.995,4.845-4.277,8.743-9.47,8.7-16.216-.072-12.889-10.09-25.7-23.145-28.805-25.267-6-48.361-3.212-66.019,18.47-3.653,4.482-8.145,8.528-10.759,13.549C16.386,1879.693,9.808,1885.873,0,1888.68v10.72c.571-.224,1.143-.445,1.713-.673,2.37-.945,4.894-2.056,7.878.929m11.248,5.653c.309-3.577,1.157-7.108,1.9-11.537,15.259-2.791,26.643,2.617,36.794,10.4,10.182,7.8,10.658,26.251,1.807,35.525-4.649,4.872-9.408,6.048-15.727,3.531C30,1937,19.181,1924.6,20.839,1905.31" transform="translate(0 -653.381)" fill="#1a1a1a"/>
                <path id="Path_809" data-name="Path 809" d="M2864.35,1922.617c-14.116,4.055-25.507,12.591-36.057,22.231a61.17,61.17,0,0,0-18.173,29.218c-2.642,9.617-5.287,19.229-7.868,28.619-10.274,5.994-20.355,11.693-30.251,17.693a80.2,80.2,0,0,0-33.683,40.707c-6.618,17.238-11.832,35.043-10.132,54.018.372,4.146.053,8.354.053,11.583-5.76,5.131-10.947,8.917-15.106,13.614-11.881,13.425-24.05,26.7-34.778,41.019-11.151,14.884-16.98,32.656-22.977,50.124-.894,2.606.187,5.237,4.076,5.272a23.19,23.19,0,0,0,2.687-3.626c1.84-3.788,3.653-7.611,5.158-11.542,11.219-29.32,31.43-52.217,52.975-74.135,2.423-2.463,5.029-5.734,9.552-3.674,1.089,4.541,1.647,9.347,3.39,13.677,7.857,19.533,20.051,35.782,37.523,47.843,9.663,6.67,29.453,10.415,39.291,7.369,20.826-6.446,35.8-32.516,30.523-54.271-6-24.727-22.03-40.24-46.15-47.5-14.03-4.223-27.956-5.055-41.491,2.3-4.448,2.417-9.345,4-14.543,6.184-2.954-17.194.174-32.553,5.1-47.727a72.947,72.947,0,0,1,24.967-35.869c9.348-7.191,17.994-16.411,30.583-18.261,2.49,10.118,4.2,19.974,7.363,29.343,8.345,24.743,31.63,35.427,53.579,32.416,6.59-.9,12.848-3.491,17.279-8.155v-42.059a46.362,46.362,0,0,0-16.018-15.428q-4.738-2.872-9.573-5.584c-9.315-5.233-18.939-9.292-30-8.694-2.364.129-4.789-.834-7.362-1.327,2.529-29.332,18.047-48.5,42.754-60.975,6.49-3.278,13.4-5.73,20.2-8.387v-10.719c-.344.1-.682.2-1.034.293-4.061,1.039-7.814,3.248-11.854,4.411m-124.837,210.907a50.165,50.165,0,0,1,30.073-15.2c17.758-2.336,34.527,4.252,46.946,18.362a85.367,85.367,0,0,1,9.882,14.258c7.547,13.282,5.8,40.472-13.216,49.8-12.163,5.967-23.831,3.713-34.732-2.2-21.434-11.633-41.8-41.332-38.952-65.024m77.884-123.378c21.413-3.355,48.326,13.4,54.821,34.01,5.028,15.953-2.2,26.246-18.861,26.172-14.635-.066-26.588-5.908-34.789-18.344-7.18-10.885-9.4-24.319-6.779-39.6,1.745-.718,3.608-1.923,5.608-2.236" transform="translate(-944.983 -682.613)" fill="#1a1a1a"/>
                <path id="Path_810" data-name="Path 810" d="M27.325,401.44c10.542-2.723,18.892-13.758,18.715-24.735-.186-11.517-6.757-20.709-17.5-23.605a71.684,71.684,0,0,0-15.609-2.513c-4.308-.174-8.62-.236-12.935-.256v7.747c7.388-.4,14.512.55,21.624,1.72a17.758,17.758,0,0,1,7.141,3.066c6.15,4.384,8.033,10.8,7.22,17.987-.65,5.77-5.917,10.388-13.188,11.563-8.447,1.367-16.169.28-22.8-4.211V399.09a40.813,40.813,0,0,0,27.325,2.35" transform="translate(0 -124.688)" fill="#1a1a1a"/>
                <path id="Path_811" data-name="Path 811" d="M104.829,56.067C59.931,73.28,32.065,104.938,23.171,152.3A64.049,64.049,0,0,0,0,163.447v11.939a41.1,41.1,0,0,1,26.464-12.828c.787,1.8,1.779,3.66,2.426,5.627,6.8,20.674,21.413,30.066,42.8,31.24,11.054.609,19.6-2.873,26.627-10.821,8.007-9.051,8.647-19.037,1.865-29.039-5.565-8.2-13.462-13.3-23-15.761a60.52,60.52,0,0,0-31.31,0c-2.9.777-5.883,2.773-8.826.041.4-28.523,37.939-70.694,66.833-74.806.417,3.037,1.362,6.108,1.155,9.1-.75,10.922,2.433,21.107,6.684,30.688,7.164,16.145,19.683,26.9,37.919,26.288,16.406-.549,30.525-7.86,39.512-22.513a21.068,21.068,0,0,0,3.283-10.434c-.038-12.026-3.444-23.1-13.137-30.967-12.577-10.193-26.578-17.054-43.4-16.5-5.732.189-11.487-.37-17.88-.613.272-3.173.3-5.764.739-8.283,2.665-15.208,9.359-29.011,14.841-43.277.33-.859.681-1.7,1.039-2.527H124.611c-3.077,6.107-6,12.279-8.541,18.6-4.864,12.1-7.609,25.056-11.241,37.465M86.2,158.652c7.115,4.46,9.326,11.339,8.112,19.143-1.058,6.8-9.579,12.813-17.9,13.079-16.177.515-36.32-7.3-38.983-34.283,17.3-7.934,33.239-7.676,48.771,2.062m30.645-92.389c19.942-4.641,38.208-1.876,54.512,11.75,8.682,7.252,9.908,16.938,10.3,27.078a7.442,7.442,0,0,1-1.661,4.333c-17.834,23.277-45.478,18.949-57.409-2.676-5.495-9.961-7.56-25.5-5.739-40.486" fill="#1a1a1a"/>
                <path id="Path_812" data-name="Path 812" d="M234.107,2935.831c16.836-10.447,34.792-14.649,54.535-10.643,8.861,1.8,17.439,4.014,25.526,8.191,3.207,1.656,7.078,3,9.339-2.258-.837-1.123-1.535-2.613-2.692-3.523-9.47-7.463-20.809-9.274-32.294-11.632-21.5-4.414-40.741-.222-58.658,11.821-4.366,2.938-8.467,6.383-13.112,8.772a27.6,27.6,0,0,0-12.324,11.89c-3.638,7.008-7.4,13.977-10.957,21.033h10.021c6.376-14.806,17.135-25.286,30.616-33.651" transform="translate(-68.859 -1037.226)" fill="#1a1a1a"/>
                <path id="Path_813" data-name="Path 813" d="M2922.62,308.288c-.634,4.649-1.259,9.3-1.871,13.817-6.253,4.912-11.779,9.885-17.907,13.952-30.01,19.905-39.874,49.119-38.824,83.354a23.541,23.541,0,0,0,3.193,10.477c5.942,10.4,14.478,18.15,25.88,22.2,10.052,3.569,18.515-.759,26.282-6.567,1.273-.951,1.171-3.742,1.937-6.526-7.106-1.878-10.826,1.686-15.153,3.282a14.494,14.494,0,0,1-7.527.983c-11.979-2.531-22.457-14.476-22.883-26.975a167.751,167.751,0,0,1,1.473-26.8c3.019-23.671,22.92-46.828,46.985-55.081,3.681,5.64,7.169,11.552,11.206,17.061a41.44,41.44,0,0,0,16.165,13.263V353.835a30.826,30.826,0,0,1-5.672-5c-5.3-5.918-8.863-12.681-11.413-21.506a55.19,55.19,0,0,1,17.084-3.624v-7.747c-6.127-.028-12.258.032-18.385,0,.721-21.349,7.512-39.064,18.385-50.261V253.766a67.431,67.431,0,0,0-6.085,5.256c-13.906,13.53-20.311,30.5-22.87,49.266" transform="translate(-1019.319 -90.319)" fill="#1a1a1a"/>
                <path id="Path_814" data-name="Path 814" d="M14.969,959.7a6.491,6.491,0,0,0,8.679-6.371A52.02,52.02,0,0,0,22.1,941c-3.935-17.116-3.086-34.4-3.059-51.37,12.537-12.536,24.381-24.52,36.4-36.316,3.892-3.819,6.4-8.044,6.881-15.667-3.4,0-5.419-.051-7.433.008-10.535.31-21.073.881-31.611.925-16.7.068-13.97-1.128-21.415-12.141-.636-.94-1.253-1.894-1.863-2.853v20.783c.719,1.115,1.452,2.222,2.219,3.31,12.891,4.63,26.538-.708,41.542,2.186-12.618,14.137-24.7,26.3-37.6,38.411,7.385,17.533,3,36.055,6,55.252A64.6,64.6,0,0,1,0,937.287V950.63c2.184,1.635,4.382,3.249,6.609,4.822a31.19,31.19,0,0,0,8.36,4.245" transform="translate(0 -293.125)" fill="#1a1a1a"/>
                <path id="Path_815" data-name="Path 815" d="M2919.774,762.369c-.976-1.368-3.42-2.19-5.238-2.263-1.014-.043-2.823,1.82-3.061,3.058a77.484,77.484,0,0,1-11.138,27.679c-3.43,5.3-7.01,10.546-9.959,16.112a37.86,37.86,0,0,1-22.261,18.859c-3.485,1.167-7.037,2.171-10.6,3.07-6.628,1.675-13.336,3.041-19.916,4.872-4.149,1.155-5.633,5.85-2.613,8.662,5.367,5,11.057,9.681,16.831,14.218,6.532,5.137,13.98,9.213,18.5,15.47-4.63,18.966-8.975,36.869-13.392,54.757-.989,4.016-.647,7.236,4.594,8.846,14.441-8.616,24.505-24.2,41.018-29.351,11.339,1.758,20.1,7.412,28.391,14.09q4.818,3.882,9.775,7.589V914.7c-5.345-3.4-10.176-7.154-15.382-10.245a25.225,25.225,0,0,1-2.349-2.107c-16.754-13.092-16.739-13.065-33.468-.64-5.434,4.034-10.992,7.909-17.684,12.716-.41-3.271-1.225-5.26-.764-6.889,2.709-9.583,5.718-19.08,9.229-24.25,7.591-11.823,3.319-16.389-8.008-24.846-6.646-5.07-13.5-9.874-21.069-15.379,6.428-6.924,15.036-5.889,21.731-9.176,6.555-3.217,13.557-5.527,20.672-8.358,3.709-5.939,5.257-12.518,9.19-22.413,4.655-7.57,9.165-15.228,14.278-23.752,9.419,13.756,14.969,29,23.622,42.416V800.99c-5.853-9.221-10.546-19.231-15.784-28.863-1.76-3.235-3.031-6.789-5.143-9.757" transform="translate(-1008.445 -270.533)" fill="#1a1a1a"/>
                <path id="Path_816" data-name="Path 816" d="M3.408,1429.231c2.283-6.959,5.52-13.9,6.154-21.049,1.393-15.729,9.11-27.672,19.79-38.32,4.179-4.167,7.483-8.729,7.649-14.793-.665-1.023-1.027-2.2-1.818-2.7-10.213-6.456-20.554-12.724-27.9-22.715a9.251,9.251,0,0,0-2.4-2.014A6.278,6.278,0,0,0,0,1327.019v17.522c.859-.715,2.053-1.316,3.294-2.235,6.572,5.152,13.106,10.279,19.48,15.28-.126,1.379.172,2.77-.37,3.293-11.749,11.374-16.378,26.578-22.4,41.03v31.772a7.549,7.549,0,0,0,3.408-4.45" transform="translate(0 -472.225)" fill="#1a1a1a"/>
                <path id="Path_817" data-name="Path 817" d="M2982.9,1329.7c-7.379,15.032-16.634,29.357-17.727,46.806a48.9,48.9,0,0,1-1.751,9.24c-2.763,10.486-1.8,20.517,1.331,30.974,2.552,8.528,7.665,13.436,15.046,16.95a7.1,7.1,0,0,0,6.6.138v-31.771q-.313.75-.63,1.5c-1.39,3.265-1.541,7.425-6.016,8.481-2.651.625-5.8-3.479-7-9.068a7.164,7.164,0,0,1-.257-1.55c.369-19.54,2.345-38.722,13.069-55.815a3.934,3.934,0,0,1,.836-.914v-17.521a5.224,5.224,0,0,0-3.5,2.552" transform="translate(-1054.146 -472.35)" fill="#1a1a1a"/>
                <path id="Path_818" data-name="Path 818" d="M10.778,2549.568c8.741.5,17.526.207,26.147.207,4.084-6.276,2.252-11.03-.857-16.523-9.735-17.214-15.862-35.4-12.658-55.712.714-4.521.106-9.25.106-15.622-8.52.612-16.166.939-23.516-.411v10.445l13.355,1.555c.689,11.517-1.883,22.534,1.681,33.162,3.3,9.838,6.387,19.747,9.546,29.558-8.611,3.62-10.915,3.87-13.934-.691A151.655,151.655,0,0,1,0,2516.956v20.511c1.564,2.576,3.133,5.146,4.672,7.726,1.2,2.022,3.955,4.256,6.106,4.375" transform="translate(0 -876.087)" fill="#1a1a1a"/>
                <path id="Path_819" data-name="Path 819" d="M2975.08,2463.484c-1.039,1.791-2.242,3.788-2.371,5.756-.931,14.175-2.32,28.709,3.509,42,3.831,8.732,8.778,16.985,13.767,25.2v-20.512c-6.335-13.354-11.174-30.033-6.438-45.753l6.438.751v-10.445a45.144,45.144,0,0,1-5.877-1.475c-4.192-1.366-7.048,1.066-9.028,4.48" transform="translate(-1057.729 -875.057)" fill="#1a1a1a"/>
                <path id="Path_820" data-name="Path 820" d="M2341.574,628.5c6.364,6.312,18.95,4.012,23.182-3.771a30.338,30.338,0,0,0,3.853-11.874c.481-6.8-2.953-12.112-8.93-15.56-4.1-2.368-9.651-3.6-13.8-.616s-7.556,4.4-11.036,9.946c-1.863,4.237-2.688,10.383-2.018,11.707,2.575,5.1,4.787,6.236,8.75,10.169m8.6-22.875c1.778.346,5.848,1.036,6.788,1.858,3.162,2.766,4,6.311,1.223,9.767a9.845,9.845,0,0,1-5.109,3.3c-1.835.405-7.756.835-8.252-2.307s-1.541-10.942,5.35-12.62" transform="translate(-830.204 -211.739)" fill="#1a1a1a"/>
                <path id="Path_821" data-name="Path 821" d="M2246.136,61.829c6.364,6.312,18.95,4.013,23.182-3.77a30.332,30.332,0,0,0,3.853-11.874c.481-6.8-2.953-12.113-8.931-15.561-4.1-2.368-9.651-3.6-13.8-.616s-7.556,4.4-11.036,9.946c-1.863,4.236-2.688,10.383-2.018,11.707,2.575,5.1,4.787,6.235,8.75,10.168m8.6-22.874c1.778.347,5.849,1.036,6.789,1.858,3.162,2.765,4,6.311,1.223,9.768a9.849,9.849,0,0,1-5.11,3.3c-1.836.4-7.756.835-8.252-2.307s-1.541-10.942,5.35-12.62" transform="translate(-796.236 -10.054)" fill="#1a1a1a"/>
                <path id="Path_822" data-name="Path 822" d="M910,127.443c6.364,6.312,18.95,4.013,23.182-3.77a30.331,30.331,0,0,0,3.853-11.874c.482-6.8-2.953-12.113-8.931-15.561-4.1-2.368-9.651-3.6-13.8-.616s-7.556,4.4-11.036,9.946c-1.863,4.236-2.688,10.383-2.018,11.707,2.575,5.1,4.787,6.235,8.75,10.168m8.6-22.874c1.778.347,5.849,1.036,6.789,1.858,3.162,2.765,4,6.311,1.223,9.768a9.849,9.849,0,0,1-5.109,3.3c-1.836.4-7.756.835-8.252-2.307s-1.541-10.942,5.35-12.62" transform="translate(-320.685 -33.407)" fill="#1a1a1a"/>
              </g>
            </g>
          </g>
        </g>
      </g>
    </g>
  </g>
</svg>
