<svg xmlns="http://www.w3.org/2000/svg" width="184.5" height="190.068" viewBox="0 0 184.5 190.068">
  <g id="fireworks_1_" data-name="fireworks (1)" transform="translate(-7.5 -0.002)">
    <g id="Group_976" data-name="Group 976" transform="translate(7.5 0.002)">
      <g id="Group_974" data-name="Group 974" transform="translate(3.231 0)">
        <g id="Group_962" data-name="Group 962" transform="translate(167.512 20.176)">
          <path id="Path_660" data-name="Path 660" d="M470.131,59.918c3.583,0,3.589-5.568,0-5.568S466.542,59.918,470.131,59.918Z" transform="translate(-467.441 -54.35)" fill="#d7000d"/>
        </g>
        <g id="Group_973" data-name="Group 973">
          <g id="Group_969" data-name="Group 969" transform="translate(16.529 83.794)">
            <g id="Group_963" data-name="Group 963" transform="translate(111.435 30.645)">
              <path id="Path_661" data-name="Path 661" d="M363.6,313.843c3.583,0,3.589-5.568,0-5.568S360.01,313.843,363.6,313.843Z" transform="translate(-360.909 -308.275)" fill="#cef1fc"/>
            </g>
            <g id="Group_964" data-name="Group 964" transform="translate(68.342 82.169)">
              <path id="Path_662" data-name="Path 662" d="M247.517,452.636c3.583,0,3.589-5.568,0-5.568S243.928,452.636,247.517,452.636Z" transform="translate(-244.827 -447.068)" fill="#cef1fc"/>
            </g>
            <g id="Group_965" data-name="Group 965" transform="translate(10.437 2.694)">
              <path id="Path_663" data-name="Path 663" d="M91.532,238.549c3.583,0,3.589-5.568,0-5.568S87.943,238.549,91.532,238.549Z" transform="translate(-88.843 -232.981)" fill="#cef1fc"/>
            </g>
            <g id="Group_966" data-name="Group 966" transform="translate(67.669 92.609)">
              <path id="Path_664" data-name="Path 664" d="M245.7,480.758c3.583,0,3.589-5.568,0-5.568S242.114,480.758,245.7,480.758Z" transform="translate(-243.014 -475.19)" fill="#cef1fc"/>
            </g>
            <g id="Group_967" data-name="Group 967">
              <path id="Path_665" data-name="Path 665" d="M63.419,231.292c3.583,0,3.589-5.568,0-5.568S59.83,231.292,63.419,231.292Z" transform="translate(-60.729 -225.724)" fill="#cef1fc"/>
            </g>
            <g id="Group_968" data-name="Group 968" transform="translate(120.525 34.013)">
              <path id="Path_666" data-name="Path 666" d="M388.085,322.914c3.583,0,3.589-5.568,0-5.568S384.5,322.914,388.085,322.914Z" transform="translate(-385.395 -317.346)" fill="#cef1fc"/>
            </g>
          </g>
          <g id="Group_970" data-name="Group 970">
            <path id="Path_667" data-name="Path 667" d="M157.413,204.209c-14.078-3.239-34.43-4.61-51.444,7.249a49.841,49.841,0,0,0-6.936,5.839c2.552-8.71,7.811-20.658,18.527-29.863a2.784,2.784,0,0,0-3.628-4.224,66.408,66.408,0,0,0-19.187,29.013c-.457-1.657-1.013-3.381-1.691-5.147-4.135-10.766-13.727-25.137-35.945-32.466a2.784,2.784,0,1,0-1.744,5.288c16.085,5.306,26.989,15.049,32.407,28.958a50.531,50.531,0,0,1,2.688,9.723c-12.243-13.863-32.529-19.091-33.546-19.345a2.784,2.784,0,1,0-1.352,5.4c.229.058,19.437,5,30.609,17.509a75.887,75.887,0,0,0-16.251-4.1c-13.7-1.854-34-.387-52.827,17.131a2.784,2.784,0,1,0,3.793,4.077c13.784-12.823,29.961-18.109,48.083-15.717A70.133,70.133,0,0,1,83.759,227.2c-8.794,1.845-21.659,6.44-31.932,17.884a2.784,2.784,0,1,0,4.144,3.72c9.042-10.072,20.582-14.27,28.55-16.021a57.768,57.768,0,0,0-6.68,8.308c-11.762,17.632-14.23,40.127-14.23,55.893a2.784,2.784,0,1,0,5.568,0c0-14.856,2.266-36.015,13.062-52.451A46.474,46.474,0,0,1,93.273,232.5c2.6,3.944,8.052,14.7,8.052,35.514a2.784,2.784,0,1,0,5.568,0c0-18.835-4.222-30.154-7.437-36.043a36.547,36.547,0,0,1,11.487,4.132c11.988,6.711,20.866,20.164,25.673,38.906a2.784,2.784,0,1,0,5.394-1.383c-6.62-25.81-19.25-37.394-28.68-42.566a42.875,42.875,0,0,0-8-3.394c7.725-2.022,19.046-3.588,31.077-.487a2.784,2.784,0,0,0,1.39-5.392c-14.658-3.779-28.076-1.353-36.409,1.161a43.987,43.987,0,0,1,8.009-7.082c12.285-8.444,28.021-10.539,46.772-6.225a2.784,2.784,0,0,0,1.249-5.427Z" transform="translate(-16.204 -109.701)" fill="#19a4da"/>
            <path id="Path_668" data-name="Path 668" d="M343.343,39.127c-13.608-6.818-26.887-5.4-35.509-3.086a33.347,33.347,0,0,1,16.612-8.876,2.784,2.784,0,0,0-1.082-5.462,38.581,38.581,0,0,0-18.517,9.483,69.888,69.888,0,0,1,7.935-16.9,48.359,48.359,0,0,1,7.7-9.386A2.784,2.784,0,0,0,316.856.67c-.589.5-13.233,11.541-18.739,33.8a46.117,46.117,0,0,0-33.766-19.068,2.784,2.784,0,1,0-.539,5.542A40.563,40.563,0,0,1,289.531,32.9c.443.45.858.9,1.257,1.341a46.007,46.007,0,0,0-21.644-3.728,2.784,2.784,0,0,0,.492,5.547A40.457,40.457,0,0,1,288.5,39.356c-9.654.849-23.79,4.186-35.531,15.456a2.784,2.784,0,0,0,3.856,4.017C268.857,47.286,284.1,45.01,292.6,44.732c-5.087,5.862-11.945,17.307-11.555,36.171a2.784,2.784,0,0,0,2.783,2.727h.059a2.784,2.784,0,0,0,2.726-2.841c-.281-13.583,3.636-22.731,6.971-28.014a35.088,35.088,0,0,1,4.749-6.01c1.2,2.453,4.046,9.565,3.179,20.572a2.784,2.784,0,0,0,2.557,2.994c.074.006.148.009.222.009a2.785,2.785,0,0,0,2.773-2.566c.8-10.127-1.205-17.382-2.806-21.383,7.158,3.149,20.054,13,25.454,43.584a2.784,2.784,0,0,0,5.484-.968c-3.476-19.69-10.375-34-20.5-42.524a34.665,34.665,0,0,0-6.929-4.579c7.6-2.257,20.338-4.184,33.092,2.2a2.784,2.784,0,1,0,2.494-4.979Z" transform="translate(-164.54 -0.002)" fill="#d7000d"/>
          </g>
          <g id="Group_971" data-name="Group 971" transform="translate(89.88 30.848)">
            <path id="Path_669" data-name="Path 669" d="M261.01,88.668c3.583,0,3.589-5.568,0-5.568S257.421,88.668,261.01,88.668Z" transform="translate(-258.321 -83.1)" fill="#d7000d"/>
          </g>
          <g id="Group_972" data-name="Group 972" transform="translate(136.238 75.78)">
            <path id="Path_670" data-name="Path 670" d="M385.888,209.7c3.583,0,3.589-5.568,0-5.568S382.3,209.7,385.888,209.7Z" transform="translate(-383.198 -204.136)" fill="#d7000d"/>
          </g>
        </g>
      </g>
      <path id="Path_671" data-name="Path 671" d="M443.8,383.43l4.892,11.077,8.944,4.892-8.944,4.891L443.8,415.368l-4.892-11.077-8.944-4.891,8.944-4.892Z" transform="translate(-273.133 -241.091)" fill="#ffed59"/>
      <path id="Path_672" data-name="Path 672" d="M122.293,7.5l4.892,11.077,8.944,4.892-8.944,4.891-4.892,11.077L117.4,28.36l-8.944-4.891,8.944-4.892Z" transform="translate(-70.98 -4.716)" fill="#ffed59"/>
      <g id="Group_975" data-name="Group 975" transform="translate(0 33.693)">
        <path id="Path_673" data-name="Path 673" d="M17.228,90.763l3.439,7.789,6.289,3.439-6.289,3.439-3.439,7.789-3.439-7.789L7.5,101.991l6.289-3.439Z" transform="translate(-7.5 -90.763)" fill="#fcf29c"/>
        <path id="Path_674" data-name="Path 674" d="M43.433,407.18l3.439,7.789,6.289,3.439-6.289,3.439-3.439,7.789-3.439-7.789-6.289-3.439,6.289-3.439Z" transform="translate(-23.977 -289.717)" fill="#fcf29c"/>
      </g>
    </g>
    <g id="Group_977" data-name="Group 977" transform="translate(178.165 142.341)">
      <path id="Path_675" data-name="Path 675" d="M472.123,394.507l-4.892-11.077v31.938l4.892-11.077,8.944-4.891Z" transform="translate(-467.231 -383.43)" fill="#fce100"/>
    </g>
    <g id="Group_978" data-name="Group 978" transform="translate(58.814 2.785)">
      <path id="Path_676" data-name="Path 676" d="M150.619,18.577,145.727,7.5V39.438l4.892-11.077,8.944-4.891Z" transform="translate(-145.727 -7.5)" fill="#fce100"/>
    </g>
  </g>
</svg>
