<svg xmlns="http://www.w3.org/2000/svg" xmlns:xlink="http://www.w3.org/1999/xlink" width="540.229" height="476.765" viewBox="0 0 540.229 476.765">
  <defs>
    <clipPath id="clip-path">
      <rect id="Rectangle_1282" data-name="Rectangle 1282" width="540.229" height="476.765" fill="none"/>
    </clipPath>
  </defs>
  <g id="Group_1117" data-name="Group 1117" transform="translate(0 -0.002)">
    <g id="Group_1116" data-name="Group 1116" transform="translate(0 0.002)" clip-path="url(#clip-path)">
      <path id="Path_973" data-name="Path 973" d="M156.25,18.19C132.743,67.715,76.861,172.833,4.454,224.876a10.594,10.594,0,0,0,.22,17.42c9.4,6.312,21.789,13.745,29.2,14.626,0,0,71.092,105.518,78.634,207.14a13.538,13.538,0,0,0,18.093,11.88c45.306-16.478,165.244-52.277,268.886-4.584A21.363,21.363,0,0,0,429.359,456.8c9.889-43.58,36.49-126.722,100.1-162.638a20.815,20.815,0,0,0,8.26-28.082C517.082,228.006,475.4,135.892,477.856,16.5A12.294,12.294,0,0,0,461.633,4.61C422.285,17.957,318.68,43.974,196.112,1.827c-15.63-5.375-32.776,1.431-39.862,16.364" transform="translate(0 -0.002)" fill="#4bad3a"/>
    </g>
  </g>
</svg>
