<svg xmlns="http://www.w3.org/2000/svg" xmlns:xlink="http://www.w3.org/1999/xlink" width="367.911" height="350.434" viewBox="0 0 367.911 350.434">
  <defs>
    <clipPath id="clip-path">
      <rect id="Rectangle_1283" data-name="Rectangle 1283" width="367.911" height="350.434" fill="none"/>
    </clipPath>
  </defs>
  <g id="Group_1119" data-name="Group 1119" transform="translate(0 0.003)">
    <g id="Group_1118" data-name="Group 1118" transform="translate(0 -0.003)" clip-path="url(#clip-path)">
      <path id="Path_974" data-name="Path 974" d="M94.411,128.154s9.575-3.761,9.575-19.834,4.1-69.76,28.383-92.672,40.352-17.44,49.243-4.1,42.4,73.864,56.424,82.413,28.982,7.951,50.782,6.668,76.429,3.077,78.994,24.878-45.4,70.274-44.883,97.973,26.588,73.266,22.826,95.152-18.124,30.435-38.3,27.7-57.108-40.01-85.833-45.14-97.46,49.243-136.957,49.243S62.608,297.085,70.3,279.645s14.363-29.751,4.36-34.111S10.971,224.93,1.4,191.417s32.829-48.559,44.114-50.952,35.821-7.352,48.9-12.311" transform="translate(0 0.003)" fill="#e21e12"/>
    </g>
  </g>
</svg>
