<svg id="Group_1076" data-name="Group 1076" xmlns="http://www.w3.org/2000/svg" xmlns:xlink="http://www.w3.org/1999/xlink" width="90.265" height="41.667" viewBox="0 0 90.265 41.667">
  <defs>
    <clipPath id="clip-path">
      <rect id="Rectangle_1264" data-name="Rectangle 1264" width="90.265" height="41.667" fill="none"/>
    </clipPath>
  </defs>
  <g id="Group_1075" data-name="Group 1075" transform="translate(0 0)" clip-path="url(#clip-path)">
    <path id="Path_862" data-name="Path 862" d="M9.46,41.667c12.393-3.22,26.243-4.088,38.774-3.953a257.367,257.367,0,0,1,39.008,3.442,1.688,1.688,0,0,0,1.865-1.017A18.216,18.216,0,0,0,90.222,32.7a11.658,11.658,0,0,0-2.99-7.173A8.764,8.764,0,0,0,81.1,22.7a14.22,14.22,0,0,0-4.907.671c1.345-3.592,2.776-9,1.6-13.7-.94-3.772-3.418-7.155-8.745-8.957-5.7-1.923-11.38.273-16.341,4.164-5.361,4.208-9.862,10.37-12.567,14.544-.067-.409-.145-.834-.242-1.258a12.982,12.982,0,0,0-3.112-6.368c-1.981-2-4.941-3.086-9.421-1.672-5.055,1.609-7.4,4.766-8.371,8.087a16.806,16.806,0,0,0-.349,6.995,25.117,25.117,0,0,0-4.231-2.512,10.71,10.71,0,0,0-6.632-1.037C1.714,23.051-.364,27.827.05,32.388c.491,5.389,4.571,10.248,9.32,8.937Zm-.622-2.343c-3.558.9-6.18-3.1-6.454-7.125-.237-3.441,1.368-7.034,5.958-7.982a8,8,0,0,1,4.917.948,27.538,27.538,0,0,1,6.8,4.962,1.452,1.452,0,0,0,2.382-1.547s-1.895-4.984-.517-9.5c.757-2.478,2.584-4.777,6.387-5.953,2.942-.911,4.913-.409,6.21.911a9.75,9.75,0,0,1,2.238,4.8,23.592,23.592,0,0,1,.461,5.8,1.623,1.623,0,0,0,3.05.866S46.4,13.993,54.743,7.48c4.04-3.152,8.6-5.177,13.232-3.6,3.954,1.342,5.862,3.8,6.557,6.6,1.7,6.8-3.062,15.272-3.062,15.272a1.685,1.685,0,0,0,2.343,2.261,15.4,15.4,0,0,1,5.915-1.923,5.88,5.88,0,0,1,5.023,1.732,8.341,8.341,0,0,1,2.111,5.143,14.283,14.283,0,0,1-.473,4.641A256.954,256.954,0,0,0,48.26,34.523c-12.789-.038-26.9,1.041-39.513,4.459Z" transform="translate(0 0)" fill="#449cd8" fill-rule="evenodd"/>
  </g>
</svg>
