<svg id="Group_1121" data-name="Group 1121" xmlns="http://www.w3.org/2000/svg" xmlns:xlink="http://www.w3.org/1999/xlink" width="576.068" height="192.303" viewBox="0 0 576.068 192.303">
  <defs>
    <clipPath id="clip-path">
      <rect id="Rectangle_1284" data-name="Rectangle 1284" width="576.068" height="192.303" fill="none"/>
    </clipPath>
  </defs>
  <g id="Group_1120" data-name="Group 1120" clip-path="url(#clip-path)">
    <text id="Ah" transform="translate(34.932 83.348) rotate(-0.484)" fill="#fff" font-size="101.641" font-family="Markerfield-Regular, Markerfield"><tspan x="0" y="0" letter-spacing="0.02em">A</tspan><tspan y="0">h</tspan></text>
    <text id="o" transform="translate(120.205 82.628) rotate(-0.484)" fill="#fff" font-size="101.641" font-family="Markerfield-Regular, Markerfield"><tspan x="0" y="0">o</tspan></text>
    <text id="l_az" data-name="l az" transform="translate(158.015 82.309) rotate(-0.484)" fill="#fff" font-size="101.641" font-family="Markerfield-Regular, Markerfield"><tspan x="0" y="0" letter-spacing="0.02em">l</tspan><tspan y="0" letter-spacing="0.019em"> </tspan><tspan y="0" letter-spacing="0.02em">a</tspan><tspan y="0">z</tspan></text>
    <text id="_í" data-name=" í" transform="translate(288.924 81.204) rotate(-0.484)" fill="#fff" font-size="101.641" font-family="Markerfield-Regular, Markerfield"><tspan x="0" y="0" letter-spacing="0.018em"> </tspan><tspan y="0">í</tspan></text>
    <text id="z" transform="translate(337.404 80.795) rotate(-0.484)" fill="#fff" font-size="101.641" font-family="Markerfield-Regular, Markerfield"><tspan x="0" y="0">z</tspan></text>
    <text id="_" data-name=" " transform="translate(387.206 80.374) rotate(-0.484)" fill="#fff" font-size="101.641" font-family="Markerfield-Regular, Markerfield"><tspan x="0" y="0"> </tspan></text>
    <text id="és" transform="translate(413.226 80.155) rotate(-0.484)" fill="#fff" font-size="101.641" font-family="Markerfield-Regular, Markerfield"><tspan x="0" y="0" letter-spacing="0.02em">é</tspan><tspan y="0">s</tspan></text>
    <text id="_2" data-name=" " transform="translate(487.115 79.531) rotate(-0.484)" fill="#fff" font-size="101.641" font-family="Markerfield-Regular, Markerfield"><tspan x="0" y="0"> </tspan></text>
    <text id="a" transform="translate(513.135 79.311) rotate(-0.484)" fill="#fff" font-size="101.641" font-family="Markerfield-Regular, Markerfield"><tspan x="0" y="0">a</tspan></text>
    <path id="Path_975" data-name="Path 975" d="M14.093,191.673a5.643,5.643,0,0,1-2.129.628c-3.456.029-5.186-.261-7.852-2.983C2.37,187.6.022,186.4,0,183.762a4.836,4.836,0,0,1,.589-2.445c.908-.82.178-3.05,2.109-3.067a20.67,20.67,0,0,1,2.045,1.406c.313,1.014,3.077,3.329,4.4,3.318a2,2,0,0,0,.711-.108C16.31,177.221,20.381,165.8,21.246,159.8l2.02-13.536a4.928,4.928,0,0,0,.092-1.22c-.01-1.118-.222-2.235-.232-3.353-.024-2.947,1.281-4.889,4.126-4.913a4.536,4.536,0,0,1,1.221.091c.1,0,.507-.106.609-.107,4.167-.035,5.311,3.005,5.344,6.969.018,2.134-.577,3.867-.549,7.221-.856,7.021-3.58,33.574-19.784,40.723m-1.69-7.609c-1.118.01-2.741.43-2.73,1.65,0,.406.107.71.615.706.915-.008,2.535-.733,2.73-1.751a.539.539,0,0,0-.615-.605m7.679-5.452a4.223,4.223,0,0,1,.106.508c-.092,1.119-1.406,2.044-1.4,3.061,1.724-.421,2.222-1.645,3.328-3.077,2.414-3.07,1.99-5.1,3.288-7.956,0-.1-.108-.711-.311-.709-.61.005-1.2,2.144-1.2,2.652-.4,1.122-2.092,5-3.413,5.01-.3.1-.405.207-.4.511m-.327-2.64a1.031,1.031,0,0,0-.706.616c0,.407.717.6.92.6.1,0,.2-.306.2-.814a.372.372,0,0,0-.41-.4m3.226-3.178c-.006-.711-.116-1.727-.624-1.722-.509-.1-1.5,2.553-1.5,2.757.005.609.925,1.212,1.535,1.206s.5-.919.6-1.224Zm.071-3.66c0,.1.1.3.206.3.813-.007,1.208-1.332,1.2-2.348a.994.994,0,0,0-.414-.912,1.808,1.808,0,0,0-.7.819Zm.8-61.909c-.015-1.829,1.383-4.789,4.127-4.812,6.607-.055,7.772,5.525,8.632,11.109a17.675,17.675,0,0,1,.537,3.451,3.692,3.692,0,0,1-3.325,3.484c-2.236.019-3.269-1.9-4.4-3.317a25.392,25.392,0,0,1-2.984-4.346c-1.234-1.718-2.569-3.333-2.588-5.569m37.805,23.264c7.724-.065,11.641,6.407,11.7,13.522.032,3.76-1.551,8.958-3.755,12.839a3.952,3.952,0,0,0-.6,1.123c-3.52,4.5-6.242,7.168-11.3,9.65-3.138,1.551-5.972,3-9.225,3.025-7.419.062-11.043-7.836-11.1-14.544a31.817,31.817,0,0,1,.37-4.374c2.048-10.283,13.24-21.152,23.912-21.241M44.133,149.745c-.2,0-.3.308-.3.308,0,.2,0,.508.107.609a.687.687,0,0,0,.4-.613c0-.1,0-.3-.1-.3Zm4.489,13.99c-.405.206-2.441-.081-2.634,1.038.914-.007,1.621-.623,2.634-.937ZM66.33,117.947c-5.163,2.584-9.993,8.419-15.379,8.464-1.017.009-2.745-.078-2.756-1.3-.007-.813.906-1.126,1-1.94a2.382,2.382,0,0,0-.212-1.116c.3,0,1.318-.316,1.418-.622-.005-.508-1.231-1.311-1.241-2.429-.013-1.626,1.818-1.438,2.83-1.955,3.342-1.451,6.475-3.612,9.712-5.469s6.682-3.207,10.022-4.862c3.037-1.448,6.169-3.711,9.625-3.74.61-.005,2.242.693,2.249,1.506,0,.407-.4.817-.4,1.121.009,1.119,1.63.495,1.642,1.918a3.284,3.284,0,0,1-2.213,2.763c-5.364,2.688-10.936,4.971-16.3,7.659M48.462,156.824a4.984,4.984,0,0,0-.092,1.221c.006.711.214,1.218.925,1.212,2.643-.023,6.686-2.8,8.9-5.462,2.617-3.072,5.148-4.313,5.1-9.6-.006-.711-.113-1.32-1.028-1.313-4.675.04-12.751,6.714-13.716,12.821Zm3.462-11.413c0,.1.1.1.2.1a1.532,1.532,0,0,0,.906-1.024,1.515,1.515,0,0,0-1.11.924m1.31-1.333a1.5,1.5,0,0,0,1.11-.924c-.508,0-.91.618-1.11.924m.2-24.193a.357.357,0,0,1,.1.2c1.218-.213,1.614-1.436,2.223-1.645-.61,0-2.23.832-2.326,1.443m3.455-.131a.219.219,0,0,0-.2-.2c-.407,0-1.011.72-1.007,1.126.508,0,1.011-.618,1.212-.925m.33,15.143c-.406,0-.508,0-.606.411,0,.305.1.406.41.4a1.007,1.007,0,0,0,.808-.616c-.1-.2-.307-.2-.612-.2m3.175,2.819c.305,0,.711-.108.706-.616,0-.2-.41-.4-.714-.4a.681.681,0,0,0-.709.412c.005.508.412.607.717.6m3.186,16.237c-.407,0-1,1.431-1.1,1.838a.27.27,0,0,0,.308.3c.406,0,1.108-1.128,1.207-1.433,0-.407-.107-.711-.412-.708m3.556-12.228c-.012-1.524-.537-3.451-2.773-3.432-.2,0-.508,0-.506.309-.1.61,2.373,4.147,2.983,4.142.305,0,.3-.511.3-1.019m.695,10.057c-.407,0-1.219.112-1.316.621,0,.407.206.4.613.4s1.015-.11,1.113-.62a.438.438,0,0,0-.41-.4m14.361,15.633a6.141,6.141,0,0,0-1.222-.193c-.609.005-1.009.822-1.619.827l-.2,0-1.328-.7c-1.949-2.22-2.57-3.435-2.585-5.264a18.839,18.839,0,0,1,.185-2.137c.772-4.885,2.155-9.674,3.131-14.561,1.653-8.857,2.237-11.912,3.389-20.053.194-1.12.96-6.717,1.052-7.836.564-5.493-.346-16.972,3.211-17,.712-.006,1.122.4,1.129,1.21l-.305,0v.2c.007.813,1.227.8,1.233,1.514,0,.2-.4,1.121-.4,1.223,0,.2.105.507.207.507,2.135-.018.733,2.535,1.749,2.526a1.635,1.635,0,0,0,1.311-1.231c-.016-1.931-1.957-3.134-1.971-4.76l.1-.51c3.761-.031,5.922,3.1,5.954,6.862,0,.407-.095.814-.092,1.221-.858,6.716-1.4,14.344-3.787,21.072-.295,1.121-1.611,1.844-1.995,4.49a37.161,37.161,0,0,0-.672,4.681c0,.1.1.2.306.2l1.816-1.642c.4-.613,1.4-2.248,2.319-2.256l-.1.509c-.29,1.832-4.034,3.795-4.015,6.031,0,.305.206.4.511.4.813-.007,5.044-4.617,7.047-8.09,1.009-.923.8-1.836,1.5-2.858.2-.917,2.825-2.565,2.8-5,0-.2,0-.305-.206-.3-1.626.014-4.3,8.168-6.843,8.189-.3,0-.408-.2-.411-.5-.02-2.44,3-5.616,4.407-7.864.8-1.43,1.184-4.178,3.624-4.2.914-.008.717.705,1.429.7.914-.007,1.21-1.128,2.328-1.137a4.012,4.012,0,0,1,2.654,1.4,14.112,14.112,0,0,1-.683,3.36c-1.009.924-1.405,2.147-2.31,3.273-.705.819-1.314.925-1.3,2.247a.374.374,0,0,0,.105.3c1.011-.619,1.207-1.433,1.912-2.252.3-.511,1.114-.518,1.72-.93.708-.412,1.8-3.471,2.308-3.577.305,0,.409.3.412.708.031,3.659-5.015,7.971-7.431,10.736-3.12,3.685-4.32,6.033-9.06,10.444.01,1.219,4.7,2.908,7.762,4.407,2.96,1.5,7.958,3.592,7.987,7.048-.288,1.934-.9,1.837-2.524,1.952a16.506,16.506,0,0,1-3.044.737,35.8,35.8,0,0,1-7.029-1.872c-2.55-1.1-4.6-2.705-7.146-3.7a6.777,6.777,0,0,1-1.225-.6c-2.439.02-2.139,11.606-4.68,11.627-.406,0-.516-1.012-1.025-1.11Zm-.307-60.78c-.305,0-.914.109-1.013.415a.372.372,0,0,0,.41.4c.407,0,.507-.207.91-.516,0-.3-.205-.3-.307-.3M82.5,155.52c0,.3.007.813.21.812-.1.61-.909.617-1.006,1.228a13.894,13.894,0,0,0-.185,2.136,5.521,5.521,0,0,0,.321,1.929,6.732,6.732,0,0,0,.99-3.16c0-.508-.109-.914-.114-1.422-.006-.711.6-.818.6-1.53,0-.305-.105-.4-.409-.4-.2,0-.407,0-.4.207Zm4.639-16.505c0,.2,0,.406.207.4.507-.105.5-.512.5-.919a.928.928,0,0,0-.309-.505c-.406.105-.4.918-.4,1.02m1.789,7.3c0,.2,0,.508.31.506a17.177,17.177,0,0,0,2.011-2.558c0-.1,0-.1-.206-.3a16.72,16.72,0,0,0-2.115,2.356M106.223,160c-.409-.2-.916-.094-.92-.5-.005-.711.709-.413.7-1.124-.006-.61-.423-1.928-1.135-1.922a1.242,1.242,0,0,0-1.107,1.331l.006.711c.009,1.017-.807.719-1.517.928.107.609.416,1.115,1.026,1.109.712-.006,1.42-.418,2.131-.424Zm70.454-10.352c.007.915-.188,1.933-.18,2.848a5.144,5.144,0,0,0,.214,1.218c1.359,4.461,4.728,6.262,4.756,9.616.022,2.643-.793,2.345-2.414,2.968-.507.208-.809.515-1.216.519-10.672.089-9.265-13.95-10.688-13.938-1.016.009-1.5,2.656-2.1,3.576-3.114,4.4-7.631,11.143-13.424,11.192-3.558.03-7.14-2.888-8.461-2.877-.813.007-1.01.822-1.514,1.334-3.126,2.974-7.69,4.131-11.654,4.164-6.708.057-12.331-3.759-16.132-8.5-1.335-1.717-1.968-4.456-3.009-7.293l-.514-.708c-1.733-.6-3.975-1.288-3.993-3.422a3.827,3.827,0,0,1,2.413-3.171c.913-.211,2.338-.02,3.045-.534,1.113-.619,1.5-3.164,2-4.286,4.914-7.868,11.756-16.261,22.225-16.349a14.531,14.531,0,0,1,4.272.371,9.265,9.265,0,0,1,6.068,8.487c.015,1.728-1.1,2.347-1.094,2.856,0,.3.208.506.716.5,1.016-.009,1.009-.923,1.306-1.841,2.695-5.816,8.756-10.34,14.651-10.389a8.385,8.385,0,0,1,3.768.781c.612.3,1.431,1,2.244,1,1.525-.013,1.843-10.587,2.225-13.436.29-1.832,1.04-9.36,3.784-9.383l2.744-.023c.1,0,.408.1.509.1a7.924,7.924,0,0,1,4.94,7.277l-5.483,36.944Zm-55.05,5.037c0-.2-.106-.507-.411-.505a.481.481,0,0,0-.5.513c0,.508.31.607.818.6,0-.1.1-.408.1-.611m17.02,5.447c.4-.206.709-.31.7-1.022a25.774,25.774,0,0,0-.328-2.742l1.062-6.717c.186-2.035,1.9-3.472,1.886-5.4,0-.407-.109-.813-.515-.809-.813.007-2.421,2.256-3.229,2.873-4.339,3.8-10.7,8.628-16.489,9.388l.008.915c.024,2.948,4.614,4.739,7.561,4.714a19.929,19.929,0,0,0,4.874-.549,18.261,18.261,0,0,1,3.248-.637Zm-2.249-25.8c-4.777.04-7.495,3.214-11.017,7.513-.5.512-1.821.93-2.018,1.745,0,.305,1.836.8,1.938.8,3.964-.034,9.7-6.79,10.616-6.8.6-.513,3.444-1.35,3.539-2.164,0-.407-1.138-2.329-1.747-2.324-.712.006-.3.816-.7,1.226Zm4.386,1.9c0-.305-.1-.3-.307-.3-.61.005-.909.719-.906,1.126a.22.22,0,0,0,.205.2c.507-.208.912-.415,1.008-1.025m2.645,12.277a1.978,1.978,0,0,0-.1.712c0,.406.107.609.412.606.508,0,2.305-3.882,2.5-4.392a13.328,13.328,0,0,0,.5-1.528c1.7-3.166,4.612-7.663,4.606-8.374,0-.2-.105-.3-.206-.3-.915.007-1.717,1.336-2.322,1.951a17.451,17.451,0,0,0-5.3,10.615Zm1.377,6.7a6.017,6.017,0,0,0-.191,1.424c0,.508.109.914.516.911s.506-.309.6-.92c0,0-.327-2.64-.734-2.637Zm2.546.588a1.091,1.091,0,0,0-.209-.71c-.2,0-.2.205-.3.409,0,.1,0,.509.309.506a.2.2,0,0,0,.2-.205m2.254-9.98a.1.1,0,0,0-.1-.1c-.61.005-1.11.924-1.106,1.432a.373.373,0,0,0,.41.4c.508-.005.8-1.329.8-1.634Zm13.091-2.55c.6-1.021,3.716-5.418,3.7-7.756-.008-.915-1.028-1.313-1.841-1.306-2.236.019-3.843,2.269-5.254,3.7-5.24,5.431-8.743,11.966-9.7,18.682l0,.2c0,.3.207.4.512.4.813-.007,4.141-3.084,4.848-3.6a26.546,26.546,0,0,0,5.238-5.737Zm-10.479-1.131c0-.1.1-.1.1-.205s-.1-.1-.2-.1c-.61,0-1.009.923-1,1.431,0,.2,0,.3.205.3.712-.006.9-1.329.9-1.43m3.394-7.347c0-.1-.1-.2-.306-.2-.61,0-3.03,2.363-3.124,3.279a.27.27,0,0,0,.308.3c1.118-.009,3.123-3.279,3.122-3.38m9.024-2.719c0,.2.1.2.307.2.61-.006.706-.616.8-1.227-.407,0-1.115.416-1.11,1.026m13.49,32.82a.53.53,0,0,1,.207.4c.305,0,.3-.409.4-.715a.876.876,0,0,0-.607.31M208.8,126.2l.2,0v.1c.005.508,1.322.091,1.329.9.011,1.321-2.521,2.359-2.714,3.58.012,1.423-1.522.318-1.512,1.538,0,.2.207.4.209.709a11.687,11.687,0,0,1-1.1,1.636,4.731,4.731,0,0,1-1.6,2.656c-.706.616-1.393,3.57-1.39,3.875a30.766,30.766,0,0,0-3.18,8.666c-.4.308-1.384,4.688-1.376,5.6,0,.305,0,.407.308.4.1,0,2.486-6.628,3.382-8.77a13.366,13.366,0,0,0,1.582-5.3c-.02-2.439,2.426-1.646,2.615-3.274a.615.615,0,0,1-.1-.406c-.009-1.118,1.615-1.437,2.318-2.459a32.786,32.786,0,0,0,2-4.286c.3-.612,2.611-3.783,3.12-3.787s.411.606.92.6a11.485,11.485,0,0,0,2.729-1.751c.5-.614.8-1.734,1.71-2.149a.558.558,0,0,1,.412.607c.017,2.032-1.1,2.652-2.305,3.882-.1.712-2.616,3.274-3,5.717-.1,0-3.388,8.059-4.282,10.506-2.088,5.608-3.971,11.316-6.059,16.822-.993,2.753-1.659,8.247-5.623,8.281-7.724.065-8.406-8.468-9.169-14.662a151.249,151.249,0,0,1-1.563-16.657c-.039-4.574.575-4.07,2.2-4.186a14.288,14.288,0,0,1,2.333-.528c.711-.006,1.326.5,2.037.492,3.049-.026,3.507,6.069,3.532,9.016.022,2.643.122,2.439-.578,3.766,0,.407,1.229,1.21,1.636,1.206.915-.008,1.5-2.757,1.488-4.383.1-.509,6.863-17.948,9.505-17.97m-16.29,8.879a4.021,4.021,0,0,0-1.907,2.963c0,.2.106.406.309.4.3,0,.4-.308.4-.613-.009-1.118,1.1-1.534,1.2-2.653Zm-1.095,14.849-.2.205c0,.1,1.743,1.714,1.744,1.815.3,0,.4-.511.393-1.528-.007-.813-.217-1.624-.725-1.62Zm1.706-2.555c0-.407-.211-1.015-.516-1.012s-.911.516-.908.82a.785.785,0,1,0,1.424.192m3.212,7.19c.3,0,.395-1.325.4-1.223,0-.1,0-.305-.206-.3s-.4.1-.4,1.223c0,.2,0,.305.1.3Zm8.067-7.692c.008.915-.8,1.43-.795,2.142,0,.406.309.505.715.5s.609-.209,1.012-.619c.572-4.477,1.5-2.858,1.487-4.485-.011-1.321,1.007-1.126,1.1-1.94,0-.2-.1-.406-.308-.4-2.338.02-2.411,3.375-3.218,4.093Zm4.419-6.339c.609-.107,1.4-2.248,1.5-2.655a4.177,4.177,0,0,0-1.5,2.655m6.075-14.891c0,.305-.4.511-1.215.518-2.236.019-2.752-.891-2.756-1.4a1.3,1.3,0,0,1,1.21-1.128c.813-.007,2.75.688,2.759,1.806Zm-2.565,9.271c0-.2,0-.406-.308-.4-.508,0-.6,1.123-.7,1.327a1.323,1.323,0,0,0,1.008-.923m1.724-12.618c0-.1.6-.819.908-.821.2,0,.2,0,.2.1,0,.305-.4.918-.805.921-.1,0-.306-.1-.307-.2m1.338,2.021c-.2,0-.305,0-.306-.2,0-.3.1-.61.5-.614.1,0,.407.1.409.3-.1.407-.3.511-.606.513m27.172,3.937a.775.775,0,0,1-.506.208,2.5,2.5,0,0,1-2.767-2.62c.407,0,3.27,2.006,3.273,2.412m-1.513,1.334c-.1.408-.2.409-.505.411a.806.806,0,0,1-.923-.907c0-.2.1-.407.1-.611.407,0,1.327.7,1.331,1.107M255.4,167.275h-.1a12.977,12.977,0,0,0,1.409-1.638c0-.2-.718-.807-.718-.807l.194-1.12c.1-.509,1.217-.315,1.313-1.028,0-.3-.216-1.421-.522-1.622v.1c-.305,0-1.738-1.205-1.744-1.916-.005-.509.295-1.121.289-1.833l-.007-.813s.2-.51.4-.918c0-.406-.007-.813-.312-.81a13.668,13.668,0,0,0-1.917,1.642,1.08,1.08,0,0,0,.207.507,9.029,9.029,0,0,0-.193,1.119c0,.508.311.811,1.127,1.109a1.635,1.635,0,0,1-1.311,1.231c-2.134.018-2.548-.792-2.557-1.91-.007-.813.189-1.73.182-2.543-.008-.915-.418-1.318-.426-2.232-.006-.712.089-1.526.083-2.237l0-.509c1.753-9.061,1.338-10.074,1.919-13.535-.213-1.116-3.261-.989-4.485-1.487-2.549-.995-7.448-3.291-7.461-4.917.1-.306.6-1.327.8-1.329.914-.007.413.81.82.807a10.762,10.762,0,0,0,2.247,1.3c.508,0,1.21-1.128,1.2-1.84-.009-1.118-1.335-1.615-2.054-2.523,0-.509-1.525.012-1.942-1.306,0-.2-1.536-1.308-1.539-1.613a.764.764,0,0,1,.708-.514c.609-.005.612.3.82.806l.406,0c1.016-.009,1.329.9,2.345.895a3.369,3.369,0,0,0,1.622-.522c0-.508-.715-.5-.719-.909a.269.269,0,0,1,.3-.307l.609,0c2.745-.023,4.286,2,7.031,1.973,2.134-.018,3.076-8.869,3.555-12.329.288-2.035,1.92-13.433,3.14-13.443.508,0,.615.6,1.225.6l.609,0a5,5,0,0,1,.425,2.131c0,.61-.091,1.221-.086,1.831l-.1.305c0,.1.1.1.2.1a4.012,4.012,0,0,0,3.628-3.69c-.015-1.829-1.84-1.2-1.85-2.424,0,.1.094-.915.6-.919a2.573,2.573,0,0,1-.212-1.015l0-.305,3.049-.026c1.321-.011,2.262,3.031,2.28,5.267.017,2.033-.984,3.769-1.475,5.908s-.777,4.275-1.063,6.514l-.963,6.412c-.287,2.035-1.071,5.5-1.068,5.9.007.813.315,1.217,1.332,1.209a41.363,41.363,0,0,0,8.53-.987c.2,0,2.029-.423,2.232-.425a22.221,22.221,0,0,1,5.179-.552c1.936.492,3.357.277,3.372,2,.071,8.537-13.535,10.278-19.125,10.325l-3.659.031c-.609.005-1.944,10.587-2.617,15.167a7.791,7.791,0,0,0-.788,2.954c0,.509.11,1.016.115,1.626-.185,2.136-.573,4.375-.556,6.408a8.3,8.3,0,0,0,.315,1.116,3.738,3.738,0,0,1-3.525,3.892c-.508,0-2.347-1.1-2.352-1.708,0-.509.606-.412,1.216-.417l.1-.1v.1a.356.356,0,0,0,.205.1l.1-.1Zm-7.833-37.035c-.1,0-.407,0-.4.309.006.711,1.029,1.515,1.943,1.508.2,0,.609-.107.607-.412-.006-.711-1.638-1.409-2.146-1.4m3.526,32.6c0-.407.6-1.428,1.106-1.432s2.144,1.1,2.149,1.709c0,.2-1.286,4.179-1.693,4.182s-1.556-3.748-1.562-4.459m.631-33.752c0,.407.006.712.413.708.2,0,.3-.1.4-.308,0-.508-.512-.4-.817-.4m1.65,2.832c1.627-.013,2.028-.627,2.017-1.948,0-.3-.1-.3-.307-.3-.712.006-1.815,1.845-1.713,1.844Zm1.665,4.56c0-.305-.107-.609-.31-.607-.406,0-.809.515-.908.821,0,.2.21.811.515.809s.6-.717.7-1.023m.195,11.078a3.8,3.8,0,0,0-.193,1.222c0,.406.108.71.514.707.61,0,.6-.818.6-1.225a1.271,1.271,0,0,0-.416-1.115Zm.648,4.569c0-.305-.106-.508-.309-.506-.508,0-.5,1.021-.5,1.122,0,.2.1.3.409.3.1,0,.3-.1.3-.206,0-.2.1-.509.1-.712m5.87-15.2a.831.831,0,0,0-.806.922c0,.406.31.607.717.6s1.219-.112,1.214-.62c0-.61-.516-.911-1.125-.906m1.97-7.437c-.508,0-.607.31-.6.717a.586.586,0,0,0,.615.6c.61,0,1.015-.212,1.011-.72s-.717-.6-1.022-.6m1.457-20.138c0,.407.313.912.719.909.508,0,.5-1.224.5-1.224,0-.2,0-.406-.207-.506-.4.206-1.013.415-1.01.821m2.1-4.591c0-.305-.107-.609-.31-.608a1.885,1.885,0,0,0-1.616,1.234c0,.508.926,1.313,1.231,1.311.406,0,.7-1.429.7-1.937m15.954,23.651a1.494,1.494,0,0,1-.3.206c-.712.005-1.227-.8-1.735-.8-2.643.022-1.827.32-2.532,1.139-1.118.01-.8,2.142-1.706,2.556-.81.413-4.162.645-4.255,1.662,0,.2.409.3.714.3,1.524-.013,2.326-1.443,4.053-1.457l1.728-.015c.612.2,1.944,1.509,2.452,1.5.814-.007,1.917-1.744,3.027-2.77a6.726,6.726,0,0,0-1.139-2.43c-.1,0-.3.1-.3.206Zm9.911,30.307a3.717,3.717,0,0,1,.292-1.527.723.723,0,0,0-.612-.3,1.281,1.281,0,0,0-.609.106c-2.532,1.14-4.76,2.073-7.4,2.1-6.3.053-11.623-4.273-11.676-10.574-.052-6.2,2.984-7.75,8.214-14.3,4.032-4.1,8.576-7.695,14.166-7.742,2.642-.022,3.979,1.8,4.792,1.789,1.423-.012,2.425-1.748,3.848-1.76.307.3.714.3,1.324.294a4.912,4.912,0,0,1,4.918,4.634c.012,1.423-1.192,3.364-1.486,4.688-2.685,7.036-5.569,14.582-6.437,20.18.116,1.727,2.469,3.537,2.492,6.18.024,2.947-2.307,3.78-4.543,3.8-4.777.04-6.018-2.593-7.271-6.546Zm5.289-23.728a.976.976,0,0,0-.82-.907c-1.322.011-.489,2.341-1.912,2.353-.611-.1-.717-.705-1.226-.7.406-.105-10.3,7.609-12.284,13.826-.4,1.324-1.517.927-1.513,1.436,0,.406.412.606.92.6,5.387-.046,13.744-9.569,13.715-12.923a6.75,6.75,0,0,0-.112-1.32c0-.1.3-.613.5-.615l1.423-.012c.406,0,1.31-1.332,1.307-1.637Zm-8.934,1.194c-.407,0-.607.411-.81.413-.2.205-3.856.744-4.338,3.9,0,.1.1.2.306.2.814-.007,4.845-4.107,4.943-4.514Zm-1.077,16.984c-.407,0-.914.109-1.013.516,0,.305.105.3.41.3a.889.889,0,0,0,.909-.618c0-.2-.2-.2-.306-.2m9.781,2.763c0-.406-.208-.506-.211-.913l.4-1.121c-.005-.61-1.026-1.109-1.534-1.1-.915.007-2.122,1.542-2.218,2.153,0,.305.019,2.236.527,2.232.61-.005.5-1.326.9-1.533.815.2.824,1.315,1.637,1.308.2,0,.5-.614.5-.817Zm.776-4.377c.508,0,.607-.31.707-.616,0-.2-.005-.508-.31-.5-.406,0-.5.512-.6.716,0,.3,0,.407.206.4m1.628,12.286c0-.2-.2-.2-.408-.2s-.508,0-.608.208c0,.305.308.4.511.4s.509,0,.506-.309Zm20.79-5.665c-.1.509-.381,3.052-1.4,3.061-.406,0-.614-.5-1.02-.5-.305,0-.809.515-1.114.518-.915.007-.32-1.726-1.034-2.024-1.111.822-1.192,3.262-1.588,4.485a7.677,7.677,0,0,0-.793,2.446c.008.915.417,1.217.421,1.725.011,1.321-1.614,1.437-2.63,1.445a2.766,2.766,0,0,1-2.872-3.025l0-.508c1.157-7.43,2.924-14.865,4.487-22.4l3.4-18.325c.1-.814,1.359-7.533,1.556-8.348.769-5.292,1.333-10.684,1.8-16.177,0-.1-.114-1.524-.116-1.727.1-.306.188-1.831,1.2-1.84,0,0,4.577.368,4.588,1.588a2.41,2.41,0,0,1-.2.815l.308.3c1.009-.821,2.12-1.644,2.109-2.965a1.086,1.086,0,0,0-.208-.608c0-.1.1-.408.1-.509,1.728-.015,2.87,2.822,2.908,7.294-2.887,19.337-3.749,25.646-6.7,37.97-1.081,4.38-2.569,8.763-3.243,13.139a2.779,2.779,0,0,0-.094.916c.006.813.114,1.524.121,2.337Zm-3.366-1.395a4.41,4.41,0,0,0,.1-.509c0-.305-.107-.609-.513-.606-.814.007-.794,2.345-.795,2.243a1.3,1.3,0,0,0,.107.609c.61-.005,1.107-1.33,1.1-1.737m.886,8.734-.013-1.525c-.009-1.118.083-2.236.9-2.243.3,0,.41.4.414.911.007.813-.289,1.832-.286,2.239-.1.3-1.4,2.248-1.912,2.252-.3,0-.407-.1-.408-.2.1-.712.8-1.125,1.309-1.434m3.009-28.994c.089-1.526.683-3.36.674-4.478,0-.3,0-.509-.309-.506-.915.008-1.211,1.128-1.207,1.535,0,.508.312.912.317,1.42a11.212,11.212,0,0,0-.194,1.12c0,.406.412.606.415,1.013.008.915-1.41,1.536-1.505,2.35,0,.509.623,1.52,1.029,1.516.1,0,.2-.1.505-.41a21.885,21.885,0,0,0,.275-3.56m1.862-8.249c0-.508-.111-1.118-.619-1.113-.407,0-.807.82-.9,1.329,0,.3-.089,1.525.419,1.521.814-.007,1.107-1.432,1.1-1.737m-1.356-4.156,0,.609a.822.822,0,0,0,.821.908c.508,0,.5-1.427.492-1.935-.008-.915.5-.716.478-3.562,0-.406-.108-.71-.21-.709-.711.006-.9,1.532-1,1.838v.2a1.683,1.683,0,0,0,.519,1.215l0,.305Zm1.679-5.808c.3,0,.4-.41.4-.614,0-.305-.109-.914-.516-.91-.3,0-.5.411-.6.615,0,.305.414.911.719.909m.574-4.274c.406,0,.605-.514.6-1.225a.68.68,0,0,0-.412-.708c-.305,0-1.115.416-1.213.823a1.2,1.2,0,0,0,1.026,1.11m.481-3.257c.711-.006.492-1.834.682-3.462.188-1.831,1.09-3.363,1.072-5.5,0-.508-.11-1.015-.415-1.013s-1.491,4.079-1.491,4.079c.007.813.52,1.317.526,2.028,0,.509-.7,1.124-.8,1.633.3,0-.083,2.237.426,2.233m22.964,47.478a3.733,3.733,0,0,1,.292-1.527.727.727,0,0,0-.612-.3,1.3,1.3,0,0,0-.609.107c-2.531,1.14-4.76,2.073-7.4,2.1-6.3.053-11.624-4.273-11.677-10.574-.052-6.2,2.984-7.751,8.215-14.3,4.031-4.1,8.575-7.695,14.165-7.742,2.643-.023,3.979,1.8,4.792,1.789,1.423-.012,2.425-1.748,3.848-1.76.308.3.714.3,1.324.293a4.911,4.911,0,0,1,4.918,4.635c.012,1.423-1.191,3.364-1.485,4.688-2.685,7.036-5.57,14.582-6.438,20.18.117,1.727,2.47,3.537,2.492,6.179.025,2.948-2.306,3.781-4.542,3.8-4.777.04-6.019-2.593-7.272-6.546Zm5.29-23.728a.98.98,0,0,0-.821-.908c-1.321.011-.489,2.342-1.911,2.354-.611-.1-.718-.705-1.226-.7.406-.1-10.3,7.609-12.285,13.826-.4,1.324-1.517.927-1.512,1.435,0,.407.411.607.92.6,5.386-.045,13.743-9.568,13.715-12.922a6.778,6.778,0,0,0-.113-1.321c0-.1.3-.612.5-.614l1.423-.012c.407,0,1.31-1.332,1.308-1.637Zm-8.935,1.194c-.407,0-.606.411-.81.413-.2.205-3.856.744-4.338,3.9,0,.1.1.2.307.2.813-.007,4.844-4.107,4.943-4.514ZM343.4,152.708c-.407,0-.914.11-1.012.517,0,.3.1.3.409.3a.89.89,0,0,0,.91-.618c0-.2-.2-.2-.307-.2m18.581-38.68c-5.162,2.585-9.992,8.419-15.379,8.465-1.016.008-2.745-.079-2.755-1.3-.007-.813.905-1.125,1-1.939a2.388,2.388,0,0,0-.213-1.117c.3,0,1.319-.316,1.418-.621,0-.509-1.231-1.311-1.24-2.429-.014-1.627,1.817-1.439,2.829-1.956,3.342-1.451,6.475-3.612,9.712-5.468s6.682-3.208,10.022-4.862c3.038-1.449,6.17-3.711,9.625-3.74.61,0,2.242.693,2.249,1.506,0,.406-.4.816-.4,1.121.01,1.118,1.631.495,1.643,1.917a3.287,3.287,0,0,1-2.213,2.764c-5.365,2.687-10.936,4.971-16.3,7.658m-12.893,1.938a.356.356,0,0,1,.1.2c1.217-.214,1.614-1.437,2.222-1.645-.61,0-2.229.832-2.326,1.442m4.093,39.506c0-.406-.207-.506-.211-.913l.4-1.121c-.005-.61-1.025-1.11-1.534-1.105-.914.007-2.121,1.542-2.218,2.153,0,.305.019,2.236.527,2.232.61-.006.5-1.326.9-1.533.815.2.824,1.315,1.638,1.308.2,0,.5-.614.5-.817Zm-.638-39.636a.218.218,0,0,0-.2-.2c-.406,0-1.01.72-1.007,1.127.508-.005,1.011-.619,1.212-.925m1.415,35.259c.508,0,.607-.31.706-.616,0-.2,0-.508-.309-.505-.407,0-.5.512-.6.716,0,.3,0,.407.207.4m1.628,12.285c0-.2-.2-.2-.409-.2s-.508,0-.608.208c0,.3.309.4.512.4s.508,0,.505-.309Zm20.789-5.664c-.1.509-.381,3.052-1.4,3.061-.407,0-.614-.5-1.021-.5-.3,0-.809.515-1.114.518-.915.007-.319-1.726-1.033-2.025-1.111.823-1.193,3.263-1.589,4.486a7.666,7.666,0,0,0-.792,2.446c.007.915.416,1.217.421,1.725.011,1.321-1.615,1.436-2.631,1.445a2.766,2.766,0,0,1-2.872-3.025l0-.509c1.157-7.429,2.925-14.864,4.488-22.4l3.4-18.325c.1-.814,1.36-7.534,1.556-8.348.769-5.292,1.333-10.684,1.8-16.177,0-.1-.115-1.524-.117-1.727.1-.306.188-1.831,1.205-1.84,0,0,4.577.368,4.587,1.588a2.384,2.384,0,0,1-.2.815l.307.3c1.01-.822,2.121-1.644,2.11-2.965a1.09,1.09,0,0,0-.209-.609c0-.1.1-.407.1-.509,1.728-.014,2.87,2.822,2.907,7.3-2.887,19.336-3.748,25.646-6.694,37.97-1.081,4.38-2.569,8.763-3.244,13.139a2.807,2.807,0,0,0-.094.916c.007.813.114,1.524.121,2.337Zm-3.366-1.4a4.41,4.41,0,0,0,.1-.509c0-.3-.106-.609-.513-.606-.813.007-.793,2.345-.794,2.243a1.283,1.283,0,0,0,.106.609c.61-.005,1.107-1.331,1.1-1.737m.887,8.734-.013-1.525c-.01-1.118.083-2.237.9-2.243.305,0,.41.4.414.911.007.813-.29,1.832-.286,2.239-.1.305-1.4,2.247-1.913,2.252-.3,0-.407-.1-.408-.2.1-.712.8-1.125,1.31-1.434M376.9,136.06c.089-1.525.684-3.36.674-4.478,0-.305,0-.508-.309-.505-.915.007-1.21,1.128-1.207,1.535,0,.508.313.912.317,1.42,0,.2-.2.713-.194,1.12s.412.606.415,1.013c.008.914-1.41,1.536-1.505,2.35.005.508.623,1.52,1.03,1.516.1,0,.2-.1.5-.411a21.868,21.868,0,0,0,.275-3.56m.635-33.343c-.3,0-.914.109-1.013.415a.373.373,0,0,0,.41.4c.407,0,.507-.208.911-.516,0-.305-.206-.3-.308-.3m1.227,25.095c0-.509-.111-1.118-.619-1.113-.406,0-.806.82-.9,1.329,0,.3-.088,1.525.42,1.521.813-.007,1.106-1.433,1.1-1.737m-1.356-4.157.005.61a.823.823,0,0,0,.821.908c.508,0,.5-1.427.492-1.935-.008-.915.5-.716.478-3.562,0-.406-.107-.71-.209-.71-.712.006-.9,1.533-1,1.838l0,.2a1.683,1.683,0,0,0,.518,1.215l0,.305Zm1.679-5.808c.305,0,.4-.41.4-.613,0-.305-.11-.914-.516-.91-.3,0-.505.411-.605.615,0,.305.414.911.719.908m.574-4.273c.407,0,.606-.514.6-1.225a.681.681,0,0,0-.413-.708c-.3,0-1.114.416-1.213.823a1.2,1.2,0,0,0,1.026,1.11m.481-3.257c.711-.006.493-1.834.682-3.462.188-1.831,1.09-3.363,1.072-5.5,0-.508-.11-1.015-.415-1.013s-1.49,4.079-1.49,4.079c.007.813.519,1.317.525,2.028,0,.508-.7,1.124-.8,1.633.3,0-.083,2.237.425,2.233m9,54.508a6,6,0,0,0-1.222-.193c-.609,0-1.009.821-1.619.826l-.2,0-1.328-.7c-1.95-2.22-2.57-3.435-2.585-5.264a18.822,18.822,0,0,1,.185-2.136c.772-4.886,2.155-9.675,3.131-14.562,1.653-8.857,2.237-11.911,3.389-20.053.193-1.12.96-6.717,1.052-7.835.564-5.494-.346-16.972,3.211-17,.712-.006,1.122.4,1.128,1.21l-.3,0v.2c.007.813,1.227.8,1.233,1.514,0,.2-.4,1.122-.4,1.223,0,.2.106.508.208.507,2.134-.018.733,2.535,1.749,2.526a1.635,1.635,0,0,0,1.311-1.231c-.016-1.931-1.957-3.134-1.971-4.76l.1-.509c3.761-.032,5.922,3.1,5.954,6.861,0,.407-.1.814-.092,1.221-.858,6.716-1.4,14.344-3.787,21.073-.3,1.12-1.611,1.843-2,4.489a37.166,37.166,0,0,0-.672,4.681c0,.1.1.2.306.2l1.816-1.642c.4-.613,1.4-2.248,2.319-2.256l-.1.51c-.29,1.832-4.034,3.794-4.015,6.03,0,.305.206.405.511.4.813-.007,5.044-4.617,7.047-8.09,1.009-.923.8-1.836,1.5-2.858.2-.917,2.825-2.565,2.8-5,0-.2,0-.3-.206-.3-1.626.014-4.3,8.168-6.843,8.189-.3,0-.408-.2-.411-.5-.02-2.44,3-5.616,4.407-7.864.8-1.43,1.184-4.178,3.624-4.2.914-.008.717.705,1.429.7.914-.007,1.21-1.128,2.328-1.137a4.008,4.008,0,0,1,2.654,1.4,14.132,14.132,0,0,1-.683,3.36c-1.009.923-1.4,2.146-2.31,3.272-.7.819-1.314.926-1.3,2.247a.375.375,0,0,0,.1.3c1.012-.619,1.208-1.433,1.913-2.252.3-.511,1.114-.518,1.72-.93.708-.412,1.8-3.471,2.308-3.577.3,0,.409.3.412.708.031,3.659-5.015,7.971-7.431,10.736-3.12,3.685-4.32,6.033-9.061,10.444.011,1.219,4.7,2.908,7.763,4.407,2.96,1.5,7.958,3.592,7.987,7.048-.289,1.934-.9,1.837-2.525,1.952a16.562,16.562,0,0,1-3.043.738,35.819,35.819,0,0,1-7.029-1.873c-2.55-1.1-4.6-2.705-7.146-3.7a6.852,6.852,0,0,1-1.225-.6c-2.439.02-2.139,11.606-4.68,11.627-.406,0-.516-1.012-1.026-1.11Zm.306-11.9c0,.3.007.813.21.812-.1.61-.909.617-1.006,1.228a13.9,13.9,0,0,0-.185,2.136,5.516,5.516,0,0,0,.321,1.929,6.732,6.732,0,0,0,.99-3.16c0-.508-.109-.914-.114-1.422-.006-.711.6-.818.6-1.529,0-.305-.105-.406-.41-.4-.2,0-.406,0-.4.207Zm4.639-16.505c0,.2,0,.406.207.4.507-.106.5-.513.5-.919a.927.927,0,0,0-.309-.506c-.406.1-.4.918-.4,1.02m1.789,7.3c0,.2.005.508.309.506a17.117,17.117,0,0,0,2.012-2.558c0-.1,0-.1-.206-.3a16.675,16.675,0,0,0-2.115,2.355m17.293,13.679c-.408-.2-.915-.094-.919-.5-.006-.711.708-.412.7-1.124,0-.61-.422-1.928-1.134-1.922a1.242,1.242,0,0,0-1.107,1.331l.006.712c.009,1.016-.807.718-1.517.927.107.609.416,1.115,1.026,1.11.712-.006,1.42-.419,2.131-.425ZM439.545,127.3c7.725-.065,11.642,6.407,11.7,13.522.031,3.761-1.551,8.958-3.755,12.839a3.927,3.927,0,0,0-.6,1.123c-3.52,4.5-6.242,7.168-11.3,9.65-3.138,1.551-5.972,3-9.224,3.025-7.42.063-11.044-7.835-11.1-14.544a31.645,31.645,0,0,1,.37-4.373c2.048-10.284,13.239-21.152,23.911-21.242m-17.524,19.257c-.2,0-.3.307-.3.307,0,.2.005.508.107.609a.686.686,0,0,0,.4-.613c0-.1,0-.3-.1-.3Zm4.488,13.989c-.4.207-2.44-.081-2.634,1.039.915-.008,1.621-.624,2.635-.937Zm-.16-6.911a4.985,4.985,0,0,0-.091,1.221c.006.711.214,1.218.925,1.212,2.643-.022,6.685-2.8,8.9-5.462,2.617-3.072,5.148-4.312,5.1-9.6-.006-.711-.113-1.32-1.027-1.312-4.676.039-12.751,6.714-13.716,12.821Zm3.462-11.413c0,.1.1.1.2.1a1.527,1.527,0,0,0,.906-1.024,1.517,1.517,0,0,0-1.11.924m1.31-1.332a1.5,1.5,0,0,0,1.111-.925c-.509,0-.91.618-1.111.925m3.989-9.182c-.407,0-.508,0-.607.412,0,.3.106.4.411.4a1.01,1.01,0,0,0,.807-.617c-.1-.2-.306-.2-.611-.2m3.175,2.819c.3,0,.71-.107.706-.615,0-.2-.41-.4-.715-.4a.68.68,0,0,0-.708.412c0,.509.412.607.717.6m3.186,16.237c-.407,0-1.005,1.431-1.1,1.839a.269.269,0,0,0,.307.3c.407,0,1.109-1.127,1.208-1.433,0-.407-.108-.711-.412-.708m3.556-12.228c-.013-1.524-.537-3.451-2.773-3.432-.2,0-.509,0-.506.309-.1.611,2.373,4.148,2.983,4.142.305,0,.3-.51.3-1.019m.694,10.058c-.406,0-1.218.112-1.316.621,0,.406.207.4.613.4s1.016-.11,1.113-.619a.435.435,0,0,0-.41-.4M467.8,163.754s-13.01.008-13.063-6.294c-.046-5.488,6.155-5.337,9.6-6.687a102.46,102.46,0,0,0,15.992-8.063c1.113-.619,3.746-1.76,3.733-3.386-.005-.508-.514-.707-1.023-.7a65.926,65.926,0,0,0-13.3,1.535c-2.537.53-5.273,1.569-7.61,1.589-.407,0-1.727.116-1.733-.494.2-.713,2.436-.427,2.533-1.038-.006-.711-.923-1.008-1.33-1.005-1.626.014-2.121,1.644-2.731,1.649a2.9,2.9,0,0,1-2.77-3.127c-.036-4.269,4.128-4.711,6.664-5.24a25.362,25.362,0,0,1,2.637-.734l.406,0a12.974,12.974,0,0,0,3.552-.741,37.581,37.581,0,0,1,7.516-.673c1.321-.011,20.518-1.7,20.587,6.434.049,5.9-9.86,12.077-15.224,14.867,0,0-4.359,1.358-4.552,2.579,0,.508.006.813,1.531.8s2.944-.431,4.569-.546c3.86-.338,7.717-.98,11.173-1.009,1.626-.014,4.276.777,4.291,2.607.022,2.642-5.963,4.014-8.2,4.541-.1.1-2.027.729-2.229.832a59.942,59.942,0,0,0-6.7,1.479,100.209,100.209,0,0,1-10.768.8Zm7.886-5.047a3.147,3.147,0,0,0-1.323-.294c-.509-.1-.92-.6-1.327-.6s-.911.414-1.419.418c-1.525.013-3.05-.076-4.778-.061-.509,0-1.117.111-1.115.416.006.711,7.121.651,7.426.649a6.325,6.325,0,0,0,2.234-.222Zm-3.162-1.4a.529.529,0,0,0,.408.2c0-.305.9-1.431,1-1.94,0-.3-.409-.3-.511-.3-.508,0-3.859.439-4.053,1.457a.569.569,0,0,0,.513.606Zm2.2-4.593c.407,0,1.421-.215,1.519-.724l-.2,0a3.677,3.677,0,0,0-1.722.726Zm35.241,8.546a9.353,9.353,0,0,0,.891-2.854c0-.407-.515-.809-.721-1.112-.508,0-1.111.822-2.127.933l-.19,1.526a3.155,3.155,0,0,1,.719.909c-.1-.1.012,1.423-.8,1.429-2.338.02-3.394-4.647-3.418-7.594a79.761,79.761,0,0,1,1.209-13.326c.576-3.969.525-10.067,4.463-13.15,0,0,3.243-1.145,3.65-1.149a5.585,5.585,0,0,1,5.436,5.748c0,.305-.1.611-.094.916-.678,4.072-2.048,10.385-3.108,17.306a15.112,15.112,0,0,0-.491,2.037c-.492,1.935-.21,11.284-3.97,11.316-.712.006-1.733-.6-1.738-1.205Zm2.824-14.661a.367.367,0,0,0-.1-.3,2.306,2.306,0,0,0-.9,1.837c0,.3.008,1.016.415,1.013s.592-2.14.592-2.14Zm5.852-29.425c.3,0,.712.1.715.4a.518.518,0,0,1-.505.411c-.407,0-.41-.4-.715-.4s-.608.208-1.015.212-.408-.2-.919-.5c-2.236.019-2.462-2.724-3.4-5.46a3.55,3.55,0,0,1-.424-2.131c-.045-5.285.531-9.356,4.9-9.393,2.948-.025,6.011,1.576,6.24,4.725l-.376,3.561c-.19,1.628-.947,8.241-2.98,8.258-.915.008-.218-1.726-1.133-1.718a1.191,1.191,0,0,0-1.008.923,3.1,3.1,0,0,1,.312.912l0,.2Zm8.827,46.479a6.07,6.07,0,0,0-1.222-.193c-.609,0-1.009.822-1.619.827h-.2l-1.328-.7c-1.949-2.22-2.57-3.434-2.585-5.264a18.822,18.822,0,0,1,.185-2.136c.773-4.885,2.155-9.674,3.131-14.562,1.653-8.857,2.237-11.911,3.389-20.052.194-1.12.96-6.717,1.052-7.836.564-5.494-.346-16.972,3.211-17,.712-.006,1.122.4,1.129,1.21l-.3,0v.2c.007.813,1.227.8,1.233,1.515,0,.2-.4,1.121-.4,1.223,0,.2.1.507.207.506,2.134-.018.733,2.535,1.749,2.527a1.636,1.636,0,0,0,1.311-1.231c-.016-1.931-1.957-3.135-1.971-4.761l.1-.509c3.761-.032,5.922,3.1,5.954,6.862,0,.406-.095.814-.092,1.22-.858,6.716-1.4,14.344-3.787,21.073-.295,1.121-1.611,1.843-1.995,4.489a37.19,37.19,0,0,0-.672,4.682c0,.1.1.2.306.2l1.816-1.641c.4-.614,1.4-2.248,2.319-2.256l-.1.509c-.29,1.832-4.034,3.795-4.015,6.031,0,.3.206.4.511.4.813-.007,5.044-4.616,7.048-8.089,1.008-.923.8-1.837,1.5-2.859.2-.916,2.825-2.565,2.8-5,0-.2,0-.305-.206-.3-1.626.013-4.3,8.168-6.843,8.189-.3,0-.408-.2-.411-.505-.02-2.439,3-5.616,4.407-7.864.8-1.429,1.184-4.177,3.624-4.2.914-.007.717.706,1.429.7.914-.008,1.21-1.128,2.328-1.138a4.017,4.017,0,0,1,2.655,1.4,14.175,14.175,0,0,1-.684,3.36c-1.009.923-1.4,2.146-2.31,3.272-.7.819-1.314.926-1.3,2.247a.372.372,0,0,0,.1.3c1.011-.618,1.207-1.433,1.912-2.252.3-.511,1.114-.518,1.72-.929.708-.413,1.8-3.471,2.308-3.577.3,0,.409.3.412.708.031,3.659-5.015,7.97-7.431,10.735-3.12,3.686-4.32,6.034-9.06,10.444.01,1.22,4.7,2.908,7.762,4.407,2.96,1.5,7.958,3.593,7.987,7.048-.288,1.934-.9,1.838-2.524,1.953a16.506,16.506,0,0,1-3.044.737,35.881,35.881,0,0,1-7.029-1.872c-2.55-1.1-4.6-2.706-7.146-3.7a6.782,6.782,0,0,1-1.225-.6c-2.439.021-2.139,11.606-4.68,11.627-.406,0-.516-1.012-1.025-1.109Zm.306-11.9c0,.305.007.813.21.811-.1.611-.909.618-1.006,1.228a13.9,13.9,0,0,0-.185,2.136,5.512,5.512,0,0,0,.321,1.929,6.729,6.729,0,0,0,.99-3.159c0-.508-.109-.914-.114-1.422-.006-.712.6-.819.6-1.53,0-.305-.1-.406-.409-.4-.2,0-.407,0-.4.206Zm4.639-16.506c0,.2,0,.407.207.4.507-.106.5-.513.5-.919a.93.93,0,0,0-.309-.506c-.406.105-.4.918-.4,1.02m1.789,7.3c0,.2,0,.508.31.505a17.129,17.129,0,0,0,2.011-2.558c0-.1,0-.1-.206-.3a16.717,16.717,0,0,0-2.115,2.356M551.5,156.238c-.409-.2-.916-.094-.92-.5-.006-.712.709-.413.7-1.124-.006-.61-.423-1.928-1.135-1.922a1.242,1.242,0,0,0-1.107,1.331l.006.711c.009,1.016-.807.718-1.517.928.107.608.416,1.114,1.026,1.109.712-.006,1.42-.419,2.131-.425ZM563.164,166c-2.643.023-5.918-2.694-5.942-5.54s3.02-3.481,5.358-3.5c3.455-.029,5.7,1.07,5.938,5.032-1.1,2.144-3.016,3.99-5.354,4.009m7.878-66.441a.843.843,0,0,1,.811-.311c.711-.006.92.7.927,1.517,0,.406-.094.915-.09,1.322.006.711.112,1.219.721,1.213,1.22-.01.593-2.037,1.2-2.043,1.22-.01,1.437,1.716,1.453,3.546.046,5.488-1.516,13.125-1.9,15.669-.288,2.036-2.147,10.691-4.266,24.634-.3,1.019-1,2.143-2.218,2.154-4.777.04-6.822-1.468-6.857-5.635a41.676,41.676,0,0,1,.76-6.308c1.932-12.011,3.275-21.475,5.1-33.993a3.6,3.6,0,0,1,3.441-1.757Zm-4.8,45.07c-.1,0-.2,0-.2.205a.94.94,0,0,0,1.025.906c0-.406-.213-1.116-.823-1.111" fill="#fff"/>
  </g>
</svg>
