<svg id="Group_107" data-name="Group 107" xmlns="http://www.w3.org/2000/svg" xmlns:xlink="http://www.w3.org/1999/xlink" width="322.3" height="326.673" viewBox="0 0 322.3 326.673">
  <defs>
    <clipPath id="clip-path">
      <rect id="Rectangle_769" data-name="Rectangle 769" width="322.3" height="326.673" fill="none"/>
    </clipPath>
  </defs>
  <g id="Group_106" data-name="Group 106" clip-path="url(#clip-path)">
    <path id="Path_593" data-name="Path 593" d="M282.526,237.41c-.482,2.647,1.144,12.254,2.487,15.977,2.253,6.254,6.715,12.464,12.794,14.478,13.473,4.466,25.88-9.532,32.885-18.4,3.026-3.833,1.744-2.291,5.992-3.867,20.048-7.441,3.251-24.522-4.049-16.157-4.154,4.756-2.173,13.055-2.724,14.15-6.552,5.458-13.5,12.659-21.281,16.284-8.254,3.843-16.554,2.275-18.012-12.1a100.744,100.744,0,0,1,1.064-23.864" transform="translate(-89.318 -70.81)" fill="#0d274e" fill-rule="evenodd"/>
    <path id="Path_594" data-name="Path 594" d="M200.263,172.535c-2.226,1.362-11.274,3.162-14.986,3.2-6.234.059-13.063-1.954-16.609-6.919-7.86-11.006,1.08-27.389,6.985-36.971,2.555-4.14,1.546-2.414,1.734-6.914.887-21.237,20.971-11.488,15.6-1.8-3.055,5.509-11.037,6.528-11.858,7.419-2.992,7.984-7.427,16.942-8.432,25.436-1.061,9.012,2.725,16.2,15.984,12.6,7.037-1.912,15.177-5.835,21.011-9.224" transform="translate(-52.363 -35.497)" fill="#0d274e" fill-rule="evenodd"/>
  </g>
</svg>
