<svg xmlns="http://www.w3.org/2000/svg" xmlns:xlink="http://www.w3.org/1999/xlink" width="669.161" height="625.247" viewBox="0 0 669.161 625.247">
  <defs>
    <clipPath id="clip-path">
      <rect id="Rectangle_725" data-name="Rectangle 725" width="333.679" height="588.479" fill="none"/>
    </clipPath>
  </defs>
  <g id="Group_961" data-name="Group 961" transform="translate(0.004 262.946) rotate(-52)">
    <g id="Group_18" data-name="Group 18" transform="translate(0 -0.005)" clip-path="url(#clip-path)">
      <path id="Path_319" data-name="Path 319" d="M147.888,346.7c0,59.45,45.865,107.643,102.443,107.643S352.774,406.148,352.774,346.7,306.909,239.055,250.331,239.055,147.888,287.249,147.888,346.7" transform="translate(-87.496 -141.432)" fill="#fff" fill-rule="evenodd"/>
      <path id="Path_320" data-name="Path 320" d="M306.57,655.189,293.05,807.034l-17.68,5.2L94.4,769.593l24.961-138.324s53.042,128.964,187.205,23.921" transform="translate(-55.853 -373.481)" fill="#009cdb" fill-rule="evenodd"/>
      <path id="Path_321" data-name="Path 321" d="M277.446,846.652a2.732,2.732,0,0,1,1.755-1,7.5,7.5,0,0,1-1.665-2.629c-.049-.134-.094-.267-.136-.4-.417.775-.7,1.333-.921,1.763-.251.492-.369.731-.414.814-1.419,2.629-1.912,2.667-5.791,2.959-.109.008.322-.025-1.2.1l-.656.053q-.193.649-.348,1.31a10.4,10.4,0,0,0,.069,6.179,3.7,3.7,0,0,0,2.225,2.249q.085.029.289.076a4.2,4.2,0,0,0,2.9-.325,4.116,4.116,0,0,0,1.757-1.9c.06-.919.212-2.445.459-3.986a22.234,22.234,0,0,1,.82-3.527,4.793,4.793,0,0,1,.856-1.725m12.713,5.854h0a29.49,29.49,0,0,1,.726-6.12,10.367,10.367,0,0,1-1.919,1,10.248,10.248,0,0,1-1.286.412,2.92,2.92,0,0,1,1.171,2.417,2.8,2.8,0,0,1-.083.64,18.519,18.519,0,0,0-.841,6.018,2.641,2.641,0,0,0,1.4,2.338,3.583,3.583,0,0,0,1.587.369,29.613,29.613,0,0,1-.75-7.078M261,834.5h0a45.086,45.086,0,0,1,3.516-4.794c1.2-1.423,5.736-2.437,8.787-2.2a8.214,8.214,0,0,1,2.23.457,3.479,3.479,0,0,1,2.128,1.915,3.339,3.339,0,0,1-.757,3.562c-1.049,1.262-1.991,2.517-2.834,3.74-.12.175-.238.348-.354.521a19.344,19.344,0,0,1,2.066.078,3.347,3.347,0,0,1,1.561.507c.062-.227.133-.456.215-.683a8.925,8.925,0,0,1,.517-1.178,9.93,9.93,0,0,1,5.116-4.493,9.554,9.554,0,0,1,6.742-.177,8.445,8.445,0,0,1,1.127.5,7.583,7.583,0,0,1,3.559,4.053q.1.257.172.52a19.243,19.243,0,0,1,2.63-3.356,11.5,11.5,0,0,1,8.413-3.7v0c.162,0,.321.006.476.019.19.016.359.036.5.061a7.565,7.565,0,0,1,.835.2,8.312,8.312,0,0,1,4.985,4.093c1.138,2.087,1.694,4.995,1.023,8.872a25.712,25.712,0,0,1-.645,2.761c-.392,1.359-.874,2.756-1.434,4.16a8.451,8.451,0,0,1,9.144,3.82l.011,0a20.935,20.935,0,0,1,1.617-2.948,3.007,3.007,0,0,1,3.226-1.285,7.865,7.865,0,0,1-1.042-1.824,8.2,8.2,0,0,1-.078-5.888c.091-.251.191-.5.3-.737a9.424,9.424,0,0,1,4.867-4.674,9.15,9.15,0,0,1,6.692-.232c.25.09.489.19.716.3a7.979,7.979,0,0,1,4.052,4.235,8.2,8.2,0,0,1,.078,5.888c-.09.25-.191.5-.3.737a9.488,9.488,0,0,1-8.914,5.424,2.65,2.65,0,0,1,.549,3.389c-.065.116-.131.24-.195.363l0,.008a15.592,15.592,0,0,0-1.591,4.471c-.172,1.134-.076,2.2.706,2.636l.038.021.008,0a3.4,3.4,0,0,0,2.651.265,7.458,7.458,0,0,0,3.237-2.328,3.265,3.265,0,0,1,2.588-1.314,2.779,2.779,0,0,1,2.171,1.1,4.327,4.327,0,0,1,.764,1.538,7.526,7.526,0,0,1-.531,5.183,12.625,12.625,0,0,1-5.9,5.475,13.28,13.28,0,0,1-8.122.863,12.64,12.64,0,0,1-7.477-4.4,11.428,11.428,0,0,1-1.969-3.756,14.433,14.433,0,0,1-3.14,3.808,14.037,14.037,0,0,1-6.639,3.136,15.142,15.142,0,0,1-12.994-3.842,16.56,16.56,0,0,1-3.539,1.276,14.829,14.829,0,0,1-5.357.274,14.613,14.613,0,0,1-5.909-2.235A11.651,11.651,0,0,1,279,866.721a13.326,13.326,0,0,1-4.667,2.045,16.579,16.579,0,0,1-8.375-.283,17.454,17.454,0,0,1-5.969-3.041,13.827,13.827,0,0,1-2.812-3.041c-2.884,1.371-3.455.484-4.754-1.536-.082-.128-.174-.271-.294-.443l-1.563-2.242-.047-.072a3.48,3.48,0,0,1-.591-1.728,2.878,2.878,0,0,1,1.732-2.874v0l3.006-1.764c.045-.641.117-1.284.215-1.936l0-.023c-2.242.373-3.8.588-4.61-1.4a4.813,4.813,0,0,1,.474-3.395,30.716,30.716,0,0,1,1.763-3.447,4.777,4.777,0,0,1,2.3-1.965,14.836,14.836,0,0,1,3.319-.84c.143-.024.308-.048.493-.072A47.746,47.746,0,0,1,261,834.5" transform="translate(-147.867 -489.563)" fill="#005299" fill-rule="evenodd"/>
      <path id="Path_322" data-name="Path 322" d="M269.931,835.251a44.77,44.77,0,0,0-6.128,9.6c-.72.072-1.266.138-1.563.188-2.686.463-3.452.768-4.134,1.823-.479.74-2.29,4.216-2.052,4.8.219.537,1.646.134,3.583-.142.4-.057,1.019-.133,1.785-.222a24.284,24.284,0,0,0-.863,5.86l-4.146,2.432a.892.892,0,0,0-.3,1.442l1.563,2.241c.922,1.323.923,2.016,2.963.934l1.185-.56c1.524,3.332,4.5,5.643,8.524,6.847,4.485,1.343,9.92.448,12.828-2.983,1.367,3.121,5.159,4.946,8.068,5.335a13.608,13.608,0,0,0,9.012-2.11c6.05,7.186,18.421,6.185,21.7-4.314a5.367,5.367,0,0,0,2.273-.487c-.162,5.95,3.494,9.447,8.284,10.441a10.667,10.667,0,0,0,11.657-5.243c1.117-2.02.265-5.989-1.412-4.011-1.422,1.676-4.768,4.591-8.573,2.591-3.981-2.094-.984-8.486.142-10.526.409-.742-1.479-1.783-3.053-2.529-1.6-.758-2.891-1.209-3.37-.5a24.73,24.73,0,0,0-1.876,3.575,7.4,7.4,0,0,1-2.932.423,6.02,6.02,0,0,0-11.725,1.55c.029,1.924,1.213,3.674,3.9,3.992-1.438,3.581-7.516,3.929-9.443.03a45.4,45.4,0,0,0,8.822-16.444c2.591-8.985-1.3-12.585-4.472-13.132a3.7,3.7,0,0,0-.635-.053c-4.755-.055-9.092,3.813-11.949,11.991a27.245,27.245,0,0,0-.236,17.16,5.845,5.845,0,0,1-5.241.078c-3.324-1.6-3.095-5.7-1.726-10.909.392-1.491-5.343-2.462-6.7-2.493-.834-.019-.96.345-1.287,1.29a33.38,33.38,0,0,0-1.176,7.308,6.17,6.17,0,0,1-7.329,3.868c-3.6-.842-6.259-5.222-3.629-13.214.084-.256.179-.53.285-.819.76-.07,1.473-.132,2.1-.185,3.937-.326,4.269-.132,5.226-1.9.195-.362.855-1.686,1.358-2.62s.722-1.476.032-1.554a49.116,49.116,0,0,0-5.819.061,53.811,53.811,0,0,1,5.518-8.007c2.775-3.343-7.577-2.631-9.042-.9m23.007,2.7h0a5.5,5.5,0,0,1,2.957,8.03,7.763,7.763,0,0,1-9.181,3.631,5.5,5.5,0,0,1-2.957-8.03,7.763,7.763,0,0,1,9.181-3.632m46.382,4.407h0a5.862,5.862,0,0,1,3.3,8.155,7.234,7.234,0,0,1-8.834,3.758,5.862,5.862,0,0,1-3.3-8.155,7.234,7.234,0,0,1,8.834-3.758m-35.951,17.424h0c-.736-2.32-.294-7.262,1.02-11.306.867-2.665,2.2-4.888,3.491-4.655,1.183.214.676,3.531-.544,7.522-1.025,3.354-2.546,6.84-3.968,8.438" transform="translate(-151.379 -493.303)" fill="#0bbbef" fill-rule="evenodd"/>
      <path id="Path_323" data-name="Path 323" d="M268.49,833.766a44.779,44.779,0,0,0-6.128,9.6c-.721.073-1.267.139-1.564.189-2.686.463-3.452.767-4.135,1.823-.479.74-2.289,4.216-2.051,4.8.219.536,1.645.134,3.583-.143.4-.057,1.019-.133,1.785-.222a24.3,24.3,0,0,0-.863,5.86l-4.145,2.432a.893.893,0,0,0-.3,1.442l1.563,2.241c.922,1.323.923,2.016,2.964.934l1.185-.56c1.525,3.332,4.5,5.644,8.523,6.847,4.486,1.343,9.922.448,12.829-2.982,1.367,3.121,5.159,4.946,8.069,5.334a13.6,13.6,0,0,0,9.012-2.109c6.05,7.187,18.421,6.185,21.7-4.313a5.375,5.375,0,0,0,2.273-.487c-.162,5.95,3.494,9.447,8.284,10.44a10.668,10.668,0,0,0,11.657-5.243c1.116-2.019.264-5.989-1.412-4.012-1.422,1.677-4.768,4.593-8.573,2.592-3.981-2.093-.984-8.486.142-10.526.409-.742-1.479-1.783-3.053-2.529-1.6-.757-2.891-1.21-3.369-.5a24.812,24.812,0,0,0-1.876,3.574,7.381,7.381,0,0,1-2.932.424,6.021,6.021,0,0,0-11.726,1.55c.029,1.924,1.214,3.675,3.9,3.994-1.438,3.581-7.516,3.929-9.443.03a45.4,45.4,0,0,0,8.823-16.444c2.59-8.985-1.3-12.585-4.473-13.132a3.641,3.641,0,0,0-.634-.052c-4.755-.056-9.091,3.812-11.95,11.991a27.244,27.244,0,0,0-.235,17.16,5.844,5.844,0,0,1-5.241.078c-3.324-1.6-3.095-5.7-1.727-10.908.393-1.492-5.344-2.462-6.7-2.494-.833-.019-.96.345-1.287,1.29a33.342,33.342,0,0,0-1.176,7.309,6.17,6.17,0,0,1-7.33,3.868c-3.6-.842-6.258-5.222-3.628-13.214q.127-.385.285-.82c.76-.069,1.473-.132,2.1-.185,3.937-.325,4.269-.131,5.225-1.9.2-.362.855-1.685,1.358-2.619s.723-1.477.033-1.554a48.949,48.949,0,0,0-5.819.061,53.844,53.844,0,0,1,5.517-8.007c2.776-3.342-7.576-2.631-9.041-.9m23.007,2.7h0a5.5,5.5,0,0,1,2.957,8.029,7.763,7.763,0,0,1-9.181,3.632,5.5,5.5,0,0,1-2.957-8.029,7.763,7.763,0,0,1,9.181-3.632m46.383,4.407h0a5.863,5.863,0,0,1,3.3,8.155,7.234,7.234,0,0,1-8.835,3.758,5.861,5.861,0,0,1-3.3-8.155,7.233,7.233,0,0,1,8.834-3.758M301.928,858.3h0c-.735-2.32-.294-7.263,1.021-11.305.866-2.665,2.2-4.888,3.49-4.655,1.183.213.676,3.531-.544,7.521-1.025,3.354-2.545,6.841-3.967,8.439" transform="translate(-150.527 -492.426)" fill="#fff" fill-rule="evenodd"/>
      <path id="Path_324" data-name="Path 324" d="M286.619,361.81c.208,7.717-3.274,25.124-4.232,34.063-2.2,20.243-6.748,100.1-11.413,106.669-7.56.937-36.158-7.772-45.3-10.18-28.756-7.577-61.845-15.266-91-21.114-3.586-.717-43.506-7.64-46.751-9.7,0-13.437,12.2-65.716,16.128-86.059.646-3.395,3.966-26.013,5.923-28.838,19.86,28.671,44.011,44.4,81.194,47.248,19.3,1.475,37.762-1.545,55.734-7.7,10.851-3.716,33.2-15.8,39.72-24.391M87.936,358.676c.171,7.165-15.245,71.361-17.545,92.466-2.683,24.638.9,26.134,23.813,30.178,7.581,1.337,41.361,6.873,45.906,9.164.346,10.338-.916,24.262-1.154,35.163-.779,35.867,1.216,74.442,1.553,110.476-14.724-.045-29.461-1-44.2-.233-6.489.337-13.2.513-19.494,2.257-15.7,4.349-11.871,12.646.562,14.921,6.752,1.233,50.109,2.274,67.262,1.883,20.889-.475,14.857-22.451,14.482-37.971q-1.536-62.361-8.243-124.259l34.593,7.231c-3.757,25.129-5.007,32.955-5.81,59.347-.646,21.4-.945,42.628.016,64.025,1.374,30.765-1.529,32.585,30.039,34.959,7.947.6,33.018,1.933,48.188-.749,12.879-2.283,15.686-10.622,2.245-14.966-17.374-5.619-55.661-1.041-63.033-4.669-2.632-2.191-1.441-58.56-1.441-65.783,0-23.226.083-46.339-.646-69.565,37.191,4.107,81.66,30.24,90.956,2.091,4.607-13.958,5.082-37.338,6.181-52.5.65-8.976,2.166-50.233,4.432-55.044,2.349,3.59,6.527,20.884,8.789,26.853,2.957,7.852,7.51,16.344,14.028,21.205,18.228,13.6,33.556-9.334,39.383-23.958,12.533-31.432,7.814-57.3,8.714-60.259.791-2.591,2.9-2.033,4.7-12.808,7.018-42.2-34.843-40.666-19.614-.225,5.59,14.843,8.839,7.614,6.785,27.4-1.853,17.8-6.364,38.871-17.269,53.245-7.676,10.113-13.075,9.588-18.473-2.037-7.989-17.194-12.929-50.367-17.569-70.557-1.037-4.513-3.4-9.9-4.1-13.639.6-6.358,20.1-28.239,12.8-83.16C299.057,141,203.126,116.4,172.433,119.734c-15.579,1.691-8.463,7.51,1.8,10.673,4.4,1.36,8.964,2.678,11.122,3.347,21.625,6.681,39.619,11.536,58.784,25.344,22.813,16.438,37.334,39.252,46.614,65.5,21.227,60.041,12.638,128.483-56.373,148.279C114.5,407.27,73.824,259.209,133.912,200.332c15.045-14.735,35.426-23.3,55.519-28.6,1.962-.517,6.9-1.391,11.758-2.324,8.868-1.7,20.06-5.478,2.936-8.16-27.718-4.342-111.8,17.357-113.42,112.034a146.151,146.151,0,0,0,2.27,27.412c1.291,7.306,6.365,18.125,2.32,24.5Z" transform="translate(-39.334 -70.668)" fill="#1c3160" fill-rule="evenodd"/>
      <path id="Path_325" data-name="Path 325" d="M347.9,1062.211c3.424.425,6.864.736,10.305.882.639,22.295.57,44.5.57,66.8,0,7.222-1.191,63.592,1.441,65.783,7.371,3.628,45.659-.95,63.033,4.669,13.441,4.344,10.634,12.683-2.245,14.966-15.17,2.682-40.241,1.345-48.188.75-31.568-2.375-28.665-4.194-30.039-34.96-.962-21.4-.662-42.627-.017-64.024.754-24.755,1.9-33.176,5.14-54.863" transform="translate(-202.439 -628.443)" fill="#009cdb" fill-rule="evenodd"/>
      <path id="Path_326" data-name="Path 326" d="M212.76,504.753c1.647-.98,1.358-4.011-.905-3.794a96.788,96.788,0,0,1-18.2-.189c-1.231-.114-2.46-.247-3.688-.39.022-.143.043-.284.064-.428l-34.593-7.231c.021.2.041.4.062.595a258.4,258.4,0,0,1-31.315-10.661c-1.8-.755-2.842,1.233-2.279,2.716-9.661-1.771-19.472-3.4-23.142-4.05-22.913-4.044-26.5-5.539-23.813-30.178,1.778-16.321,11.4-58.4,15.59-79.959a23.441,23.441,0,0,0,7.813-8.253c4.744-7.928,6.881-17.474,7.7-26.766,2.086,5.4,4.356,10.741,6.74,16.037-1.77,7.757-3.71,20.78-4.188,23.291-3.924,20.344-16.128,72.622-16.128,86.059,3.245,2.058,43.165,8.98,46.752,9.7,29.157,5.848,62.246,13.537,91,21.114,9.143,2.408,37.742,11.117,45.3,10.18,4.666-6.573,9.214-86.426,11.413-106.669.958-8.939,4.44-26.345,4.232-34.063-6.519,8.588-28.869,20.676-39.72,24.391-17.973,6.156-36.434,9.176-55.735,7.7-36.785-2.815-60.811-18.25-80.55-46.338-3.227-7.325-6.189-14.742-8.73-22.312a75.818,75.818,0,0,0-1.1-11.653c-.769-4.344-2-8.834-4.438-12.563a2.113,2.113,0,0,0-3.344-.223c-.007-.038-.015-.077-.022-.115a146.151,146.151,0,0,1-2.271-27.412c1.621-94.677,85.7-116.376,113.42-112.034,17.124,2.683,5.931,6.465-2.937,8.16-4.855.933-9.8,1.808-11.758,2.324-20.093,5.3-40.474,13.86-55.519,28.6C78.381,259.209,119.059,407.27,238.936,372.879c69.011-19.8,77.6-88.239,56.373-148.28-9.28-26.25-23.8-49.063-46.614-65.5-19.165-13.808-37.159-18.663-58.784-25.344-2.157-.669-6.723-1.987-11.121-3.347-10.263-3.164-17.378-8.983-1.8-10.674C207.683,116.4,303.614,141,319.334,259.157c5.966,44.9-5.978,67.714-10.864,78.02a1.8,1.8,0,0,0-2.813.617,54.835,54.835,0,0,0-3.868,11.887,243.288,243.288,0,0,0-4.577,29.675,252.713,252.713,0,0,0-1.636,25.63c0,2.632,4.079,2.627,4.084,0,0-.191.007-.381.008-.573.054-.023.108-.046.158-.073-1.535,13.507-2.589,40.713-3.1,47.8-1.1,15.166-1.575,38.546-6.181,52.5-8.218,24.884-43.92,7.352-77.784.112" transform="translate(-43.891 -70.668)" fill="#1c3160" fill-rule="evenodd"/>
      <path id="Path_327" data-name="Path 327" d="M76.814,1181.4c6.294-1.745,13-1.92,19.494-2.257,14.741-.766,29.478.188,44.2.233-.337-36.034-2.333-74.609-1.554-110.476.209-9.574,1.207-21.478,1.213-31.238q5.581,1.753,11.234,3.287,6.236,59.444,7.718,119.283c.375,15.52,6.406,37.5-14.483,37.971-17.153.392-60.509-.649-67.262-1.883-12.433-2.274-16.261-10.571-.562-14.92" transform="translate(-39.333 -613.917)" fill="#009cdb" fill-rule="evenodd"/>
      <path id="Path_328" data-name="Path 328" d="M9.093,424.9c2.868-9.972,1.759-5.844.843-15.337-4.322-44.8,29.583-34.881,23.81-11.869-3.28,13.09-15.44,19.363-16.479,21.65-2.518,18.226-7.02,39.233-6.3,57.489.768,19.368,8.6,32.408,28.284,18,5.405-3.957,8.075-7.156,13.47-12.685-.508,6.9,1.754,11.79,1.569,18.643-5.412,4.152-14.1,9.253-18.413,10.746C26.178,514.9,15,514.25,8.141,505.725c-15.2-18.9-5.675-57.748.951-80.821" transform="translate(4.525 -222.214)" fill="#1c3160" fill-rule="evenodd"/>
      <path id="Path_329" data-name="Path 329" d="M135.293,579.209c-.414-1.577-.861-3.137-1.268-4.634a27.408,27.408,0,0,1,1.71,4.571,2.145,2.145,0,0,0-.442.062" transform="translate(-79.294 -339.939)" fill="#1c3260" fill-rule="evenodd"/>
      <path id="Path_331" data-name="Path 331" d="M226.433,358.829c7.647-3.5,14.595,3.547,10.988,10.886-1.137,2.326-8.814,8.941-11.455,12.64-20.055,28,.375,61.5,27.612,75.654,35.733,18.567,85.6,7.926,96.305-28.659a54.271,54.271,0,0,0,1.458-22.064c-.492-3.582-5.532-21.122,1.658-11.031,3.415,4.781,5.94,15.8,6.331,21.472,2.582,37.265-37.446,70.129-87.612,61.42C222.043,470.526,179.565,416.9,214.2,370.6c2.2-2.943,9.043-10.3,12.234-11.773" transform="translate(-119.267 -211.747)" fill="#1c3260" fill-rule="evenodd"/>
      <path id="Path_332" data-name="Path 332" d="M312.085,159.6c13.687.084,45.222,13.426,51.653,16.759,9.572,4.959,43.415,25.388,39.22,37.84-3.057,9.06-19.618-8.041-22.484-10.5-15.674-13.433-26.378-20.123-40.366-26.625-9.941-4.621-20.446-7.708-29.785-11.906-6.3-2.832-4.49-5.611,1.762-5.571" transform="translate(-181.28 -94.424)" fill="#1c3160" fill-rule="evenodd"/>
      <path id="Path_333" data-name="Path 333" d="M335.451,393.548c12.725,4.407,6.3,33.1-7.7,28.016-12.091-4.394-5.248-32.5,7.7-28.016" transform="translate(-190.187 -232.551)" fill="#1c3260" fill-rule="evenodd"/>
      <path id="Path_334" data-name="Path 334" d="M401.458,406.771c11.555,6.4,4.544,34.124-8.605,27.235-11.4-5.984-4.3-34.381,8.605-27.235" transform="translate(-229.044 -239.982)" fill="#1c3260" fill-rule="evenodd"/>
      <path id="Path_335" data-name="Path 335" d="M669.928,202.871c3.4-3.711,10.205-9.428,14.129-12.865,27.133-23.807,32.356-11.711,6.681,5.9-3.532,2.432-11.434,8.926-17.436,11.752-6.685,3.147-7.256-.552-3.373-4.786" transform="translate(-394.927 -104.556)" fill="#fff" fill-rule="evenodd"/>
      <path id="Path_336" data-name="Path 336" d="M195.707,90.4c-3.766-7.6-10.7-20.508-12.563-28.054-2.441-9.878,3.057-12.486,7.814-4.1,2,3.532,10.1,25.1,11.6,29.7,3.84,11.888.033,16.316-6.848,2.448" transform="translate(-108.001 -31.485)" fill="#fff" fill-rule="evenodd"/>
      <path id="Path_337" data-name="Path 337" d="M385.9,31.727c-2.81-10.984-4.127-31.1,1.416-31.712,6.344-.7,5.273,17.869,5.182,27.37-.092,9.466-3.1,18.015-6.6,4.343" transform="translate(-226.876 0.005)" fill="#fff" fill-rule="evenodd"/>
      <path id="Path_338" data-name="Path 338" d="M590.871,74.155c-.255,3.934-8.906,22.08-11.6,25.452-2.633,3.286-5.715,3.738-4.957-1.476.617-4.247,7.7-23.645,10.463-26.971,3.536-4.247,6.419-2.112,6.09,2.995" transform="translate(-339.72 -40.758)" fill="#fff" fill-rule="evenodd"/>
    </g>
  </g>
</svg>
