<svg id="Group_1064" data-name="Group 1064" xmlns="http://www.w3.org/2000/svg" xmlns:xlink="http://www.w3.org/1999/xlink" width="243.898" height="246.376" viewBox="0 0 243.898 246.376">
  <defs>
    <clipPath id="clip-path">
      <rect id="Rectangle_1256" data-name="Rectangle 1256" width="243.898" height="246.376" fill="none"/>
    </clipPath>
  </defs>
  <g id="Group_1063" data-name="Group 1063" clip-path="url(#clip-path)">
    <path id="Path_840" data-name="Path 840" d="M273.564,204.025a65.886,65.886,0,1,1-65.886-65.886,65.886,65.886,0,0,1,65.886,65.886" transform="translate(-72.265 -70.404)" fill="#fff200"/>
    <path id="Path_841" data-name="Path 841" d="M138.546,133.5c-15.61,11.116-25.669,30.438-23.393,60.949,2.478,32.069,31.5,48.993,61.767,50.938,18.057,1.166,36.458-3.016,49.63-12.234,9.9-6.93,16.9-16.684,18.814-29.134a149.723,149.723,0,0,0,1.852-24.148c-.211-15.512-3.6-27-9.152-35.45-18.73-28.492-74.753-28.532-99.518-10.919m95.6,13.432c4.268,6.823,6.9,15.7,7.555,27.177a134.787,134.787,0,0,1-1.887,29.041c-1.7,10.84-7.909,19.258-16.557,25.263-12.216,8.472-29.253,12.177-45.94,11.072-27.336-1.806-53.98-16.531-56.191-45.5-2.2-27.829,6.584-45.595,20.757-55.846,22.308-16.149,75.239-18.434,92.264,8.792" transform="translate(-58.526 -61.885)" fill="#22345c" fill-rule="evenodd"/>
    <path id="Path_842" data-name="Path 842" d="M248.841,2.571c-.011,2.823-.182,6.074-.286,9.555-.058,2.069-.089,4.215-.131,6.4-.118,5.692-.269,11.586-.386,16.841-.067,2.6-.144,5.045-.121,7.23.079,6.034.38,10.066.38,10.066a1.836,1.836,0,1,0,3.667.214s.794-4,1.384-10.035c.414-4.289.613-9.6.826-15.13.152-4.189.3-8.519.254-12.638-.056-4.663-.37-9.056-.666-12.715a2.463,2.463,0,1,0-4.921.214" transform="translate(-126.352 0)" fill="#22345c" fill-rule="evenodd"/>
    <path id="Path_843" data-name="Path 843" d="M237.712,393.674c-.01,2.82-.172,6.071-.279,9.555-.065,2.075-.1,4.223-.139,6.4-.118,5.692-.257,11.589-.395,16.847-.047,2.593-.133,5.036-.108,7.226.072,6.044.385,10.074.385,10.074a1.833,1.833,0,1,0,3.66.2s.793-3.987,1.382-10.026c.424-4.3.626-9.6.824-15.13.165-4.187.31-8.521.247-12.649-.047-4.661-.353-9.045-.658-12.7a2.462,2.462,0,0,0-4.921.209" transform="translate(-120.681 -199.333)" fill="#22345c" fill-rule="evenodd"/>
    <path id="Path_844" data-name="Path 844" d="M321.66,22.041c-1.061,2.6-2.427,5.566-3.821,8.754-.838,1.907-1.666,3.875-2.523,5.883-2.236,5.241-4.582,10.651-6.656,15.484-1.024,2.39-2.011,4.624-2.8,6.655-2.194,5.636-3.409,9.492-3.409,9.492a1.832,1.832,0,1,0,3.318,1.557s2.229-3.409,5.04-8.791c1.977-3.817,4.153-8.664,6.417-13.724,1.713-3.824,3.454-7.793,4.955-11.633,1.689-4.353,3.046-8.531,4.125-12.042a2.46,2.46,0,1,0-4.64-1.636" transform="translate(-154.054 -10.395)" fill="#22345c" fill-rule="evenodd"/>
    <path id="Path_845" data-name="Path 845" d="M165.227,380.666c-1.058,2.613-2.432,5.564-3.83,8.755-.835,1.9-1.664,3.872-2.524,5.88-2.223,5.236-4.573,10.655-6.649,15.477-1.024,2.392-2.011,4.624-2.8,6.666-2.2,5.625-3.42,9.492-3.42,9.492a1.837,1.837,0,0,0,3.328,1.557s2.222-3.409,5.02-8.8c2-3.819,4.163-8.662,6.427-13.715,1.713-3.826,3.458-7.791,4.956-11.631,1.7-4.354,3.046-8.531,4.135-12.041a2.463,2.463,0,1,0-4.645-1.638" transform="translate(-74.326 -193.171)" fill="#22345c" fill-rule="evenodd"/>
    <path id="Path_846" data-name="Path 846" d="M143.416,24.644c1.2,2.544,2.455,5.55,3.856,8.74.835,1.9,1.722,3.853,2.62,5.846,2.348,5.184,4.735,10.572,6.883,15.374,1.068,2.372,2.041,4.616,3.005,6.579,2.652,5.419,4.671,8.929,4.671,8.929a1.831,1.831,0,1,0,3.39-1.385s-.992-3.949-3.058-9.661c-1.462-4.049-3.563-8.918-5.744-14.007-1.657-3.864-3.393-7.822-5.2-11.533-2.05-4.186-4.219-8.014-6.064-11.186a2.463,2.463,0,0,0-4.354,2.3" transform="translate(-72.949 -10.716)" fill="#22345c" fill-rule="evenodd"/>
    <path id="Path_847" data-name="Path 847" d="M301.33,382.619c1.2,2.553,2.446,5.559,3.849,8.745.841,1.9,1.727,3.856,2.621,5.839,2.345,5.184,4.74,10.583,6.888,15.372,1.059,2.383,2.045,4.617,3,6.581,2.66,5.429,4.671,8.938,4.671,8.938a1.832,1.832,0,1,0,3.392-1.387s-.992-3.955-3.058-9.661c-1.464-4.056-3.561-8.926-5.746-14.013-1.65-3.849-3.381-7.822-5.2-11.526-2.058-4.187-4.209-8.024-6.064-11.195a2.464,2.464,0,1,0-4.354,2.306" transform="translate(-153.431 -193.165)" fill="#22345c" fill-rule="evenodd"/>
    <path id="Path_848" data-name="Path 848" d="M55.178,92.226c2.209,1.761,4.647,3.917,7.307,6.164,1.576,1.34,3.23,2.708,4.908,4.093,4.388,3.641,8.9,7.428,12.935,10.8,2,1.664,3.859,3.244,5.59,4.6,4.761,3.7,8.114,5.973,8.114,5.973a1.83,1.83,0,1,0,2.439-2.729s-2.621-3.118-6.991-7.34c-3.088-3-7.109-6.457-11.311-10.064-3.174-2.746-6.476-5.547-9.73-8.088-3.686-2.855-7.306-5.35-10.36-7.393a2.464,2.464,0,0,0-2.9,3.984" transform="translate(-27.607 -44.735)" fill="#22345c" fill-rule="evenodd"/>
    <path id="Path_849" data-name="Path 849" d="M354.16,344.6c2.2,1.77,4.647,3.918,7.3,6.171,1.578,1.343,3.244,2.7,4.919,4.1,4.388,3.637,8.9,7.428,12.934,10.8,2,1.659,3.86,3.249,5.583,4.589,4.768,3.712,8.112,5.976,8.112,5.976a1.835,1.835,0,1,0,2.451-2.73s-2.632-3.109-6.986-7.329c-3.1-3-7.127-6.467-11.319-10.073-3.176-2.737-6.476-5.546-9.729-8.078-3.688-2.859-7.309-5.352-10.362-7.4a2.464,2.464,0,0,0-2.9,3.984" transform="translate(-179.986 -173.364)" fill="#22345c" fill-rule="evenodd"/>
    <path id="Path_850" data-name="Path 850" d="M383.473,74.834c-1.973,2.02-4.345,4.252-6.837,6.674-1.491,1.442-3.006,2.976-4.548,4.507-4.034,4.021-8.242,8.15-11.977,11.845-1.855,1.831-3.605,3.53-5.112,5.127-4.145,4.386-6.72,7.5-6.72,7.5a1.833,1.833,0,1,0,2.487,2.695s3.348-2.32,7.973-6.253c3.276-2.8,7.106-6.465,11.1-10.3,3.021-2.9,6.137-5.923,8.962-8.919,3.2-3.4,6.038-6.762,8.357-9.609a2.46,2.46,0,0,0-3.682-3.262" transform="translate(-177.202 -37.718)" fill="#22345c" fill-rule="evenodd"/>
    <path id="Path_851" data-name="Path 851" d="M103.753,348.394c-1.969,2.022-4.34,4.244-6.846,6.676-1.478,1.45-2.992,2.967-4.545,4.5-4.033,4.022-8.242,8.15-11.977,11.849-1.845,1.828-3.605,3.53-5.1,5.117-4.149,4.392-6.73,7.514-6.73,7.514a1.837,1.837,0,0,0,2.5,2.7s3.348-2.32,7.965-6.264c3.286-2.79,7.114-6.47,11.1-10.3,3.041-2.909,6.144-5.922,8.962-8.917,3.209-3.39,6.036-6.762,8.356-9.611a2.457,2.457,0,1,0-3.676-3.262" transform="translate(-34.642 -177.14)" fill="#22345c" fill-rule="evenodd"/>
    <path id="Path_852" data-name="Path 852" d="M426.982,158.834c-2.606,1.075-5.678,2.164-8.934,3.4-1.938.743-3.933,1.531-5.964,2.329-5.3,2.073-10.81,4.189-15.7,6.087-2.437.942-4.726,1.8-6.732,2.669-5.55,2.371-9.15,4.2-9.15,4.2a1.833,1.833,0,1,0,1.2,3.465s4-.8,9.811-2.56c4.117-1.261,9.1-3.113,14.283-5.025,3.942-1.459,8-2.981,11.78-4.609,4.284-1.847,8.224-3.8,11.484-5.476a2.465,2.465,0,1,0-2.075-4.472" transform="translate(-193.297 -80.835)" fill="#22345c" fill-rule="evenodd"/>
    <path id="Path_853" data-name="Path 853" d="M61.4,298.256c-2.6,1.068-5.669,2.167-8.931,3.4-1.93.733-3.935,1.527-5.967,2.32-5.3,2.071-10.8,4.191-15.7,6.093-2.426.943-4.715,1.8-6.729,2.662-5.55,2.38-9.158,4.2-9.158,4.2a1.837,1.837,0,0,0,1.212,3.468s4-.8,9.8-2.563c4.126-1.256,9.094-3.1,14.292-5.031C44.152,311.346,48.2,309.82,52,308.2c4.279-1.834,8.214-3.793,11.479-5.478a2.463,2.463,0,1,0-2.08-4.466" transform="translate(-6.973 -151.894)" fill="#22345c" fill-rule="evenodd"/>
    <path id="Path_854" data-name="Path 854" d="M438.878,276.007c-2.8-.351-6-.886-9.446-1.408-2.047-.3-4.172-.6-6.339-.9-5.641-.784-11.472-1.633-16.673-2.371-2.578-.366-4.994-.729-7.167-.973-6.013-.637-10.053-.809-10.053-.809a1.837,1.837,0,0,0-.636,3.618s3.872,1.252,9.81,2.553c4.2.931,9.448,1.751,14.916,2.609,4.151.656,8.426,1.31,12.522,1.745,4.642.5,9.033.713,12.7.84a2.459,2.459,0,1,0,.366-4.9" transform="translate(-197.264 -137.364)" fill="#22345c" fill-rule="evenodd"/>
    <path id="Path_855" data-name="Path 855" d="M51.833,218.736c-2.8-.343-6.008-.889-9.45-1.4-2.054-.314-4.179-.6-6.341-.9-5.636-.784-11.473-1.633-16.671-2.38-2.574-.358-5-.733-7.168-.963-6.008-.636-10.049-.816-10.049-.816a1.836,1.836,0,0,0-.645,3.614s3.879,1.261,9.809,2.561c4.212.924,9.459,1.745,14.926,2.609,4.145.656,8.424,1.3,12.52,1.748,4.642.492,9.031.7,12.7.83a2.46,2.46,0,1,0,.37-4.905" transform="translate(0 -108.177)" fill="#22345c" fill-rule="evenodd"/>
    <path id="Path_856" data-name="Path 856" d="M212.765,210.525a6.17,6.17,0,0,0-1.459,3.363,6.774,6.774,0,0,0-.067.854,6.7,6.7,0,0,0,.019,1.276,10.56,10.56,0,0,0,1.473,4.771,5.135,5.135,0,0,0,5.575,2.488c1.4-.291,3.039-1.775,3.546-4.477a22.477,22.477,0,0,0,.165-5.531,4.994,4.994,0,0,0,.269-1.811,3.438,3.438,0,0,0-1.552-2.585c-.144-.1-.3-.182-.442-.269a3.5,3.5,0,0,0-1.5-.6,5.65,5.65,0,0,0-5.831,2.276c-.07.079-.131.163-.193.244" transform="translate(-107.65 -105.932)" fill="#22345c" fill-rule="evenodd"/>
    <path id="Path_857" data-name="Path 857" d="M286.917,223.892a4.751,4.751,0,0,0-.007.723,5.291,5.291,0,0,0,2.339,4.357c2.266,1.5,5.236.634,6.916-2.586a10.6,10.6,0,0,0,1-2.909,10.2,10.2,0,0,0,.382-1.48,4.735,4.735,0,0,0-1.629-4.91,5.031,5.031,0,0,0-1.078-.54,3.851,3.851,0,0,0-4.379.323,10.854,10.854,0,0,0-3.337,5.341,6.61,6.61,0,0,0-.209,1.682" transform="translate(-146.222 -110.092)" fill="#22345c" fill-rule="evenodd"/>
    <path id="Path_858" data-name="Path 858" d="M197.865,265.233c4.906,11.987,13.645,17.2,22.355,18.486a31.55,31.55,0,0,0,20.91-4.332c4.042-2.609,6.509-6.043,6.9-9.3a3.125,3.125,0,0,0-6.206-.737,5.1,5.1,0,0,1-1.613,2.793,15.862,15.862,0,0,1-4.654,3.216c-9.283,4.44-25.132,4.054-31.91-12.5a3.123,3.123,0,0,0-5.78,2.369" transform="translate(-100.727 -132.985)" fill="#22345c" fill-rule="evenodd"/>
    <path id="Path_859" data-name="Path 859" d="M167.658,153.146A43.174,43.174,0,0,0,152.577,167a55.2,55.2,0,0,0-8.124,20.874q-.437,2.368-.675,4.54c-1.5,13.816,2.5,24.629,9.77,32.52,7.329,7.954,18.008,12.992,29.774,15.186,1.862.349,3.723.621,5.57.823a86.683,86.683,0,0,0,8.975.505c11.412.044,22.483-2.287,30.985-7.653,8.382-5.287,14.3-13.578,15.6-25.528a46.6,46.6,0,0,0,.265-4.94q.018-4.235-.107-8.068-.126-4.017-.375-7.4c-.845-11.631-3.993-20.183-8.99-26.37-4.97-6.151-11.83-10.018-20.122-12.287a75,75,0,0,0-25.478-2.237c-7.879.663-15.584,2.622-21.988,6.178m-17.942,11.944A46.612,46.612,0,0,1,166,150.144c6.851-3.806,15.037-5.9,23.366-6.6a78.493,78.493,0,0,1,26.658,2.335c8.975,2.453,16.433,6.685,21.9,13.447,5.438,6.726,8.849,15.913,9.75,28.292q.258,3.552.386,7.532.121,3.785.1,8.189a50.26,50.26,0,0,1-.293,5.3c-1.425,13.119-7.943,22.232-17.176,28.052-9.1,5.743-20.824,8.237-32.835,8.191a89.808,89.808,0,0,1-9.341-.533c-1.985-.216-3.926-.5-5.806-.851-12.467-2.325-23.824-7.712-31.683-16.24-7.917-8.587-12.277-20.31-10.655-35.226.174-1.587.407-3.184.707-4.782a58.645,58.645,0,0,1,8.642-22.169" transform="translate(-71.369 -73.023)" fill="#22345c" fill-rule="evenodd"/>
  </g>
</svg>
