<svg xmlns="http://www.w3.org/2000/svg" xmlns:xlink="http://www.w3.org/1999/xlink" width="212.789" height="283.078" viewBox="0 0 212.789 283.078">
  <defs>
    <clipPath id="clip-path">
      <rect id="Rectangle_823" data-name="Rectangle 823" width="251.5" height="142.022" fill="#1c3160"/>
    </clipPath>
  </defs>
  <g id="Kék_nyíl" data-name="Kék nyíl" transform="matrix(0.309, 0.951, -0.951, 0.309, 135.071, 0)">
    <g id="Group_1001" data-name="Group 1001" transform="translate(0 0)" clip-path="url(#clip-path)">
      <path id="Path_692" data-name="Path 692" d="M251.075,28.521A96.392,96.392,0,0,1,238.385,1.787,2.475,2.475,0,0,0,234.291.7Q220.051,15.1,205.809,29.486c-1.9,1.917.6,5.429,2.964,3.837a90.632,90.632,0,0,0,16.981-14.755c-3.188,28-13.692,57.575-33.368,77.9-28.014,28.942-57.3,4.87-88.739-1.32C63.9,87.329,21.475,106.146.18,140.369c-.772,1.241,1.142,2.331,1.945,1.137a99.955,99.955,0,0,1,67.5-43.114,93.6,93.6,0,0,1,42.549,3.207c14.111,4.434,27.532,11.723,42.33,13.749,51,6.979,74.176-65.313,76.835-104.367a2.116,2.116,0,0,0-.03-.3q1.8-1.824,3.607-3.643A99.435,99.435,0,0,0,246.835,31c1.758,2.6,6.015.151,4.24-2.479" transform="translate(0 0)" fill="#1c3160"/>
    </g>
  </g>
</svg>
