<svg xmlns="http://www.w3.org/2000/svg" xmlns:xlink="http://www.w3.org/1999/xlink" width="1601" height="485.888" viewBox="0 0 1601 485.888">
  <defs>
    <clipPath id="clip-path">
      <rect id="Rectangle_755" data-name="Rectangle 755" width="295.388" height="289.305" fill="none"/>
    </clipPath>
  </defs>
  <g id="Nyeremények_grafika" data-name="Nyeremények grafika" transform="translate(-161 -3163.574)">
    <rect id="piros_téglalap_nyeremények" data-name="piros téglalap_nyeremények" width="477" height="301" rx="13" transform="translate(161 3314.462)" fill="#e21e13"/>
    <rect id="Sárga_téglalap_nyeremények" data-name="Sárga téglalap_nyeremények" width="523" height="306" rx="13" transform="translate(1239 3309.462)" fill="#f7c200"/>
    <path id="Kék_téglalap_nyeremények" data-name="Kék téglalap_nyeremények" d="M17,0H683a17,17,0,0,1,17,17V359a17,17,0,0,1-17,17H17A17,17,0,0,1,0,359V17A17,17,0,0,1,17,0Z" transform="translate(610 3273.462)" fill="#089dde"/>
    <g id="Tibi_figura02" data-name="Tibi figura02" transform="translate(1072.762 3383.091) rotate(-48)">
      <g id="Group_78" data-name="Group 78" clip-path="url(#clip-path)">
        <path id="Path_551" data-name="Path 551" d="M340.862,262.229c-24.628,20.385-60.281,17.671-79.632-6.062s-15.073-59.5,9.556-79.884,60.281-17.671,79.632,6.062,15.073,59.5-9.556,79.884" transform="translate(-140.584 -91.23)" fill="#fff" fill-rule="evenodd"/>
        <path id="Path_552" data-name="Path 552" d="M222.577,324.976c-.426.006-5.18-.435-5.512-.582-4.225,1.515-13.973-.359-18.764-2.18-18.626-7.081-26.17-25.18-31.439-42.774-.493-1.649-.9-3.095-1.461-4.783-.261-.791-.594-1.619-.9-2.391-2.437-6.171,5.237-5.409-.274-10.633-1.278.463-2.178,0-4.747,1.3a46.6,46.6,0,0,0-4.928,2.944c-3.535,2.38-6.838,4.655-10.314,7.261-6.7,5.021-13.252,10.012-20.11,14.927-18.912,13.555-18.954,14.514,4.02,33.587a322.881,322.881,0,0,1,34.291,33.5c4.77,5.332,11.834,14,17.041,17.974,6.736,5.147,13.878,2.262,14.126-6.274,1.625-1.083,2.651-.891,4.465-1.939,5.409-3.127,8.957-9.2,12.383-11.651.261-1.347,9.053-11.674,10.755-13.922,4.191-5.537,7.608-9.055,1.368-14.365" transform="translate(-62.301 -146.79)" fill="#008cd1" fill-rule="evenodd"/>
        <path id="Path_553" data-name="Path 553" d="M102.359,139.636c-.046,1.61-1.269,4.639-1.71,6.38a54.139,54.139,0,0,0-1.185,6.534,48.051,48.051,0,0,0,.346,12.976c4.188,27.946,30.862,42.6,57.679,43.99,2.011.1,4.6-.514,6.364.385l-37.67,37.243a13.785,13.785,0,0,1-1.141-.944l-8.295-7.147c-3.146-2.779-6.16-5.679-9.208-8.475L52.42,180.238ZM133.4,57.951c.121,7.132-2.6,18.7-4.053,22.426-.626,1.6-.749,2.58-1.281,4.2l-6.517,17.634c-2.324,5.6-8.1,18.861-11.864,23.41-2.322,2.807-6.534,5.186-9.385,7.249-13.771,9.966-27.921,21.055-41.435,31.484C40.009,178.9,38.133,178.6,47.115,187.2c7.725,7.394,16.206,14.753,23.548,22.383-6.537,7.923-36.211,46.072-41.678,49.851-3.094-3.3-18.981-20.445-21.98-22.581-2.381-1.7-6.316-1.507-6.969,2.286-.281,1.625,1.08,3.964,3.02,6.413,5.051,6.371,14.752,16.406,20.653,22.061,6.628,6.355,7.576,3.076,16.6-7.877,4.059-4.882,8.21-9.848,12.245-14.714l24.121-29.942,12.445,11.9c-12.8,13.915-27.941,29.015-41.441,43.142-6.511,6.814-11.044,9.368-7.174,14.961a253.479,253.479,0,0,0,20.716,25.052c2.614,2.681,5.075,4.538,7.727,2.951,3.055-1.7,2.243-4.9-.181-8.849-4.778-7.786-16.157-18.112-18.9-22.943L95.2,232.584c3.427,1.941,17.724,16.3,21.767,20.07,3.55,3.314,7.075,8.071,11.322,6.284,2.9-1.223,38.718-37.11,44.926-43.259,5.6-5.546,5.571-4.707,11.89-5.208a204.117,204.117,0,0,1,23.846-.891c8.884.375,14.862.96,23.555,1.986,5.349.631,17.556,3.354,23.292,4.783,4.636,1.154,6.642,3.22,11.526,3.6,8.017.617,11.212-7.625,4.958-10.75-4.737-2.366-10.721,3.225-16.639,1.974-2.965-.628-7.161-2.275-10.245-3.181a180,180,0,0,0-30.457-5.747l-20.291-1.04c5.527-3.868,9.9-5.785,15.664-10.97,24.519-22.043,28.28-57.406,11.738-84.785a61.64,61.64,0,0,0-5.829-8.083c-6.769-7.683-6.719-4.341-3.268,3,2.671,5.68,6.385,13.081,7.2,15.276,7.31,20.6,5.948,43.608-11,62.074-23.966,26.113-62.468,27.97-84.292,10.743-15.956-12.6-17.485-29.439-13.718-42.065,8.789-29.471,47.988-48.921,75.487-39.794a34.211,34.211,0,0,1,19.136,15.2c2.5,4.09,5.662,12.574,8.009,17.651,1.259,2.721,3.436,6.686,5.275,1.48,1.135-3.213.177-8.445-.307-10.831-5.824-28.694-34.675-40.2-62.105-33.956-14.443,3.288-17.925,6.239-30.023,13.2a140.4,140.4,0,0,0,6.62-19.615,130.878,130.878,0,0,0,4.015-20.213c.471-4.2.48-5.6,4.487-9.823,3.1-3.273,4.6-6.378,4.058-9.938-.65-4.239-4.748-7.323-8.449-6.036-6.5,2.262-4.025,9.579-3.946,14.231" transform="translate(0 -24.364)" fill="#0d274d" fill-rule="evenodd"/>
        <path id="Path_554" data-name="Path 554" d="M514.24,411.142c-4.736-2.366-10.721,3.224-16.639,1.974-2.965-.628-7.161-2.276-10.245-3.181a179.957,179.957,0,0,0-30.457-5.747l-16.071-.824c-4.124,2.715-7.933,5.89-11.922,8.8l-.173.125a192.44,192.44,0,0,1,22.177-.76c8.884.375,14.861.96,23.554,1.986,5.35.631,17.556,3.355,23.292,4.783,4.636,1.154,6.642,3.22,11.526,3.6,8.017.617,11.211-7.625,4.958-10.75" transform="translate(-241.954 -226.308)" fill="#0d274d" fill-rule="evenodd"/>
        <path id="Path_555" data-name="Path 555" d="M245.294,128.279q.891-.477,1.762-.985a.894.894,0,0,1,.4-.9c6.7-4.846,11.29-11.977,17.657-17.182a141.534,141.534,0,0,0,6.56-19.483,130.883,130.883,0,0,0,4.015-20.213c.47-4.2.48-5.6,4.487-9.823,3.1-3.274,4.6-6.378,4.058-9.938-.65-4.239-4.748-7.323-8.449-6.036-6.5,2.263-4.025,9.579-3.946,14.231.121,7.132-2.6,18.7-4.053,22.426-.626,1.6-.749,2.58-1.281,4.2l-6.517,17.634c-2.325,5.6-8.1,18.861-11.864,23.41a18.614,18.614,0,0,1-2.827,2.662" transform="translate(-138.431 -24.363)" fill="#0d274d" fill-rule="evenodd"/>
        <path id="Path_556" data-name="Path 556" d="M226.692,279.848a1.119,1.119,0,0,1,.826-1.164c.167-.045.332-.1.5-.147,4.335-4.251,5.105-4.332,8.995-4.558,1.179-.8,2.329-1.633,3.455-2.462,3.093-2.279,6.09-4.7,9.226-6.925l-.742-.038c5.527-3.868,9.9-5.785,15.664-10.97,24.52-22.043,28.28-57.406,11.738-84.785a61.636,61.636,0,0,0-5.829-8.083c-6.769-7.683-6.719-4.341-3.268,3,2.672,5.68,6.385,13.081,7.2,15.276,7.31,20.6,5.948,43.608-11,62.074-23.966,26.113-62.468,27.97-84.292,10.743-15.956-12.6-17.485-29.439-13.717-42.064,8.789-29.471,47.987-48.921,75.487-39.794a34.208,34.208,0,0,1,19.136,15.2c2.5,4.09,5.662,12.574,8.009,17.651,1.259,2.721,3.436,6.686,5.275,1.48,1.135-3.212.177-8.445-.307-10.83-5.823-28.694-34.675-40.2-62.105-33.957a78.99,78.99,0,0,0-13.015,3.935c-19.672,6.444-41.77,32.317-42,31.868-.462.313-.907.621-1.321.921-13.771,9.966-27.921,21.054-41.435,31.483-18.86,14.553-20.736,14.251-11.754,22.845,5.977,5.721,12.4,11.421,18.409,17.242.1-.093,6.4,6.29,13.731,13.105,9.614,8.943,20.865,18.931,20.872,19.043,5.659,5.1,13.924,13.344,16.843,16.067,3.55,3.314,7.075,8.071,11.323,6.284,2.791-1.177,36.068-34.457,44.1-42.44m-47.352,29.7-8.295-7.146c-3.146-2.779-6.16-5.679-9.208-8.474l-55.121-50.341,49.939-40.6c-.046,1.611-1.269,4.639-1.71,6.38a54.145,54.145,0,0,0-1.185,6.534,48.068,48.068,0,0,0,.346,12.976c4.188,27.946,30.863,42.6,57.679,43.99,2.011.1,4.6-.514,6.364.385l-37.67,37.243a13.852,13.852,0,0,1-1.141-.944" transform="translate(-54.296 -87.714)" fill="#0d274d" fill-rule="evenodd"/>
        <path id="Path_557" data-name="Path 557" d="M68.768,515.446c-4.778-7.786-16.157-18.112-18.9-22.943l44.747-48.071q-1.315-1.519-2.628-3.041c-3.98-4.6-18.657-19.179-22.206-21.509.3.3.593.605.885.91-6.537,7.922-36.211,46.072-41.678,49.851C25.892,467.344,10,450.2,7.005,448.061c-2.381-1.7-6.316-1.507-6.969,2.286-.281,1.625,1.08,3.964,3.02,6.413,5.051,6.372,14.752,16.407,20.653,22.061,6.628,6.355,7.576,3.076,16.6-7.877,4.059-4.882,8.21-9.848,12.245-14.715l24.121-29.942,12.445,11.9C76.32,452.1,61.18,467.2,47.68,481.331c-6.511,6.814-11.044,9.368-7.174,14.961a253.525,253.525,0,0,0,20.716,25.052c2.614,2.681,5.075,4.538,7.727,2.951,3.055-1.7,2.243-4.9-.181-8.849" transform="translate(0 -235.575)" fill="#0d274d" fill-rule="evenodd"/>
        <path id="Path_558" data-name="Path 558" d="M340.914,251.058c-17.716-17.545-16.636-41.94-17.984-51.611-.529-3.81-1.58-4.977-3.014-.705-2.415,7.2-.511,21.75.862,28,2.829,12.971,7.4,21.066,17.548,32.006-6.463,4.375-24.769,6.763-30.791,6.855-29.459.46-40.989-18.562-22.739-41.073,10.12-12.485,23.5-17.038,27.989-20.706,1.883-1.539,2.135-3.048-.107-4.37-3.271-1.925-8.608,1.474-11.9,3.215A72.978,72.978,0,0,0,286.5,212.6c-31.339,27.821-17.7,60.621,17.7,60.233a89.228,89.228,0,0,0,27.131-4.076c26.147-8.166,15.354-11.989,9.59-17.7" transform="translate(-151.794 -109.979)" fill="#0d274d" fill-rule="evenodd"/>
        <path id="Path_559" data-name="Path 559" d="M581.391,341.211c4.27-.512,1.306-4.969-1.612-6.665-4.542-2.635-19.9-7.921-23.987-7.925-6.144,0-.372,4.782,1.749,5.96a75.661,75.661,0,0,0,7.9,3.63c2.68,1.106,5.185,2.107,7.945,3.082,1.9.67,6.943,2.045,8.006,1.917" transform="translate(-312.107 -183.252)" fill="#036" fill-rule="evenodd"/>
        <path id="Path_560" data-name="Path 560" d="M615.8,204.551c.631-.194,1.246-.4,1.817-.566,4.357-1.278,23.39-7.876,22.184-12.71-1.1-4.389-17.921,2.784-25.944,8.651-5.141,3.757-4.654,6.635,1.943,4.625" transform="translate(-344.463 -106.555)" fill="#036" fill-rule="evenodd"/>
        <path id="Path_561" data-name="Path 561" d="M456.83,1.956c-1.433,2.392-1.173,17.533.417,22.6.857,2.725,3.859,6.517,5.217,1.88.786-2.688.058-11.378.382-14.952,1.267-13.887-4.232-12.5-6.016-9.524" transform="translate(-257.28 0)" fill="#036" fill-rule="evenodd"/>
        <path id="Path_562" data-name="Path 562" d="M557.141,111.978c7.23-5.625,19.69-19.518,14.1-21.537-3.174-1.149-9.994,7.808-12.154,10.389-1.638,1.954-4.154,4.595-5.6,7.214-2.4,4.332-1.387,7.86,3.656,3.934" transform="translate(-311.657 -50.686)" fill="#036" fill-rule="evenodd"/>
        <path id="Path_563" data-name="Path 563" d="M421.124,215.806c9.739-3.945,5.018-13.947-5.071-10.278-9.112,3.312-5.307,14.482,5.071,10.278" transform="translate(-231.895 -114.866)" fill="#0d274d" fill-rule="evenodd"/>
        <path id="Path_564" data-name="Path 564" d="M441.089,257.107c9.313-3.66,4.986-12.547-3.744-9.786-8.495,2.685-5.167,13.287,3.744,9.786" transform="translate(-244.039 -138.466)" fill="#0d274d" fill-rule="evenodd"/>
        <path id="Path_565" data-name="Path 565" d="M199.181,372.321a1.4,1.4,0,0,1,1.039.1,3.931,3.931,0,0,1,.083-1.617c.019-.071.04-.142.063-.212-.407.2-.693.355-.914.472-.253.133-.373.2-.417.221-1.382.69-1.6.558-3.324-.483l-.535-.317-.293-.174q-.274.217-.538.452a5.416,5.416,0,0,0-1.814,2.645,1.934,1.934,0,0,0,.268,1.624c.018.025.051.065.1.119a2.164,2.164,0,0,0,1.318.732,2.113,2.113,0,0,0,1.309-.281c.3-.372.819-.975,1.382-1.555a11.514,11.514,0,0,1,1.4-1.251,2.471,2.471,0,0,1,.875-.475m3.613,6.306h0a15.29,15.29,0,0,1,2.131-2.381,5.312,5.312,0,0,1-1.109-.151,5.179,5.179,0,0,1-.665-.211,1.53,1.53,0,0,1-.227,1.378,1.454,1.454,0,0,1-.226.247,9.606,9.606,0,0,0-2.15,2.3,1.384,1.384,0,0,0-.108,1.413,1.862,1.862,0,0,0,.559.633,15.443,15.443,0,0,1,1.795-3.232m-6.92-16.409h0a23.15,23.15,0,0,1,2.912-.98c.931-.243,3.145.688,4.359,1.708a4.274,4.274,0,0,1,.8.864,1.821,1.821,0,0,1,.325,1.453,1.73,1.73,0,0,1-1.381,1.285c-.818.221-1.59.471-2.31.737-.1.038-.2.076-.3.115a9.963,9.963,0,0,1,.848.654,1.739,1.739,0,0,1,.507.684c.094-.078.192-.154.295-.226a4.6,4.6,0,0,1,.569-.345,5.092,5.092,0,0,1,3.5-.371,4.933,4.933,0,0,1,2.895,1.951,4.422,4.422,0,0,1,.327.549,3.974,3.974,0,0,1,.292,2.791q-.037.138-.083.272a9.9,9.9,0,0,1,2.109-.635,5.9,5.9,0,0,1,4.651.956v0c.068.049.133.1.195.151s.14.123.193.176a3.859,3.859,0,0,1,.294.334,4.346,4.346,0,0,1,.881,3.236,7.009,7.009,0,0,1-2.215,4.076,13.232,13.232,0,0,1-1.1.979c-.57.459-1.19.908-1.845,1.336a4.036,4.036,0,0,1,.64.325,4.126,4.126,0,0,1,2.075,4.044l.005,0a10.739,10.739,0,0,1,1.561-.766,1.545,1.545,0,0,1,1.743.424,4.1,4.1,0,0,1,.1-1.088,4.267,4.267,0,0,1,1.723-2.524c.113-.079.229-.154.348-.222a4.836,4.836,0,0,1,3.445-.523,4.723,4.723,0,0,1,2.89,1.913c.078.113.149.227.213.341a4.18,4.18,0,0,1,.445,3.016,4.264,4.264,0,0,1-1.723,2.524q-.169.119-.348.222a4.869,4.869,0,0,1-5.375-.375,1.381,1.381,0,0,1-.779,1.6l-.19.1,0,0a8.043,8.043,0,0,0-2,1.421c-.411.43-.688.912-.488,1.332l.01.021,0,0a1.757,1.757,0,0,0,1.038.909,3.827,3.827,0,0,0,2.058-.016,1.675,1.675,0,0,1,1.483.219,1.449,1.449,0,0,1,.588,1.118,2.266,2.266,0,0,1-.137.883,3.905,3.905,0,0,1-1.77,2.041,6.474,6.474,0,0,1-4.121.552,6.843,6.843,0,0,1-3.681-2.074,6.6,6.6,0,0,1-1.84-4.115,5.98,5.98,0,0,1,.29-2.187,7.41,7.41,0,0,1-2.46.674,7.2,7.2,0,0,1-3.734-.663,7.8,7.8,0,0,1-2.893-2.355,7.91,7.91,0,0,1-1.438-3.181,8.518,8.518,0,0,1-1.872-.521,7.39,7.39,0,0,1-4.164-4.218,6.086,6.086,0,0,1-.379-1.517,6.836,6.836,0,0,1-2.577-.534,8.567,8.567,0,0,1-3.446-2.637,9.1,9.1,0,0,1-1.609-3.085,7.238,7.238,0,0,1-.278-2.137c-1.625-.284-1.6-.832-1.546-2.081,0-.079.007-.167.008-.277l.01-1.422,0-.045a1.821,1.821,0,0,1,.266-.911,1.483,1.483,0,0,1,1.588-.7v0l1.793.154q.316-.387.668-.758l.009-.009c-1.057-.515-1.776-.891-1.527-1.979a2.5,2.5,0,0,1,1.212-1.3,15.824,15.824,0,0,1,1.771-.934,2.447,2.447,0,0,1,1.554-.144,7.613,7.613,0,0,1,1.65.64c.068.033.144.072.229.118a24.538,24.538,0,0,1,2.245-1.058" transform="translate(-104.053 -202.652)" fill="#004288" fill-rule="evenodd"/>
        <path id="Path_566" data-name="Path 566" d="M200.516,364.309a23.006,23.006,0,0,0-5.446,2.236c-.325-.186-.575-.322-.715-.39-1.27-.611-1.684-.711-2.286-.468-.423.17-2.223,1.1-2.3,1.421-.068.294.654.552,1.553,1.017.185.1.469.249.819.442a12.6,12.6,0,0,0-2.112,2.23l-2.473-.213c-.512-.071-.549.354-.557.521l-.01,1.422c-.006.839-.212,1.134.97,1.287l.667.118a6.773,6.773,0,0,0,1.551,5.469c1.49,1.919,4.048,3.171,6.3,2.588a5.512,5.512,0,0,0,1.81,4.69,7,7,0,0,0,4.428,1.812,6.434,6.434,0,0,0,10.433,4.688,2.762,2.762,0,0,0,1.1.477,5.125,5.125,0,0,0,.378,6.923,5.479,5.479,0,0,0,6.477,1.276c1.073-.522,1.9-2.464.6-2.128-1.1.284-3.379.517-4.386-1.475-1.054-2.085,2.116-3.9,3.2-4.428.394-.192-.092-1.2-.532-1.992s-.858-1.382-1.271-1.226a12.787,12.787,0,0,0-1.857.954,3.794,3.794,0,0,1-1.362-.7,3.092,3.092,0,0,0-1.423-3.629,3.011,3.011,0,0,0-3.981.764,2.081,2.081,0,0,0,.454,2.869c-1.675,1.089-4.34-.59-3.99-2.825a23.379,23.379,0,0,0,8.623-4.332c3.771-3.038,3.206-5.736,2.031-6.921a1.924,1.924,0,0,0-.252-.213c-1.988-1.452-4.969-1.112-8.613,1.5a14.172,14.172,0,0,0-5.217,7.217,3.017,3.017,0,0,1-2.232-1.542c-.924-1.678.4-3.353,2.525-5.152.61-.515-1.518-2.651-2.082-3.073-.345-.259-.508-.143-.927.161a17.324,17.324,0,0,0-2.675,2.75,3.17,3.17,0,0,1-4.243-.559c-1.265-1.438-1.081-4.1,2.411-6.7.112-.083.234-.171.365-.262.342.2.66.386.941.553,1.757,1.045,1.839,1.226,2.771.761.19-.095.863-.459,1.354-.7s.745-.41.477-.65a25.371,25.371,0,0,0-2.471-1.723,27.669,27.669,0,0,1,4.714-1.743c2.167-.586-2.409-3.394-3.544-3.1m8.893,8.06h0a2.872,2.872,0,0,1-1.148,4.3,3.989,3.989,0,0,1-4.953-1.217,2.871,2.871,0,0,1,1.148-4.3,3.989,3.989,0,0,1,4.953,1.216m18.236,15.809h0a3.062,3.062,0,0,1-1.039,4.456,3.717,3.717,0,0,1-4.844-1.058,3.062,3.062,0,0,1,1.039-4.456,3.717,3.717,0,0,1,4.844,1.058m-20.35-3.4h0a11.831,11.831,0,0,1,3.8-4.495c1.16-.871,2.384-1.416,2.86-.928.435.446-.768,1.7-2.472,3.031a13.433,13.433,0,0,1-4.189,2.392" transform="translate(-105.519 -204.384)" fill="#00afec" fill-rule="evenodd"/>
        <path id="Path_567" data-name="Path 567" d="M200.36,363.319a23.036,23.036,0,0,0-5.446,2.236c-.325-.185-.575-.321-.715-.389-1.27-.611-1.684-.712-2.286-.468-.423.17-2.222,1.1-2.3,1.421-.067.294.654.552,1.553,1.016.185.1.469.25.819.442a12.579,12.579,0,0,0-2.112,2.229l-2.472-.212c-.513-.072-.549.354-.557.521l-.01,1.422c-.006.839-.212,1.134.97,1.287l.667.118a6.775,6.775,0,0,0,1.551,5.47c1.49,1.918,4.049,3.171,6.3,2.588a5.512,5.512,0,0,0,1.81,4.69,7,7,0,0,0,4.428,1.812,6.434,6.434,0,0,0,10.433,4.688,2.755,2.755,0,0,0,1.1.476,5.125,5.125,0,0,0,.379,6.923,5.479,5.479,0,0,0,6.477,1.276c1.073-.522,1.9-2.464.6-2.128-1.1.284-3.38.518-4.387-1.475-1.054-2.085,2.116-3.9,3.2-4.428.394-.192-.092-1.2-.532-1.992s-.858-1.383-1.271-1.226a12.788,12.788,0,0,0-1.857.954,3.8,3.8,0,0,1-1.362-.7,3.091,3.091,0,0,0-1.423-3.628,3.012,3.012,0,0,0-3.981.763,2.082,2.082,0,0,0,.454,2.869c-1.675,1.089-4.34-.589-3.99-2.825a23.37,23.37,0,0,0,8.623-4.333c3.771-3.037,3.206-5.735,2.031-6.921a1.831,1.831,0,0,0-.251-.213c-1.988-1.452-4.969-1.113-8.613,1.5a14.17,14.17,0,0,0-5.217,7.217,3.016,3.016,0,0,1-2.232-1.542c-.924-1.678.4-3.353,2.525-5.152.61-.516-1.518-2.651-2.082-3.073-.345-.259-.508-.143-.927.161a17.324,17.324,0,0,0-2.675,2.75,3.17,3.17,0,0,1-4.243-.56c-1.265-1.438-1.08-4.1,2.411-6.7.112-.083.234-.171.365-.262.341.2.66.386.941.554,1.757,1.045,1.838,1.227,2.77.761.19-.095.863-.459,1.354-.7s.745-.41.477-.65a25.239,25.239,0,0,0-2.471-1.723,27.66,27.66,0,0,1,4.714-1.743c2.167-.586-2.409-3.394-3.543-3.1m8.892,8.06h0a2.872,2.872,0,0,1-1.148,4.3,3.99,3.99,0,0,1-4.953-1.216,2.871,2.871,0,0,1,1.148-4.3,3.99,3.99,0,0,1,4.953,1.216m18.237,15.809h0a3.062,3.062,0,0,1-1.039,4.456,3.717,3.717,0,0,1-4.844-1.058,3.062,3.062,0,0,1,1.039-4.457,3.717,3.717,0,0,1,4.844,1.059m-20.351-3.4h0a11.831,11.831,0,0,1,3.8-4.495c1.16-.871,2.384-1.416,2.86-.928.435.446-.768,1.7-2.472,3.031a13.431,13.431,0,0,1-4.189,2.392" transform="translate(-105.431 -203.829)" fill="#fff" fill-rule="evenodd"/>
      </g>
    </g>
  </g>
</svg>
