<svg xmlns="http://www.w3.org/2000/svg" xmlns:xlink="http://www.w3.org/1999/xlink" width="196.989" height="74.638" viewBox="0 0 196.989 74.638">
  <defs>
    <clipPath id="clip-path">
      <rect id="Rectangle_824" data-name="Rectangle 824" width="196.989" height="74.638" fill="none"/>
    </clipPath>
  </defs>
  <g id="Piros_nyíl" data-name="Piros nyíl" transform="translate(0 0)">
    <g id="Group_1003" data-name="Group 1003" transform="translate(0 0)" clip-path="url(#clip-path)">
      <path id="Path_693" data-name="Path 693" d="M195.945,14.26A113.491,113.491,0,0,0,168.117.113c-2.223-.772-3.579,2.62-1.583,3.757q5.886,3.356,11.915,6.363C156.838,9.072,129.509,13,113.5,27.5a88.071,88.071,0,0,0-18.355-4.524C57.364,17.549,26.034,38.657.213,63.817c-.645.629.317,1.567.978.98,16.892-14.964,34.675-30,56.757-36.476,15.773-4.628,36.668-5.254,53.365,1.306a39.226,39.226,0,0,0-7.855,11.748C99.2,51.327,100.245,63.76,109.348,70.6c7.456,5.606,18.271,5.7,24.427-1.815,7.111-8.683,4.846-21.439-2.071-29.407a40.967,40.967,0,0,0-13.4-9.837c.359-.279.713-.575,1.072-.83,19.638-14.009,46.671-17.068,69.91-13.378a2.04,2.04,0,0,0,.666-.021q.637.408,1.271.826a41.936,41.936,0,0,1-12.611,5.889c-2.578.734-1.482,4.764,1.109,4.022a46.606,46.606,0,0,0,16.648-8.528c1.142-.889.549-2.589-.42-3.265M127.1,39.467c5.481,5.289,8.767,12.583,6.982,20.271-2.714,11.671-16.148,14.389-24.259,6.075-10.24-10.5-3.258-25.549,6.018-34.182A45.288,45.288,0,0,1,127.1,39.467" transform="translate(0 0)" fill="#e21e12"/>
    </g>
  </g>
</svg>
