<svg xmlns="http://www.w3.org/2000/svg" width="175.396" height="59.505" viewBox="0 0 175.396 59.505">
  <g id="SZLOGEN" transform="translate(-527.272 350.304) rotate(-51)">
    <path id="Path_447" data-name="Path 447" d="M1621.534,823.374c.883-.33,1.745-.673,2.543-.96,6.092-2.2,32.794-13.146,31.56-19.41-1.128-5.687-24.843,5.766-36.368,14.469-7.384,5.574-6.966,9.329,2.265,5.9" transform="translate(-952.74 -489.748)" fill="#036" fill-rule="evenodd"/>
    <path id="Path_448" data-name="Path 448" d="M1358.377,501.282c-2.176,3.335-3.135,23.363-1.393,29.884.939,3.511,4.731,8.186,7,1.886,1.313-3.651,1.069-15.079,1.825-19.851,2.947-18.543-4.722-16.065-7.43-11.919" transform="translate(-779.773 -286.554)" fill="#036" fill-rule="evenodd"/>
    <path id="Path_449" data-name="Path 449" d="M1524.966,668.028c10.414-8.291,28.727-28.139,21.232-30.165-4.257-1.154-14.4,11.5-17.588,15.172-2.418,2.778-6.1,6.569-8.321,10.206-3.675,6.018-2.587,10.573,4.677,4.788" transform="translate(-888.463 -380.026)" fill="#036" fill-rule="evenodd"/>
  </g>
</svg>
