<svg id="Tibi_figura_01_header" data-name="Tibi figura 01_header" xmlns="http://www.w3.org/2000/svg" xmlns:xlink="http://www.w3.org/1999/xlink" width="346.509" height="249.958" viewBox="0 0 346.509 249.958">
  <defs>
    <clipPath id="clip-path">
      <rect id="Rectangle_754" data-name="Rectangle 754" width="346.509" height="249.958" fill="none"/>
    </clipPath>
  </defs>
  <g id="Group_77" data-name="Group 77" clip-path="url(#clip-path)">
    <path id="Path_534" data-name="Path 534" d="M179,126.426c30.488,17.407,68.632,8,85.2-21.019s5.28-66.646-25.208-84.053-68.632-8-85.2,21.019S148.513,109.02,179,126.426" transform="translate(-72.967 -6.299)" fill="#fff" fill-rule="evenodd"/>
    <path id="Path_535" data-name="Path 535" d="M329.625,98.1l73.912,51.393-2.51,10.59L326.173,240.4l-63.628-53.3s81.666,10.559,67.08-89" transform="translate(-131.071 -48.973)" fill="#008cd1" fill-rule="evenodd"/>
    <path id="Path_536" data-name="Path 536" d="M389.689,231.845a1.616,1.616,0,0,1,.039-1.193,4.422,4.422,0,0,1-1.837.022c-.082-.017-.164-.035-.244-.056.26.45.453.766.6,1.009.17.279.253.412.281.46.882,1.528.748,1.788-.306,3.828-.03.057.087-.169-.321.633l-.176.346q.266.3.551.581a6.139,6.139,0,0,0,3.127,1.879,2.183,2.183,0,0,0,1.82-.422c.028-.023.07-.063.128-.122a2.483,2.483,0,0,0,.734-1.557,2.433,2.433,0,0,0-.414-1.473c-.443-.315-1.163-.864-1.862-1.466a13.1,13.1,0,0,1-1.519-1.5,2.83,2.83,0,0,1-.6-.965m6.882-4.577h0a17.409,17.409,0,0,1-2.851-2.261,6.077,6.077,0,0,1-.281,2.051,1.724,1.724,0,0,1,1.577.16,1.65,1.65,0,0,1,.3.24,10.939,10.939,0,0,0,2.764,2.288,1.559,1.559,0,0,0,1.608.022,2.121,2.121,0,0,0,.677-.683,17.507,17.507,0,0,1-3.791-1.816m-18.086,9.079h0a26.565,26.565,0,0,1-1.321-3.253c-.343-1.046.552-3.639,1.618-5.1a4.877,4.877,0,0,1,.921-.98,2.056,2.056,0,0,1,1.622-.476,1.971,1.971,0,0,1,1.556,1.484c.309.918.649,1.78,1,2.583.051.114.1.227.152.339a11.475,11.475,0,0,1,.68-1.015,1.972,1.972,0,0,1,.738-.627c-.1-.1-.188-.208-.277-.319a5.306,5.306,0,0,1-.432-.625,5.862,5.862,0,0,1-.674-3.963,5.643,5.643,0,0,1,2-3.444,5.074,5.074,0,0,1,.6-.413,4.48,4.48,0,0,1,3.14-.533c.106.021.211.046.314.075a11.362,11.362,0,0,1-.872-2.362,6.788,6.788,0,0,1,.745-5.377h0c.05-.081.1-.159.158-.233.067-.091.129-.169.186-.233a4.524,4.524,0,0,1,.357-.359,4.908,4.908,0,0,1,3.6-1.238,7.938,7.938,0,0,1,4.777,2.234,15.241,15.241,0,0,1,1.188,1.18c.562.617,1.115,1.293,1.648,2.01a4.99,4.99,0,0,1,4.753-3.413l0-.007a12.315,12.315,0,0,1-.981-1.726,1.776,1.776,0,0,1,.354-2.02,4.629,4.629,0,0,1-1.24-.042,4.843,4.843,0,0,1-2.985-1.785c-.1-.124-.191-.25-.276-.381a5.564,5.564,0,0,1-.842-3.894A5.4,5.4,0,0,1,402.655,199q.184-.146.37-.268a4.714,4.714,0,0,1,3.385-.725,4.843,4.843,0,0,1,2.984,1.785q.147.185.277.381a5.606,5.606,0,0,1-.035,6.162,1.564,1.564,0,0,1,1.873.774c.039.068.08.14.122.21l0,0a9.2,9.2,0,0,0,1.755,2.186c.517.438,1.083.72,1.544.461l.023-.013,0,0a2.007,2.007,0,0,0,.954-1.25,4.406,4.406,0,0,0-.167-2.349,1.927,1.927,0,0,1,.141-1.708,1.64,1.64,0,0,1,1.224-.751,2.556,2.556,0,0,1,1.01.092,4.448,4.448,0,0,1,2.441,1.873,7.456,7.456,0,0,1,.923,4.664,7.836,7.836,0,0,1-2.083,4.35,7.463,7.463,0,0,1-4.528,2.4,6.75,6.75,0,0,1-2.5-.174,8.515,8.515,0,0,1,.942,2.759,8.294,8.294,0,0,1-.48,4.309,8.942,8.942,0,0,1-5.957,5.342,9.746,9.746,0,0,1-.455,2.175,8.746,8.746,0,0,1-1.522,2.778,8.625,8.625,0,0,1-2.954,2.278,6.882,6.882,0,0,1-1.691.542,7.874,7.874,0,0,1-.418,2.98,9.789,9.789,0,0,1-2.737,4.122,10.3,10.3,0,0,1-3.378,2.059,8.142,8.142,0,0,1-2.4.472c-.2,1.875-.827,1.887-2.245,1.914-.09,0-.19,0-.313.01l-1.611.091h-.051a2.06,2.06,0,0,1-1.052-.238,1.7,1.7,0,0,1-.908-1.761h0l.045-2.058c-.308-.221-.609-.457-.907-.708l-.011-.01c-.507,1.243-.88,2.091-2.131,1.885a2.84,2.84,0,0,1-1.559-1.29A18.061,18.061,0,0,1,379.4,242.8a2.82,2.82,0,0,1-.276-1.764,8.76,8.76,0,0,1,.606-1.929c.032-.08.071-.17.116-.27a28.052,28.052,0,0,1-1.361-2.486" transform="translate(-188.255 -98.82)" fill="#004288" fill-rule="evenodd"/>
    <path id="Path_537" data-name="Path 537" d="M380.185,233.991a26.439,26.439,0,0,0,2.927,6.055c-.187.384-.322.679-.39.844-.6,1.494-.683,1.974-.365,2.643.223.47,1.41,2.457,1.776,2.517.338.056.577-.786,1.039-1.845.095-.218.248-.553.441-.966a14.329,14.329,0,0,0,2.679,2.25l-.062,2.837c-.043.59.441.6.631.6l1.611-.091c.951-.054,1.3.16,1.388-1.2l.086-.769a7.648,7.648,0,0,0,6.083-2.164c2.065-1.839,3.3-4.848,2.475-7.373,1.993.28,4.085-1.061,5.182-2.4a8.036,8.036,0,0,0,1.731-5.184,7.366,7.366,0,0,0,4.554-12.245,3.165,3.165,0,0,0,.46-1.293,5.787,5.787,0,0,0,7.815-.929,6.3,6.3,0,0,0,.975-7.485c-.67-1.188-2.929-1.989-2.454-.533.4,1.234.831,3.82-1.353,5.113-2.286,1.353-4.571-2.134-5.247-3.332-.246-.436-1.355.191-2.217.751s-1.5,1.078-1.3,1.538a14.6,14.6,0,0,0,1.216,2.051,4.361,4.361,0,0,1-.7,1.6,3.555,3.555,0,0,0-2.853,6.375,2.351,2.351,0,0,0,3.216-.725c1.355,1.833-.353,5-2.91,4.757a26.821,26.821,0,0,0-5.533-9.53c-3.715-4.086-6.73-3.246-7.988-1.82a2.181,2.181,0,0,0-.223.3c-1.5,2.373-.9,5.752,2.326,9.722a16.091,16.091,0,0,0,8.554,5.435,3.449,3.449,0,0,1-1.584,2.659c-1.834,1.176-3.827-.212-6.019-2.512-.628-.659-2.893,1.923-3.33,2.6-.268.413-.124.589.25,1.047a19.706,19.706,0,0,0,3.31,2.855,3.644,3.644,0,0,1-.326,4.883c-1.538,1.547-4.565,1.529-7.767-2.27q-.154-.183-.324-.4c.2-.4.39-.782.559-1.115,1.056-2.08,1.256-2.187.661-3.217-.121-.21-.582-.952-.9-1.494s-.518-.821-.771-.5a29.113,29.113,0,0,0-1.772,2.944,31.761,31.761,0,0,1-2.316-5.255c-.82-2.431-3.67,2.994-3.252,4.268m8.485-10.73h0a3.247,3.247,0,0,1,4.953,1A4.585,4.585,0,0,1,392.6,230a3.248,3.248,0,0,1-4.953-1,4.584,4.584,0,0,1,1.019-5.741m16.585-21.952h0a3.462,3.462,0,0,1,5.123.866,4.273,4.273,0,0,1-.848,5.606,3.462,3.462,0,0,1-5.123-.866,4.272,4.272,0,0,1,.848-5.606m-2.379,23.472h0c-1.394-.349-3.742-2.1-5.368-4.016-1.071-1.261-1.777-2.619-1.258-3.2.474-.528,1.985.754,3.613,2.6a15.394,15.394,0,0,1,3.013,4.609" transform="translate(-189.78 -100.113)" fill="#00afec" fill-rule="evenodd"/>
    <path id="Path_538" data-name="Path 538" d="M379.212,234.207a26.439,26.439,0,0,0,2.927,6.055c-.186.385-.322.68-.389.844-.6,1.494-.684,1.973-.365,2.643.223.47,1.41,2.457,1.776,2.517.338.056.577-.786,1.039-1.846.1-.218.249-.553.441-.966a14.347,14.347,0,0,0,2.679,2.25l-.062,2.837c-.044.59.441.6.631.6l1.611-.091c.951-.054,1.3.16,1.388-1.2l.085-.769a7.648,7.648,0,0,0,6.083-2.163c2.065-1.839,3.3-4.849,2.475-7.374,1.993.28,4.085-1.062,5.182-2.4a8.03,8.03,0,0,0,1.731-5.184A7.365,7.365,0,0,0,411,217.709a3.173,3.173,0,0,0,.46-1.293,5.786,5.786,0,0,0,7.815-.93A6.3,6.3,0,0,0,420.25,208c-.67-1.187-2.929-1.989-2.454-.533.4,1.234.831,3.82-1.353,5.113-2.286,1.353-4.571-2.135-5.248-3.332-.246-.436-1.355.191-2.217.751s-1.5,1.078-1.3,1.538a14.622,14.622,0,0,0,1.216,2.051,4.359,4.359,0,0,1-.7,1.605,3.555,3.555,0,0,0-2.854,6.375,2.351,2.351,0,0,0,3.217-.725c1.355,1.833-.353,5-2.91,4.757a26.816,26.816,0,0,0-5.533-9.53c-3.714-4.086-6.729-3.246-7.987-1.82a2.112,2.112,0,0,0-.223.3c-1.5,2.373-.9,5.751,2.326,9.722a16.088,16.088,0,0,0,8.554,5.435,3.452,3.452,0,0,1-1.585,2.659c-1.834,1.176-3.827-.211-6.019-2.511-.628-.66-2.893,1.923-3.33,2.6-.268.413-.124.589.25,1.047a19.7,19.7,0,0,0,3.31,2.855,3.644,3.644,0,0,1-.327,4.883c-1.537,1.547-4.564,1.528-7.767-2.27-.1-.122-.211-.254-.324-.4.2-.4.39-.781.559-1.114,1.056-2.08,1.256-2.187.661-3.217-.121-.21-.582-.952-.9-1.494s-.519-.821-.772-.5a28.947,28.947,0,0,0-1.772,2.944,31.76,31.76,0,0,1-2.317-5.255c-.82-2.431-3.67,2.994-3.252,4.267m8.486-10.729h0a3.247,3.247,0,0,1,4.953,1,4.585,4.585,0,0,1-1.018,5.741,3.248,3.248,0,0,1-4.953-1,4.585,4.585,0,0,1,1.019-5.741m16.585-21.952h0a3.462,3.462,0,0,1,5.124.865,4.272,4.272,0,0,1-.848,5.606,3.461,3.461,0,0,1-5.123-.866,4.271,4.271,0,0,1,.848-5.605M401.9,225h0c-1.394-.349-3.742-2.1-5.367-4.016-1.071-1.261-1.777-2.619-1.259-3.2.474-.529,1.985.754,3.613,2.6A15.385,15.385,0,0,1,401.9,225" transform="translate(-189.294 -100.221)" fill="#fff" fill-rule="evenodd"/>
    <path id="Path_539" data-name="Path 539" d="M245.79,53.646c4.019,2.153,11.926,9.035,16.23,12.144,9.737,7.055,49.357,32.768,51.361,37.085-1.733,4.151-14.573,16.267-18.484,20.251-12.305,12.529-25.937,27.246-37.473,40.486-1.418,1.629-16.656,20.075-18.662,21.137-6.891-3.935-30.128-25.5-39.411-33.469-1.552-1.325-12.18-9.65-13.055-11.481,20.518-1.79,35.658-9.569,48-27.805a81.36,81.36,0,0,0,12.369-30.837c1.271-6.653,1.617-21.654-.879-27.512m-59.78,100.973c3.725,2.01,32.132,28.712,42.283,36.071,11.85,8.59,13.665,7.19,22.448-3.376,2.905-3.5,15.635-19.2,18.141-20.859,5.4,2.85,12.174,7.574,17.695,10.888,18.166,10.9,38.532,21.172,57.11,31.55-4.334,7.538-9.138,14.816-13.061,22.6-1.727,3.427-3.6,6.919-4.55,10.658-2.366,9.324,3.01,9.79,7.816,4.08,2.609-3.1,15.838-25.031,20.659-33.942,5.872-10.852-7.163-14.193-15.232-18.545q-32.431-17.471-66.138-32.155l13.837-15.623c11.787,9.285,15.435,12.217,28.733,20.356,10.784,6.6,21.584,12.966,32.839,18.738,16.18,8.3,16.263,10.325,26.723-5.169,2.633-3.9,10.659-16.367,13.725-24.932,2.6-7.273-.854-11.155-7.018-5.533-7.968,7.265-16.831,28.24-20.85,30.958-1.894.708-30.453-16.407-34.157-18.522-11.911-6.8-23.739-13.61-35.864-20.037,13-17.87,39.417-33.024,27.7-46.033-5.809-6.449-17.661-13.538-25.116-18.543-4.413-2.962-25.127-15.819-26.931-18.389,2.529-.154,12.621,2.767,16.345,3.355,4.892.782,10.581.934,14.982-.986,12.309-5.367,5.038-19.942-.756-27.212-12.449-15.63-27.1-20.786-28.351-22.112-1.1-1.164-.192-2.084-5.193-6.159-19.586-15.955-31.057,5.962-5.858,9.993,9.248,1.479,6.492-2.3,16.04,4.544,8.585,6.161,18.07,14.645,22.249,24.446,2.939,6.9,1.089,9.513-6.453,8.877-11.157-.937-29.615-8.116-41.328-11.649-2.618-.789-6.074-1.157-8.195-1.891-3.085-2.169-8.6-18.577-38.9-30.915-65.2-26.534-105.9,15.459-113.178,32.176-3.694,8.484,1.373,6.54,6,2.2,1.986-1.857,4-3.813,4.973-4.723,9.758-9.134,17.516-16.94,30.209-22.726,15.11-6.886,31.061-7.653,47.239-4.727,37.006,6.694,69.59,31.138,59.537,72.325-17.462,71.546-105.3,49.056-117.9,1-3.151-12.03-1.574-24.989,1.591-36.845.309-1.157,1.308-3.947,2.251-6.71,1.727-5.044,3.064-11.892-3.325-3.9C108.442,50.173,94.952,99.646,143.031,128.2a86.285,86.285,0,0,0,14.722,6.862c4.125,1.477,11.159,2.043,13.242,5.983Z" transform="translate(-43.403 0)" fill="#0d274d" fill-rule="evenodd"/>
    <path id="Path_540" data-name="Path 540" d="M490.683,289.78c1.22-1.632,2.387-3.3,3.469-5.027,11.621,6.2,22.986,12.735,34.423,19.266,3.7,2.114,32.263,19.23,34.157,18.521,4.019-2.718,12.882-23.693,20.85-30.958,6.163-5.621,9.618-1.74,7.017,5.533-3.066,8.565-11.092,21.031-13.724,24.932-10.461,15.494-10.544,13.472-26.723,5.169-11.255-5.772-22.055-12.142-32.839-18.738-12.475-7.635-16.458-10.688-26.631-18.7" transform="translate(-244.966 -142.158)" fill="#0d274d" fill-rule="evenodd"/>
    <path id="Path_541" data-name="Path 541" d="M509.483,404.427c.948-3.739,2.823-7.231,4.55-10.658,3.923-7.784,8.727-15.062,13.061-22.6-18.578-10.377-38.945-20.649-57.11-31.55-4.848-2.91-10.661-6.907-15.665-9.768q2.534-2.349,4.975-4.8,32.311,14.206,63.432,30.967c8.069,4.352,21.1,7.693,15.232,18.545-4.821,8.911-18.05,30.841-20.659,33.942-4.807,5.71-10.183,5.244-7.816-4.08" transform="translate(-226.811 -162.277)" fill="#0d274d" fill-rule="evenodd"/>
    <path id="Path_542" data-name="Path 542" d="M200.68,317.4c-3-2.014-1.749-1.225-5.122-1.061-15.918.776-7.757-18.2-.706-14.04,4.012,2.367,4.444,9.545,5.08,10.225,5.874,2.125,12.419,5.488,18.759,5.769,6.727.293,12.284-3.684,10.132-15.466a84.955,84.955,0,0,0-6.054-18.409,2.684,2.684,0,0,0-.8-1.032q.8-.152,1.6-.331a17.2,17.2,0,0,1,6.538,3.65,12.13,12.13,0,0,1,4.17,6.464A9.368,9.368,0,0,0,232.278,292c.93,1.922,1.906,10.011,1.777,13.382-.215,5.661-2.012,12.017-5.891,15.611-8.6,7.963-20.533,1.059-27.485-3.595" transform="translate(-93.045 -141.31)" fill="#0d274d" fill-rule="evenodd"/>
    <path id="Path_543" data-name="Path 543" d="M236.449,271.989c-.93-.249-1.861-.477-2.748-.707a16.225,16.225,0,0,1,2.845.462,1.273,1.273,0,0,0-.1.245" transform="translate(-116.671 -135.433)" fill="#0d274d" fill-rule="evenodd"/>
    <path id="Path_544" data-name="Path 544" d="M174.683,112.565c.443-4.948,6.092-6.446,8.8-2.448.86,1.264,2,7.138,3.128,9.575,8.488,18.484,31.65,17.815,46.883,7.991,19.984-12.889,29.129-41.58,13.5-57.779A32.06,32.06,0,0,0,236.106,62.7c-1.981-.8-12.452-3.348-5.172-4.08,3.452-.352,9.842,1.58,12.865,3.04,19.866,9.587,25,39.737,5.845,62.913-18.965,22.951-58.9,29.033-72.505-2.283-.864-1.992-2.637-7.655-2.456-9.721" transform="translate(-87.201 -29.242)" fill="#0d274d" fill-rule="evenodd"/>
    <path id="Path_545" data-name="Path 545" d="M103.693,62.159c4.05-6.995,20.126-19.26,23.718-21.583,5.346-3.457,25.731-14.831,30.889-9.034,3.751,4.22-9.868,7.706-11.966,8.457C134.855,44.1,128.29,47.635,120.861,52.9c-5.281,3.745-9.94,8.229-14.827,11.788-3.3,2.4-4.192.66-2.341-2.534" transform="translate(-51.293 -14.939)" fill="#0d274d" fill-rule="evenodd"/>
    <path id="Path_546" data-name="Path 546" d="M231.33,140.142c5.986-5.236,18.818,6.461,12.114,12.15-5.793,4.914-18.2-6.823-12.114-12.15" transform="translate(-114.669 -69.307)" fill="#0d274d" fill-rule="evenodd"/>
    <path id="Path_547" data-name="Path 547" d="M255.564,113.285c6.666-4.051,18.83,7.661,11.447,12.387-6.408,4.1-18.89-7.862-11.447-12.387" transform="translate(-126.44 -56.138)" fill="#0d274d" fill-rule="evenodd"/>
    <path id="Path_548" data-name="Path 548" d="M61.546,206.394c-2.9.656-7.823,2.473-10.734,3.479-20.153,6.944-15.479,13.164,1.069,5.153,2.281-1.1,7.925-3.25,11.132-5.5,3.571-2.507,1.841-3.882-1.467-3.131" transform="translate(-18.721 -102.937)" fill="#fff" fill-rule="evenodd"/>
    <path id="Path_549" data-name="Path 549" d="M22.277,130.2c-5-.293-13.649-.519-18.065-1.771-5.78-1.641-5.508-5.224.187-5.207,2.4.009,15.831,2.167,18.628,2.75,7.221,1.511,8.377,4.76-.75,4.228" transform="translate(0 -61.518)" fill="#fff" fill-rule="evenodd"/>
    <path id="Path_550" data-name="Path 550" d="M42.434,37.21C35.978,35.435,25.275,30.22,26.585,27.2c1.5-3.46,10.707,2.528,15.553,5.356,4.827,2.819,8.331,6.864.295,4.655" transform="translate(-13.217 -13.056)" fill="#fff" fill-rule="evenodd"/>
  </g>
</svg>
