<svg xmlns="http://www.w3.org/2000/svg" xmlns:xlink="http://www.w3.org/1999/xlink" width="451.437" height="606.927" viewBox="0 0 451.437 606.927">
  <defs>
    <clipPath id="clip-path">
      <rect id="Rectangle_725" data-name="Rectangle 725" width="306.697" height="540.892" fill="none"/>
    </clipPath>
  </defs>
  <g id="Tibi_figura_hogyan_játszhatsz" data-name="Tibi figura_hogyan játszhatsz" transform="translate(158.14 0.005) rotate(17)">
    <g id="Group_18" data-name="Group 18" transform="translate(0 -0.005)" clip-path="url(#clip-path)">
      <path id="Path_319" data-name="Path 319" d="M147.888,337.994c0,54.642,42.156,98.939,94.159,98.939s94.159-44.3,94.159-98.939-42.156-98.939-94.159-98.939-94.159,44.3-94.159,98.939" transform="translate(-92.38 -149.326)" fill="#fff" fill-rule="evenodd"/>
      <path id="Path_320" data-name="Path 320" d="M289.413,653.255,276.986,792.821,260.736,797.6,94.4,758.407l22.942-127.138S166.1,749.8,289.413,653.255" transform="translate(-58.97 -394.327)" fill="#009cdb" fill-rule="evenodd"/>
      <path id="Path_321" data-name="Path 321" d="M275.22,845.1a2.511,2.511,0,0,1,1.613-.922,6.9,6.9,0,0,1-1.53-2.417c-.045-.123-.087-.245-.125-.37-.384.712-.645,1.225-.847,1.62-.231.452-.339.672-.38.748-1.3,2.417-1.758,2.452-5.322,2.72-.1.008.3-.023-1.1.092l-.6.049q-.177.6-.32,1.2a9.559,9.559,0,0,0,.063,5.679,3.4,3.4,0,0,0,2.045,2.067q.078.026.266.07a3.857,3.857,0,0,0,2.663-.3,3.783,3.783,0,0,0,1.615-1.751c.055-.845.195-2.247.422-3.664a20.433,20.433,0,0,1,.753-3.241,4.4,4.4,0,0,1,.787-1.586m11.685,5.381h0a27.105,27.105,0,0,1,.667-5.625,9.527,9.527,0,0,1-1.764.923,9.415,9.415,0,0,1-1.182.379,2.684,2.684,0,0,1,1.076,2.221,2.569,2.569,0,0,1-.076.588,17.021,17.021,0,0,0-.773,5.531,2.428,2.428,0,0,0,1.283,2.149,3.293,3.293,0,0,0,1.458.339,27.218,27.218,0,0,1-.69-6.505m-26.8-16.551h0a41.439,41.439,0,0,1,3.231-4.407c1.105-1.308,5.272-2.24,8.076-2.019a7.547,7.547,0,0,1,2.05.42,3.2,3.2,0,0,1,1.956,1.76,3.069,3.069,0,0,1-.7,3.274c-.964,1.16-1.83,2.314-2.6,3.437-.11.161-.219.32-.325.479a17.787,17.787,0,0,1,1.9.071,3.076,3.076,0,0,1,1.435.466c.057-.209.122-.419.2-.628a8.206,8.206,0,0,1,.475-1.083,9.127,9.127,0,0,1,4.7-4.129,8.781,8.781,0,0,1,6.2-.162,7.761,7.761,0,0,1,1.036.456A6.97,6.97,0,0,1,291,835.592q.088.236.158.478a17.686,17.686,0,0,1,2.418-3.084,10.565,10.565,0,0,1,7.732-3.4v0c.149,0,.295.005.438.018.175.015.33.033.461.056a6.941,6.941,0,0,1,.768.18,7.64,7.64,0,0,1,4.582,3.762,12.354,12.354,0,0,1,.94,8.155,23.624,23.624,0,0,1-.593,2.538c-.36,1.249-.8,2.533-1.318,3.824a7.768,7.768,0,0,1,8.4,3.511l.01,0a19.237,19.237,0,0,1,1.487-2.71,2.764,2.764,0,0,1,2.965-1.181,7.229,7.229,0,0,1-.958-1.677,7.538,7.538,0,0,1-.072-5.412c.084-.231.176-.457.279-.678a8.662,8.662,0,0,1,4.473-4.3,8.41,8.41,0,0,1,6.151-.213c.23.083.449.174.658.272a7.334,7.334,0,0,1,3.724,3.892,7.533,7.533,0,0,1,.072,5.412c-.083.23-.176.457-.278.677a8.721,8.721,0,0,1-8.193,4.985,2.436,2.436,0,0,1,.5,3.115c-.059.107-.12.221-.179.333l0,.008a14.33,14.33,0,0,0-1.463,4.11c-.158,1.042-.069,2.022.649,2.423l.035.019.007,0a3.125,3.125,0,0,0,2.436.244,6.855,6.855,0,0,0,2.975-2.139,3,3,0,0,1,2.379-1.208,2.555,2.555,0,0,1,2,1.009,3.976,3.976,0,0,1,.7,1.414,6.917,6.917,0,0,1-.488,4.764,11.6,11.6,0,0,1-5.426,5.032,12.206,12.206,0,0,1-7.465.793,11.618,11.618,0,0,1-6.872-4.043,10.5,10.5,0,0,1-1.81-3.453,13.266,13.266,0,0,1-2.886,3.5,12.9,12.9,0,0,1-6.1,2.883,13.917,13.917,0,0,1-11.943-3.531,15.221,15.221,0,0,1-3.253,1.173,13.63,13.63,0,0,1-4.924.252,13.432,13.432,0,0,1-5.431-2.054,10.712,10.712,0,0,1-2.1-1.8,12.249,12.249,0,0,1-4.29,1.88,15.239,15.239,0,0,1-7.7-.26,16.042,16.042,0,0,1-5.486-2.795,12.708,12.708,0,0,1-2.585-2.795c-2.651,1.26-3.175.445-4.369-1.412-.075-.118-.16-.249-.27-.407l-1.437-2.061-.043-.066a3.2,3.2,0,0,1-.543-1.588,2.645,2.645,0,0,1,1.592-2.641v0l2.763-1.622c.042-.589.108-1.18.2-1.779l0-.021c-2.061.343-3.489.541-4.238-1.285a4.424,4.424,0,0,1,.436-3.12,28.233,28.233,0,0,1,1.62-3.168,4.39,4.39,0,0,1,2.112-1.806,13.636,13.636,0,0,1,3.051-.772c.131-.022.283-.044.453-.066a43.886,43.886,0,0,1,2.183-3.833" transform="translate(-156.12 -516.888)" fill="#005299" fill-rule="evenodd"/>
      <path id="Path_322" data-name="Path 322" d="M268.794,835.133a41.149,41.149,0,0,0-5.633,8.823c-.662.066-1.164.127-1.436.173-2.469.426-3.173.706-3.8,1.675-.441.68-2.1,3.875-1.886,4.409.2.493,1.513.124,3.294-.131.366-.053.936-.123,1.641-.2a22.32,22.32,0,0,0-.793,5.386l-3.811,2.235a.82.82,0,0,0-.277,1.325l1.437,2.06c.848,1.216.849,1.853,2.723.859l1.089-.515c1.4,3.062,4.139,5.187,7.834,6.294,4.123,1.234,9.118.411,11.791-2.741,1.257,2.868,4.742,4.546,7.416,4.9a12.508,12.508,0,0,0,8.283-1.939c5.561,6.605,16.932,5.685,19.945-3.965a4.933,4.933,0,0,0,2.089-.447c-.149,5.469,3.211,8.683,7.614,9.6a9.8,9.8,0,0,0,10.714-4.819c1.027-1.857.244-5.5-1.3-3.687-1.307,1.54-4.382,4.22-7.879,2.382-3.66-1.924-.9-7.8.13-9.675.376-.682-1.359-1.639-2.806-2.325-1.47-.7-2.657-1.111-3.1-.461a22.727,22.727,0,0,0-1.725,3.286,6.8,6.8,0,0,1-2.7.389,5.533,5.533,0,0,0-10.777,1.425,3.659,3.659,0,0,0,3.587,3.67c-1.322,3.291-6.908,3.611-8.679.028a41.729,41.729,0,0,0,8.109-15.114c2.381-8.258-1.194-11.568-4.11-12.07a3.4,3.4,0,0,0-.583-.049c-4.371-.051-8.357,3.5-10.982,11.021a25.041,25.041,0,0,0-.217,15.772,5.372,5.372,0,0,1-4.817.072c-3.055-1.47-2.844-5.244-1.587-10.027.361-1.37-4.911-2.263-6.161-2.292-.767-.018-.883.317-1.183,1.186a30.681,30.681,0,0,0-1.081,6.717,5.671,5.671,0,0,1-6.737,3.556c-3.306-.774-5.753-4.8-3.335-12.146.077-.235.164-.487.262-.753.7-.065,1.353-.122,1.933-.17,3.619-.3,3.923-.121,4.8-1.75.179-.333.786-1.549,1.248-2.408s.664-1.357.03-1.428a45.155,45.155,0,0,0-5.348.056,49.463,49.463,0,0,1,5.072-7.36c2.551-3.072-6.964-2.418-8.311-.824m21.147,2.482h0A5.055,5.055,0,0,1,292.658,845a7.135,7.135,0,0,1-8.438,3.337,5.054,5.054,0,0,1-2.718-7.38,7.135,7.135,0,0,1,8.439-3.338m42.631,4.051h0a5.388,5.388,0,0,1,3.036,7.5,6.649,6.649,0,0,1-8.12,3.454,5.388,5.388,0,0,1-3.036-7.5,6.649,6.649,0,0,1,8.12-3.454M299.528,857.68h0c-.676-2.133-.27-6.675.938-10.392.8-2.449,2.019-4.493,3.209-4.278,1.087.2.622,3.245-.5,6.914-.942,3.083-2.34,6.286-3.647,7.756" transform="translate(-159.828 -520.837)" fill="#0bbbef" fill-rule="evenodd"/>
      <path id="Path_323" data-name="Path 323" d="M267.353,833.648a41.159,41.159,0,0,0-5.632,8.824c-.663.067-1.164.128-1.437.174-2.469.426-3.173.7-3.8,1.675-.44.68-2.1,3.875-1.885,4.409.2.493,1.512.124,3.294-.131.366-.052.937-.122,1.64-.2a22.333,22.333,0,0,0-.793,5.386l-3.81,2.235a.821.821,0,0,0-.277,1.325l1.436,2.06c.848,1.216.849,1.853,2.724.859l1.089-.515c1.4,3.063,4.14,5.188,7.834,6.294,4.123,1.234,9.119.411,11.792-2.741,1.256,2.868,4.742,4.546,7.416,4.9a12.5,12.5,0,0,0,8.283-1.939c5.561,6.606,16.931,5.685,19.945-3.965a4.941,4.941,0,0,0,2.089-.447c-.149,5.469,3.211,8.683,7.614,9.6a9.805,9.805,0,0,0,10.714-4.819c1.026-1.856.243-5.5-1.3-3.687-1.307,1.541-4.382,4.221-7.88,2.382-3.659-1.924-.9-7.8.131-9.674.376-.682-1.359-1.639-2.806-2.325-1.469-.7-2.657-1.112-3.1-.461a22.8,22.8,0,0,0-1.725,3.285,6.784,6.784,0,0,1-2.695.39,5.534,5.534,0,0,0-10.778,1.424,3.659,3.659,0,0,0,3.588,3.671c-1.322,3.291-6.908,3.611-8.679.028a41.73,41.73,0,0,0,8.109-15.114c2.381-8.259-1.194-11.568-4.111-12.07a3.342,3.342,0,0,0-.583-.048c-4.37-.051-8.356,3.5-10.983,11.021a25.041,25.041,0,0,0-.216,15.772,5.372,5.372,0,0,1-4.817.071c-3.055-1.47-2.845-5.243-1.588-10.026.361-1.371-4.911-2.263-6.161-2.292-.766-.017-.883.317-1.183,1.186a30.645,30.645,0,0,0-1.081,6.718A5.672,5.672,0,0,1,271,860.432c-3.3-.774-5.752-4.8-3.335-12.145q.116-.354.262-.754c.7-.064,1.354-.122,1.933-.17,3.619-.3,3.923-.121,4.8-1.75.179-.333.786-1.549,1.248-2.407s.664-1.357.03-1.428a44.993,44.993,0,0,0-5.348.056,49.492,49.492,0,0,1,5.071-7.36c2.552-3.072-6.964-2.418-8.31-.825m21.146,2.483h0a5.054,5.054,0,0,1,2.718,7.38,7.136,7.136,0,0,1-8.439,3.339,5.053,5.053,0,0,1-2.718-7.38,7.135,7.135,0,0,1,8.438-3.339m42.632,4.051h0a5.389,5.389,0,0,1,3.037,7.5,6.649,6.649,0,0,1-8.12,3.454,5.387,5.387,0,0,1-3.036-7.5,6.648,6.648,0,0,1,8.12-3.454M298.087,856.2h0c-.676-2.132-.27-6.675.938-10.391.8-2.449,2.019-4.493,3.208-4.278,1.088.2.622,3.245-.5,6.913-.942,3.083-2.339,6.288-3.646,7.757" transform="translate(-158.928 -519.91)" fill="#fff" fill-rule="evenodd"/>
      <path id="Path_324" data-name="Path 324" d="M268.818,342.212c.191,7.093-3.009,23.092-3.89,31.309-2.021,18.606-6.2,92-10.49,98.043-6.948.861-33.234-7.143-41.638-9.356-26.431-6.964-56.844-14.032-83.643-19.407-3.3-.659-39.988-7.022-42.971-8.913,0-12.351,11.217-60.4,14.824-79.1.593-3.12,3.645-23.91,5.444-26.506,18.254,26.352,40.452,40.813,74.629,43.428,17.74,1.355,34.708-1.42,51.227-7.079,9.974-3.415,30.517-14.525,36.509-22.419M86.2,339.331c.157,6.586-14.013,65.59-16.126,84.989-2.466,22.646.827,24.02,21.888,27.738,6.968,1.229,38.017,6.317,42.194,8.423.318,9.5-.842,22.3-1.06,32.32-.716,32.967,1.118,68.422,1.428,101.542-13.533-.042-27.079-.918-40.627-.214-5.965.31-12.133.471-17.917,2.075-14.43,4-10.911,11.624.516,13.714,6.206,1.133,46.057,2.09,61.823,1.73,19.2-.437,13.656-20.635,13.311-34.9q-1.412-57.318-7.576-114.211l31.8,6.646c-3.453,23.1-4.6,30.291-5.34,54.548-.594,19.667-.869,39.181.015,58.848,1.263,28.277-1.4,29.95,27.61,32.132,7.3.547,30.348,1.776,44.292-.689,11.837-2.1,14.418-9.763,2.064-13.756-15.969-5.165-51.16-.957-57.936-4.292-2.419-2.014-1.324-53.825-1.324-60.463,0-21.347.076-42.592-.594-63.939,34.184,3.775,75.056,27.795,83.6,1.922,4.235-12.829,4.671-34.318,5.682-48.258.6-8.25,1.991-46.171,4.074-50.593,2.159,3.3,6,19.2,8.078,24.682,2.718,7.217,6.9,15.023,12.894,19.491,16.754,12.5,30.842-8.579,36.2-22.021,11.52-28.89,7.182-52.67,8.009-55.386.727-2.381,2.668-1.868,4.319-11.772,6.451-38.786-32.026-37.378-18.028-.206,5.138,13.642,8.124,7,6.236,25.186-1.7,16.359-5.85,35.727-15.873,48.939-7.056,9.3-12.018,8.813-16.979-1.872-7.343-15.8-11.884-46.294-16.149-64.852-.953-4.148-3.124-9.1-3.767-12.536.551-5.844,18.476-25.955,11.769-76.436-14.449-108.6-102.622-131.217-130.833-128.148-14.319,1.554-7.779,6.9,1.654,9.81,4.043,1.25,8.239,2.461,10.222,3.076,19.876,6.141,36.415,10.6,54.03,23.295,20.968,15.109,34.315,36.078,42.844,60.2,19.51,55.185,11.616,118.093-51.814,136.289C110.619,384,73.23,247.907,128.46,193.792c13.829-13.543,32.561-21.413,51.03-26.283,1.8-.475,6.344-1.279,10.807-2.136,8.15-1.559,18.438-5.035,2.7-7.5-25.477-3.991-102.759,15.953-104.248,102.975a134.333,134.333,0,0,0,2.087,25.2c1.187,6.715,5.85,16.659,2.132,22.515Z" transform="translate(-41.529 -74.612)" fill="#1c3260" fill-rule="evenodd"/>
      <path id="Path_325" data-name="Path 325" d="M347.441,1062.211c3.147.391,6.309.677,9.472.81.587,20.492.524,40.9.524,61.4,0,6.638-1.095,58.45,1.325,60.463,6.775,3.334,41.967-.873,57.935,4.292,12.354,3.993,9.774,11.658-2.064,13.755-13.943,2.466-36.987,1.236-44.292.689-29.015-2.182-26.347-3.855-27.61-32.133-.884-19.666-.609-39.18-.015-58.847.693-22.753,1.746-30.494,4.724-50.427" transform="translate(-213.737 -663.519)" fill="#009cdb" fill-rule="evenodd"/>
      <path id="Path_326" data-name="Path 326" d="M201.554,473.6c1.514-.9,1.248-3.687-.832-3.487a88.962,88.962,0,0,1-16.731-.174c-1.131-.105-2.261-.227-3.39-.359.02-.131.039-.261.059-.393l-31.8-6.647c.019.182.038.365.057.547a237.5,237.5,0,0,1-28.783-9.8c-1.656-.694-2.612,1.133-2.094,2.5-8.88-1.628-17.9-3.127-21.271-3.722-21.06-3.717-24.353-5.092-21.887-27.737,1.634-15,10.476-53.678,14.329-73.493a21.546,21.546,0,0,0,7.181-7.586c4.36-7.287,6.324-16.061,7.078-24.6,1.918,4.967,4,9.872,6.2,14.74-1.627,7.13-3.41,19.1-3.849,21.407-3.606,18.7-14.824,66.75-14.824,79.1,2.983,1.891,39.675,8.254,42.971,8.913,26.8,5.375,57.213,12.442,83.644,19.407,8.4,2.213,34.69,10.218,41.638,9.356,4.288-6.041,8.469-79.437,10.49-98.043.88-8.216,4.081-24.215,3.89-31.309-5.992,7.894-26.535,19-36.508,22.419-16.519,5.659-33.487,8.434-51.228,7.079-33.81-2.587-55.894-16.774-74.037-42.591-2.966-6.733-5.689-13.55-8.024-20.507a69.688,69.688,0,0,0-1.015-10.711,30.879,30.879,0,0,0-4.08-11.547,1.942,1.942,0,0,0-3.073-.2c-.006-.035-.014-.071-.02-.105a134.333,134.333,0,0,1-2.087-25.2c1.49-87.021,78.771-106.965,104.249-102.975,15.739,2.466,5.452,5.942-2.7,7.5-4.463.858-9,1.662-10.807,2.136-18.469,4.87-37.2,12.739-51.03,26.283-55.23,54.115-17.841,190.2,92.342,158.594,63.43-18.2,71.325-81.1,51.814-136.289-8.53-24.127-21.876-45.1-42.844-60.2C216.969,143.2,200.43,138.738,180.553,132.6c-1.983-.615-6.179-1.826-10.222-3.076-9.433-2.908-15.973-8.256-1.654-9.811,28.211-3.069,116.384,19.546,130.833,128.148,5.483,41.269-5.495,62.238-9.985,71.711a1.655,1.655,0,0,0-2.586.567,50.4,50.4,0,0,0-3.555,10.926,223.613,223.613,0,0,0-4.207,27.275,232.272,232.272,0,0,0-1.5,23.557c0,2.419,3.749,2.415,3.753,0,0-.175.006-.351.007-.526.05-.021.1-.042.145-.068-1.411,12.415-2.379,37.421-2.851,43.934-1.011,13.939-1.447,35.429-5.682,48.258-7.554,22.871-40.368,6.757-71.494.1" transform="translate(-46.341 -74.612)" fill="#1c3260" fill-rule="evenodd"/>
      <path id="Path_327" data-name="Path 327" d="M75.978,1169.773c5.785-1.6,11.953-1.765,17.917-2.075,13.549-.7,27.094.172,40.628.214-.31-33.12-2.144-68.576-1.428-101.542.192-8.8,1.109-19.741,1.115-28.712q5.13,1.611,10.325,3.022,5.732,54.637,7.094,109.638c.345,14.265,5.888,34.464-13.311,34.9-15.766.36-55.616-.6-61.823-1.73-11.428-2.09-14.946-9.717-.517-13.714" transform="translate(-41.528 -648.182)" fill="#009cdb" fill-rule="evenodd"/>
      <path id="Path_328" data-name="Path 328" d="M8.357,421.127c2.636-9.165,1.617-5.371.775-14.1-3.973-41.178,27.191-32.06,21.885-10.909-3.014,12.031-14.192,17.8-15.146,19.9-2.314,16.752-6.452,36.061-5.794,52.841.706,17.8,7.9,29.787,26,16.545,4.968-3.637,13.019-11.462,17.978-16.545-.467,6.344-3.986,15.721-4.155,22.02-4.974,3.816-12.96,8.5-16.924,9.877-8.911,3.091-19.185,2.489-25.49-5.346-13.971-17.368-5.216-53.078.875-74.286" transform="translate(0 -236.243)" fill="#1c3260" fill-rule="evenodd"/>
      <path id="Path_329" data-name="Path 329" d="M135.19,578.834c-.381-1.45-.792-2.883-1.165-4.259a25.189,25.189,0,0,1,1.572,4.2,1.973,1.973,0,0,0-.406.057" transform="translate(-83.72 -358.912)" fill="#1c3260" fill-rule="evenodd"/>
      <path id="Path_330" data-name="Path 330" d="M626.935,672.488c.61-9.023,1.556-18.042,2.969-26.975.857-5.42,1.669-11.29,3.452-16.655.919,3.137,2.431,6.919,3.185,10.2,4.265,18.558,8.806,49.048,16.149,64.852,4.962,10.685,9.923,11.167,16.979,1.872,10.023-13.212,14.169-32.58,15.873-48.939,1.887-18.188-1.1-11.544-6.236-25.187-14-37.171,24.479-38.58,18.028.207-1.65,9.9-3.591,9.391-4.319,11.772-.827,2.716,3.511,26.5-8.009,55.386-5.357,13.442-19.445,34.518-36.2,22.022-5.991-4.468-10.176-12.274-12.894-19.491-2.079-5.486-5.919-21.382-8.078-24.682a15.891,15.891,0,0,0-.832,3.642,1.64,1.64,0,0,0-.467-.331c.083-2.566.226-5.131.4-7.691" transform="translate(-391.372 -376.839)" fill="#1c3260" fill-rule="evenodd"/>
      <path id="Path_331" data-name="Path 331" d="M224.424,358.755c7.029-3.22,13.415,3.26,10.1,10.005-1.045,2.138-8.1,8.218-10.528,11.618-18.434,25.737.345,56.529,25.379,69.536,32.844,17.066,78.682,7.285,88.517-26.342a49.882,49.882,0,0,0,1.34-20.28c-.452-3.292-5.084-19.414,1.524-10.139,3.139,4.395,5.459,14.523,5.819,19.736,2.374,34.251-34.418,64.458-80.527,56.453-45.659-7.923-84.7-57.213-52.868-99.766,2.025-2.7,8.312-9.472,11.244-10.821" transform="translate(-125.924 -223.566)" fill="#1c3260" fill-rule="evenodd"/>
      <path id="Path_332" data-name="Path 332" d="M311.625,159.6c12.581.077,41.565,12.341,47.476,15.4,8.8,4.558,39.9,23.335,36.049,34.78-2.81,8.327-18.032-7.39-20.666-9.648-14.406-12.347-24.245-18.5-37.1-24.472-9.137-4.248-18.793-7.085-27.376-10.943-5.788-2.6-4.127-5.157,1.619-5.121" transform="translate(-191.398 -99.695)" fill="#1c3260" fill-rule="evenodd"/>
      <path id="Path_333" data-name="Path 333" d="M334.32,393.509c11.7,4.051,5.789,30.421-7.075,25.75-11.113-4.039-4.824-29.869,7.075-25.75" transform="translate(-200.802 -245.531)" fill="#1c3260" fill-rule="evenodd"/>
      <path id="Path_334" data-name="Path 334" d="M400.3,406.678c10.62,5.884,4.177,31.364-7.91,25.032-10.482-5.5-3.951-31.6,7.91-25.032" transform="translate(-241.828 -253.377)" fill="#1c3260" fill-rule="evenodd"/>
      <path id="Path_335" data-name="Path 335" d="M669.733,200.756c3.124-3.411,9.38-8.666,12.986-11.824,24.939-21.882,29.74-10.764,6.141,5.421-3.247,2.236-10.509,8.2-16.026,10.8-6.145,2.893-6.669-.507-3.1-4.4" transform="translate(-416.969 -110.392)" fill="#fff" fill-rule="evenodd"/>
      <path id="Path_336" data-name="Path 336" d="M194.642,87.394c-3.461-6.983-9.832-18.85-11.547-25.785-2.243-9.079,2.81-11.476,7.183-3.765,1.838,3.246,9.288,23.07,10.659,27.3,3.53,10.927.03,15-6.294,2.25" transform="translate(-114.029 -33.243)" fill="#fff" fill-rule="evenodd"/>
      <path id="Path_337" data-name="Path 337" d="M385.7,29.161C383.116,19.066,381.906.574,387,.013c5.831-.647,4.847,16.424,4.763,25.157-.084,8.7-2.848,16.558-6.064,3.991" transform="translate(-239.539 0.005)" fill="#fff" fill-rule="evenodd"/>
      <path id="Path_338" data-name="Path 338" d="M589.523,73.729c-.234,3.616-8.186,20.295-10.659,23.394-2.42,3.021-5.252,3.436-4.556-1.357.567-3.9,7.075-21.733,9.617-24.79,3.25-3.9,5.9-1.941,5.6,2.753" transform="translate(-358.681 -43.034)" fill="#fff" fill-rule="evenodd"/>
    </g>
  </g>
</svg>
