<svg xmlns="http://www.w3.org/2000/svg" xmlns:xlink="http://www.w3.org/1999/xlink" width="254.382" height="221.8" viewBox="0 0 254.382 221.8">
  <defs>
    <clipPath id="clip-path">
      <rect id="Rectangle_825" data-name="Rectangle 825" width="264.143" height="75.097" fill="none"/>
    </clipPath>
  </defs>
  <g id="Zöld_nyíl" data-name="Zöld nyíl" transform="matrix(0.788, 0.616, -0.616, 0.788, 46.234, 0)">
    <g id="Group_1005" data-name="Group 1005" transform="translate(0 0)" clip-path="url(#clip-path)">
      <path id="Path_694" data-name="Path 694" d="M262.982,41.833l-3.017-1.9a2.239,2.239,0,0,0-.671-.668q-10.641-6.561-21.284-13.122c-2.614-1.612-4.984,2.479-2.4,4.1q8.088,5.078,16.173,10.161c-11.038,2.614-22.7,4.745-33.717,1.561-12.714-3.674-15.044-11.735-21.92-22.217-4.7-7.171-11.9-12.764-18.8-4.53-4.393,5.241-6.553,15.77-9.048,22-1.227,3.072-4.422,14.312-6.532,16.075-11.073,9.246-16.1-11.887-17.22-16.926-3.128-14.031-4.663-28.773-18.66-36.1a2.271,2.271,0,0,0-3.078.806Q114.4,19.88,105.98,38.676C101.169,49.433,97.121,70.5,81.4,56.643c-13.573-11.966-15.492-33.128-29-45.211C40.959,1.2,32.431,11.175,25.2,20.785A147.636,147.636,0,0,0,.037,73.805a1.044,1.044,0,0,0,2.012.557A167.845,167.845,0,0,1,15.558,41.578C20.447,32.732,27.1,19.165,35.8,13.572c17.263-11.1,32.582,33.979,40.238,43.265,6.4,7.767,16.255,15.749,23.892,5.623,6.208-8.236,9.872-21.552,14.095-30.939q3.7-8.215,7.391-16.43c3.25-7.221,6.269-11.4,11.873-1.932,7.658,12.95,3.335,37.743,18.092,46.107,12.287,6.961,15.961-7.3,19.521-16.178,1.715-4.279,3.237-9.917,5.57-13.888q2.187-11.822,16.99-3.7.926,2.247,1.872,4.483c4.711,5.145,7.25,10.06,13.893,13.535,14.1,7.375,30.2,4.642,45.062,1.145q-9.993,4.485-19.982,8.976c-2.786,1.251-.371,5.349,2.4,4.1l26.276-11.8c1.715-.769,1.373-3.242,0-4.1" transform="translate(0 0.001)" fill="#b3cc05"/>
    </g>
  </g>
</svg>
