<svg xmlns="http://www.w3.org/2000/svg" width="197.5" height="186.776" viewBox="0 0 197.5 186.776">
  <g id="fireworks" transform="translate(0 -13.898)">
    <path id="Path_645" data-name="Path 645" d="M444.067,122.745l3.086,5.006-2.374,5.38a2.918,2.918,0,0,0,3.33,3.98l5.716-1.388,4.383,3.921a2.942,2.942,0,0,0,4.815-1.937l.446-5.863,5.084-2.957a2.918,2.918,0,0,0-.355-5.178l-5.44-2.237-1.242-5.748a2.918,2.918,0,0,0-5.034-1.263l-3.808,4.482-5.851-.6A2.917,2.917,0,0,0,444.067,122.745Zm9.535,2.11c1.544.162,2.69-1.029,3.5-2.178a4.575,4.575,0,0,0,3.477,4.156,4.575,4.575,0,0,0-2.878,4.591,4.327,4.327,0,0,0-5.256-1.318,4.575,4.575,0,0,0-.37-5.405Z" transform="translate(-272.477 -61.153)" fill="#ffdb00"/>
    <path id="Path_646" data-name="Path 646" d="M159.284,30.863l6.388,4.462-.055,7.792a2.914,2.914,0,0,0,4.638,2.33l6.219-4.7,7.395,2.46a2.918,2.918,0,0,0,3.648-3.691l-2.545-7.364,4.624-6.272a2.919,2.919,0,0,0-2.383-4.611l-7.791.145-4.536-6.336a2.918,2.918,0,0,0-5.121.841l-2.27,7.454-7.428,2.356a2.918,2.918,0,0,0-.782,5.131Zm11.41-2.43a2.894,2.894,0,0,0,1.893-1.915l1.005-3.3,2.009,2.806a2.879,2.879,0,0,0,2.406,1.209l3.45-.064-2.048,2.777A2.894,2.894,0,0,0,179,32.607l1.127,3.261-3.274-1.089a2.891,2.891,0,0,0-2.657.436l-2.754,2.08.024-3.45a2.893,2.893,0,0,0-1.237-2.392l-2.828-1.976Z" transform="translate(-97.086)" fill="#ffdb00"/>
    <path id="Path_647" data-name="Path 647" d="M345.576,402.1l-6.3-.863-2.861-5.679a2.928,2.928,0,0,0-5.189.042l-2.768,5.725-6.285.965a2.918,2.918,0,0,0-1.564,4.949l4.59,4.4-1.024,6.276a2.921,2.921,0,0,0,4.223,3.016l5.6-3,5.653,2.913a2.918,2.918,0,0,0,4.173-3.085L342.7,411.5l4.517-4.476A2.917,2.917,0,0,0,345.576,402.1Zm-8.027,6.357c-1.169,1.159-.848,3.109-.455,4.553a5.136,5.136,0,0,0-6.264.051,5.134,5.134,0,0,0-1.984-5.941,5.136,5.136,0,0,0,5.038-3.723,5.137,5.137,0,0,0,5.1,3.641Z" transform="translate(-196.377 -233.453)" fill="#ffdb00"/>
    <path id="Path_648" data-name="Path 648" d="M23.272,385.881l-5.7.058L14.3,381.277a2.918,2.918,0,0,0-5.128.8l-1.706,5.437L2.015,389.19a2.918,2.918,0,0,0-.825,5.124l4.644,3.3-.088,5.7a2.914,2.914,0,0,0,4.618,2.368l4.576-3.4,5.393,1.845a2.918,2.918,0,0,0,3.679-3.66l-1.816-5.4,3.42-4.558a2.918,2.918,0,0,0-2.343-4.631Zm-7.047,9.591.432,1.286a4.226,4.226,0,0,0-5.035.784A4.226,4.226,0,0,0,9.322,393c2.125-.336,3.008-1.669,3.612-3.593a4.19,4.19,0,0,0,4.533,2.325A3.813,3.813,0,0,0,16.225,395.471Z" transform="translate(0 -224.898)" fill="#ffdb00"/>
    <path id="Path_649" data-name="Path 649" d="M100.78,365.991a2.892,2.892,0,0,0-3.71,1.726,67.267,67.267,0,0,0-2.806,11.331,2.894,2.894,0,0,0,2.355,3.346,2.93,2.93,0,0,0,.5.043,2.894,2.894,0,0,0,2.847-2.4A61.963,61.963,0,0,1,102.5,369.7,2.892,2.892,0,0,0,100.78,365.991Z" transform="translate(-57.868 -216.139)" fill="#19a4da"/>
    <path id="Path_650" data-name="Path 650" d="M151.2,168.546a102.243,102.243,0,0,0-27.215-23.23,80.2,80.2,0,0,0-22.4-8.9c6.844-3.547,15.184-7.072,22.949-7.72,3.608-.3,3.292-6.1-.481-5.767-8.28.69-17.049,4.205-24.41,7.977a95.533,95.533,0,0,1,12.569-17.2,80.5,80.5,0,0,1,22.721-17.391,76.438,76.438,0,0,1,34.126-8.1c3.737-.037,3.66-5.787-.057-5.787a82.167,82.167,0,0,0-36.808,8.79,86.35,86.35,0,0,0-24.386,18.73,101.07,101.07,0,0,0-11.07,14.522,73.383,73.383,0,0,1,3.015-14.285c1.034-3.115-2.76-6.532-4.919-3.05-2.9,4.682-3.3,12.489-4.014,17.866a93.827,93.827,0,0,0-7-12.181C72.483,96.144,57,85.837,39.048,83.011c-3.577-.558-4.64,5.128-.9,5.717,16.507,2.6,30.233,11.749,40.8,27.2a88.55,88.55,0,0,1,7.94,14.391,97.494,97.494,0,0,0-11.158-6.042c-15.146-6.951-30.247-8.871-43.672-5.553-3.515.869-2.286,6.528,1.389,5.619,15.282-3.779,30.037.7,39.725,5.128a90.48,90.48,0,0,1,8.444,4.419,94.6,94.6,0,0,0-23.394,1.875A78.585,78.585,0,0,0,27.9,149.01C16.876,157.026,7.991,168.116,1.5,181.972c-1.528,3.261,3.609,5.937,5.24,2.456C12.791,171.514,21.02,161.2,31.2,153.77a72.772,72.772,0,0,1,28-12.3,88.25,88.25,0,0,1,20.054-1.846,59.852,59.852,0,0,0-10.913,6.791l-.031.024c-10.885,8.707-17.224,20.041-21.53,28.943-1.569,3.244,3.539,5.975,5.21,2.52,4.038-8.347,9.952-18.95,19.919-26.93a52.391,52.391,0,0,1,12.964-7.515c-7.826,12.039-13.125,30.436-15.789,54.886a315.194,315.194,0,0,0-1.652,41.7c.156,3.775,5.937,3.54,5.782-.238-.03-.723-2.609-70.207,19.3-97.044,6.753,10.438,14.626,26.96,19.982,59.656.609,3.715,6.322,2.795,5.711-.936-2.93-17.884-7.8-40.385-19.545-59.762.758.146,1.574.319,2.451.527a75.591,75.591,0,0,1,20.31,8.271,96.789,96.789,0,0,1,25.517,21.952c9.573,11.491,17.652,25.817,24.01,42.578,1.318,3.473,6.752,1.483,5.411-2.053-6.627-17.47-15.092-32.426-25.159-44.451Z" transform="translate(-0.747 -42.088)" fill="#d7000d"/>
    <path id="Path_651" data-name="Path 651" d="M418.129,205.842c-16.749-13.619-35.519-21.192-54.28-21.9-3.717-.114-3.954,5.643-.218,5.783,17.5.66,35.079,7.785,50.846,20.606,2.888,2.349,6.537-2.143,3.651-4.49Z" transform="translate(-221.683 -104.436)" fill="#19a4da"/>
    <path id="Path_652" data-name="Path 652" d="M261.674,67.867a2.892,2.892,0,0,0,3.891-1.266,61.845,61.845,0,0,1,12.663-17.254,50.12,50.12,0,0,1,4.777-3.946,2.894,2.894,0,1,0-3.4-4.684,55.891,55.891,0,0,0-5.331,4.4,67.585,67.585,0,0,0-13.868,18.855A2.9,2.9,0,0,0,261.674,67.867Z" transform="translate(-159.743 -16.132)" fill="#19a4da"/>
    <path id="Path_653" data-name="Path 653" d="M4.2,208.382a2.886,2.886,0,0,0,2.121-.924A62.144,62.144,0,0,1,20.8,195.726c3.141-1.8.4-6.9-2.879-5.02A67.924,67.924,0,0,0,2.076,203.519,2.944,2.944,0,0,0,4.2,208.382Z" transform="translate(-0.826 -108.339)" fill="#19a4da"/>
    <path id="Path_654" data-name="Path 654" d="M437.724,246.745c-3.724,0-3.73,5.787,0,5.787S441.454,246.745,437.724,246.745Z" transform="translate(-267.123 -143.009)"/>
    <path id="Path_655" data-name="Path 655" d="M475.124,346.967c-3.724,0-3.73,5.787,0,5.787S478.854,346.967,475.124,346.967Z" transform="translate(-290.094 -204.563)"/>
    <path id="Path_656" data-name="Path 656" d="M238.758,396.331c-3.724,0-3.73,5.787,0,5.787S242.488,396.331,238.758,396.331Z" transform="translate(-144.923 -234.882)"/>
    <path id="Path_657" data-name="Path 657" d="M97.271,464.438c-3.724,0-3.73,5.787,0,5.787S101,464.438,97.271,464.438Z" transform="translate(-58.025 -276.711)"/>
    <path id="Path_658" data-name="Path 658" d="M47.272,125.384c3.724,0,3.73-5.787,0-5.787S43.542,125.384,47.272,125.384Z" transform="translate(-27.317 -64.918)"/>
    <path id="Path_659" data-name="Path 659" d="M370.405,55.078c3.724,0,3.73-5.787,0-5.787S366.675,55.078,370.405,55.078Z" transform="translate(-225.778 -21.738)"/>
  </g>
</svg>
