<svg id="Group_1123" data-name="Group 1123" xmlns="http://www.w3.org/2000/svg" xmlns:xlink="http://www.w3.org/1999/xlink" width="335.874" height="79.104" viewBox="0 0 335.874 79.104">
  <defs>
    <clipPath id="clip-path">
      <rect id="Rectangle_1285" data-name="Rectangle 1285" width="335.874" height="79.104" fill="none"/>
    </clipPath>
  </defs>
  <g id="Group_1122" data-name="Group 1122" clip-path="url(#clip-path)">
    <path id="Path_976" data-name="Path 976" d="M0,73.766v3.7H44.447V76.085c-.248-.162-.491-.339-.736-.512l-.05-.034c-.175-.125-.358-.261-.541-.394a.462.462,0,0,1-.044-.031.258.258,0,0,0-.052-.034l-.047-.039A.531.531,0,0,1,42.933,75a.243.243,0,0,0-.052-.026.087.087,0,0,0-.047-.037l-.047-.042a.9.9,0,0,1-.091-.078H42.69a.168.168,0,0,0-.052-.029c-.018-.013-.026-.026-.044-.042a.173.173,0,0,1-.047-.037c-.068-.047-.131-.1-.2-.144l-.044-.037a1.8,1.8,0,0,1-.146-.118h0a.28.28,0,0,1-.05-.034.3.3,0,0,1-.044-.042l-.05-.031a.433.433,0,0,1-.05-.047c-.193-.149-.389-.3-.575-.457-.018-.016-.031-.016-.05-.037Zm90.592,0v1.4l2.891,2.3h241.2v-3.7ZM211,1.112l2.28,3.667V28.823h-33.7V4.766l1.744-3.653h-14.6l2.272,3.667V60.591l-2.272,3.674h14.6l-1.744-3.653V35.182h33.7v25.41L211,64.266H225.6l-1.731-3.653V4.766L225.6,1.112Zm112.21,0,2.28,3.667V40.966L289.805,1.233l-.112-.12H278.019L281.232,6l-.047,54.59-2.272,3.674h12.548l-1.742-3.653v-43.8L333.388,64.9l.635.7V5.061l1.852-3.949Zm-90.866-.005,1.841,4.708v54.1L232.5,64.266H270.35l2.946-8.44-7.484,1.985H244.9v-22.6h19.965l2.4-6.738-1.113.389H244.9V7.477h17.291l5.889,1.979,2.878-8.349ZM2.81,1.1,4.826,5.805V60.591L2.557,64.266H17.105l-1.739-3.653V6.79c13.467-.956,19.85,2.575,20.4,11.323a12.376,12.376,0,0,1-3.17,9.31c-3.058,3.364-8,5.259-14.269,5.466l-.248.01-.58,1.619,8.129,10.046L27.2,46.578C41.465,64.749,52.715,79.1,69.98,79.1a38.156,38.156,0,0,0,11.206-1.8l.42-.128-1.118-2.168-.238.016c-.52.034-1.042.052-1.554.052-10.911,0-22.328-7.451-33.944-22.153-4.544-5.753-9.764-12.3-14.2-17.515,9-1.507,15.463-8.667,15.463-17.254,0-10.689-8.5-17.327-22.171-17.327Zm120.8,13.54c-1.128,5.821.386,11.237,4.168,14.854,2.826,2.719,6.633,4.45,10.326,5.912l.034.01a.32.32,0,0,0,.11.039c3.81,1.509,9.023,3.578,11.8,6.957a9.308,9.308,0,0,1,1.836,7.445,10.194,10.194,0,0,1-10.007,8.981c-7.834.3-14.8-4.262-15.972-10.378l-.052-.209-1.661-.569-2.943,10.127.128.151c3.938,4.567,10.639,7.187,18.382,7.187.3,0,.593,0,.891-.01,12-.334,21.051-8.978,21.051-20.1,0-7.129-4.836-12.841-14.381-16.969-.653-.287-1.434-.577-2.337-.906-4.964-1.836-12.472-4.607-12.169-11.663a9.4,9.4,0,0,1,9.707-8.9c5.126,0,8.994,2.674,10.354,7.15l.057.172,1.439.543,3.823-9.138-.193-.18c-3.6-3.317-8.273-5-13.9-5-10.558,0-18.792,5.821-20.484,14.488M66.9,47.6a31.9,31.9,0,0,1-3.507-14.737c-.063-8.093,2.776-15.815,7.586-20.651A18.992,18.992,0,0,1,84.948,6.508,19.318,19.318,0,0,1,101.3,14.9a30.766,30.766,0,0,1,5.2,17.74,34.279,34.279,0,0,1-1.721,10.811c-3.288,9.722-10.514,15.306-19.829,15.306-7.719,0-14.3-4.069-18.053-11.151M84.938,0A33.694,33.694,0,0,0,63.55,7.1c-7.3,5.86-11.493,15.222-11.5,25.7a33.325,33.325,0,0,0,7.09,21.025c5.978,7.37,15.387,11.6,25.812,11.6h.081c9.286-.024,17.664-3.293,23.592-9.224,5.949-5.931,9.218-14.306,9.218-23.568,0-9.433-3.16-17.56-9.132-23.508S94.561.026,85.066,0Z" fill="#fff"/>
  </g>
</svg>
