<svg xmlns="http://www.w3.org/2000/svg" xmlns:xlink="http://www.w3.org/1999/xlink" width="374.444" height="183.311" viewBox="0 0 374.444 183.311">
  <defs>
    <clipPath id="clip-path">
      <rect id="Rectangle_1265" data-name="Rectangle 1265" width="353.444" height="183.311" fill="none"/>
    </clipPath>
    <clipPath id="clip-path-2">
      <rect id="Rectangle_1266" data-name="Rectangle 1266" width="374.444" height="183.311" transform="translate(-21)" fill="none"/>
    </clipPath>
    <clipPath id="clip-path-3">
      <rect id="Rectangle_1280" data-name="Rectangle 1280" width="94.265" height="136.273" fill="none"/>
    </clipPath>
  </defs>
  <g id="Group_1081" data-name="Group 1081" transform="translate(21)">
    <g id="Group_1078" data-name="Group 1078">
      <g id="Group_1077" data-name="Group 1077" clip-path="url(#clip-path)">
        <path id="Path_863" data-name="Path 863" d="M285.779,270.568s.9-.068,2.662-.3" transform="translate(-158.117 -149.535)" fill="none" stroke="#22335b" stroke-width="5"/>
        <path id="Path_864" data-name="Path 864" d="M303.63,125.259c24.77-4.368,105.234-24.81,212.986-115.582" transform="translate(-167.993 -5.354)" fill="none" stroke="#22335b" stroke-width="5" stroke-dasharray="12.041 12.041"/>
        <path id="Path_865" data-name="Path 865" d="M785.01,3.639q1.019-.864,2.041-1.737" transform="translate(-434.333 -1.052)" fill="none" stroke="#22335b" stroke-width="5"/>
      </g>
    </g>
    <g id="Group_1080" data-name="Group 1080">
      <g id="Group_1079" data-name="Group 1079" clip-path="url(#clip-path-2)">
        <path id="Path_870" data-name="Path 870" d="M299.909,385.436c-13.435-3.777-27.669-6.078-41.435-2.68-2.355,1.344-4.535-1.693-1.719-2.691a68.607,68.607,0,0,1,24.5-1.575,142.357,142.357,0,0,1,19.459,4.017,1.52,1.52,0,0,1-.808,2.928" transform="translate(-141.323 -209.154)" fill="#22335b" fill-rule="evenodd"/>
        <path id="Path_871" data-name="Path 871" d="M317.223,357.308c-1.494-.185-4.241.667-4.4-1.545a1.533,1.533,0,0,1,1.518-1.518c4.369.057,8.742.109,13.107-.188a52.177,52.177,0,0,0,6.707-.836c1.287-.233,3.261-1.186,3.815.608.715,4.15-17.577,3.287-20.75,3.479" transform="translate(-173.082 -195.176)" fill="#22335b" fill-rule="evenodd"/>
        <path id="Path_872" data-name="Path 872" d="M238.079,194.228c-5.852-1.725-11.894-3.545-17.06-6.868-11.329-8.855.126-17.182,9.941-10.907-.95-12.71,16.513-11.346,13.642,1a101.538,101.538,0,0,1-2.965,11.027c-.781,1.341-.641,4.813-2.187,5.118a1.2,1.2,0,0,1-1.372.63m.12-2.382c1.435-6.158,4.686-12.256,4.174-18.687-.844-3.754-6.694-4.626-8.333-.968-1.47,2.146.043,4.959-1.041,7.055-1.993,1.182-3.9-1.82-5.94-2.084-3.344-1.294-10.409-.277-7.862,4.68,3.965,6.356,12.422,7.625,19,10" transform="translate(-119.683 -92.695)" fill="#449cd8" fill-rule="evenodd"/>
        <g id="Group_1113" data-name="Group 1113" transform="translate(-3.387 40.075)">
          <g id="Group_1112" data-name="Group 1112" clip-path="url(#clip-path-3)">
            <path id="Path_932" data-name="Path 932" d="M3.759,28.887C-1.112,39.1-1.95,50.919,5.469,61.562a101.7,101.7,0,0,0,12.829,15A176.657,176.657,0,0,0,34.164,89.64a27.568,27.568,0,0,1,5.884,5.582A5.9,5.9,0,0,0,44.324,97.6a23.094,23.094,0,0,0,8.726-1.047c10.761-2.958,25.056-10.83,25.056-10.83a1.878,1.878,0,0,0,.968-1.647s-.005-4.812.785-12.529c.378-3.6.917-7.84,1.721-12.509,1.343-7.887,3.862-17.117,3.628-25.669-.162-6.192-1.74-12.041-5.986-16.882C70.75,6.913,62.837,2.28,55.267.7,35.391-3.447,12.039,11.52,3.759,28.887M54.632,3.6c7.013,1.611,14.25,6.112,21.979,15.155,3.652,4.231,4.905,9.336,5.022,14.7.172,8.329-2.354,17.288-3.691,24.958-.834,4.758-1.4,9.075-1.778,12.753-.6,5.722-.771,9.9-.819,11.784A151.458,151.458,0,0,1,55.6,91.8c-3.693,1.267-7.206,2.172-9.822,2.117-1.163-.025-2.118-.143-2.587-.831A31.394,31.394,0,0,0,36.5,86.641,177.572,177.572,0,0,1,20.92,73.833,98.545,98.545,0,0,1,8.538,59.4C1.874,50,2.682,39.494,6.924,30.379,14.627,13.808,35.768-.746,54.632,3.6" transform="translate(0 0)" fill="#1c3260" fill-rule="evenodd"/>
            <path id="Path_933" data-name="Path 933" d="M109.562,207.726a3.272,3.272,0,0,0-1.262,2.24c-.813,4.46,2.871,14.979,6.488,17.5,4.087,2.855,10.764,2.31,17.8-.786,5.02-2.2,9.7-5.465,11.349-8.579a12.737,12.737,0,0,0,.955-9.653c-1.816-6.456-7.909-11.268-7.909-11.268a1.885,1.885,0,0,0-2.474.123,42.465,42.465,0,0,1-13.088,8.216,21.936,21.936,0,0,1-8.5,1.517,6.674,6.674,0,0,0-3.361.685m4.566,2.814a24.482,24.482,0,0,0,8.458-1.738,44.555,44.555,0,0,0,13.224-7.615,21.891,21.891,0,0,1,4.8,6.555,9.551,9.551,0,0,1-.015,8.614c-1.34,2.587-5.363,5.089-9.5,6.946-10.692,4.815-18.5.994-19.479-10.248-.173-1.957-.037-2.281.179-2.476.274-.246.8-.062,2.336-.038" transform="translate(-51.165 -93.064)" fill="#1c3260" fill-rule="evenodd"/>
            <path id="Path_934" data-name="Path 934" d="M102.978,200.413a1.09,1.09,0,0,1-2.062.71,91.138,91.138,0,0,0-4.124-9.679,92.433,92.433,0,0,0-5.285-9.705,1.091,1.091,0,0,1,1.758-1.291A93.985,93.985,0,0,1,98.75,190.49a93.354,93.354,0,0,1,4.229,9.923" transform="translate(-43.176 -85.129)" fill="#1c3260" fill-rule="evenodd"/>
            <path id="Path_935" data-name="Path 935" d="M129.687,193.376a1.091,1.091,0,0,1-2.046.76c-5.49-14.833-9.293-23.135-9.3-23.159a1.09,1.09,0,1,1,1.981-.909c.01.025,3.87,8.45,9.369,23.308" transform="translate(-55.918 -80.13)" fill="#1c3260" fill-rule="evenodd"/>
            <path id="Path_936" data-name="Path 936" d="M143.995,155.394a1.09,1.09,0,1,1,2.167.233,24.44,24.44,0,0,0,1.632,10.619,44.88,44.88,0,0,0,6.5,11.9,1.092,1.092,0,0,1-1.7,1.376,47.251,47.251,0,0,1-6.856-12.527,26.59,26.59,0,0,1-1.746-11.6" transform="translate(-68.049 -73.03)" fill="#1c3260" fill-rule="evenodd"/>
            <path id="Path_937" data-name="Path 937" d="M110.547,217.37a1.091,1.091,0,0,1,.357-2.152c4.551.744,9.943-.567,14.757-2.6,6.708-2.829,12.2-6.9,12.733-8.743a1.09,1.09,0,0,1,2.1.6c-.67,2.32-6.718,7.085-13.974,10.148-5.144,2.17-10.955,3.561-15.969,2.742" transform="translate(-51.85 -96.047)" fill="#1c3260" fill-rule="evenodd"/>
            <path id="Path_938" data-name="Path 938" d="M28.441,20.955a1.092,1.092,0,0,1,1.814,1.217c-7.52,11.193-9.378,21.36-7.734,30.354,2.065,11.3,9.656,20.841,18.512,28.291,16.414,13.8,20.747,22.358,20.761,22.383a1.093,1.093,0,1,1-1.951.988c-.012-.023-4.151-8.193-20.214-21.7C30.435,74.753,22.547,64.8,20.375,52.921c-1.742-9.528.192-20.243,8.066-31.966" transform="translate(-9.356 -9.682)" fill="#1c3260" fill-rule="evenodd"/>
            <path id="Path_939" data-name="Path 939" d="M81.827,96.139a1.091,1.091,0,0,1-1.821,1.2C75.231,90.1,70.944,83.907,67.135,78.4,47.871,50.538,40.587,40,49.025,10.747a1.091,1.091,0,0,1,2.1.605c-8.153,28.26-1.029,38.563,17.81,65.809,3.843,5.558,8.168,11.81,12.9,18.979" transform="translate(-21.543 -4.71)" fill="#1c3260" fill-rule="evenodd"/>
            <path id="Path_940" data-name="Path 940" d="M79.394,4.942a1.09,1.09,0,1,1,.2-2.17c4.96.469,13.824,4.335,20.523,11.722a33.814,33.814,0,0,1,8.919,20.665,113.147,113.147,0,0,1-.86,21.523c-1.073,9.763-2.059,18.735,2.065,31.9a1.091,1.091,0,1,1-2.081.653c-4.261-13.595-3.249-22.785-2.149-32.785a111.536,111.536,0,0,0,.853-21.136A31.673,31.673,0,0,0,98.5,15.954C92.2,9,83.968,5.376,79.394,4.942" transform="translate(-37.08 -1.309)" fill="#1c3260" fill-rule="evenodd"/>
            <path id="Path_941" data-name="Path 941" d="M91.408,93.176a1.09,1.09,0,0,1-2.075.668,285.234,285.234,0,0,1-8.9-37.206C76.371,34.81,73.944,21.775,52.7,12.04a1.091,1.091,0,1,1,.91-1.982c22.272,10.2,24.775,23.653,28.967,46.175a283.514,283.514,0,0,0,8.836,36.943" transform="translate(-24.621 -4.709)" fill="#1c3260" fill-rule="evenodd"/>
          </g>
        </g>
      </g>
    </g>
  </g>
</svg>
