<svg id="Group_1115" data-name="Group 1115" xmlns="http://www.w3.org/2000/svg" xmlns:xlink="http://www.w3.org/1999/xlink" width="175.507" height="94.73" viewBox="0 0 175.507 94.73">
  <defs>
    <clipPath id="clip-path">
      <rect id="Rectangle_1281" data-name="Rectangle 1281" width="175.507" height="94.73" fill="none"/>
    </clipPath>
  </defs>
  <g id="Group_1114" data-name="Group 1114" clip-path="url(#clip-path)">
    <path id="Path_942" data-name="Path 942" d="M2.171,99.066a2.351,2.351,0,0,1-1.681-.652,1.737,1.737,0,0,1-.414-1.732c.6-2.142,1.553-5.569,2.743-9.858,3.595-12.959,9.026-32.541,13.908-49.376C25.7,6.513,26.476,6.513,27.229,6.513c.663,0,1.186,0,3.016,11.749.991,6.363,2.186,15.145,3.456,25.4,2.434,19.656,4.419,38.806,4.423,42.691,0,1.216-1.408,1.894-2.735,1.914-1.5.036-2.518-.731-2.552-1.874-.174-5.95-4.76-56.948-6.354-66.2C23.382,28.67,10.817,74.938,6.47,90.946c-.725,2.669-1.29,4.752-1.644,6.043a2.716,2.716,0,0,1-1.951,1.987,2.8,2.8,0,0,1-.7.09M27.161,8.136c-3.1,6.381-17.622,58.738-23.24,78.994-1.19,4.291-2.141,7.719-2.744,9.863a.592.592,0,0,0,.13.621,1.382,1.382,0,0,0,1.281.254,1.571,1.571,0,0,0,1.134-1.181c.353-1.291.919-3.373,1.643-6.041,2.627-9.673,7.516-27.678,11.859-43.17C25.267,18.786,25.94,18.3,26.3,18.039a.573.573,0,0,1,.753.073c.255.274.933,1,3.921,32.558,1.484,15.68,2.916,32.689,3,35.685.022.762,1.25.766,1.39.763.842-.013,1.609-.379,1.608-.768,0-3.713-1.918-22.261-4.266-41.348C29.826,21.536,27.99,10.784,27.161,8.136m-1,10.686h0" transform="translate(0 -4.335)" fill="#1c3260"/>
    <path id="Path_943" data-name="Path 943" d="M31.1,192.038a.572.572,0,0,1-.163-1.121c3.557-1.061,6.367-1.854,8.847-2.554,4.5-1.269,7.742-2.186,12.118-3.755a.572.572,0,1,1,.386,1.077c-4.413,1.583-7.677,2.5-12.194,3.779-2.475.7-5.281,1.491-8.83,2.549a.569.569,0,0,1-.164.024" transform="translate(-20.324 -122.863)" fill="#1c3260"/>
    <path id="Path_944" data-name="Path 944" d="M412.117,95.733a2.351,2.351,0,0,1-1.681-.652,1.737,1.737,0,0,1-.414-1.732c.6-2.141,1.552-5.564,2.74-9.849,3.376-12.171,9.026-32.541,13.909-49.379,8.973-30.941,9.751-30.941,10.5-30.941.663,0,1.186,0,3.016,11.749.991,6.363,2.186,15.145,3.456,25.4,2.434,19.656,4.419,38.806,4.423,42.691,0,1.216-1.408,1.894-2.735,1.914-1.5.031-2.518-.731-2.552-1.874-.174-5.95-4.76-56.948-6.354-66.2-3.1,8.484-15.666,54.755-20.013,70.764-.724,2.667-1.289,4.748-1.642,6.038a2.716,2.716,0,0,1-1.951,1.987,2.806,2.806,0,0,1-.7.09M437.107,4.8c-3.1,6.382-17.624,58.746-23.243,79-1.189,4.287-2.139,7.711-2.742,9.853a.592.592,0,0,0,.13.621,1.382,1.382,0,0,0,1.281.254,1.571,1.571,0,0,0,1.134-1.181c.353-1.29.918-3.37,1.642-6.036,2.627-9.673,7.516-27.678,11.859-43.171,8.043-28.693,8.717-29.179,9.078-29.44a.573.573,0,0,1,.753.073c.255.274.933,1,3.921,32.558,1.484,15.68,2.917,32.689,3,35.685.022.762,1.249.765,1.39.763.842-.013,1.609-.379,1.608-.768,0-3.713-1.918-22.261-4.266-41.348C439.772,18.2,437.936,7.451,437.107,4.8m-1,10.686h0" transform="translate(-272.883 -2.117)" fill="#1c3260"/>
    <path id="Path_945" data-name="Path 945" d="M441.051,188.705a.572.572,0,0,1-.163-1.121c3.557-1.061,6.367-1.854,8.847-2.554,4.495-1.269,7.742-2.185,12.118-3.755a.572.572,0,1,1,.386,1.077c-4.413,1.583-7.676,2.5-12.193,3.779-2.476.7-5.281,1.491-8.831,2.549a.568.568,0,0,1-.164.024" transform="translate(-293.207 -120.644)" fill="#1c3260"/>
    <path id="Path_946" data-name="Path 946" d="M411.264,94.439a.637.637,0,0,1-.611-.812c1.015-3.522,2.935-10.516,5.366-19.371,3.889-14.165,8.729-31.794,12.9-46.3,7.478-26,8.159-26,8.946-26,.72,0,1.241,0,3.017,12.16.927,6.347,2.087,15.4,3.352,26.169,2.181,18.561,4.356,39.581,4.607,43.771a.636.636,0,1,1-1.27.076c-.555-9.27-7.426-72.172-9.784-80.3-2.837,6.268-14.25,47.837-20.544,70.758-2.433,8.859-4.354,15.857-5.371,19.386a.636.636,0,0,1-.611.46" transform="translate(-273.337 -1.301)" fill="#1c3260"/>
    <path id="Path_947" data-name="Path 947" d="M430.094,190.536a.636.636,0,0,1-.2-1.241c3.314-1.074,6.857-2.115,10.284-3.122a168.961,168.961,0,0,0,18.116-6.012.636.636,0,0,1,.5,1.168,172.539,172.539,0,0,1-18.262,6.064c-3.418,1-6.953,2.043-10.25,3.112a.634.634,0,0,1-.2.031" transform="translate(-285.871 -119.89)" fill="#1c3260"/>
    <path id="Path_948" data-name="Path 948" d="M100.075,7.939h0c-8.485-.055-15.328-.153-19.788-.283a.572.572,0,0,1,.033-1.144c4.452.13,11.286.227,19.762.283a.572.572,0,0,1,0,1.144" transform="translate(-53.071 -4.335)" fill="#1c3260"/>
    <path id="Path_949" data-name="Path 949" d="M187.1,8.654l-3.38,0a.572.572,0,0,1,0-1.144h0c3.146,0,6.392,0,9.705,0h0a.572.572,0,0,1,0,1.144q-3.211.006-6.328.005" transform="translate(-121.914 -4.995)" fill="#1c3260"/>
    <path id="Path_950" data-name="Path 950" d="M256.413,8.319a.572.572,0,0,1,0-1.144c4.288-.023,8.613-.052,12.914-.088h0a.572.572,0,0,1,0,1.144c-4.3.036-8.628.065-12.917.088Z" transform="translate(-170.302 -4.717)" fill="#1c3260"/>
    <path id="Path_951" data-name="Path 951" d="M338.7,7.513a.572.572,0,0,1-.007-1.144c3.3-.041,6.547-.086,9.7-.135h.009a.572.572,0,0,1,.009,1.144c-3.158.049-6.4.094-9.708.135Z" transform="translate(-225.077 -4.149)" fill="#1c3260"/>
    <path id="Path_952" data-name="Path 952" d="M411.185,4.383a.572.572,0,0,1-.013-1.144c13.56-.3,22.519-.672,26.626-1.092a.572.572,0,1,1,.116,1.138c-4.137.423-13.126.792-26.716,1.1h-.013" transform="translate(-273.327 -1.427)" fill="#1c3260"/>
    <path id="Path_953" data-name="Path 953" d="M164.619,206.3c-3.525,0-6.569-.027-7.6-.106a3.143,3.143,0,0,1-2.935-3.275,4.028,4.028,0,0,1,3.982-3.991c2.834-.227,10.491-.009,16.082.149,2.333.066,4.176.118,5.01.118h.005a3.354,3.354,0,0,1,3.5,3.387c.017,1.7-1.2,3.561-3.924,3.613-2.041.039-8.658.1-14.121.1m-6.458-6.232a2.886,2.886,0,0,0-2.928,2.848,2,2,0,0,0,1.878,2.136c2.469.19,17.552.076,21.607,0,1.952-.037,2.813-1.261,2.8-2.458a2.22,2.22,0,0,0-2.353-2.253h-.005c-.85,0-2.7-.052-5.042-.119-5.251-.149-13.186-.375-15.958-.153m-.045-.57h0Z" transform="translate(-102.569 -132.351)" fill="#1c3260"/>
    <path id="Path_954" data-name="Path 954" d="M309.208,160.671c-5.23,0-9.688-.017-10.63-.066-1.884-.1-2.743-1.226-2.744-2.233,0-1.19,1.156-2.533,3.7-2.669,2.718-.146,15.972.012,23.892.107,2.741.032,4.908.059,5.583.059h0c2.123,0,3.241,1.161,3.248,2.309.008,1.186-1.115,2.4-3.642,2.429-2.1.027-11.612.065-19.414.065m-9.61-3.825h0c-1.721.092-2.62.837-2.619,1.525,0,.5.514,1.032,1.659,1.091,2.331.12,26.475.044,29.97,0,1.654-.021,2.516-.659,2.512-1.277,0-.568-.743-1.172-2.1-1.172h0c-.681,0-2.743-.024-5.6-.059-7.905-.094-21.135-.251-23.817-.108" transform="translate(-196.923 -103.605)" fill="#1c3260"/>
    <path id="Path_955" data-name="Path 955" d="M318.767,212.4c-4.147,0-7.689-.021-8.352-.08a2.358,2.358,0,0,1-2.033-2.543,2.952,2.952,0,0,1,2.689-3.068l.053.569-.053-.569c1.909-.178,12.547.015,18.9.129,2.084.038,3.591.065,4.034.065h0a2.467,2.467,0,0,1,2.409,2.617,2.645,2.645,0,0,1-2.671,2.8c-1.477.033-8.884.078-14.982.078m-4.183-4.619c-1.648,0-2.888.019-3.407.067a1.817,1.817,0,0,0-1.65,1.926c0,.656.308,1.344.99,1.4,1.55.139,20.795.052,23.207,0a1.515,1.515,0,0,0,1.552-1.645,1.351,1.351,0,0,0-1.264-1.486h0c-.454,0-1.965-.027-4.055-.065-4.256-.077-11.148-.2-15.37-.2" transform="translate(-205.276 -137.548)" fill="#1c3260"/>
    <path id="Path_956" data-name="Path 956" d="M307.214,181.917a.572.572,0,0,1-.559-.455c-.244-1.159-.523-2.775-.82-4.486a71.924,71.924,0,0,0-1.876-8.952.572.572,0,0,1,1.075-.392,71.939,71.939,0,0,1,1.929,9.149c.294,1.7.572,3.307.811,4.445a.573.573,0,0,1-.561.69" transform="translate(-202.309 -111.334)" fill="#1c3260"/>
    <path id="Path_957" data-name="Path 957" d="M383.9,181.7a.585.585,0,0,1-.112-.011.572.572,0,0,1-.45-.673c.406-2.044,1.285-5.976,1.992-9.135.427-1.91.8-3.56.966-4.369a.572.572,0,0,1,1.12.235c-.172.816-.541,2.469-.969,4.384-.705,3.153-1.583,7.077-1.986,9.108a.573.573,0,0,1-.561.461" transform="translate(-255.161 -111.206)" fill="#1c3260"/>
    <path id="Path_958" data-name="Path 958" d="M346.964,182.475h-.043a.573.573,0,0,1-.528-.614c.142-1.914-.289-10.526-.453-12.727a.572.572,0,1,1,1.141-.085c.166,2.22.6,10.934.453,12.9a.572.572,0,0,1-.57.53" transform="translate(-230.276 -112.175)" fill="#1c3260"/>
    <path id="Path_959" data-name="Path 959" d="M146.678,6.45c-1.511,0-3.01-.019-4-.07a3.164,3.164,0,0,1-3.186-2.959c0-1.149.849-2.537,3.247-2.666,2.53-.135,4.7-.085,6.613-.04.881.02,1.713.04,2.512.04a.027.027,0,0,1,.009,0c1.6,0,3.319.961,3.361,2.742.032,1.35-1.04,2.764-3.507,2.88-.784.037-2.925.074-5.046.074M142.8,1.9h0c-1.336.072-2.165.655-2.164,1.522a2.03,2.03,0,0,0,2.1,1.817c2.354.121,7.609.058,8.935,0,1.7-.08,2.436-.916,2.417-1.71S153.3,1.9,151.87,1.9h-.009c-.811,0-1.65-.019-2.538-.04-1.893-.044-4.04-.094-6.525.039" transform="translate(-92.852 -0.443)" fill="#1c3260"/>
    <path id="Path_960" data-name="Path 960" d="M219.37,6.45c-1.511,0-3.01-.019-4-.07a3.164,3.164,0,0,1-3.186-2.959c0-1.149.849-2.537,3.247-2.666,2.53-.135,4.7-.085,6.613-.04.881.02,1.713.04,2.511.04a.027.027,0,0,1,.009,0c1.6,0,3.319.961,3.361,2.742.032,1.35-1.04,2.764-3.507,2.88-.784.037-2.925.074-5.046.074M215.489,1.9h0c-1.335.072-2.165.655-2.164,1.522a2.03,2.03,0,0,0,2.1,1.817c2.354.121,7.609.058,8.935,0,1.7-.08,2.436-.916,2.417-1.71S225.992,1.9,224.562,1.9h-.009c-.812,0-1.65-.019-2.538-.04-1.893-.044-4.039-.094-6.525.039" transform="translate(-141.239 -0.443)" fill="#1c3260"/>
    <path id="Path_961" data-name="Path 961" d="M162.792,77.4a.573.573,0,0,1-.568-.51c-.62-5.7-1.334-55.71-1.039-61.8a.572.572,0,0,1,1.143.056c-.294,6.075.416,55.941,1.034,61.621a.572.572,0,0,1-.507.631.564.564,0,0,1-.063,0" transform="translate(-107.248 -9.68)" fill="#1c3260"/>
    <path id="Path_962" data-name="Path 962" d="M227.953,77.668h-.029a.572.572,0,0,1-.543-.6c.476-9.357,1.958-61.443,1.973-61.968a.579.579,0,0,1,.588-.556.572.572,0,0,1,.556.588c-.015.525-1.5,52.624-1.974,61.993a.572.572,0,0,1-.571.543" transform="translate(-151.357 -9.681)" fill="#1c3260"/>
    <path id="Path_963" data-name="Path 963" d="M301.655,6.45c-1.511,0-3.01-.019-4-.07a3.164,3.164,0,0,1-3.186-2.959c0-1.149.849-2.537,3.247-2.666,2.53-.135,4.7-.085,6.613-.04.881.02,1.713.04,2.512.04,0,0,.007,0,.009,0,1.6,0,3.319.961,3.361,2.742.032,1.35-1.04,2.764-3.507,2.88-.784.037-2.925.074-5.046.074M297.775,1.9h0c-1.336.072-2.165.655-2.164,1.522a2.03,2.03,0,0,0,2.1,1.817c2.354.121,7.609.058,8.935,0,1.7-.08,2.436-.916,2.417-1.71S308.277,1.9,306.847,1.9h-.009c-.811,0-1.65-.019-2.538-.04-1.893-.044-4.04-.094-6.525.039" transform="translate(-196.013 -0.443)" fill="#1c3260"/>
    <path id="Path_964" data-name="Path 964" d="M374.347,5.784c-1.511,0-3.011-.019-4-.071a3.164,3.164,0,0,1-3.186-2.959c0-1.149.848-2.538,3.247-2.666,2.53-.135,4.7-.085,6.613-.04.884.02,1.727.048,2.52.039h0c1.6,0,3.319.961,3.361,2.742.032,1.349-1.04,2.764-3.507,2.88-.784.037-2.925.074-5.045.074m-3.881-4.553h0c-1.336.072-2.165.655-2.164,1.522a2.03,2.03,0,0,0,2.1,1.817c2.354.122,7.608.059,8.935,0,1.7-.08,2.436-.917,2.417-1.71s-.787-1.624-2.217-1.624c0,0-.006,0-.009,0-.811,0-1.65-.02-2.538-.04-1.893-.044-4.04-.094-6.525.039" transform="translate(-244.401 0)" fill="#1c3260"/>
    <path id="Path_965" data-name="Path 965" d="M312.606,62.864a.572.572,0,0,1-.572-.563c-.124-7.514,1.088-40.361,1.42-47.214a.572.572,0,0,1,1.143.056c-.332,6.845-1.543,39.646-1.419,47.139a.572.572,0,0,1-.563.582Z" transform="translate(-207.701 -9.68)" fill="#1c3260"/>
    <path id="Path_966" data-name="Path 966" d="M388.832,62.621H388.8a.572.572,0,0,1-.543-.6c.475-9.345,0-47.183,0-47.565a.572.572,0,0,1,.565-.579.582.582,0,0,1,.579.565c.005.381.476,38.256,0,47.637a.572.572,0,0,1-.571.543" transform="translate(-258.446 -9.237)" fill="#1c3260"/>
    <path id="Path_967" data-name="Path 967" d="M104.819,222.355a.631.631,0,0,1,.608.56.6.6,0,0,1-.608.615.591.591,0,0,1-.608-.587.618.618,0,0,1,.608-.587" transform="translate(-69.369 -148.012)" fill="#1c3260"/>
    <path id="Path_968" data-name="Path 968" d="M7.818,269.328a.631.631,0,0,1,.608.56.6.6,0,0,1-.608.615.591.591,0,0,1-.608-.587.618.618,0,0,1,.608-.587" transform="translate(-4.799 -179.28)" fill="#1c3260"/>
    <path id="Path_969" data-name="Path 969" d="M103.331,235.479a.7.7,0,0,1,.675.622.669.669,0,0,1-.675.683.656.656,0,0,1-.675-.652.687.687,0,0,1,.675-.652" transform="translate(-68.334 -156.748)" fill="#1c3260"/>
    <path id="Path_970" data-name="Path 970" d="M417.854,264.393a.7.7,0,0,1,.675.622.669.669,0,0,1-.675.683.656.656,0,0,1-.675-.652.687.687,0,0,1,.675-.652" transform="translate(-277.697 -175.995)" fill="#1c3260"/>
    <path id="Path_971" data-name="Path 971" d="M512.156,223.947a.7.7,0,0,1,.675.622.669.669,0,0,1-.675.683.656.656,0,0,1-.675-.652.687.687,0,0,1,.675-.652" transform="translate(-340.47 -149.071)" fill="#1c3260"/>
    <path id="Path_972" data-name="Path 972" d="M515.156,233.946a.7.7,0,0,1,.675.622.669.669,0,0,1-.675.683.656.656,0,0,1-.675-.652.687.687,0,0,1,.675-.652" transform="translate(-342.467 -155.727)" fill="#1c3260"/>
  </g>
</svg>
