<svg id="Group_1111" data-name="Group 1111" xmlns="http://www.w3.org/2000/svg" xmlns:xlink="http://www.w3.org/1999/xlink" width="138.143" height="173.049" viewBox="0 0 138.143 173.049">
  <defs>
    <clipPath id="clip-path">
      <rect id="Rectangle_1279" data-name="Rectangle 1279" width="138.143" height="173.049" fill="none"/>
    </clipPath>
  </defs>
  <g id="Group_1110" data-name="Group 1110" clip-path="url(#clip-path)">
    <path id="Path_921" data-name="Path 921" d="M212.959,3.723C195.088-.073,180.973-.534,170.241.436c-19.412,1.749-28.015,8.125-28.015,8.125a2.118,2.118,0,0,0-.6.652c-4.017,6.788-6.987,15.351-9.323,24.922-2.895,11.849-4.836,25.261-6.751,38.685a2.2,2.2,0,0,0,1.822,2.478,189.08,189.08,0,0,0,35.5,2.83c6.672-.185,31.8-3.533,36.558-6.922a6.629,6.629,0,0,0,2.053-2.493c2.726-5.061,6.92-17.283,10.1-29.679,2.693-10.456,4.66-21.024,4.583-27.452a13.509,13.509,0,0,0-.884-5.295,3.449,3.449,0,0,0-2.427-2.11ZM197.022,68.006a1.829,1.829,0,0,0-.239.06,116.135,116.135,0,0,1-34.017,5.752,181.119,181.119,0,0,1-32.548-2.52c1.8-12.555,2.931-24.255,5.639-35.35a95.843,95.843,0,0,1,9.31-24.063c1.712-1.095,9.75-5.709,25.474-7.289,10.423-1.048,24.154-.777,41.579,2.69l.095-.451c.238.051.361.294.485.587a6.006,6.006,0,0,1,.39,1.617c.441,3.426-.364,9.2-1.768,15.837-3.073,14.509-9.162,33.061-12.97,40.722a23.45,23.45,0,0,1-1.43,2.409" transform="translate(-78.029 0)" fill="#1c3260" fill-rule="evenodd"/>
    <path id="Path_922" data-name="Path 922" d="M48.4,195.29c-10.709,1.963-18.191,3.6-23,6-4.262,2.112-6.629,4.828-7.571,8.563-.719,2.845-.537,6.382.505,10.889,1.292,5.585,3.937,12.79,7.6,22.3,3.688,9.546,6.268,17.675,6.144,25.161-.11,6.733-1.387,14.847-4.1,18.741-4.855,6.969-14.776,6.284-25.845-1.092a1.356,1.356,0,1,0-1.55,2.226c12.846,9.4,23.441,7.614,29.473-.562,3.231-4.376,3.32-10.685,3.509-18.408a72.958,72.958,0,0,0-5.044-27.62c-3.556-9.273-6.433-16.995-7.7-22.425-.864-3.667-1.131-6.527-.569-8.854.623-2.569,2.345-4.341,5.245-5.855,4.542-2.364,12.5-5,22.656-7.115.99-.191,2.578.476,2.387-.505A1.824,1.824,0,0,0,48.4,195.29" transform="translate(0 -121.367)" fill="#1c3260" fill-rule="evenodd"/>
    <path id="Path_923" data-name="Path 923" d="M48.259,330.778C28.2,344.4,29.978,358.137,36.145,357.451c3.937-.436,10-6.784,13.9-22.363,8.171,9.828,13.906,15.211,17.782,16.308,3.73,1.054,5.854-1.891,1.513-6.976-3.857-4.5-13.984-10.242-19.317-14.792-2.276-1.371-.328.133-1.766,1.151m-.057,2.236a134.4,134.4,0,0,1-5.937,14.592,27.028,27.028,0,0,1-2.931,4.77c-4.024,4.941-6.18.9-3.01-4.852,2.577-4.667,7.814-11.948,11.878-14.509m3.271.047a129.239,129.239,0,0,1,12.454,9.427c8.334,7.378,4.885,9.732-2.874,2.71-7.8-6.441-9.373-11.861-9.58-12.136" transform="translate(-19.869 -204.548)" fill="#1c3260" fill-rule="evenodd"/>
    <path id="Path_924" data-name="Path 924" d="M19.567,247.84C-.493,261.461,1.285,275.2,7.45,274.512c3.938-.437,10-6.784,13.9-22.363,8.172,9.828,13.906,15.209,17.784,16.306,3.729,1.054,5.853-1.89,1.511-6.974-3.857-4.506-13.982-10.245-19.317-14.792-2.276-1.371-.329.132-1.765,1.151m-.059,2.236a134.187,134.187,0,0,1-5.938,14.592,27.074,27.074,0,0,1-2.928,4.767c-4.024,4.943-6.182.9-3.011-4.851,2.576-4.666,7.818-11.949,11.878-14.508m3.271.045a130.125,130.125,0,0,1,12.457,9.427c8.331,7.378,4.882,9.735-2.877,2.711-7.8-6.442-9.373-11.861-9.58-12.138" transform="translate(-2.035 -152.995)" fill="#1c3260" fill-rule="evenodd"/>
    <path id="Path_925" data-name="Path 925" d="M82.559,178.905C62.534,165.23,50.4,171.919,53.3,177.4c1.851,3.5,9.98,6.822,25.9,4.742-6.147,11.206-9.055,18.514-8.654,22.521.385,3.858,3.9,4.753,7.044-1.148,2.777-5.24,4.407-16.764,6.685-23.4.44-2.618-.243-.256-1.719-1.219m-2.1.763a133.812,133.812,0,0,1-15.75-.175,26.9,26.9,0,0,1-5.511-.982c-6.073-1.93-3.1-5.419,3.41-4.576,5.285.688,13.983,2.892,17.851,5.733m1.156,3.063a130.078,130.078,0,0,1-4.206,15.044c-3.811,10.455-7.265,8.11-3.576-1.687,3.136-9.613,7.6-13.065,7.782-13.357" transform="translate(-32.866 -106.193)" fill="#1c3260" fill-rule="evenodd"/>
    <path id="Path_926" data-name="Path 926" d="M214.188,12.354a1.268,1.268,0,1,1,1.628,1.944c-8.8,7.363-87.235,68.042-87.46,68.216a1.269,1.269,0,0,1-1.558-2c.227-.175,78.628-60.829,87.39-68.155" transform="translate(-78.511 -7.495)" fill="#1c3260" fill-rule="evenodd"/>
    <path id="Path_927" data-name="Path 927" d="M169.1,25.711a1.27,1.27,0,1,1,1.08-2.3c41.719,19.468,54.972,63.021,55.012,63.148a1.27,1.27,0,0,1-2.425.759C222.723,87.2,209.792,44.7,169.1,25.711" transform="translate(-104.652 -14.478)" fill="#1c3260" fill-rule="evenodd"/>
    <path id="Path_928" data-name="Path 928" d="M99.365,19.817a1.271,1.271,0,0,1-.864,2.391c-8.643-3.1-10.223-2.349-17.952,1.344-1.1.525-2.314,1.107-3.693,1.747-12.231,5.678-16.694,1.232-19.845-1.907l-.046-.046a1.269,1.269,0,0,1,1.786-1.8l.047.046C61.433,24.211,65.162,27.928,75.79,23c1.353-.629,2.569-1.209,3.664-1.732,8.522-4.074,10.268-4.91,19.912-1.447" transform="translate(-35.175 -10.97)" fill="#1c3260" fill-rule="evenodd"/>
    <path id="Path_929" data-name="Path 929" d="M84.616,25.733a1.272,1.272,0,0,1-.588,2.476c-3.067-.728-7.584-.132-12.146,2.012A28.141,28.141,0,0,0,61.148,39.1C53.688,49.344,32.491,43.9,32.43,43.89a1.272,1.272,0,0,1,.619-2.468c.056.015,19.61,5.023,26.045-3.813a30.643,30.643,0,0,1,11.7-9.679c5.1-2.4,10.249-3.044,13.819-2.2" transform="translate(-19.56 -15.775)" fill="#1c3260" fill-rule="evenodd"/>
    <path id="Path_930" data-name="Path 930" d="M282.3,183.15a1.269,1.269,0,1,1,2.537.034c-.116,10.24-1.5,11.586-8.293,18.152-.816.791-1.72,1.666-2.9,2.831-8.332,8.245-6.154,13.032-4.612,16.412l.025.059a1.267,1.267,0,0,1-2.3,1.054l-.03-.06c-1.845-4.049-4.455-9.787,5.128-19.268.962-.952,1.994-1.95,2.923-2.849,6.158-5.959,7.416-7.18,7.524-16.365" transform="translate(-164.684 -113.064)" fill="#1c3260" fill-rule="evenodd"/>
    <path id="Path_931" data-name="Path 931" d="M255.186,179.452a1.269,1.269,0,1,1,2.517.321c-.45,3.639-2.846,8.236-6.87,12.177a30.684,30.684,0,0,1-13.152,7.6c-10.533,2.952-12.653,23.021-12.657,23.079a1.269,1.269,0,1,1-2.523-.276c0-.062,2.3-21.831,14.494-25.251a28.1,28.1,0,0,0,12.063-6.96c3.6-3.531,5.739-7.559,6.129-10.69" transform="translate(-138.296 -110.853)" fill="#1c3260" fill-rule="evenodd"/>
  </g>
</svg>
