<svg xmlns="http://www.w3.org/2000/svg" xmlns:xlink="http://www.w3.org/1999/xlink" width="363.277" height="353.802" viewBox="0 0 363.277 353.802">
  <defs>
    <clipPath id="clip-path">
      <rect id="Rectangle_755" data-name="Rectangle 755" width="351.565" height="341.741" fill="none"/>
    </clipPath>
  </defs>
  <g id="Tibi_figura02_header" data-name="Tibi figura02_header" transform="translate(11.927) rotate(2)">
    <g id="Group_78" data-name="Group 78" clip-path="url(#clip-path)">
      <path id="Path_551" data-name="Path 551" d="M358.311,280.286c-29.312,24.08-71.745,20.874-94.776-7.161s-17.939-70.283,11.373-94.363,71.745-20.874,94.776,7.161,17.939,70.283-11.373,94.363" transform="translate(-119.945 -78.294)" fill="#fff" fill-rule="evenodd"/>
      <path id="Path_552" data-name="Path 552" d="M243.911,336.457c-.507.007-6.165-.513-6.561-.687-5.028,1.79-16.631-.424-22.332-2.575-22.168-8.364-31.147-29.744-37.418-50.527-.586-1.948-1.075-3.655-1.739-5.65-.31-.934-.707-1.912-1.071-2.824-2.9-7.29,6.232-6.39-.326-12.56-1.521.547-2.593,0-5.65,1.54a55.545,55.545,0,0,0-5.865,3.478c-4.208,2.811-8.138,5.5-12.275,8.577-7.976,5.931-15.772,11.826-23.935,17.632-22.508,16.011-22.559,17.145,4.784,39.674A382.962,382.962,0,0,1,172.337,372.1c5.678,6.3,14.084,16.535,20.281,21.232,8.018,6.079,16.518,2.672,16.813-7.411,1.934-1.28,3.156-1.053,5.314-2.291,6.438-3.693,10.661-10.867,14.738-13.762.311-1.591,10.775-13.79,12.8-16.445,4.987-6.54,9.055-10.7,1.628-16.969" transform="translate(-53.155 -125.975)" fill="#008cd1" fill-rule="evenodd"/>
      <path id="Path_553" data-name="Path 553" d="M121.826,157.074c-.055,1.9-1.51,5.48-2.035,7.536a63.517,63.517,0,0,0-1.41,7.718,56.338,56.338,0,0,0,.412,15.328c4.984,33.011,36.731,50.324,68.648,51.964,2.393.122,5.478-.607,7.574.454l-44.834,43.994a16.376,16.376,0,0,1-1.358-1.115l-9.872-8.442c-3.744-3.283-7.332-6.708-10.959-10.011l-65.6-59.464Zm36.95-96.49c.144,8.425-3.091,22.094-4.824,26.491-.745,1.9-.892,3.047-1.525,4.956l-7.757,20.83c-2.766,6.618-9.64,22.279-14.12,27.653-2.764,3.316-7.776,6.126-11.17,8.563-16.39,11.773-33.232,24.871-49.315,37.19C47.618,203.459,45.386,203.1,56.076,213.254c9.194,8.734,19.288,17.427,28.027,26.44-7.78,9.359-43.1,54.422-49.6,58.887-3.682-3.9-22.591-24.15-26.161-26.673-2.834-2-7.517-1.781-8.294,2.7-.334,1.92,1.285,4.683,3.594,7.575,6.012,7.526,17.557,19.38,24.581,26.06,7.889,7.507,9.017,3.634,19.757-9.3,4.831-5.766,9.772-11.633,14.574-17.381l28.709-35.369,14.812,14.058c-15.236,16.437-33.254,34.274-49.322,50.961C49,319.256,43.6,322.273,48.209,328.879a299.925,299.925,0,0,0,24.656,29.593c3.111,3.167,6.04,5.361,9.2,3.485,3.636-2,2.67-5.783-.216-10.453-5.686-9.2-19.229-21.4-22.5-27.1l53.961-57.535c4.079,2.292,21.094,19.254,25.907,23.708,4.225,3.915,8.421,9.534,13.475,7.423,3.452-1.445,46.081-43.836,53.47-51.1,6.662-6.551,6.631-5.56,14.151-6.152,9.538-.755,19.513-1.423,28.381-1.053,10.574.443,17.688,1.135,28.035,2.346,6.367.746,20.9,3.962,27.721,5.65,5.518,1.363,7.905,3.8,13.718,4.249,9.542.729,13.344-9.006,5.9-12.7-5.638-2.795-12.759,3.809-19.8,2.332-3.529-.742-8.523-2.688-12.194-3.757a215.682,215.682,0,0,0-36.249-6.789l-24.15-1.228c6.578-4.57,11.778-6.833,18.643-12.958C279.5,190.8,283.973,149.031,264.285,116.69a72.823,72.823,0,0,0-6.937-9.548c-8.057-9.076-8-5.128-3.889,3.545,3.179,6.709,7.6,15.452,8.569,18.045,8.7,24.336,7.079,51.511-13.092,73.325-28.523,30.846-74.349,33.039-100.323,12.69-18.991-14.878-20.811-34.775-16.327-49.689,10.461-34.812,57.114-57.787,89.843-47.006A40.671,40.671,0,0,1,244.9,136c2.976,4.831,6.739,14.853,9.532,20.851,1.5,3.214,4.09,7.9,6.278,1.748,1.351-3.795.211-9.976-.365-12.794-6.931-33.895-41.27-47.487-73.917-40.111-17.19,3.884-21.334,7.37-35.732,15.6,2.935-6.3,6.092-16.484,7.879-23.17a153.574,153.574,0,0,0,4.779-23.876c.56-4.961.571-6.615,5.341-11.6,3.7-3.866,5.475-7.534,4.829-11.739-.773-5.008-5.651-8.65-10.056-7.13-7.737,2.672-4.79,11.315-4.7,16.81" transform="translate(0 -20.909)" fill="#0d274d" fill-rule="evenodd"/>
      <path id="Path_554" data-name="Path 554" d="M530.5,412.551c-5.637-2.8-12.759,3.809-19.8,2.332-3.529-.742-8.523-2.688-12.194-3.757a215.627,215.627,0,0,0-36.249-6.789l-19.127-.973c-4.908,3.207-9.442,6.957-14.189,10.391l-.205.147a230.764,230.764,0,0,1,26.394-.9c10.573.443,17.688,1.135,28.034,2.346,6.367.746,20.9,3.963,27.722,5.65,5.517,1.364,7.9,3.8,13.718,4.25,9.542.729,13.344-9.006,5.9-12.7" transform="translate(-206.433 -194.217)" fill="#0d274d" fill-rule="evenodd"/>
      <path id="Path_555" data-name="Path 555" d="M245.294,143.659q1.06-.563,2.1-1.164a1.053,1.053,0,0,1,.474-1.062c7.973-5.724,13.437-14.147,21.015-20.3,2.915-6.31,6.035-16.383,7.808-23.014a153.58,153.58,0,0,0,4.779-23.876c.559-4.962.571-6.615,5.341-11.6,3.7-3.867,5.475-7.534,4.829-11.739-.773-5.008-5.651-8.65-10.056-7.13-7.737,2.673-4.79,11.315-4.7,16.81.144,8.425-3.091,22.094-4.824,26.491-.745,1.9-.892,3.047-1.525,4.956l-7.757,20.83c-2.767,6.618-9.639,22.279-14.12,27.653a22.087,22.087,0,0,1-3.364,3.144" transform="translate(-118.108 -20.909)" fill="#0d274d" fill-rule="evenodd"/>
      <path id="Path_556" data-name="Path 556" d="M251.506,302.234a1.323,1.323,0,0,1,.983-1.375c.2-.053.4-.115.593-.173,5.159-5.021,6.076-5.117,10.706-5.384,1.4-.945,2.772-1.929,4.112-2.909,3.681-2.692,7.248-5.556,10.98-8.18l-.883-.045c6.578-4.57,11.778-6.833,18.643-12.958C325.823,245.172,330.3,203.4,310.61,171.058a72.824,72.824,0,0,0-6.937-9.548c-8.057-9.076-8-5.128-3.889,3.545,3.18,6.709,7.6,15.452,8.569,18.045,8.7,24.336,7.079,51.511-13.092,73.325-28.523,30.846-74.349,33.039-100.323,12.69-18.991-14.878-20.811-34.775-16.326-49.688,10.46-34.812,57.113-57.787,89.843-47.006a40.668,40.668,0,0,1,22.775,17.951c2.976,4.831,6.739,14.853,9.532,20.851,1.5,3.214,4.09,7.9,6.278,1.748,1.351-3.794.211-9.976-.365-12.793-6.931-33.9-41.27-47.487-73.917-40.111a94.535,94.535,0,0,0-15.49,4.648c-23.413,7.612-49.714,38.174-49.991,37.645-.55.37-1.08.733-1.573,1.087-16.389,11.772-33.232,24.87-49.315,37.19C93.943,257.826,91.711,257.47,102.4,267.621c7.114,6.758,14.764,13.492,21.91,20.367.124-.11,7.622,7.43,16.343,15.48,11.443,10.564,24.833,22.363,24.841,22.495,6.735,6.027,16.572,15.763,20.046,18.979,4.225,3.915,8.421,9.534,13.476,7.423,3.322-1.391,42.927-40.7,52.489-50.133m-56.357,35.085-9.872-8.442c-3.744-3.283-7.332-6.708-10.959-10.01l-65.6-59.465,59.437-47.961c-.054,1.9-1.51,5.48-2.035,7.536a63.522,63.522,0,0,0-1.41,7.718,56.358,56.358,0,0,0,.412,15.328c4.984,33.011,36.732,50.324,68.648,51.964,2.393.122,5.478-.607,7.574.454l-44.834,43.994a16.457,16.457,0,0,1-1.358-1.115" transform="translate(-46.325 -75.276)" fill="#0d274d" fill-rule="evenodd"/>
      <path id="Path_557" data-name="Path 557" d="M81.846,532.766c-5.686-9.2-19.229-21.4-22.5-27.1l53.257-56.784q-1.566-1.794-3.128-3.592c-4.737-5.435-22.206-22.656-26.429-25.408.352.358.706.715,1.054,1.074-7.78,9.358-43.1,54.422-49.6,58.887-3.681-3.9-22.591-24.15-26.161-26.673-2.834-2-7.517-1.781-8.294,2.7-.334,1.92,1.285,4.683,3.594,7.575,6.012,7.527,17.557,19.38,24.581,26.06,7.889,7.507,9.017,3.634,19.757-9.3,4.831-5.767,9.772-11.633,14.574-17.382l28.709-35.369,14.812,14.058c-15.236,16.437-33.254,34.274-49.322,50.961C49,500.518,43.6,503.535,48.209,510.141a299.981,299.981,0,0,0,24.656,29.593c3.111,3.167,6.04,5.361,9.2,3.485,3.636-2,2.67-5.784-.216-10.453" transform="translate(0 -202.17)" fill="#0d274d" fill-rule="evenodd"/>
      <path id="Path_558" data-name="Path 558" d="M354.6,261.033c-21.086-20.725-19.8-49.541-21.4-60.966-.629-4.5-1.88-5.879-3.587-.833-2.874,8.508-.608,25.692,1.026,33.071,3.367,15.322,8.808,24.884,20.885,37.807-7.692,5.168-29.479,7.989-36.646,8.1-35.061.544-48.784-21.927-27.063-48.517,12.044-14.748,27.966-20.126,33.312-24.458,2.241-1.817,2.541-3.6-.127-5.162-3.893-2.274-10.245,1.741-14.166,3.8a86.874,86.874,0,0,0-17,11.732c-37.3,32.864-21.07,71.609,21.064,71.15a106.94,106.94,0,0,0,32.29-4.815c31.12-9.646,18.274-14.161,11.414-20.905" transform="translate(-129.509 -94.384)" fill="#0d274d" fill-rule="evenodd"/>
      <path id="Path_559" data-name="Path 559" d="M586.782,343.856c5.082-.605,1.554-5.869-1.919-7.872-5.405-3.112-23.686-9.356-28.549-9.361-7.313-.005-.443,5.649,2.082,7.04a90.371,90.371,0,0,0,9.4,4.288c3.189,1.307,6.171,2.489,9.456,3.641,2.264.791,8.263,2.415,9.529,2.265" transform="translate(-266.287 -157.267)" fill="#036" fill-rule="evenodd"/>
      <path id="Path_560" data-name="Path 560" d="M616.826,207.2c.751-.229,1.484-.471,2.162-.668,5.186-1.51,27.839-9.3,26.4-15.014-1.309-5.185-21.329,3.289-30.878,10.219-6.119,4.438-5.539,7.837,2.313,5.463" transform="translate(-293.892 -91.445)" fill="#036" fill-rule="evenodd"/>
      <path id="Path_561" data-name="Path 561" d="M457.009,2.311c-1.706,2.826-1.4,20.711.5,26.691,1.02,3.219,4.593,7.7,6.209,2.221.936-3.175.069-13.44.455-17.662,1.508-16.4-5.037-14.763-7.16-11.251" transform="translate(-219.509 0)" fill="#036" fill-rule="evenodd"/>
      <path id="Path_562" data-name="Path 562" d="M558.072,115.9c8.605-6.645,23.434-23.055,16.784-25.44-3.778-1.357-11.895,9.223-14.466,12.272-1.949,2.308-4.943,5.428-6.669,8.521-2.86,5.118-1.651,9.284,4.351,4.647" transform="translate(-265.902 -43.498)" fill="#036" fill-rule="evenodd"/>
      <path id="Path_563" data-name="Path 563" d="M423.066,217.813c11.591-4.66,5.972-16.475-6.035-12.14-10.845,3.913-6.316,17.107,6.035,12.14" transform="translate(-197.851 -98.578)" fill="#0d274d" fill-rule="evenodd"/>
      <path id="Path_564" data-name="Path 564" d="M442.737,258.975c11.085-4.324,5.934-14.822-4.456-11.56-10.11,3.172-6.15,15.7,4.456,11.56" transform="translate(-208.211 -118.832)" fill="#0d274d" fill-rule="evenodd"/>
      <path id="Path_565" data-name="Path 565" d="M202,374.336a1.678,1.678,0,0,1,1.237.12,4.609,4.609,0,0,1,.1-1.91c.023-.084.047-.167.075-.25-.484.241-.825.419-1.088.557-.3.158-.444.236-.5.261-1.645.816-1.907.66-3.956-.57-.058-.035.171.1-.636-.375l-.348-.206q-.327.257-.64.534a6.4,6.4,0,0,0-2.159,3.124,2.27,2.27,0,0,0,.318,1.918c.021.03.061.077.118.141a2.581,2.581,0,0,0,1.569.865,2.531,2.531,0,0,0,1.558-.332c.356-.44.974-1.152,1.645-1.837a13.672,13.672,0,0,1,1.663-1.478,2.948,2.948,0,0,1,1.042-.562m4.3,7.449h0a18.109,18.109,0,0,1,2.537-2.812,6.366,6.366,0,0,1-1.32-.178,6.2,6.2,0,0,1-.791-.249,1.8,1.8,0,0,1-.271,1.628,1.723,1.723,0,0,1-.269.292,11.379,11.379,0,0,0-2.558,2.72,1.624,1.624,0,0,0-.129,1.669,2.2,2.2,0,0,0,.665.748,18.2,18.2,0,0,1,2.136-3.817M198.06,362.4h0a27.7,27.7,0,0,1,3.466-1.157c1.109-.287,3.743.813,5.188,2.017a5.064,5.064,0,0,1,.957,1.021,2.138,2.138,0,0,1,.387,1.716,2.052,2.052,0,0,1-1.644,1.518c-.974.261-1.892.556-2.749.871-.122.045-.243.09-.362.136a11.854,11.854,0,0,1,1.009.772,2.055,2.055,0,0,1,.6.808c.112-.092.229-.181.351-.266a5.482,5.482,0,0,1,.678-.408,6.1,6.1,0,0,1,4.16-.438,5.873,5.873,0,0,1,3.445,2.3,5.214,5.214,0,0,1,.389.649,4.662,4.662,0,0,1,.347,3.3q-.044.163-.1.321a11.846,11.846,0,0,1,2.51-.75,7.064,7.064,0,0,1,5.535,1.129l0,0c.081.058.159.117.232.179.09.075.167.146.23.208a4.566,4.566,0,0,1,.349.395,5.107,5.107,0,0,1,1.048,3.822,8.259,8.259,0,0,1-2.636,4.814,15.715,15.715,0,0,1-1.3,1.156c-.679.542-1.417,1.073-2.2,1.578a5.193,5.193,0,0,1,3.231,5.162l.006,0a12.822,12.822,0,0,1,1.858-.9,1.849,1.849,0,0,1,2.074.5,4.812,4.812,0,0,1,.124-1.285,5.04,5.04,0,0,1,2.051-2.982c.134-.093.272-.182.414-.262a5.794,5.794,0,0,1,4.1-.618,5.624,5.624,0,0,1,3.44,2.259c.093.134.178.269.254.4a4.905,4.905,0,0,1,.53,3.563,5.036,5.036,0,0,1-2.051,2.981q-.2.141-.414.262a5.83,5.83,0,0,1-6.4-.443,1.627,1.627,0,0,1-.927,1.895c-.074.036-.151.074-.227.113l0,0a9.575,9.575,0,0,0-2.386,1.678c-.489.508-.819,1.077-.581,1.573l.011.024,0,0A2.087,2.087,0,0,0,224.3,403.1a4.588,4.588,0,0,0,2.45-.019,2.006,2.006,0,0,1,1.765.259,1.708,1.708,0,0,1,.7,1.321,2.659,2.659,0,0,1-.163,1.043,4.623,4.623,0,0,1-2.106,2.411,7.758,7.758,0,0,1-4.9.652,8.161,8.161,0,0,1-4.381-2.45,7.766,7.766,0,0,1-2.19-4.861,7.014,7.014,0,0,1,.345-2.583,8.872,8.872,0,0,1-2.927.8,8.628,8.628,0,0,1-4.444-.783,9.306,9.306,0,0,1-5.155-6.539,10.2,10.2,0,0,1-2.228-.616,9.109,9.109,0,0,1-2.785-1.764,8.974,8.974,0,0,1-2.171-3.218,7.144,7.144,0,0,1-.452-1.792,8.189,8.189,0,0,1-3.067-.631,10.187,10.187,0,0,1-4.1-3.115,10.721,10.721,0,0,1-1.915-3.644,8.489,8.489,0,0,1-.331-2.524c-1.934-.335-1.905-.983-1.84-2.458,0-.094.009-.2.01-.327l.011-1.679,0-.053a2.139,2.139,0,0,1,.317-1.076,1.77,1.77,0,0,1,1.889-.827v0l2.134.182q.376-.457.8-.895l.01-.01c-1.258-.608-2.113-1.052-1.817-2.337a2.957,2.957,0,0,1,1.443-1.535,18.887,18.887,0,0,1,2.108-1.1,2.933,2.933,0,0,1,1.849-.171,9.1,9.1,0,0,1,1.964.756c.08.039.172.085.273.139a29.308,29.308,0,0,1,2.672-1.25" transform="translate(-88.777 -173.915)" fill="#004288" fill-rule="evenodd"/>
      <path id="Path_566" data-name="Path 566" d="M203.09,364.313a27.5,27.5,0,0,0-6.482,2.641c-.387-.219-.684-.38-.851-.46-1.512-.721-2-.84-2.721-.553-.5.2-2.645,1.3-2.732,1.678-.08.347.778.652,1.848,1.2.22.113.558.295.974.522a14.926,14.926,0,0,0-2.513,2.634l-2.943-.251c-.61-.084-.653.418-.663.616L187,374.019c-.007.991-.253,1.339,1.155,1.521l.793.139a7.958,7.958,0,0,0,1.846,6.461c1.774,2.266,4.818,3.746,7.494,3.057-.422,2.051.833,4.312,2.154,5.54a8.362,8.362,0,0,0,5.271,2.14,7.665,7.665,0,0,0,12.417,5.538,3.3,3.3,0,0,0,1.313.563,6.021,6.021,0,0,0,.45,8.178,6.555,6.555,0,0,0,7.709,1.507c1.278-.617,2.259-2.911.716-2.514-1.308.336-4.022.611-5.22-1.743-1.255-2.463,2.518-4.606,3.807-5.23.469-.227-.109-1.42-.634-2.353-.534-.948-1.021-1.633-1.513-1.448a15.258,15.258,0,0,0-2.21,1.127,4.528,4.528,0,0,1-1.621-.828,3.7,3.7,0,0,0-6.433-3.384,2.446,2.446,0,0,0,.541,3.388c-1.993,1.286-5.165-.7-4.748-3.337a27.906,27.906,0,0,0,10.263-5.118c4.489-3.589,3.815-6.775,2.418-8.176a2.285,2.285,0,0,0-.3-.252c-2.366-1.715-5.915-1.314-10.251,1.774A16.745,16.745,0,0,0,206.2,389.1a3.592,3.592,0,0,1-2.657-1.822c-1.1-1.982.472-3.96,3.006-6.086.726-.608-1.807-3.131-2.478-3.63-.411-.306-.6-.168-1.1.19A20.534,20.534,0,0,0,199.787,381a3.792,3.792,0,0,1-5.05-.661c-1.505-1.7-1.286-4.841,2.87-7.918.133-.1.278-.2.434-.31.406.235.786.456,1.12.654,2.091,1.234,2.189,1.449,3.3.9.227-.112,1.027-.542,1.611-.832s.886-.484.567-.768a30.2,30.2,0,0,0-2.94-2.035,33.091,33.091,0,0,1,5.61-2.058c2.579-.692-2.867-4.009-4.218-3.659m10.584,9.521h0a3.38,3.38,0,0,1-1.367,5.078,4.771,4.771,0,0,1-5.895-1.437,3.379,3.379,0,0,1,1.367-5.078,4.771,4.771,0,0,1,5.895,1.437m21.7,18.674h0a3.6,3.6,0,0,1-1.237,5.264,4.445,4.445,0,0,1-5.766-1.25,3.6,3.6,0,0,1,1.237-5.264,4.445,4.445,0,0,1,5.766,1.25m-24.22-4.019h0c.455-1.425,2.43-3.747,4.525-5.31,1.381-1.029,2.837-1.673,3.4-1.1.518.527-.914,2.011-2.943,3.58a16.021,16.021,0,0,1-4.986,2.825" transform="translate(-90.028 -175.402)" fill="#00afec" fill-rule="evenodd"/>
      <path id="Path_567" data-name="Path 567" d="M202.935,363.323a27.535,27.535,0,0,0-6.482,2.641c-.387-.219-.684-.38-.851-.46-1.512-.721-2-.84-2.721-.553-.5.2-2.645,1.3-2.732,1.678-.08.347.778.652,1.848,1.2.22.113.558.3.975.522a14.907,14.907,0,0,0-2.514,2.633l-2.943-.251c-.61-.085-.653.418-.663.616l-.011,1.679c-.007.991-.253,1.339,1.155,1.521l.793.139a7.961,7.961,0,0,0,1.846,6.461c1.774,2.266,4.818,3.746,7.494,3.057-.422,2.051.833,4.313,2.154,5.54a8.359,8.359,0,0,0,5.27,2.14,7.665,7.665,0,0,0,12.418,5.538,3.291,3.291,0,0,0,1.313.563,6.022,6.022,0,0,0,.451,8.178,6.555,6.555,0,0,0,7.709,1.507c1.277-.617,2.258-2.911.716-2.514-1.309.336-4.023.611-5.221-1.743-1.255-2.463,2.518-4.607,3.807-5.23.469-.227-.109-1.42-.634-2.353s-1.021-1.633-1.513-1.448a15.265,15.265,0,0,0-2.21,1.127,4.533,4.533,0,0,1-1.621-.828,3.7,3.7,0,0,0-6.433-3.385,2.447,2.447,0,0,0,.541,3.389c-1.993,1.286-5.165-.7-4.748-3.337a27.9,27.9,0,0,0,10.263-5.118c4.489-3.588,3.816-6.775,2.417-8.175a2.174,2.174,0,0,0-.3-.252c-2.366-1.716-5.914-1.314-10.251,1.774a16.743,16.743,0,0,0-6.209,8.525,3.591,3.591,0,0,1-2.656-1.822c-1.1-1.982.472-3.96,3.005-6.085.726-.609-1.807-3.132-2.478-3.63-.411-.306-.6-.168-1.1.19a20.533,20.533,0,0,0-3.184,3.249,3.792,3.792,0,0,1-5.05-.661c-1.505-1.7-1.286-4.841,2.87-7.917.134-.1.278-.2.435-.31.405.235.786.456,1.12.654,2.091,1.234,2.188,1.449,3.3.9.227-.112,1.027-.542,1.611-.832s.887-.484.568-.768a30.045,30.045,0,0,0-2.94-2.035,33.079,33.079,0,0,1,5.61-2.058c2.579-.692-2.867-4.009-4.217-3.66m10.583,9.521h0a3.38,3.38,0,0,1-1.366,5.078,4.771,4.771,0,0,1-5.9-1.437,3.379,3.379,0,0,1,1.366-5.078,4.772,4.772,0,0,1,5.9,1.436m21.705,18.675h0a3.6,3.6,0,0,1-1.237,5.264,4.445,4.445,0,0,1-5.766-1.25,3.6,3.6,0,0,1,1.237-5.264,4.446,4.446,0,0,1,5.766,1.251M211,387.5h0c.455-1.424,2.43-3.748,4.525-5.309,1.38-1.029,2.837-1.673,3.4-1.1.518.527-.914,2.011-2.943,3.58A16.019,16.019,0,0,1,211,387.5" transform="translate(-89.953 -174.926)" fill="#fff" fill-rule="evenodd"/>
    </g>
  </g>
</svg>
