<svg xmlns="http://www.w3.org/2000/svg" xmlns:xlink="http://www.w3.org/1999/xlink" width="276.749" height="247.289" viewBox="0 0 276.749 247.289">
  <defs>
    <clipPath id="clip-path">
      <rect id="Rectangle_822" data-name="Rectangle 822" width="234" height="147.895" fill="none"/>
    </clipPath>
  </defs>
  <g id="Világoskék_nyíl" data-name="Világoskék nyíl" transform="translate(0 120.519) rotate(-31)">
    <g id="Group_999" data-name="Group 999" transform="translate(0 0)" clip-path="url(#clip-path)">
      <path id="Path_691" data-name="Path 691" d="M233.278,43.866c-1.984-14.552-7.842-30.717-21.458-38.111S179.812-.528,165.049,1.54C131.93,6.175,97.214,30.916,103.976,68.353c.171.944,1.546.526,1.418-.391C98.652,20.27,153.119.494,191.609,3.938c51.452,4.6,45.091,74.142,18.109,102.4-25.256,26.441-66.184,36.4-101.553,37.251-36.316.87-72.272-8.951-101.817-30.322a161.871,161.871,0,0,1,34.664,6.131c2.345.682,3.346-2.972,1.006-3.653a165.513,165.513,0,0,0-40.173-6.5,1.911,1.911,0,0,0-1.633,2.844q2.022,4.12,4.046,8.237A62.787,62.787,0,0,0,13.6,139.345a1.891,1.891,0,0,0,3.262-1.908q-4.525-9.215-9.046-18.428c-.017-.057-.034-.112-.049-.167,53.611,36.5,135.137,39.913,189.376,2.782,25.543-17.486,40.384-46.606,36.136-77.758" transform="translate(0 0.001)" fill="#16a5da"/>
    </g>
  </g>
</svg>
